<svg width="160" height="161" viewBox="0 0 160 161" fill="none" xmlns="http://www.w3.org/2000/svg">
<g clip-path="url(#clip0_609_534)">
<rect y="0.5" width="160" height="160" rx="16" fill="#CBDBD7"/>
<path d="M189.856 125.028C189.856 124.096 188.302 105.342 172.639 94.496C153.994 81.5994 130.22 88.4361 117.479 101.123C115.08 103.48 112.86 106.012 110.836 108.698C105.815 115.59 102.056 123.318 99.7345 131.523C96.0674 143.954 97.7378 149.035 93.2784 159.158C90.1241 166.306 87.1175 168.691 85.1674 169.802C84.1808 170.361 82.6736 171.13 80.1175 172.614C78.1449 173.758 76.2666 175.057 74.5005 176.499C77.7149 177.711 81.0442 178.593 84.4371 179.132C87.4957 179.572 90.5855 179.756 93.6746 179.684C99.8264 179.776 105.907 178.362 111.388 175.566C120.921 170.54 125.73 161.768 128.076 155.522C133.125 160.082 139.326 163.172 146.007 164.457C163.146 167.789 179.647 158.979 185.948 144.156C188.746 138.179 190.085 131.624 189.856 125.028Z" fill="#BC9C86"/>
<path d="M32.5864 118.868C30.512 117.531 21.1658 111.79 15.3779 114.657C12.7985 115.931 12.48 119.901 13.2802 122.511C14.5544 126.66 19.3556 128.346 26.2701 130.669C32.4854 132.743 41.8083 133.295 44.4109 133.38C48.7461 133.528 39.2367 123.109 32.5864 118.868Z" fill="#CBAC92"/>
<path d="M91.8954 117.213C87.0242 114.338 78.4005 112.435 71.3151 112.396C64.2297 112.357 55.6837 114.136 50.8513 116.933C40.8836 122.682 34.4353 135.773 34.8703 155.833C35.3676 178.899 50.4784 183.358 71.0199 183.739C91.7167 184.128 107.146 180.189 107.791 156.843C108.342 136.565 102.018 123.195 91.8954 117.213Z" fill="#CBAC92"/>
<path d="M50.1988 180.476C54.4423 182.06 58.8891 183.033 63.4062 183.366C65.364 183.475 67.2907 183.561 68.8445 183.638C73.3076 183.836 77.7789 183.748 82.2307 183.374C80.5523 177.91 79.7166 172.223 79.7523 166.507C79.8222 161.978 79.931 158.824 78.3694 154.714C77.338 151.747 75.5931 149.079 73.2885 146.945C70.3871 144.383 66.6843 142.91 62.8157 142.781C61.0055 142.664 54.3941 142.353 48.9324 146.883C46.8233 148.643 45.1485 150.865 44.0379 153.378C43.188 155.466 42.7196 157.689 42.655 159.943C42.655 159.943 41.6139 168.76 45.3042 175.403C46.3712 176.975 47.5472 178.471 48.8236 179.878L50.1988 180.476Z" fill="#F8EFDC"/>
<path d="M47.9458 9.51033C54.938 9.76671 60.3064 15.9276 59.9258 23.2694C59.5451 30.6111 53.5551 36.3369 46.5629 36.0495C39.5708 35.762 34.2567 29.5934 34.6374 22.2827C35.0181 14.972 40.9692 9.22287 47.9458 9.51033Z" fill="#CBAC92"/>
<path d="M47.6274 15.5317C48.5533 15.5887 49.4586 15.8294 50.2906 16.2397C51.1225 16.65 51.8646 17.2218 52.4734 17.9217C53.0822 18.6217 53.5457 19.4357 53.8368 20.3166C54.1279 21.1974 54.2408 22.1273 54.1689 23.0522C54.116 24.9426 53.3209 26.7361 51.9556 28.0447C50.5903 29.3533 48.7647 30.0716 46.8738 30.0443C45.9492 29.9854 45.0456 29.7432 44.2154 29.332C43.3852 28.9208 42.645 28.3488 42.0378 27.6491C41.4306 26.9493 40.9685 26.1359 40.6784 25.2561C40.3883 24.3762 40.2759 23.4475 40.3477 22.5239C40.4026 20.6369 41.1962 18.8469 42.5577 17.5391C43.9192 16.2314 45.7397 15.5105 47.6274 15.5317Z" fill="#F8EFDC"/>
<path d="M112.794 11.9035C119.95 12.1676 125.458 18.3984 125.085 25.8257C124.712 33.2529 118.59 39.0331 111.435 38.7456C104.28 38.4582 98.8334 32.2118 99.2141 24.8157C99.5948 17.4195 105.662 11.6393 112.794 11.9035Z" fill="#CBAC92"/>
<path d="M112.491 17.9865C113.434 18.0387 114.357 18.278 115.206 18.6905C116.056 19.1029 116.815 19.6803 117.439 20.3889C118.063 21.0975 118.539 21.9232 118.841 22.8179C119.143 23.7126 119.264 24.6584 119.196 25.6002C119.129 27.5187 118.31 29.334 116.916 30.6539C115.522 31.9738 113.665 32.6924 111.746 32.6545C110.804 32.6013 109.882 32.3612 109.034 31.9483C108.186 31.5353 107.429 30.9576 106.806 30.249C106.183 29.5404 105.708 28.7149 105.408 27.8208C105.107 26.9266 104.988 25.9816 105.056 25.0408C105.125 23.1256 105.943 21.3139 107.333 19.9949C108.723 18.6758 110.575 17.9547 112.491 17.9865Z" fill="#F8EFDC"/>
<path d="M77.9812 17.769C106.47 18.8489 141.75 38.9164 142.006 80.6208C142.247 118.246 112.678 136.947 71.9835 134.561C31.864 132.231 5.44911 110.703 9.38803 74.1802C13.7543 33.6645 49.7639 16.7279 77.9812 17.769Z" fill="#CBAC92"/>
<path d="M59.3818 99.5227C59.4274 101.14 60.0933 102.678 61.2417 103.817C62.3901 104.957 63.9329 105.611 65.5505 105.645C66.4426 105.855 67.373 105.839 68.2575 105.599C69.142 105.359 69.9527 104.902 70.6159 104.27C71.5973 103.208 72.1652 101.83 72.2164 100.385L66.0011 96.2441L59.3818 99.5227Z" fill="#DDB5A9"/>
<path d="M59.8324 99.6002C58.2723 99.5382 56.7765 98.9621 55.5779 97.9617C54.3793 96.9612 53.5452 95.5925 53.2053 94.0686C53.1151 93.7465 53.144 93.4027 53.2867 93.1002C53.4294 92.7977 53.6763 92.5568 53.9823 92.4216C54.1318 92.3789 54.2888 92.3691 54.4425 92.3927C54.5961 92.4163 54.7429 92.4728 54.8728 92.5584C55.0026 92.6439 55.1124 92.7565 55.1947 92.8885C55.277 93.0204 55.3299 93.1685 55.3496 93.3228C56.0022 96.2051 59.1565 97.3627 61.7125 96.7722C62.783 96.586 63.7365 95.9842 64.3652 95.0979C64.9939 94.2116 65.2468 93.1128 65.0687 92.0409L64.9367 90.4871L67.7413 90.658L67.4383 92.2118C67.1662 93.2752 67.3137 94.4025 67.8504 95.3601C68.387 96.3176 69.2716 97.0319 70.3206 97.3549C72.8456 98.2717 76.1707 97.5336 77.1496 94.7057C77.1844 94.5509 77.2524 94.4055 77.3488 94.2796C77.4453 94.1537 77.5679 94.0502 77.7083 93.9763C77.8486 93.9024 78.0034 93.8599 78.1618 93.8517C78.3202 93.8435 78.4785 93.8698 78.6258 93.9288C78.9235 94.0976 79.1507 94.3677 79.2662 94.6899C79.3817 95.0121 79.3777 95.365 79.2551 95.6846C77.7789 99.9886 73.1874 101.201 69.637 99.8876C68.1167 99.3496 66.8366 98.2897 66.0243 96.8965C65.0741 98.1707 63.6938 99.0568 62.1398 99.3904C61.3841 99.5668 60.6075 99.6374 59.8324 99.6002Z" fill="#816A55"/>
<path d="M66.3971 89.2439C68.2461 89.3527 69.6989 90.6268 69.6212 92.0796C69.5436 93.5324 67.982 94.6201 66.1252 94.5036C64.2684 94.387 62.8466 93.1207 62.9165 91.6678C62.9865 90.215 64.548 89.1429 66.3971 89.2439Z" fill="#816A55"/>
<path d="M65.799 106.523H65.4805C63.317 106.523 61.2372 105.687 59.6752 104.19C58.1132 102.693 57.1898 100.651 57.0976 98.4895C57.0935 98.3471 57.1179 98.2054 57.1695 98.0726C57.2212 97.9399 57.2989 97.8188 57.3982 97.7167C57.4974 97.6145 57.6162 97.5334 57.7474 97.4779C57.8786 97.4225 58.0196 97.394 58.162 97.394C58.4515 97.3828 58.7344 97.4828 58.9525 97.6735C59.1706 97.8642 59.3075 98.1311 59.3351 98.4196C59.4095 100.027 60.1044 101.543 61.2737 102.649C62.4431 103.754 63.9956 104.363 65.6048 104.347C66.3962 104.481 67.2063 104.457 67.9881 104.274C68.7698 104.092 69.5075 103.756 70.1582 103.286C70.8089 102.816 71.3596 102.222 71.7783 101.537C72.197 100.852 72.4753 100.091 72.5969 99.2975C72.6597 99.0149 72.8274 98.7667 73.0662 98.6031C73.305 98.4395 73.5969 98.3727 73.8831 98.4161C74.1693 98.4595 74.4283 98.6099 74.6078 98.837C74.7872 99.0641 74.8738 99.3508 74.85 99.6393C74.5489 101.746 73.4304 103.649 71.7365 104.938C70.0426 106.226 67.9096 106.795 65.799 106.523Z" fill="#816A55"/>
<path d="M36.6809 84.8938C36.2357 84.8555 35.813 84.6815 35.4698 84.3953C35.1267 84.1091 34.8796 83.7245 34.762 83.2934C34.5777 82.7174 34.6169 82.0933 34.8717 81.5449C35.1264 80.9965 35.5781 80.564 36.1371 80.3334C38.0585 79.6389 40.084 79.2764 42.127 79.2612C42.7233 79.2835 43.2864 79.5414 43.6928 79.9783C44.0992 80.4153 44.3156 80.9956 44.2946 81.592C44.3074 82.1874 44.0872 82.7642 43.6808 83.1996C43.2745 83.635 42.7142 83.8945 42.1193 83.9227C40.5322 83.9099 38.955 84.1728 37.4578 84.6996C37.2135 84.8131 36.9499 84.879 36.6809 84.8938Z" fill="#816A55"/>
<path d="M98.4683 88.4054C98.177 88.3891 97.8918 88.3152 97.6293 88.1879C96.0722 87.4554 94.4057 86.983 92.6959 86.7895C92.0682 86.7043 91.4992 86.3752 91.1124 85.8735C90.7256 85.3718 90.552 84.7379 90.6293 84.1091C90.6496 83.7957 90.733 83.4895 90.8745 83.2091C91.0161 82.9286 91.2129 82.6797 91.4531 82.4772C91.6933 82.2748 91.9719 82.1229 92.2723 82.0309C92.5726 81.9388 92.8885 81.9085 93.2009 81.9416C95.4056 82.1838 97.5553 82.7875 99.5638 83.7285C100.142 84.0125 100.588 84.5092 100.808 85.1145C101.028 85.7199 101.005 86.3869 100.745 86.9759C100.559 87.4201 100.241 87.7959 99.8333 88.0519C99.4257 88.3079 98.9489 88.4314 98.4683 88.4054Z" fill="#816A55"/>
<path d="M84.7949 30.9765C87.1722 31.2717 88.4852 29.9588 89.0135 27.527C89.3942 25.8023 90.342 22.0887 91.0568 19.5715C88.4505 18.971 85.8127 18.5171 83.1556 18.2119C82.2685 20.9544 81.6874 23.7866 81.4231 26.6569C81.2444 29.1974 82.4098 30.6735 84.7949 30.9765Z" fill="#B39175"/>
<path d="M63.5388 30.1998C65.9239 30.3318 67.2835 29.0189 67.773 26.4939C68.2624 23.969 69.3268 20.6593 70.0571 18.0023C67.5379 18.201 65.0304 18.5277 62.5444 18.9812C61.8996 21.2343 60.843 23.7592 60.7031 25.9268C60.5555 28.2653 61.1537 30.0288 63.5388 30.1998Z" fill="#B39175"/>
<path d="M80.4131 17.9401C79.6362 17.878 78.7816 17.8314 77.9736 17.8003C76.2955 17.7381 74.594 17.7381 72.8693 17.8003C71.2339 21.869 70.0991 26.1213 69.4897 30.4639C69.5674 33.2141 70.6396 34.5892 73.0635 34.6669C75.4875 34.7446 76.9481 33.4627 77.1734 30.8446C77.554 27.0222 79.3176 21.9412 80.4131 17.9401Z" fill="#B39175"/>
<path d="M112.74 118.767C114.885 117.407 124.542 111.518 130.353 114.533C132.932 115.869 133.134 119.971 132.241 122.659C130.827 126.909 125.917 128.61 118.855 130.941C112.507 133.015 103.114 133.512 100.45 133.59C96.0679 133.714 105.896 123.102 112.74 118.767Z" fill="#CBAC92"/>
<path d="M108.172 123.351C107.932 123.355 107.697 123.285 107.498 123.15C107.3 123.015 107.147 122.823 107.062 122.598C106.977 122.374 106.964 122.129 107.023 121.896C107.083 121.664 107.213 121.455 107.395 121.3C108.883 120.02 110.456 118.841 112.103 117.772C114.768 116.071 121.605 112.179 127.245 112.528C127.554 112.548 127.843 112.689 128.047 112.922C128.252 113.154 128.356 113.458 128.337 113.767C128.317 114.077 128.175 114.365 127.943 114.57C127.711 114.775 127.406 114.879 127.097 114.859C121.954 114.548 115.281 118.518 113.354 119.746C111.799 120.755 110.314 121.869 108.91 123.079C108.703 123.252 108.442 123.348 108.172 123.351Z" fill="#BC9C86"/>
<path d="M133.859 17.5C118.173 17.5 105.276 29.7441 105.005 42.0814C104.826 50.0602 109.969 56.0657 112.673 58.6994L110.233 64.4718C110.165 64.6057 110.137 64.7564 110.153 64.9058C110.168 65.0552 110.227 65.1969 110.322 65.3136C110.416 65.4303 110.542 65.5172 110.685 65.5636C110.828 65.61 110.981 65.614 111.127 65.575L120.675 63.8425C124.824 65.6753 129.307 66.6327 133.843 66.6549C149.778 66.6549 162.698 55.6539 162.698 42.0814C162.698 28.5088 149.793 17.5 133.859 17.5Z" fill="#F8EFDC"/>
<path d="M132.437 50.1376C133.432 50.1376 134.239 49.3306 134.239 48.3351C134.239 47.3397 133.432 46.5327 132.437 46.5327C131.441 46.5327 130.634 47.3397 130.634 48.3351C130.634 49.3306 131.441 50.1376 132.437 50.1376Z" fill="#CBAC92"/>
<path d="M134.511 44.4823C134.261 44.4834 134.014 44.4242 133.792 44.3096C133.57 44.195 133.378 44.0284 133.234 43.824C133.09 43.6196 132.997 43.3834 132.964 43.1355C132.931 42.8877 132.958 42.6354 133.043 42.4002L135.692 35.0429C135.753 34.8414 135.855 34.6544 135.99 34.4933C136.126 34.3323 136.293 34.2004 136.481 34.1059C136.669 34.0113 136.875 33.956 137.085 33.9433C137.295 33.9305 137.506 33.9607 137.704 34.0318C137.902 34.103 138.084 34.2137 138.238 34.3572C138.392 34.5008 138.515 34.6741 138.6 34.8668C138.685 35.0594 138.73 35.2673 138.733 35.4779C138.735 35.6885 138.694 35.8973 138.613 36.0917L135.972 43.449C135.864 43.7508 135.667 44.012 135.405 44.197C135.144 44.3819 134.831 44.4816 134.511 44.4823Z" fill="#CBAC92"/>
</g>
<defs>
<clipPath id="clip0_609_534">
<rect y="0.5" width="160" height="160" rx="16" fill="white"/>
</clipPath>
</defs>
</svg>
