<svg width="40" height="40" viewBox="0 0 40 40" fill="none" xmlns="http://www.w3.org/2000/svg">
<path d="M20.0653 38.1307C30.0425 38.1307 38.1307 30.0425 38.1307 20.0653C38.1307 10.0881 30.0425 2 20.0653 2C10.0881 2 2 10.0881 2 20.0653C2 30.0425 10.0881 38.1307 20.0653 38.1307Z" fill="#C5DCE8"/>
<mask id="mask0_397_6547" style="mask-type:luminance" maskUnits="userSpaceOnUse" x="2" y="2" width="37" height="37">
<path d="M20.0653 38.1307C30.0425 38.1307 38.1307 30.0425 38.1307 20.0653C38.1307 10.0881 30.0425 2 20.0653 2C10.0881 2 2 10.0881 2 20.0653C2 30.0425 10.0881 38.1307 20.0653 38.1307Z" fill="white"/>
</mask>
<g mask="url(#mask0_397_6547)">
<path d="M22.68 24.7534C21.6133 22.732 18.8026 21.34 15.86 21.1387C15.665 21.1247 15.4752 21.0692 15.3034 20.9759C15.1316 20.8826 14.9818 20.7537 14.8638 20.5978C14.7459 20.4419 14.6627 20.2626 14.6197 20.0719C14.5767 19.8811 14.575 19.6835 14.6146 19.492C14.84 18.3987 14.8813 17.54 15.9026 16.52C17.3893 15.0414 18.7706 15.3974 19.7693 13.72C19.8693 13.5534 20.696 12.1334 20.3693 10.6254C19.644 7.25869 13.6733 5.84269 10.208 5.64536C8.34091 5.53817 6.46874 5.73083 4.66264 6.21602C4.52531 6.25217 4.40041 6.32499 4.30131 6.42669C3.01197 7.75202 -2.47869 13.804 -0.973359 20.7774C-0.414693 23.368 1.46664 27.6947 4.41064 28.052C5.04541 28.1172 5.68618 28.0151 6.26931 27.756C6.50207 27.6622 6.75112 27.6154 7.00207 27.6182C7.25302 27.6211 7.50093 27.6737 7.73147 27.7728C7.96203 27.872 8.17066 28.0158 8.34536 28.196C8.52005 28.3762 8.65734 28.5892 8.74931 28.8227C8.86531 29.1134 8.97331 29.3427 9.04264 29.4894C10.0066 31.5294 12.1613 33.7387 14.6626 33.7214C15.2946 33.7096 15.9185 33.5779 16.5013 33.3334C18.1586 32.6307 18.0173 31.56 19.66 30.6454C20.9066 29.952 21.572 30.2454 22.4133 29.3414C22.789 28.9321 23.0631 28.4402 23.2133 27.9054C23.6 26.492 22.928 25.2214 22.68 24.7534Z" fill="#ADC667"/>
<path d="M41.1814 19.112C39.3294 16.4546 34.3294 15.0173 31.484 17.236C29.8734 18.4906 28.9134 20.9466 29.4507 22.944C30.1014 25.3786 32.5014 25.3106 32.9694 27.7893C33.3374 29.7453 32.0574 30.9133 32.928 32.7493C33.044 32.9933 33.6147 34.1986 34.4547 34.3586C37.2467 34.8906 44.7587 24.244 41.1814 19.112Z" fill="#ADC667"/>
</g>
</svg>
