<svg width="160" height="161" viewBox="0 0 160 161" fill="none" xmlns="http://www.w3.org/2000/svg">
<g clip-path="url(#clip0_609_540)">
<rect y="0.5" width="160" height="160" rx="16" fill="#CBDBD7"/>
<path d="M-54.2218 112.862C-54.0431 111.945 -49.5604 93.6649 -32.3907 85.4452C-11.9192 75.6562 10.4557 86.1677 21.0061 100.719C23.0061 103.428 24.7981 106.285 26.3668 109.265C30.2497 116.864 32.7489 125.092 33.7475 133.567C35.4023 146.417 32.9705 151.172 35.7519 161.87C37.733 169.429 40.3201 172.265 42.0759 173.663C42.9538 174.378 44.3212 175.372 46.6208 177.245C48.3833 178.68 50.0303 180.251 51.5464 181.945C48.1867 182.627 44.7662 182.966 41.3378 182.955C38.2465 182.903 35.1646 182.597 32.1237 182.038C26.0329 181.164 20.248 178.814 15.2726 175.194C6.63337 168.714 3.26936 159.306 1.94085 152.756C-3.76385 156.465 -10.3779 158.534 -17.1789 158.739C-34.6282 159.306 -49.5215 148.002 -53.3905 132.324C-55.205 125.994 -55.4899 119.324 -54.2218 112.862Z" fill="#BC9C86"/>
<path d="M99.606 137.001C101.051 139.044 107.282 148.25 104.407 154.093C103.125 156.703 98.9689 157.115 96.2109 156.377C91.8369 155.204 89.9956 150.441 87.3697 143.581C85.039 137.405 84.2621 128.129 84.1144 125.503C83.8814 121.183 95.0145 130.451 99.606 137.001Z" fill="#CBAC92"/>
<path d="M37.4537 116.794C42.3249 113.919 50.9486 112.016 58.034 111.977C65.1194 111.938 73.6731 113.717 78.4977 116.514C88.4655 122.263 94.9216 135.354 94.4787 155.414C93.9893 178.48 78.8784 182.932 58.3292 183.32C37.6402 183.709 22.203 179.77 21.5659 156.424C21.0066 136.115 27.3539 122.745 37.4537 116.794Z" fill="#CBAC92"/>
<path d="M79.1422 180.026C74.8989 181.61 70.452 182.583 65.9348 182.916C63.9693 183.025 62.0503 183.11 60.4965 183.188C56.0334 183.386 51.5622 183.298 47.1104 182.924C48.7887 177.46 49.6244 171.773 49.5887 166.057C49.5188 161.528 49.41 158.373 50.9716 154.264C52.003 151.297 53.7479 148.629 56.0526 146.495C58.9539 143.932 62.6567 142.46 66.5253 142.33C68.3355 142.214 74.9469 141.903 80.4086 146.432C82.5182 148.194 84.1954 150.416 85.3109 152.927C86.1712 155.02 86.6552 157.247 86.7404 159.508C86.7404 159.508 87.7737 168.326 84.0834 174.968C83.0165 176.54 81.8404 178.036 80.564 179.443L79.1422 180.026Z" fill="#F8EFDC"/>
<path d="M94.3075 12.0897C87.3154 11.81 81.4886 17.528 81.3099 24.8931C81.1312 32.2582 86.6628 38.4035 93.6549 38.6521C100.647 38.9007 106.42 33.1594 106.598 25.8409C106.777 18.5225 101.284 12.3694 94.3075 12.0897Z" fill="#CBAC92"/>
<path d="M94.1678 18.1106C93.2411 18.0972 92.321 18.2682 91.461 18.6136C90.601 18.959 89.8182 19.4719 89.1581 20.1225C88.4981 20.7731 87.9741 21.5485 87.6164 22.4034C87.2587 23.2584 87.0745 24.176 87.0746 25.1028C86.9873 26.9891 87.6443 28.8342 88.9041 30.2409C90.164 31.6475 91.9259 32.503 93.8104 32.6232C94.7364 32.6356 95.6557 32.4638 96.5148 32.118C97.3739 31.7721 98.1558 31.259 98.815 30.6085C99.4742 29.958 99.9976 29.183 100.355 28.3286C100.712 27.4741 100.896 26.5572 100.896 25.6311C100.981 23.7465 100.325 21.9036 99.0667 20.4976C97.8089 19.0917 96.0502 18.2347 94.1678 18.1106Z" fill="#F8EFDC"/>
<path d="M29.4588 9.51025C22.3113 9.22279 16.3446 15.0185 16.1504 22.4535C15.9562 29.8885 21.5888 36.1271 28.7674 36.3757C35.946 36.6243 41.835 30.8286 42.0214 23.4247C42.2079 16.0207 36.5986 9.7977 29.4588 9.51025Z" fill="#CBAC92"/>
<path d="M29.3034 15.578C28.3595 15.5564 27.4207 15.7229 26.5419 16.068C25.6631 16.4131 24.8618 16.9298 24.1848 17.588C23.5079 18.2461 22.9688 19.0325 22.5991 19.9013C22.2294 20.7701 22.0365 21.7038 22.0315 22.6479C21.9529 24.567 22.631 26.4402 23.9199 27.8642C25.2088 29.2882 27.0053 30.1491 28.9227 30.2616C29.8657 30.2801 30.803 30.1111 31.68 29.7642C32.5571 29.4173 33.3565 28.8995 34.0316 28.2409C34.7068 27.5824 35.2444 26.7962 35.613 25.928C35.9817 25.0599 36.1741 24.1271 36.179 23.184C36.2578 21.2682 35.5815 19.3981 34.2957 17.9757C33.01 16.5534 31.2174 15.6924 29.3034 15.578Z" fill="#F8EFDC"/>
<path d="M63.7282 18.0487C35.239 16.9533 -1.46989 34.2628 -4.9116 75.8274C-8.01923 113.321 20.0194 134.227 60.7837 134.958C100.958 135.673 128.95 116.258 127.808 79.541C126.549 38.7844 91.9377 19.1442 63.7282 18.0487Z" fill="#CBAC92"/>
<path d="M69.8194 90.1614C67.9626 90.1614 66.4244 91.2879 66.3855 92.7407C66.3467 94.1935 67.8306 95.3977 69.6874 95.4288C71.5442 95.4599 73.0592 94.2945 73.098 92.8495C73.1369 91.4044 71.6374 90.208 69.8194 90.1614Z" fill="#816A55"/>
<path d="M75.5838 101.139C78.5516 101.139 81.5349 99.7254 82.576 96.6644C82.691 96.3732 82.6889 96.0489 82.5701 95.7592C82.4514 95.4696 82.2252 95.2371 81.9389 95.1105C81.7978 95.0597 81.6478 95.038 81.4981 95.0466C81.3484 95.0553 81.2019 95.0942 81.0676 95.161C80.9333 95.2278 80.8139 95.3211 80.7166 95.4352C80.6194 95.5494 80.5462 95.6821 80.5016 95.8253C79.6392 98.3502 76.4073 99.166 73.9057 98.459C72.818 98.156 70.3397 97.1072 70.9068 94.0073L71.1476 92.6167L68.3508 92.5701L68.5295 93.9685C68.9412 97.0761 66.393 98.0783 65.282 98.3658C62.6949 99.0106 59.4319 98.1172 58.6627 95.5301C58.6235 95.3846 58.5554 95.2485 58.4623 95.13C58.3693 95.0115 58.2533 94.9131 58.1212 94.8405C57.9892 94.7679 57.8438 94.7228 57.6939 94.7078C57.544 94.6928 57.3926 94.7082 57.2488 94.7532C56.942 94.8594 56.689 95.0815 56.5438 95.3718C56.3986 95.6622 56.3728 95.9978 56.4719 96.307C57.6295 100.254 62.12 101.66 65.7948 100.728C67.3044 100.375 68.6511 99.5238 69.6172 98.3114C70.5142 99.5453 71.8139 100.427 73.2919 100.805C74.0387 101.013 74.8088 101.125 75.5838 101.139Z" fill="#816A55"/>
<path d="M97.3372 87.5353C98.2595 87.5586 99.1821 87.5041 100.095 87.3721C100.683 87.2602 101.204 86.9269 101.553 86.441C101.901 85.9552 102.05 85.354 101.968 84.7617C101.949 84.4701 101.872 84.1852 101.741 83.924C101.61 83.6628 101.428 83.4307 101.206 83.2414C100.983 83.0522 100.725 82.9097 100.446 82.8225C100.167 82.7354 99.8732 82.7052 99.5824 82.734C98.0166 82.9434 96.4264 82.8803 94.8822 82.5475C94.5923 82.4967 94.2952 82.5049 94.0086 82.5714C93.7219 82.6379 93.4516 82.7616 93.2138 82.9349C92.9759 83.1082 92.7755 83.3276 92.6243 83.5801C92.4731 83.8325 92.3744 84.1129 92.3339 84.4043C92.2044 84.995 92.3094 85.6128 92.6269 86.1274C92.9443 86.6421 93.4494 87.0131 94.0354 87.1624C95.1224 87.3866 96.2276 87.5114 97.3372 87.5353Z" fill="#816A55"/>
<path d="M40.4287 86.6805C41.6301 86.7022 42.8311 86.619 44.0181 86.4319C44.6442 86.3161 45.2005 85.9609 45.5689 85.4416C45.9374 84.9222 46.0889 84.2798 45.9914 83.6506C45.9561 83.3413 45.8592 83.0423 45.7064 82.7711C45.5536 82.4999 45.348 82.262 45.1018 82.0716C44.8556 81.8811 44.5737 81.7419 44.2728 81.6622C43.9719 81.5825 43.6581 81.5638 43.3499 81.6073C41.6551 81.8756 39.9275 81.8598 38.2379 81.5607C37.9269 81.5111 37.6092 81.5237 37.3032 81.5979C36.9973 81.6721 36.7091 81.8063 36.4554 81.9928C36.2017 82.1793 35.9875 82.4143 35.8254 82.6842C35.6633 82.9541 35.5564 83.2536 35.5109 83.5651C35.3922 84.1933 35.5264 84.8429 35.8844 85.3725C36.2423 85.9021 36.795 86.2689 37.4221 86.3931C38.4159 86.5626 39.4208 86.6587 40.4287 86.6805Z" fill="#816A55"/>
<path d="M27.711 115.302C27.1439 115.372 26.5684 115.327 26.0195 115.168C25.4707 115.009 24.9598 114.74 24.5179 114.378C22.4436 112.583 22.7543 108.45 25.256 104.573C25.3389 104.438 25.4482 104.322 25.5773 104.231C25.7064 104.139 25.8526 104.075 26.0072 104.042C26.1618 104.008 26.3215 104.006 26.4768 104.036C26.6321 104.066 26.7797 104.127 26.9108 104.216C27.1748 104.404 27.3561 104.686 27.4169 105.005C27.4777 105.323 27.4133 105.653 27.2371 105.925C25.2249 109.032 25.2715 111.775 26.0717 112.466C26.4002 112.716 26.8013 112.851 27.2138 112.851C27.6263 112.851 28.0274 112.716 28.3558 112.466C28.6515 112.165 28.8553 111.786 28.9434 111.373C29.0314 110.961 29.0001 110.531 28.853 110.136C28.7581 109.826 28.7858 109.493 28.9304 109.203C29.0751 108.914 29.3256 108.691 29.63 108.582C29.7787 108.53 29.9364 108.51 30.0934 108.521C30.2504 108.533 30.4034 108.576 30.543 108.649C30.6827 108.722 30.806 108.822 30.9055 108.944C31.0049 109.066 31.0785 109.207 31.1216 109.359C31.4091 110.225 31.4434 111.155 31.2204 112.04C30.9975 112.925 30.5266 113.728 29.863 114.354C29.2608 114.885 28.509 115.216 27.711 115.302Z" fill="#F9F6F5"/>
<path d="M61.8092 77.0394C62.1052 77.0379 62.3895 76.9239 62.6045 76.7205C62.8195 76.517 62.949 76.2394 62.9668 75.9439C63.0669 74.734 62.8988 73.5169 62.4744 72.3795C62.0501 71.242 61.3799 70.2122 60.5118 69.3635C60.4029 69.2584 60.2734 69.1769 60.1315 69.1243C59.9896 69.0716 59.8383 69.049 59.6872 69.0577C59.5361 69.0665 59.3885 69.1065 59.2536 69.1752C59.1187 69.2438 58.9995 69.3397 58.9035 69.4567C58.7012 69.6996 58.5983 70.0101 58.6156 70.3258C58.6329 70.6415 58.7691 70.9389 58.9968 71.1582C59.5987 71.7481 60.0638 72.463 60.3591 73.2523C60.6544 74.0417 60.7728 74.8863 60.706 75.7264C60.6875 75.8794 60.6994 76.0346 60.741 76.1831C60.7826 76.3315 60.853 76.4703 60.9482 76.5915C61.0435 76.7128 61.1617 76.814 61.2961 76.8895C61.4305 76.965 61.5784 77.0133 61.7315 77.0316L61.8092 77.0394Z" fill="#816A55"/>
<path d="M76.8585 76.3087C77.0095 76.3076 77.1589 76.2769 77.298 76.2182C77.4371 76.1594 77.5633 76.0739 77.6693 75.9664C77.7754 75.8589 77.8592 75.7316 77.9161 75.5917C77.9729 75.4518 78.0016 75.3021 78.0006 75.1511L78.0938 71.4763C78.1109 71.1709 78.0073 70.871 77.8052 70.6414C77.6032 70.4117 77.319 70.2707 77.0139 70.2488C76.8633 70.2488 76.7142 70.2786 76.5751 70.3365C76.436 70.3943 76.3098 70.4791 76.2036 70.586C76.0975 70.6929 76.0135 70.8197 75.9566 70.9592C75.8996 71.0986 75.8709 71.248 75.8719 71.3986L75.7787 75.0889C75.7616 75.3935 75.8655 75.6925 76.0677 75.9209C76.2699 76.1493 76.5541 76.2887 76.8585 76.3087Z" fill="#816A55"/>
<path d="M80.999 74.4598C81.2774 74.4615 81.5466 74.3601 81.7547 74.175C81.9627 73.9899 82.0948 73.7344 82.1255 73.4576C82.2667 72.4293 82.5491 71.4254 82.9646 70.4743C83.0838 70.1958 83.0958 69.883 82.9983 69.5961C82.9007 69.3093 82.7006 69.0686 82.4363 68.9205C82.3038 68.8542 82.1589 68.8163 82.0109 68.8093C81.8629 68.8023 81.715 68.8262 81.5768 68.8796C81.4386 68.933 81.313 69.0146 81.2082 69.1193C81.1033 69.224 81.0215 69.3495 80.9679 69.4876C80.4599 70.6443 80.1122 71.865 79.9346 73.1158C79.8841 73.419 79.953 73.7299 80.1268 73.9834C80.3007 74.2369 80.5659 74.4133 80.8669 74.4754L80.999 74.4598Z" fill="#816A55"/>
<path d="M55.928 30.6657C53.5273 30.7745 52.3231 29.3683 51.9813 26.8977C51.7327 25.1497 51.0723 21.3894 50.5518 18.8101C53.195 18.4044 55.8587 18.145 58.5306 18.0332C59.2102 20.8325 59.575 23.6989 59.6183 26.5792C59.6027 29.1663 58.3208 30.5492 55.928 30.6657Z" fill="#B39175"/>
<path d="M77.1843 31.4812C74.7915 31.4268 73.5329 30.0129 73.2376 27.4646C72.9424 24.9164 72.1034 21.5213 71.6372 18.8176C74.1325 19.2095 76.6063 19.7281 79.0489 20.3714C79.5228 22.6633 80.3852 25.266 80.3541 27.4335C80.2997 29.8186 79.5694 31.5278 77.1843 31.4812Z" fill="#B39175"/>
<path d="M61.2964 18.002C62.1121 18.002 62.9279 18.002 63.7281 18.0486C65.4062 18.1211 67.1051 18.2532 68.8246 18.4448C70.1432 22.6278 70.9468 26.9561 71.2175 31.3337C70.9378 34.0684 69.7647 35.3503 67.333 35.2182C64.9013 35.0861 63.5883 33.7266 63.5261 31.0928C63.4406 27.286 62.0733 22.0807 61.2964 18.002Z" fill="#B39175"/>
<path d="M51.3524 139.309C57.1792 138.757 65.4688 134.002 67.2868 128.036C67.784 126.016 67.9549 120.647 64.5598 119.117C59.1603 116.701 52.5255 118.93 48.035 125.021C44.0028 130.46 36.024 130.32 32.559 133.109C26.8409 137.7 44.4457 139.954 51.3524 139.309Z" fill="#CBAC92"/>
<path d="M66.0511 131.811C65.8249 131.813 65.6032 131.748 65.414 131.624C65.156 131.456 64.9752 131.192 64.9112 130.891C64.8471 130.589 64.905 130.275 65.0722 130.016C65.5466 129.294 65.918 128.51 66.1754 127.685C66.5483 126.132 66.7814 121.385 64.0777 120.173C59.1521 117.966 53.1233 120.173 49.0446 125.611C48.0268 127.701 43.1401 130.428 41.2755 131.049C40.999 131.182 40.6964 131.251 40.3898 131.251C40.0833 131.251 39.7806 131.182 39.5042 131.049C39.2737 130.906 39.1003 130.687 39.0141 130.43C38.9278 130.173 38.934 129.893 39.0316 129.64C39.1292 129.387 39.312 129.176 39.5486 129.043C39.7852 128.91 40.0607 128.864 40.3277 128.913C41.6173 128.649 46.5041 125.759 46.9702 124.586L47.0246 124.446L47.1101 124.321C51.857 117.881 59.0667 115.364 65.0489 118.044C69.0655 119.846 69.0655 125.735 68.4362 128.299C68.1124 129.351 67.6444 130.352 67.0455 131.275C66.9383 131.441 66.7909 131.577 66.6171 131.67C66.4432 131.764 66.2486 131.812 66.0511 131.811Z" fill="#BC9C86"/>
<path d="M51.3444 140.474C51.1914 140.48 51.0385 140.457 50.8946 140.404C50.7507 140.352 50.6185 140.272 50.5056 140.168C50.3927 140.065 50.3012 139.94 50.2366 139.801C50.1719 139.662 50.1352 139.512 50.1285 139.359C50.1219 139.206 50.1455 139.053 50.1979 138.909C50.2503 138.765 50.3306 138.633 50.4341 138.52C50.5377 138.407 50.6624 138.316 50.8013 138.251C50.9401 138.186 51.0904 138.15 51.2434 138.143C55.6329 137.731 62.1745 134.507 65.0723 130.017C65.2403 129.757 65.5045 129.575 65.8068 129.51C66.1091 129.445 66.4248 129.503 66.6844 129.671C66.9441 129.839 67.1263 130.103 67.1912 130.405C67.256 130.708 67.1981 131.023 67.0302 131.283C63.705 136.426 56.5031 139.992 51.492 140.466L51.3444 140.474Z" fill="#BC9C86"/>
<path d="M133.874 17.5C118.212 17.5 105.292 29.7441 105.004 42.0736C104.833 50.0524 109.976 56.0579 112.68 58.6994L110.256 64.4641C110.185 64.5981 110.156 64.7499 110.17 64.9007C110.185 65.0515 110.243 65.1947 110.338 65.3128C110.433 65.4309 110.56 65.5186 110.705 65.5652C110.849 65.6118 111.003 65.6152 111.149 65.575L120.698 63.8348C124.845 65.674 129.329 66.6342 133.866 66.6549C149.801 66.6549 162.721 55.6462 162.721 42.0736C162.721 28.501 149.808 17.5 133.874 17.5Z" fill="#F8EFDC"/>
<path d="M120.635 44.7933C121.631 44.7933 122.438 43.9864 122.438 42.9909C122.438 41.9955 121.631 41.1885 120.635 41.1885C119.64 41.1885 118.833 41.9955 118.833 42.9909C118.833 43.9864 119.64 44.7933 120.635 44.7933Z" fill="#CBAC92"/>
<path d="M134.822 45.0262C135.817 45.0262 136.624 44.2193 136.624 43.2238C136.624 42.2284 135.817 41.4214 134.822 41.4214C133.827 41.4214 133.02 42.2284 133.02 43.2238C133.02 44.2193 133.827 45.0262 134.822 45.0262Z" fill="#CBAC92"/>
<path d="M149.008 45.0262C150.004 45.0262 150.811 44.2193 150.811 43.2238C150.811 42.2284 150.004 41.4214 149.008 41.4214C148.013 41.4214 147.206 42.2284 147.206 43.2238C147.206 44.2193 148.013 45.0262 149.008 45.0262Z" fill="#CBAC92"/>
</g>
<defs>
<clipPath id="clip0_609_540">
<rect y="0.5" width="160" height="160" rx="16" fill="white"/>
</clipPath>
</defs>
</svg>
