<svg width="80" height="80" viewBox="0 0 80 80" fill="none" xmlns="http://www.w3.org/2000/svg">
<g clip-path="url(#clip0_67_1141)">
<path d="M13.3334 66.6666V34.0488C13.3334 33.0667 13.7665 32.1345 14.5171 31.5012L37.8505 11.8137C39.0921 10.7661 40.908 10.7661 42.1496 11.8136L65.4829 31.5012C66.2336 32.1345 66.6667 33.0667 66.6667 34.0488V66.6666C66.6667 68.5076 65.1743 70 63.3334 70H16.6667C14.8258 70 13.3334 68.5076 13.3334 66.6666Z" stroke="#151515" stroke-width="6.66667" stroke-linecap="round"/>
<path d="M30 46.6666V66.6666C30 68.5076 31.4924 70 33.3334 70H46.6667C48.5077 70 50 68.5076 50 66.6666V46.6666C50 44.8257 48.5077 43.3333 46.6667 43.3333H33.3334C31.4924 43.3333 30 44.8257 30 46.6666Z" stroke="#151515" stroke-width="6.66667" stroke-linecap="round"/>
</g>
<defs>
<clipPath id="clip0_67_1141">
<rect width="80" height="80" fill="white"/>
</clipPath>
</defs>
</svg>
