<svg width="80" height="80" viewBox="0 0 80 80" fill="none" xmlns="http://www.w3.org/2000/svg">
<g clip-path="url(#clip0_67_1137)">
<path d="M67.1572 70H12.4394C9.87354 70 8.26977 67.2226 9.55244 65.0004L20.1589 46.6246C21.3911 44.4898 24.434 44.3846 25.8108 46.4291L28.1442 49.8942C29.4653 51.8561 32.3527 51.8562 33.6739 49.8942L44.2706 34.1581C45.6011 32.1823 48.5146 32.1993 49.8219 34.1905L69.9436 64.8372C71.3989 67.0539 69.8089 70 67.1572 70Z" stroke="#151515" stroke-width="6.66667"/>
<path d="M36.6666 23.3334C36.6666 28.8562 32.1895 33.3334 26.6666 33.3334C21.1438 33.3334 16.6666 28.8562 16.6666 23.3334C16.6666 17.8105 21.1438 13.3334 26.6666 13.3334C32.1895 13.3334 36.6666 17.8105 36.6666 23.3334Z" stroke="#151515" stroke-width="6.66667"/>
</g>
<defs>
<clipPath id="clip0_67_1137">
<rect width="80" height="80" fill="white"/>
</clipPath>
</defs>
</svg>
