<svg width="80" height="80" viewBox="0 0 80 80" fill="none" xmlns="http://www.w3.org/2000/svg">
<g clip-path="url(#clip0_67_1139)">
<path fill-rule="evenodd" clip-rule="evenodd" d="M40 6.66663C21.6 6.66663 6.66663 21.6 6.66663 40C6.66663 58.4 21.6 73.3333 40 73.3333C58.4 73.3333 73.3333 58.4 73.3333 40C73.3333 21.6 58.4 6.66663 40 6.66663ZM61.2 56.1C56.4333 50.3 44.8666 48.3333 40 48.3333C35.1333 48.3333 23.5666 50.3 18.8 56.1C15.4 51.6333 13.3333 46.0666 13.3333 40C13.3333 25.3 25.3 13.3333 40 13.3333C54.7 13.3333 66.6666 25.3 66.6666 40C66.6666 46.0666 64.6 51.6333 61.2 56.1ZM28.3333 31.6666C28.3333 25.2 33.5333 20 40 20C46.4666 20 51.6666 25.2 51.6666 31.6666C51.6666 38.1333 46.4666 43.3333 40 43.3333C33.5333 43.3333 28.3333 38.1333 28.3333 31.6666Z" fill="#151515"/>
</g>
<defs>
<clipPath id="clip0_67_1139">
<rect width="80" height="80" fill="white"/>
</clipPath>
</defs>
</svg>
