<svg width="160" height="160" viewBox="0 0 160 160" fill="none" xmlns="http://www.w3.org/2000/svg">
<g clip-path="url(#clip0_714_13242)">
<rect width="160" height="160" rx="16" fill="#FBD2D2"/>
<g clip-path="url(#clip1_714_13242)">
<path d="M37.3286 105.024C34.2878 103.929 20.7718 97.6425 4.49628 108.49C-12.2581 119.657 -9.64311 133.827 -9.39985 136.952C-7.73505 158.328 21.7676 179.05 61.8292 178.587C71.0579 142.623 57.6634 112.382 37.3286 105.024Z" fill="#BC9C86"/>
<path d="M88.6639 123.77C84.1028 121.148 75.9461 119.27 69.1272 119.065C62.3084 118.859 53.6955 120.281 48.8608 122.736C38.6819 127.868 32.0303 139.993 32.6005 158.701C33.2466 180.153 48.8151 183.581 69.1424 182.988C88.7323 182.411 102.788 178.359 103.282 158.229C103.7 140.753 97.9533 129.122 88.6639 123.77Z" fill="#CBAC92"/>
<path d="M79.9297 182.144C88.1625 178.762 92.5335 169.518 90.443 160.707L90.1921 159.62C89.1654 155.451 86.7875 151.739 83.4294 149.062C80.0713 146.386 75.9219 144.897 71.6285 144.827H66.4897C62.0419 144.856 57.7294 146.36 54.2283 149.103C50.7271 151.846 48.2351 155.673 47.143 159.985L46.877 161.125C44.642 170.377 49.416 179.788 58.1353 182.806C61.8003 183.078 65.4775 183.149 69.1503 183.019C72.7568 182.927 76.3555 182.635 79.9297 182.144Z" fill="#F8EFDC"/>
<path d="M24.5725 45.77C31.7455 45.6013 37.4237 39.6496 37.255 32.4766C37.0863 25.3036 31.1346 19.6254 23.9616 19.7941C16.7886 19.9629 11.1104 25.9145 11.2791 33.0875C11.4478 40.2606 17.3995 45.9387 24.5725 45.77Z" fill="#CBAC92"/>
<path d="M24.4342 39.8802C28.3544 39.788 31.4576 36.5353 31.3654 32.6151C31.2732 28.6949 28.0205 25.5917 24.1003 25.6839C20.1801 25.7761 17.0769 29.0288 17.1691 32.949C17.2613 36.8692 20.514 39.9724 24.4342 39.8802Z" fill="#F8EFDC"/>
<path d="M89.486 40.8672C96.659 40.6985 102.337 34.7468 102.168 27.5738C102 20.4007 96.0481 14.7226 88.8751 14.8913C81.702 15.06 76.0239 21.0117 76.1926 28.1847C76.3613 35.3577 82.313 41.0359 89.486 40.8672Z" fill="#CBAC92"/>
<path d="M89.3477 34.9775C93.2679 34.8853 96.3711 31.6326 96.2789 27.7124C96.1867 23.7922 92.934 20.689 89.0138 20.7812C85.0936 20.8734 81.9904 24.1261 82.0826 28.0463C82.1748 31.9665 85.4275 35.0697 89.3477 34.9775Z" fill="#F8EFDC"/>
<path d="M56.4002 24.3466C85.1142 22.1505 122.549 37.3904 127.878 77.0793C132.672 112.796 105.821 134.392 64.9464 137.482C24.072 140.573 -5.72457 123.252 -6.35157 87.2166C-7.08018 47.1838 27.6476 26.5208 56.4002 24.3466Z" fill="#CBAC92"/>
<path d="M61.7849 97.0471C63.6605 96.9055 65.0963 95.6708 64.992 94.2893C64.8877 92.9077 63.2828 91.9026 61.4072 92.0442C59.5317 92.1858 58.0958 93.4205 58.2001 94.802C58.3044 96.1836 59.9094 97.1887 61.7849 97.0471Z" fill="#816A55"/>
<path d="M56.0576 102.865C53.0215 103.096 49.8837 101.915 48.6452 99.0472C48.5846 98.9088 48.5518 98.7598 48.5486 98.6088C48.5455 98.4577 48.5722 98.3075 48.6272 98.1668C48.6821 98.026 48.7642 97.8975 48.8689 97.7885C48.9735 97.6795 49.0986 97.5922 49.2369 97.5315C49.3753 97.4708 49.5243 97.438 49.6753 97.4349C49.8264 97.4318 49.9766 97.4585 50.1173 97.5134C50.2581 97.5683 50.3866 97.6505 50.4956 97.7551C50.6046 97.8597 50.6919 97.9848 50.7526 98.1232C51.7513 100.495 55.1028 101.062 57.646 100.242C58.7399 99.8743 61.2067 98.7137 60.4917 95.7954L60.1794 94.4797L63.0107 94.2686L62.8902 95.6097C62.6261 98.6043 65.2595 99.356 66.3749 99.5807C69.001 100.021 72.2156 98.9719 72.8641 96.4777C72.9438 96.1923 73.1321 95.9494 73.3888 95.8012C73.6455 95.653 73.95 95.6113 74.237 95.6851C74.5259 95.7645 74.7716 95.9552 74.9202 96.2153C75.0688 96.4755 75.1083 96.7839 75.0301 97.0731C74.0631 100.898 69.6454 102.523 65.9568 101.849C64.4427 101.635 63.0455 100.915 61.9928 99.8054C61.1132 101.058 59.8391 101.98 58.374 102.423C57.6234 102.666 56.8452 102.815 56.0576 102.865Z" fill="#816A55"/>
<path d="M32.9306 93.0222C35.4405 92.9631 37.4274 90.8806 37.3683 88.3707C37.3093 85.8607 35.2267 83.8739 32.7168 83.9329C30.2069 83.9919 28.22 86.0745 28.2791 88.5844C28.3381 91.0944 30.4207 93.0812 32.9306 93.0222Z" fill="#816A55"/>
<path d="M89.1829 88.7716C91.6929 88.7125 93.6797 86.63 93.6207 84.1201C93.5617 81.6101 91.4791 79.6233 88.9692 79.6823C86.4592 79.7413 84.4724 81.8239 84.5314 84.3338C84.5904 86.8438 86.673 88.8306 89.1829 88.7716Z" fill="#816A55"/>
<path d="M21.627 115.826C20.5252 115.83 19.465 115.405 18.6716 114.64C16.8562 112.782 17.4978 109.026 20.1956 105.723C20.2927 105.607 20.4117 105.511 20.5459 105.441C20.6801 105.371 20.8267 105.328 20.9775 105.315C21.1283 105.301 21.2803 105.318 21.4247 105.363C21.5692 105.408 21.7033 105.482 21.8194 105.579C21.9355 105.676 22.0314 105.795 22.1015 105.929C22.1716 106.063 22.2146 106.21 22.228 106.361C22.2415 106.511 22.2251 106.663 22.1798 106.808C22.1345 106.952 22.0612 107.086 21.964 107.202C19.791 109.862 19.6066 112.368 20.308 113.089C20.5991 113.352 20.9653 113.516 21.355 113.561C21.7447 113.605 22.1384 113.525 22.4808 113.334C22.7871 113.093 23.0141 112.766 23.1328 112.394C23.2514 112.023 23.2562 111.624 23.1466 111.25C23.081 110.949 23.1377 110.635 23.3042 110.376C23.4706 110.116 23.7332 109.934 24.0342 109.868C24.3351 109.803 24.6498 109.859 24.909 110.026C25.1682 110.192 25.3506 110.455 25.4162 110.756C25.6185 111.578 25.5725 112.442 25.2839 113.237C24.9954 114.033 24.4773 114.726 23.7952 115.227C23.1494 115.641 22.3935 115.849 21.627 115.826Z" fill="#F9F6F5"/>
<path d="M46.7883 37.879C47.7926 37.8023 48.7254 37.3301 49.3818 36.5662C50.0382 35.8022 50.3645 34.809 50.2891 33.8046L49.6379 25.1894C47.1124 25.6288 44.6107 26.1952 42.1423 26.8865L42.707 34.4087C42.7913 35.4088 43.2678 36.335 44.0324 36.9851C44.797 37.6352 45.7877 37.9566 46.7883 37.879Z" fill="#B39175"/>
<path d="M61.0444 37.1713L60.0622 24.184C58.8235 24.2132 57.5847 24.2423 56.3709 24.3621C55.1571 24.4819 53.7911 24.5977 52.4872 24.7652L53.4695 37.76C53.5456 38.7666 54.0185 39.7017 54.784 40.3596C55.5496 41.0175 56.5452 41.3444 57.5517 41.2683C58.5583 41.1922 59.4934 40.7193 60.1513 39.9538C60.8092 39.1882 61.1361 38.1927 61.06 37.1861L61.0444 37.1713Z" fill="#B39175"/>
<path d="M67.6576 36.1185C68.1556 36.0815 68.6414 35.9467 69.0872 35.7219C69.5331 35.4971 69.9302 35.1866 70.2561 34.8082C70.5819 34.4298 70.8299 33.9909 70.9861 33.5166C71.1422 33.0423 71.2034 32.5419 71.166 32.044L70.6054 24.6965C68.0283 24.3998 65.4695 24.2318 62.944 24.1924L63.5839 32.6481C63.6682 33.6468 64.1436 34.5718 64.9065 35.2218C65.6694 35.8717 66.6582 36.194 67.6576 36.1185Z" fill="#B39175"/>
<path d="M95 147C97.1902 142.3 95.1954 134.883 96.0178 130.949C97.3856 124.366 104.624 135.855 106 144.635" fill="#CBAC92"/>
<path d="M110.054 71.6547L104.135 70.3599L76.0572 198.707L81.9759 200.002L110.054 71.6547Z" fill="#F9F6F5"/>
<path d="M112.929 14.6763L73.0193 58.478C72.1522 59.427 71.5505 60.5878 71.275 61.8434C70.9994 63.099 71.0597 64.405 71.4498 65.6299C71.8398 66.8548 72.5458 67.9552 73.4967 68.8203C74.4475 69.6853 75.6096 70.2845 76.8658 70.5573L134.754 83.222C136.008 83.4953 137.312 83.434 138.535 83.0441C139.759 82.6543 140.858 81.9496 141.723 81.0008C142.588 80.052 143.188 78.8925 143.463 77.6385C143.738 76.3846 143.679 75.0803 143.291 73.8565L125.312 17.3826C124.922 16.159 124.216 15.0598 123.266 14.1952C122.317 13.3306 121.156 12.7311 119.901 12.4569C118.647 12.1827 117.342 12.2434 116.118 12.633C114.894 13.0225 113.794 13.7272 112.929 14.6763Z" fill="#FFCF7B" stroke="#816A55" stroke-width="8" stroke-miterlimit="10"/>
<path d="M111.546 39.4868L109.099 50.6706C108.817 51.9584 109.633 53.2308 110.921 53.5126C112.209 53.7943 113.481 52.9787 113.763 51.6909L116.209 40.507C116.491 39.2192 115.675 37.9468 114.388 37.6651C113.1 37.3833 111.827 38.1989 111.546 39.4868Z" fill="#816A55"/>
<path d="M112.134 59.1338C112.416 57.846 111.6 56.5736 110.312 56.2919C109.024 56.0101 107.752 56.8257 107.47 58.1136C107.189 59.4014 108.004 60.6738 109.292 60.9555C110.58 61.2372 111.852 60.4216 112.134 59.1338Z" fill="#816A55"/>
<path d="M105.722 143.177C105.868 143.928 105.937 144.693 105.928 145.458C105.928 151.737 104.156 155.751 100.485 158.525C98.5233 160.167 95.4142 161.133 91.2104 158.442C88.1696 154.572 89.6216 149.935 94.7072 146.522C95.173 146.069 95.5792 145.558 95.9159 145.002" fill="#CBAC92"/>
<path d="M84.9767 143.155C88.9753 142.311 93.6732 140.646 94.4106 137.484C94.7103 136.053 94.5667 134.565 93.999 133.217C93.4313 131.87 92.4665 130.728 91.2331 129.943C86.7328 127.297 80.8262 129 76.1054 130.703C71.856 132.261 62.8554 135.941 60.8105 138.7" fill="#CBAC92"/>
<path d="M85.8814 142.957C89.6823 142.06 93.7264 140.41 94.4106 137.484C94.7103 136.053 94.5667 134.565 93.999 133.217C93.4313 131.87 92.4665 130.728 91.2331 129.943C86.7328 127.297 80.8262 129 76.1054 130.703C71.856 132.261 62.8554 135.941 60.8105 138.7" stroke="#BC9C86" stroke-width="2.28055" stroke-miterlimit="10" stroke-linecap="round"/>
<path fill-rule="evenodd" clip-rule="evenodd" d="M128.011 126.64C128.75 125.36 130.386 124.922 131.665 125.661L140.932 131.011C142.212 131.75 142.65 133.386 141.911 134.665C141.173 135.945 139.537 136.383 138.257 135.644L128.99 130.294C127.711 129.555 127.272 127.919 128.011 126.64Z" fill="white"/>
<path fill-rule="evenodd" clip-rule="evenodd" d="M122.637 132.164C124.064 131.782 125.531 132.629 125.913 134.056L128.682 144.392C129.065 145.819 128.218 147.286 126.791 147.668C125.364 148.05 123.897 147.203 123.514 145.776L120.745 135.441C120.363 134.014 121.21 132.547 122.637 132.164Z" fill="white"/>
<path fill-rule="evenodd" clip-rule="evenodd" d="M130.108 119.224C129.725 117.797 130.572 116.33 131.999 115.948L142.335 113.178C143.762 112.796 145.229 113.643 145.611 115.07C145.994 116.497 145.147 117.964 143.72 118.346L133.384 121.116C131.957 121.498 130.49 120.651 130.108 119.224Z" fill="white"/>
</g>
</g>
<defs>
<clipPath id="clip0_714_13242">
<rect width="160" height="160" rx="16" fill="white"/>
</clipPath>
<clipPath id="clip1_714_13242">
<rect width="177" height="200" fill="white" transform="translate(-17)"/>
</clipPath>
</defs>
</svg>
