<svg xmlns="http://www.w3.org/2000/svg" width="80" height="80" viewBox="0 0 80 80" fill="none">
<path d="M64.7665 43.2666C64.8998 42.2 64.9998 41.1333 64.9998 40C64.9998 38.8666 64.8998 37.8 64.7665 36.7333L71.7998 31.2333C72.4332 30.7333 72.5998 29.8333 72.1998 29.1L65.5332 17.5666C65.1332 16.8333 64.2332 16.5666 63.4998 16.8333L55.1998 20.1666C53.4665 18.8333 51.5998 17.7333 49.5665 16.9L48.2998 8.06663C48.1998 7.26663 47.4998 6.66663 46.6665 6.66663H33.3332C32.4998 6.66663 31.7998 7.26663 31.6998 8.06663L30.4332 16.9C28.3998 17.7333 26.5332 18.8666 24.7998 20.1666L16.4998 16.8333C15.7332 16.5333 14.8665 16.8333 14.4665 17.5666L7.79983 29.1C7.3665 29.8333 7.5665 30.7333 8.19983 31.2333L15.2332 36.7333C15.0998 37.8 14.9998 38.9 14.9998 40C14.9998 41.1 15.0998 42.2 15.2332 43.2666L8.19983 48.7666C7.5665 49.2666 7.39983 50.1666 7.79983 50.9L14.4665 62.4333C14.8665 63.1666 15.7665 63.4333 16.4998 63.1666L24.7998 59.8333C26.5332 61.1666 28.3998 62.2666 30.4332 63.1L31.6998 71.9333C31.7998 72.7333 32.4998 73.3333 33.3332 73.3333H46.6665C47.4998 73.3333 48.1998 72.7333 48.2998 71.9333L49.5665 63.1C51.5998 62.2666 53.4665 61.1333 55.1998 59.8333L63.4998 63.1666C64.2665 63.4666 65.1332 63.1666 65.5332 62.4333L72.1998 50.9C72.5998 50.1666 72.4332 49.2666 71.7998 48.7666L64.7665 43.2666ZM39.9998 51.6666C33.5665 51.6666 28.3332 46.4333 28.3332 40C28.3332 33.5666 33.5665 28.3333 39.9998 28.3333C46.4332 28.3333 51.6665 33.5666 51.6665 40C51.6665 46.4333 46.4332 51.6666 39.9998 51.6666Z" fill="#151515"/>
</svg>