<svg width="80" height="80" viewBox="0 0 80 80" fill="none" xmlns="http://www.w3.org/2000/svg">
<g clip-path="url(#clip0_67_1143)">
<path fill-rule="evenodd" clip-rule="evenodd" d="M41.774 59.3572C39.216 61.7243 36.2885 63.7367 33.3333 65.3564V70C33.3333 71.841 31.8409 73.3334 30 73.3334C28.159 73.3334 26.6666 71.841 26.6666 70V65.3564C22.8369 63.2573 19.0536 60.4987 16.0607 57.1634C12.5808 53.2854 10 48.4241 10 42.8205C10 37.9448 11.9823 31.935 14.722 26.2735C17.503 20.5268 21.268 14.723 25.2466 10.1898C27.7754 7.30863 32.2247 7.30864 34.7534 10.1898C38.732 14.723 42.497 20.5268 45.278 26.2735C45.3962 26.5179 45.5131 26.763 45.6285 27.0086C46.6187 25.6875 47.6524 24.4306 48.7076 23.273C51.2003 20.5383 55.4662 20.5383 57.9589 23.273C61.11 26.7301 64.0693 31.0731 66.254 35.3654C68.3918 39.5655 69.9999 44.1287 69.9999 47.9487C69.9999 52.4936 67.7677 56.3532 64.9079 59.341C62.5561 61.798 59.631 63.8324 56.6667 65.4014V70C56.6667 71.841 55.1743 73.3333 53.3333 73.3333C51.4924 73.3333 50 71.841 50 70V65.4016C47.0421 63.836 44.1232 61.807 41.774 59.3572ZM20.723 29.1775C23.2095 24.0394 26.5492 18.8789 30 14.8828C33.4508 18.8789 36.7905 24.0394 39.277 29.1775C41.8665 34.5284 43.3333 39.4503 43.3333 42.8205C43.3333 46.2801 41.7475 49.624 38.9774 52.7109C37.3762 54.4953 35.436 56.1257 33.3333 57.5536V46.6667C33.3333 44.8257 31.8409 43.3334 30 43.3334C28.159 43.3334 26.6666 44.8257 26.6666 46.6667V57.5535C24.564 56.1257 22.6238 54.4953 21.0226 52.7109C18.2525 49.624 16.6667 46.2801 16.6667 42.8205C16.6667 39.4503 18.1335 34.5284 20.723 29.1775ZM46.1898 54.3162C46.3141 54.4548 46.4423 54.5931 46.5746 54.7313C47.5644 55.7654 48.7295 56.7343 50 57.6173V50C50 48.1591 51.4924 46.6667 53.3333 46.6667C55.1743 46.6667 56.6667 48.1591 56.6667 50V57.6171C57.9371 56.7342 59.1021 55.7653 60.0918 54.7313C62.232 52.4953 63.3332 50.2011 63.3332 47.9487C63.3332 45.709 62.2923 42.2788 60.3127 38.3894C58.4515 34.7327 55.9469 31.0341 53.3332 28.0985C51.6507 29.9882 50.0134 32.1942 48.5638 34.5016C49.4638 37.4423 50 40.2848 50 42.8205C50 47.1274 48.4754 50.9957 46.1898 54.3162Z" fill="#151515"/>
</g>
<defs>
<clipPath id="clip0_67_1143">
<rect width="80" height="80" fill="white"/>
</clipPath>
</defs>
</svg>
