<svg width="304" height="240" viewBox="0 0 304 240" fill="none" xmlns="http://www.w3.org/2000/svg">
<path d="M0.74998 146.84C0.85998 145.65 3.99998 121.67 23.81 109C47.36 94 75.7 104.67 90.23 122C92.9827 125.234 95.4929 128.666 97.74 132.27C103.394 141.597 107.415 151.82 109.63 162.5C113.19 178.75 110.81 185.15 115.5 198.5C118.81 207.94 122.29 211.25 124.57 212.83C125.73 213.63 127.5 214.74 130.51 216.83C132.822 218.468 135.005 220.28 137.04 222.25C133.066 223.552 128.962 224.414 124.8 224.82C121.057 225.151 117.293 225.151 113.55 224.82C106.024 224.431 98.7232 222.125 92.34 218.12C81.14 210.88 75.93 199.22 73.53 191.01C68.1225 195.631 61.6619 198.853 54.7168 200.391C47.7718 201.929 40.5552 201.736 33.7021 199.83C26.849 197.923 20.5696 194.362 15.4164 189.458C10.2632 184.555 6.39421 178.46 4.14998 171.71C-0.32002 160.54 0.52998 149.3 0.74998 146.84Z" fill="#BC9C86"/>
<path d="M197.21 154.69C200.03 156.13 212.48 162.79 213.05 171.09C213.31 174.78 209.05 177.71 205.68 178.52C200.24 179.79 195.25 175.52 188.18 169.37C181.84 163.79 175.18 153.83 173.4 150.96C170.43 146.23 188.17 150.05 197.21 154.69Z" fill="#CBAC92"/>
<path d="M198.7 174.57C198.159 177.19 198.311 179.906 199.14 182.45C198.738 184.088 198.513 185.764 198.47 187.45C198.465 187.638 198.501 187.825 198.575 187.997C198.65 188.17 198.76 188.324 198.9 188.45L219.45 206.45C219.711 206.642 220.026 206.745 220.35 206.745C220.674 206.745 220.989 206.642 221.25 206.45C224.318 204.266 227.686 202.538 231.25 201.32C236.25 199.67 253.15 194.86 259.51 196.5C259.752 196.532 259.998 196.475 260.2 196.338C260.403 196.202 260.549 195.996 260.61 195.76L261.42 192.76C261.481 192.602 261.478 192.426 261.413 192.27C261.348 192.114 261.225 191.988 261.07 191.92C254.806 189.937 248.246 189.054 241.68 189.31C245.16 186.84 246.9 183.85 242.55 180.39L225.55 165.39C222.76 162.95 218.32 163.13 214.49 165.39C213.372 164.798 212.161 164.403 210.91 164.22C208.317 163.85 205.683 164.518 203.58 166.08C200.959 168.209 199.221 171.234 198.7 174.57ZM205.39 169.07C206.711 168.167 208.331 167.808 209.91 168.07C210.314 168.126 210.712 168.216 211.1 168.34C211.04 168.42 210.95 168.46 210.91 168.55L202.08 178.6C201.938 177.339 201.992 176.064 202.24 174.82C202.58 172.592 203.696 170.556 205.39 169.07Z" fill="#C5DCE8"/>
<path d="M195.3 225.7L188.63 231.21C187.959 231.744 187.127 232.034 186.27 232.034C185.413 232.034 184.581 231.744 183.91 231.21C182.43 230.65 174.35 227.4 171.36 218.96C170.096 215.718 169.91 212.156 170.83 208.8C171.915 205.549 173.985 202.716 176.754 200.697C179.523 198.677 182.853 197.57 186.28 197.53C189.33 202.25 194.52 215.63 196.39 221.53C196.637 222.255 196.665 223.037 196.471 223.779C196.278 224.52 195.87 225.188 195.3 225.7Z" fill="#CBAC92"/>
<path d="M109.91 140.85C115.91 136.66 126.73 133.33 135.82 132.54C144.91 131.75 156.06 133.17 162.54 136.25C175.92 142.6 185.54 158.73 187.06 184.52C188.81 214.16 169.88 221.43 143.56 224.05C117.05 226.68 96.85 223.22 93.61 193.34C90.81 167.33 97.54 149.53 109.91 140.85Z" fill="#CBAC92"/>
<path d="M169.93 217.68C164.645 220.149 159.035 221.853 153.27 222.74C150.77 223.09 148.33 223.4 146.27 223.65C140.566 224.378 134.82 224.728 129.07 224.7C130.655 217.515 131.141 210.131 130.51 202.8C129.95 197 129.51 192.97 131.06 187.53C132.077 183.62 134.042 180.021 136.78 177.05C140.24 173.468 144.834 171.196 149.78 170.62C152.09 170.29 160.54 169.2 168.01 174.46C170.911 176.496 173.306 179.172 175.01 182.28C176.33 184.877 177.18 187.687 177.52 190.58C177.52 190.58 179.76 201.78 175.72 210.69C174.509 212.814 173.152 214.853 171.66 216.79L169.93 217.68Z" fill="#F8EFDC"/>
<path d="M76.33 170.2C73.94 172.42 63.46 182.53 65.33 190.75C66.16 194.4 71.2 195.98 74.83 195.75C80.59 195.37 84.3 189.8 89.5 181.75C94.16 174.52 97.84 162.98 98.8 159.69C100.39 154.3 84 163.09 76.33 170.2Z" fill="#CBAC92"/>
<path d="M109.24 240L118.01 239.82C118.888 239.779 119.728 239.451 120.4 238.885C121.072 238.319 121.54 237.548 121.73 236.69L125.81 224.28C125.81 224.28 107 213.72 99.16 211.83C99.75 217.46 103.45 231.76 105.71 237.5C105.977 238.225 106.457 238.851 107.087 239.298C107.717 239.744 108.468 239.989 109.24 240Z" fill="#CBAC92"/>
<path d="M161.84 0.0900124C152.84 0.780012 146.26 8.97001 147.13 18.4C148 27.83 156 34.88 165 34.15C174 33.42 180.5 25.22 179.63 15.84C178.76 6.46001 170.8 -0.589988 161.84 0.0900124Z" fill="#CBAC92"/>
<path d="M162.55 7.81001C161.365 7.93425 160.217 8.29245 159.172 8.86385C158.126 9.43524 157.205 10.2085 156.461 11.1387C155.717 12.0689 155.165 13.1376 154.836 14.2828C154.508 15.428 154.411 16.6269 154.55 17.81C154.72 20.235 155.836 22.4961 157.658 24.1051C159.481 25.7141 161.863 26.542 164.29 26.41C165.475 26.2858 166.623 25.9276 167.668 25.3562C168.714 24.7848 169.635 24.0116 170.379 23.0813C171.123 22.1511 171.675 21.0825 172.003 19.9373C172.331 18.7921 172.429 17.5931 172.29 16.41C172.115 13.9869 170.997 11.7289 169.176 10.121C167.355 8.51301 164.976 7.68329 162.55 7.81001Z" fill="#F8EFDC"/>
<path d="M78.55 6.46C69.36 7.17 62.55 15.46 63.46 25C64.37 34.54 72.46 41.66 81.66 40.92C90.86 40.18 97.54 31.92 96.66 22.38C95.78 12.84 87.71 5.77 78.55 6.46Z" fill="#CBAC92"/>
<path d="M79.25 14.27C78.0392 14.3834 76.8631 14.7368 75.7903 15.3095C74.7175 15.8822 73.7695 16.6628 73.0016 17.6057C72.2336 18.5486 71.6611 19.635 71.3175 20.8015C70.9738 21.9681 70.8659 23.1913 71 24.4C71.182 26.8761 72.3352 29.1799 74.2082 30.8095C76.0813 32.439 78.5225 33.2624 81 33.1C82.2014 32.9779 83.3668 32.6191 84.4289 32.0444C85.491 31.4697 86.4289 30.6904 87.1884 29.7515C87.9479 28.8126 88.514 27.7326 88.8541 26.5738C89.1942 25.4151 89.3015 24.2005 89.17 23C88.9952 20.5333 87.8565 18.2345 86.0001 16.6008C84.1438 14.9671 81.7189 14.1298 79.25 14.27Z" fill="#F8EFDC"/>
<path d="M123.63 12.28C87.05 15.12 42.7 42.72 44.49 96.37C46.1 144.78 85.07 167.37 137.29 162.18C188.77 157.11 221.66 128.11 214.73 81.34C207 29.41 159.86 9.46002 123.63 12.28Z" fill="#CBAC92"/>
<path d="M151.71 116.44C151.702 117.924 151.313 119.38 150.58 120.67C149.882 121.794 148.932 122.74 147.806 123.434C146.68 124.129 145.408 124.552 144.09 124.67C142.953 124.988 141.756 125.018 140.605 124.756C139.454 124.494 138.387 123.949 137.5 123.17C136.181 121.855 135.382 120.108 135.25 118.25L142.99 112.61L151.71 116.44Z" fill="#DDB5A9"/>
<path d="M151.13 116.56C153.133 116.401 155.027 115.584 156.517 114.236C158.007 112.889 159.01 111.087 159.37 109.11C159.479 108.688 159.43 108.241 159.233 107.853C159.036 107.465 158.704 107.161 158.3 107C158.105 106.953 157.902 106.949 157.706 106.987C157.509 107.026 157.323 107.106 157.159 107.223C156.996 107.339 156.86 107.49 156.76 107.663C156.66 107.837 156.599 108.03 156.58 108.23C155.9 111.97 151.9 113.61 148.58 112.99C147.195 112.808 145.938 112.087 145.081 110.985C144.224 109.883 143.835 108.487 144 107.1L144.09 105.1L140.5 105.46L140.96 107.46C141.369 108.813 141.24 110.272 140.598 111.531C139.957 112.791 138.854 113.754 137.52 114.22C134.32 115.53 130 114.75 128.6 111.22C128.545 111.025 128.448 110.843 128.316 110.689C128.184 110.534 128.021 110.41 127.837 110.325C127.652 110.239 127.452 110.195 127.249 110.194C127.046 110.193 126.845 110.236 126.66 110.32C126.287 110.551 126.008 110.908 125.876 111.326C125.744 111.745 125.767 112.197 125.94 112.6C128.06 118.07 134.03 119.39 138.53 117.52C140.45 116.755 142.039 115.339 143.02 113.52C144.3 115.105 146.112 116.172 148.12 116.52C149.117 116.673 150.13 116.687 151.13 116.56Z" fill="#816A55"/>
<path d="M142.16 103.59C139.78 103.82 137.99 105.53 138.16 107.4C138.33 109.27 140.4 110.58 142.78 110.34C145.16 110.1 146.93 108.34 146.78 106.53C146.63 104.72 144.53 103.35 142.16 103.59Z" fill="#816A55"/>
<path d="M143.81 125.77L144.22 125.72C146.996 125.612 149.624 124.437 151.555 122.44C153.487 120.443 154.574 117.778 154.59 115C154.587 114.818 154.548 114.637 154.475 114.47C154.402 114.303 154.296 114.152 154.164 114.026C154.032 113.9 153.876 113.802 153.705 113.738C153.534 113.673 153.352 113.643 153.17 113.65C152.796 113.655 152.438 113.805 152.171 114.067C151.905 114.33 151.75 114.686 151.74 115.06C151.726 117.127 150.912 119.108 149.469 120.589C148.026 122.069 146.066 122.933 144 123C142.991 123.208 141.951 123.214 140.939 123.017C139.928 122.821 138.966 122.426 138.108 121.854C137.251 121.283 136.515 120.548 135.944 119.691C135.373 118.833 134.977 117.871 134.78 116.86C134.685 116.499 134.457 116.187 134.14 115.988C133.824 115.789 133.444 115.718 133.077 115.79C132.711 115.861 132.385 116.069 132.166 116.372C131.948 116.675 131.852 117.05 131.9 117.42C132.409 120.087 133.938 122.452 136.162 124.01C138.385 125.569 141.129 126.201 143.81 125.77Z" fill="#816A55"/>
<path d="M180.16 96.46C180.731 96.3928 181.266 96.1497 181.693 95.7645C182.119 95.3793 182.415 94.871 182.54 94.31C182.749 93.562 182.668 92.7629 182.314 92.0718C181.96 91.3806 181.359 90.848 180.63 90.58C178.124 89.7808 175.499 89.4155 172.87 89.5C172.49 89.5291 172.119 89.6329 171.779 89.8055C171.438 89.9782 171.136 90.2162 170.888 90.506C170.64 90.7959 170.451 91.1318 170.333 91.4945C170.215 91.8573 170.17 92.2397 170.2 92.62C170.203 93.3936 170.511 94.1348 171.058 94.6819C171.605 95.2289 172.346 95.5374 173.12 95.54C175.151 95.4693 177.18 95.7432 179.12 96.35C179.454 96.4627 179.809 96.5002 180.16 96.46Z" fill="#816A55"/>
<path d="M100.87 104.13C101.244 104.096 101.608 103.987 101.94 103.81C103.904 102.789 106.022 102.096 108.21 101.76C109.014 101.618 109.73 101.165 110.202 100.498C110.674 99.8316 110.864 99.0057 110.73 98.2C110.687 97.7992 110.564 97.4112 110.368 97.0591C110.171 96.707 109.906 96.398 109.588 96.1507C109.27 95.9033 108.905 95.7226 108.515 95.6195C108.125 95.5163 107.719 95.4926 107.32 95.55C104.493 95.9675 101.756 96.853 99.22 98.17C98.4932 98.5653 97.9472 99.2258 97.6956 100.014C97.4441 100.802 97.5066 101.657 97.87 102.4C98.1299 102.963 98.5579 103.432 99.0951 103.742C99.6324 104.051 100.252 104.187 100.87 104.13Z" fill="#816A55"/>
<path d="M115.54 29.56C112.49 30.06 110.74 28.44 109.93 25.34C109.35 23.14 107.93 18.43 106.93 15.21C110.245 14.3111 113.607 13.5934 117 13.06C118.283 16.5405 119.175 20.1526 119.66 23.83C120 27.1 118.58 29.06 115.54 29.56Z" fill="#B39175"/>
<path d="M142.83 27.44C139.77 27.73 137.95 26.11 137.2 22.89C136.45 19.67 134.86 15.46 133.83 12.08C137.03 12.21 140.28 12.5 143.54 12.96C144.48 15.82 145.97 19.02 146.26 21.8C146.57 24.85 145.89 27.15 142.83 27.44Z" fill="#B39175"/>
<path d="M120.51 12.58C121.563 12.46 122.603 12.36 123.63 12.28C125.79 12.1134 127.98 12.0267 130.2 12.02C132.521 17.168 134.201 22.582 135.2 28.14C135.25 31.68 133.94 33.49 130.82 33.72C127.7 33.95 125.82 32.37 125.34 29.01C124.64 24.12 122.12 17.67 120.51 12.58Z" fill="#B39175"/>
<path d="M302 171.48C302.416 167.613 302.305 163.707 301.67 159.87C301.643 159.719 301.582 159.576 301.491 159.452C301.4 159.329 301.282 159.228 301.145 159.157C301.009 159.086 300.858 159.048 300.705 159.045C300.551 159.042 300.399 159.075 300.26 159.14C296.753 160.818 293.49 162.965 290.56 165.52C287.67 168.06 284.72 170.64 282.72 175.16C281.43 178.002 280.765 181.089 280.77 184.21C280.88 187.46 282.14 189.73 282.61 194.76C287.01 192.26 289.61 191.99 292.31 190.22C294.872 188.43 297.02 186.111 298.61 183.42C301.15 179.2 301.57 175.31 302 171.48Z" fill="#98B55A"/>
<path d="M280.58 201.79C280.451 201.767 280.327 201.719 280.216 201.648C280.106 201.577 280.01 201.486 279.935 201.378C279.859 201.27 279.806 201.149 279.778 201.02C279.75 200.892 279.747 200.759 279.77 200.63C279.98 199.44 280.278 198.267 280.66 197.12C281.156 195.599 281.795 194.129 282.57 192.73C282.634 192.615 282.719 192.514 282.822 192.432C282.925 192.35 283.043 192.289 283.169 192.253C283.295 192.217 283.428 192.206 283.558 192.221C283.689 192.236 283.815 192.276 283.93 192.34C284.045 192.404 284.146 192.489 284.228 192.592C284.31 192.695 284.371 192.813 284.407 192.939C284.443 193.065 284.454 193.198 284.439 193.328C284.424 193.459 284.384 193.585 284.32 193.7C283.608 194.974 283.018 196.314 282.56 197.7C282.211 198.759 281.937 199.842 281.74 200.94C281.722 201.073 281.677 201.201 281.608 201.316C281.54 201.431 281.449 201.532 281.34 201.611C281.232 201.69 281.109 201.747 280.978 201.778C280.848 201.809 280.712 201.813 280.58 201.79Z" fill="#98B55A"/>
<path d="M266.61 173.79C263.746 172.668 260.747 171.928 257.69 171.59C257.534 171.57 257.376 171.587 257.228 171.64C257.08 171.693 256.947 171.78 256.839 171.894C256.73 172.008 256.651 172.146 256.606 172.296C256.561 172.446 256.552 172.605 256.58 172.76C257.154 175.791 258.126 178.733 259.47 181.51C260.84 184.33 262.24 187.2 265.36 189.74C267.317 191.368 269.602 192.555 272.06 193.22C274.64 193.84 276.69 193.33 280.75 194.04C279.75 190.04 280.08 187.96 279.26 185.44C278.406 183.039 277.041 180.852 275.26 179.03C272.5 176.11 269.53 174.94 266.61 173.79Z" fill="#ADC667"/>
<path d="M295.27 239.37H267.88C266.78 239.37 265.81 238.86 265.72 238.21L261 203.29C260.85 202.19 261.92 201.29 263.39 201.29H299.8C301.27 201.29 302.33 202.19 302.18 203.29L297.44 238.21C297.34 238.86 296.37 239.37 295.27 239.37Z" fill="#6593B3"/>
<path d="M299.55 214H263.55C262.1 214 260.91 213.78 260.88 213.5L259.65 201.28C259.65 200.97 260.84 200.71 262.39 200.71H300.68C302.22 200.71 303.45 200.97 303.42 201.28L302.19 213.5C302.2 213.82 301 214 299.55 214Z" fill="#6593B3"/>
</svg>
