<svg width="295" height="234" viewBox="0 0 295 234" fill="none" xmlns="http://www.w3.org/2000/svg">
<path d="M15.77 149.92C15.92 148.73 20.03 124.92 40.29 113.03C64.41 98.9 92.29 110.72 106.14 128.61C108.766 131.947 111.143 135.473 113.25 139.16C118.549 148.699 122.184 159.07 124 169.83C126.92 186.22 124.29 192.51 128.45 206.05C131.39 215.61 134.73 219.05 136.96 220.72C138.08 221.57 139.81 222.72 142.73 224.98C144.979 226.698 147.089 228.59 149.04 230.64C145.022 231.785 140.891 232.489 136.72 232.74C132.966 232.907 129.206 232.747 125.48 232.26C117.976 231.578 110.772 228.989 104.55 224.74C93.64 217.07 88.88 205.21 86.8 196.92C81.2158 201.326 74.6342 204.292 67.6345 205.557C60.6348 206.821 53.4315 206.346 46.6585 204.173C39.8856 202 33.7505 198.196 28.7932 193.095C23.836 187.994 20.2085 181.752 18.23 174.92C15.5484 166.876 14.7077 158.332 15.77 149.92Z" fill="#BC9C86"/>
<path d="M23.88 201.94C24.2178 201.927 24.5532 201.877 24.88 201.79C26.7967 201.277 28.5986 200.405 30.19 199.22C32.2144 197.728 33.8617 195.783 35 193.54C35.2624 193.041 35.423 192.495 35.4725 191.934C35.5219 191.372 35.4592 190.807 35.288 190.27C35.1167 189.733 34.8404 189.235 34.4751 188.806C34.1097 188.377 33.6627 188.025 33.16 187.77C32.1235 187.28 30.9365 187.215 29.8526 187.589C28.7688 187.962 27.8742 188.745 27.36 189.77C26.8617 190.748 26.1428 191.597 25.26 192.25C24.5842 192.765 23.8176 193.149 23 193.38C21.8733 193.678 20.9056 194.4 20.2997 195.396C19.6938 196.391 19.4968 197.582 19.75 198.72C19.9635 199.65 20.4907 200.477 21.2429 201.064C21.9951 201.65 22.9264 201.96 23.88 201.94Z" fill="#B39175"/>
<path d="M17.08 163.21C17.8893 163.213 18.6837 162.993 19.3755 162.573C20.0672 162.153 20.6295 161.549 21 160.83C21.2638 160.334 21.4257 159.79 21.4763 159.23C21.5269 158.67 21.4652 158.106 21.2947 157.57C21.1242 157.034 20.8485 156.538 20.4836 156.111C20.1187 155.683 19.6721 155.333 19.17 155.08C16.5555 153.791 13.6937 153.082 10.78 153C8.27691 152.916 5.77947 153.289 3.40999 154.1C2.31345 154.464 1.40455 155.245 0.880387 156.275C0.356229 157.305 0.259075 158.499 0.609994 159.6C0.794941 160.139 1.08531 160.635 1.46416 161.06C1.84301 161.486 2.30276 161.831 2.81658 162.077C3.33041 162.323 3.88803 162.464 4.45691 162.492C5.02579 162.52 5.59454 162.434 6.12999 162.24C7.48389 161.776 8.90928 161.556 10.34 161.59C12.0037 161.646 13.6366 162.055 15.13 162.79C15.7371 163.084 16.4058 163.228 17.08 163.21Z" fill="#B39175"/>
<path d="M31.75 125.25C32.8399 125.294 33.9037 124.91 34.7143 124.18C35.5248 123.45 36.018 122.432 36.0885 121.343C36.159 120.255 35.8012 119.182 35.0915 118.354C34.3818 117.525 33.3764 117.007 32.29 116.91C29.4093 116.559 26.7686 115.13 24.9 112.91C24.1684 112.056 23.1332 111.52 22.0134 111.415C20.8935 111.311 19.777 111.646 18.9 112.35C18.4697 112.699 18.1136 113.131 17.8528 113.619C17.592 114.108 17.4317 114.644 17.3814 115.196C17.331 115.748 17.3917 116.304 17.5598 116.832C17.7278 117.36 17.9999 117.849 18.36 118.27C21.6342 122.132 26.2514 124.609 31.28 125.2L31.75 125.25Z" fill="#B39175"/>
<path d="M66.09 112.08C66.8119 112.092 67.5238 111.909 68.15 111.55C70.6436 110.127 72.656 107.993 73.93 105.42C75.2262 102.741 75.6961 99.7369 75.28 96.79C75.1233 95.7199 74.557 94.7525 73.7007 94.0921C72.8443 93.4316 71.7648 93.1297 70.69 93.25C70.1655 93.3188 69.6598 93.4909 69.2023 93.7565C68.7447 94.022 68.3444 94.3757 68.0245 94.797C67.7045 95.2183 67.4713 95.6989 67.3384 96.2109C67.2055 96.7229 67.1754 97.2563 67.25 97.78C67.439 99.1085 67.2266 100.463 66.64 101.67C66.0468 102.824 65.1292 103.78 64 104.42C63.5315 104.684 63.1211 105.041 62.7935 105.468C62.4659 105.894 62.2278 106.383 62.0933 106.904C61.9589 107.425 61.9309 107.967 62.0111 108.499C62.0913 109.031 62.278 109.542 62.56 110C62.9189 110.622 63.4326 111.14 64.0512 111.505C64.6698 111.869 65.3721 112.067 66.09 112.08Z" fill="#B39175"/>
<path d="M74.86 211.73C75.771 211.7 76.6489 211.381 77.3676 210.821C78.0864 210.26 78.6088 209.486 78.86 208.61C79.0277 208.085 79.0901 207.532 79.0436 206.982C78.9971 206.433 78.8426 205.898 78.5889 205.408C78.3353 204.919 77.9876 204.484 77.5656 204.129C77.1437 203.774 76.6558 203.506 76.13 203.34C75.7745 203.229 75.4653 203.004 75.25 202.7C75.0256 202.364 74.92 201.963 74.95 201.56C75.012 201.008 74.9616 200.449 74.8017 199.918C74.6418 199.386 74.3758 198.892 74.0197 198.466C73.6636 198.039 73.2249 197.69 72.7299 197.438C72.235 197.186 71.6941 197.037 71.14 197C70.0142 196.947 68.9122 197.336 68.0682 198.083C67.2242 198.83 66.7047 199.876 66.62 201C66.4054 203.394 67.0236 205.789 68.37 207.78C69.6319 209.61 71.4861 210.948 73.62 211.57C74.0226 211.687 74.4409 211.741 74.86 211.73Z" fill="#B39175"/>
<path d="M211 166.8C213.12 167.03 229.43 167.7 226.88 177.8C225.74 182.28 223.08 182.62 219.15 183.74C216.22 184.672 213.128 184.982 210.071 184.65C207.014 184.318 204.061 183.35 201.4 181.81C196 178.87 189 166.25 189.1 161.86C189.33 154.63 204.19 166.08 211 166.8Z" fill="#CBAC92"/>
<path d="M218.66 179.55C218.954 179.551 219.246 179.497 219.52 179.39C221.79 178.56 224.02 177.57 226.17 176.61C230.43 174.7 234.45 172.91 238.71 172.31C239.96 172.16 243 173.45 245.23 174.41C247.75 175.5 250.14 176.53 252.11 176.68C252.438 176.704 252.768 176.664 253.081 176.561C253.393 176.457 253.683 176.294 253.932 176.079C254.181 175.864 254.386 175.602 254.534 175.308C254.682 175.014 254.771 174.693 254.795 174.365C254.819 174.037 254.779 173.707 254.675 173.394C254.572 173.082 254.409 172.792 254.194 172.543C253.979 172.294 253.717 172.089 253.423 171.941C253.129 171.793 252.808 171.704 252.48 171.68C250.654 171.273 248.884 170.645 247.21 169.81C243.84 168.36 240.66 166.98 238.02 167.35C233.02 168.04 228.52 170.07 224.13 172.03C222.05 172.96 219.91 173.92 217.8 174.69C217.247 174.891 216.782 175.28 216.488 175.79C216.194 176.3 216.089 176.897 216.191 177.477C216.294 178.056 216.598 178.581 217.05 178.958C217.501 179.336 218.071 179.542 218.66 179.54V179.55Z" fill="#816A55"/>
<path d="M238.37 172.34C238.745 172.339 239.114 172.254 239.452 172.091C239.789 171.928 240.086 171.692 240.32 171.4L246.8 163.31C247.214 162.791 247.405 162.13 247.33 161.471C247.256 160.811 246.924 160.209 246.405 159.795C245.887 159.381 245.225 159.19 244.566 159.265C243.907 159.339 243.304 159.672 242.89 160.19L236.42 168.27C236.125 168.642 235.941 169.09 235.891 169.562C235.84 170.034 235.924 170.511 236.133 170.937C236.343 171.363 236.669 171.721 237.074 171.97C237.478 172.218 237.945 172.346 238.42 172.34H238.37Z" fill="#816A55"/>
<path d="M206.27 222.09L203.8 230.38C203.529 231.204 202.985 231.911 202.257 232.384C201.53 232.856 200.663 233.067 199.8 232.98L187.37 232.21C174.29 231.37 166.8 221.15 168.3 214.13C169.4 208.98 175.51 204.64 183.05 203.67C188.21 205.9 199.96 214.14 204.79 217.98C205.415 218.443 205.888 219.08 206.152 219.811C206.415 220.542 206.456 221.335 206.27 222.09Z" fill="#CBAC92"/>
<path d="M126.25 147.4C132.52 143.7 143.62 141.25 152.75 141.2C161.88 141.15 172.87 143.44 179.09 147.04C191.92 154.44 200.22 171.29 199.66 197.12C199 226.8 179.57 232.54 153.13 233C126.49 233.5 106.63 228.43 105.8 198.38C105.09 172.27 113.23 155.07 126.25 147.4Z" fill="#CBAC92"/>
<path d="M129 201.4C129.042 200.866 129.118 200.334 129.23 199.81C132.39 187.26 138.73 179.1 151.93 177.46C154.718 177.19 157.521 177.11 160.32 177.22C173.59 178.05 179.55 185.04 183.57 197.22C183.69 197.6 184.39 200.93 184.45 201.35C186.28 214.54 182.65 223.85 171.77 231.28C165.625 232.387 159.394 232.956 153.15 232.98C148.261 233.11 143.37 232.95 138.5 232.5C127.2 226 128.28 214 129 201.4Z" fill="#F8EFDC"/>
<path d="M93.46 177.3C91.7 180.05 84.12 192.48 88 200C89.72 203.33 95 203.59 98.46 202.45C103.93 200.63 106.12 194.3 109.13 185.22C111.81 177.05 112.46 164.96 112.56 161.53C112.73 155.85 99.06 168.49 93.46 177.3Z" fill="#CBAC92"/>
<path d="M121.84 237.33L130.6 237.15C131.476 237.11 132.315 236.783 132.988 236.219C133.66 235.655 134.128 234.886 134.32 234.03L138.6 232.54C139.231 229.231 138.741 225.807 137.208 222.808C135.676 219.809 133.187 217.406 130.136 215.979C127.085 214.552 123.646 214.183 120.361 214.929C117.077 215.675 114.135 217.495 112 220.1C112.59 225.73 116.09 229.1 118.35 234.83C118.614 235.548 119.088 236.171 119.711 236.617C120.333 237.062 121.075 237.311 121.84 237.33Z" fill="#CBAC92"/>
<path d="M192.55 11.07C183.55 10.96 176.25 18.55 176.28 28.01C176.31 37.47 183.66 45.21 192.66 45.27C201.66 45.33 208.89 37.75 208.86 28.27C208.83 18.79 201.53 11.18 192.55 11.07Z" fill="#CBAC92"/>
<path d="M192.58 18.82C191.385 18.8341 190.205 19.086 189.109 19.5609C188.012 20.0359 187.021 20.7245 186.194 21.5864C185.366 22.4484 184.719 23.4665 184.289 24.5814C183.859 25.6963 183.655 26.8856 183.69 28.08C183.649 30.5109 184.564 32.8608 186.238 34.6242C187.911 36.3877 190.21 37.4239 192.64 37.51C193.832 37.4919 195.009 37.2371 196.102 36.7604C197.195 36.2837 198.182 35.5945 199.007 34.733C199.831 33.8714 200.476 32.8546 200.904 31.7417C201.332 30.6288 201.535 29.4419 201.5 28.25C201.538 25.8248 200.627 23.4807 198.96 21.7187C197.293 19.9566 195.004 18.9163 192.58 18.82Z" fill="#F8EFDC"/>
<path d="M109 10.09C99.79 9.97998 92.32 17.64 92.34 27.22C92.36 36.8 99.85 44.61 109.07 44.68C118.29 44.75 125.68 37.07 125.66 27.54C125.64 18.01 118.21 10.2 109 10.09Z" fill="#CBAC92"/>
<path d="M109 17.93C107.784 17.935 106.582 18.1824 105.463 18.6578C104.344 19.1332 103.331 19.827 102.484 20.6986C101.637 21.5702 100.972 22.6022 100.528 23.7339C100.084 24.8657 99.8707 26.0747 99.9 27.29C99.8648 29.762 100.804 32.1486 102.514 33.9337C104.225 35.7189 106.569 36.7593 109.04 36.83C110.253 36.8184 111.452 36.5659 112.567 36.0872C113.682 35.6084 114.69 34.913 115.534 34.0413C116.378 33.1696 117.04 32.1389 117.482 31.0091C117.924 29.8793 118.138 28.6729 118.11 27.46C118.143 24.9947 117.207 22.6151 115.503 20.8329C113.799 19.0508 111.464 18.0084 109 17.93Z" fill="#F8EFDC"/>
<path d="M153.42 19.84C116.72 19.45 70.12 43.04 67.17 96.64C64.52 145.01 101.35 170.9 153.82 170.37C205.55 169.85 240.82 143.86 238.08 96.66C235 44.26 189.76 20.23 153.42 19.84Z" fill="#CBAC92"/>
<path d="M166.69 140.31C167.008 140.294 167.313 140.177 167.559 139.975C167.806 139.774 167.981 139.499 168.06 139.19C168.176 138.805 168.136 138.391 167.949 138.035C167.762 137.68 167.443 137.412 167.06 137.29C165.42 136.677 163.657 136.471 161.92 136.69C161.522 136.726 161.154 136.915 160.892 137.217C160.631 137.519 160.498 137.911 160.52 138.31C160.523 138.504 160.563 138.696 160.64 138.875C160.717 139.053 160.828 139.215 160.968 139.351C161.107 139.486 161.272 139.593 161.452 139.665C161.633 139.737 161.826 139.773 162.02 139.77C163.439 139.565 164.887 139.734 166.22 140.26C166.372 140.306 166.532 140.323 166.69 140.31Z" fill="#816A55"/>
<path d="M172.22 126.52L163.9 130.81L155.66 126.83L163.87 121.89L172.22 126.52Z" fill="#DDB5A9"/>
<path d="M145.93 126.45C146.084 126.572 146.261 126.662 146.45 126.712C146.64 126.763 146.838 126.775 147.032 126.745C147.227 126.716 147.413 126.648 147.579 126.543C147.746 126.439 147.889 126.302 148 126.14C148.4 125.59 148.79 125.26 149.09 125.23C149.412 125.275 149.712 125.418 149.95 125.64C150.619 126.127 151.362 126.505 152.15 126.76C153.429 128.41 155.04 129.773 156.88 130.76C159.034 131.899 161.444 132.47 163.88 132.42C166.319 132.366 168.706 131.699 170.82 130.48C172.618 129.426 174.181 128.013 175.41 126.33C176.166 126.058 176.874 125.67 177.51 125.18C177.749 124.936 178.055 124.768 178.39 124.7C178.68 124.7 179.06 125.03 179.45 125.55C179.558 125.707 179.698 125.84 179.861 125.939C180.024 126.037 180.206 126.1 180.396 126.123C180.585 126.146 180.777 126.128 180.959 126.07C181.141 126.013 181.308 125.917 181.45 125.79C181.751 125.528 181.943 125.164 181.989 124.768C182.035 124.373 181.932 123.974 181.7 123.65C181.365 123.1 180.909 122.635 180.366 122.288C179.824 121.941 179.21 121.723 178.57 121.65C177.559 121.654 176.585 122.036 175.84 122.72C174.13 124.13 169.42 124.72 167.18 122.72C165.59 121.33 165.39 118.72 165.41 117.32C165.421 117.124 165.392 116.929 165.326 116.744C165.261 116.56 165.158 116.391 165.026 116.246C164.894 116.102 164.734 115.985 164.556 115.904C164.378 115.822 164.186 115.776 163.99 115.77C163.934 115.76 163.876 115.76 163.82 115.77H163.7C163.302 115.796 162.93 115.977 162.665 116.274C162.399 116.572 162.261 116.962 162.28 117.36C162.28 118.78 162.12 121.36 160.52 122.83C158.27 124.83 153.46 124.45 151.75 123.11C150.957 122.428 149.935 122.071 148.89 122.11C148.224 122.206 147.588 122.447 147.026 122.817C146.464 123.187 145.991 123.676 145.64 124.25C145.397 124.584 145.292 124.998 145.345 125.408C145.399 125.817 145.609 126.19 145.93 126.45ZM158.22 127.73C157.83 127.52 157.45 127.59 157.09 127.34C159.042 127.232 160.906 126.491 162.4 125.23C163.001 124.579 163.5 123.84 163.88 123.04C164.259 123.826 164.758 124.548 165.36 125.18C166.853 126.39 168.708 127.066 170.63 127.1C170.27 127.36 169.9 127.3 169.52 127.52C167.806 128.502 165.872 129.036 163.897 129.073C161.922 129.11 159.969 128.648 158.22 127.73Z" fill="#816A55"/>
<path d="M163.84 112.88C161.45 112.88 159.51 114.45 159.52 116.32C159.53 118.19 161.47 119.69 163.86 119.66C166.25 119.63 168.16 118.08 168.16 116.21C168.16 114.34 166.22 112.86 163.84 112.88Z" fill="#816A55"/>
<path d="M202.16 109.25C202.818 109.223 203.447 108.967 203.938 108.528C204.428 108.088 204.751 107.491 204.85 106.84C205.019 106.087 204.89 105.297 204.492 104.636C204.093 103.975 203.455 103.493 202.71 103.29C200.713 102.825 198.807 102.031 197.07 100.94C196.752 100.745 196.396 100.618 196.025 100.568C195.655 100.519 195.278 100.547 194.919 100.652C194.561 100.756 194.228 100.934 193.942 101.175C193.656 101.416 193.424 101.714 193.26 102.05C192.886 102.74 192.781 103.544 192.966 104.307C193.15 105.07 193.612 105.738 194.26 106.18C196.508 107.582 198.976 108.597 201.56 109.18C201.757 109.224 201.958 109.247 202.16 109.25Z" fill="#816A55"/>
<path d="M191.38 114.9C191.6 114.895 191.817 114.837 192.01 114.731C192.203 114.625 192.368 114.473 192.49 114.29C192.716 113.966 192.814 113.57 192.764 113.178C192.714 112.786 192.52 112.427 192.22 112.17C191.015 111.183 189.666 110.387 188.22 109.81C188.041 109.746 187.851 109.72 187.661 109.732C187.472 109.745 187.287 109.795 187.118 109.881C186.948 109.967 186.798 110.087 186.677 110.233C186.555 110.379 186.464 110.548 186.41 110.73C186.279 111.1 186.292 111.505 186.448 111.865C186.604 112.225 186.89 112.513 187.25 112.67C188.452 113.133 189.573 113.785 190.57 114.6C190.798 114.789 191.084 114.895 191.38 114.9Z" fill="#816A55"/>
<path d="M122.82 109.93C123.032 109.928 123.244 109.901 123.45 109.85C126.244 109.207 128.913 108.109 131.35 106.6C132.042 106.157 132.539 105.466 132.74 104.669C132.94 103.872 132.83 103.028 132.43 102.31C132.242 101.958 131.984 101.649 131.672 101.4C131.36 101.151 131.001 100.969 130.616 100.864C130.232 100.759 129.829 100.734 129.435 100.79C129.04 100.846 128.66 100.982 128.32 101.19C126.424 102.355 124.35 103.203 122.18 103.7C121.379 103.897 120.687 104.4 120.252 105.101C119.816 105.801 119.672 106.644 119.85 107.45C119.982 108.143 120.35 108.769 120.891 109.221C121.433 109.673 122.115 109.924 122.82 109.93Z" fill="#816A55"/>
<path d="M135.84 114.64C136.083 114.637 136.321 114.574 136.534 114.457C136.747 114.341 136.927 114.173 137.06 113.97C138.034 112.5 139.268 111.219 140.7 110.19C141.029 109.949 141.255 109.592 141.331 109.191C141.407 108.79 141.328 108.375 141.11 108.03C141.007 107.862 140.87 107.717 140.709 107.604C140.547 107.491 140.364 107.413 140.171 107.373C139.978 107.334 139.779 107.335 139.586 107.375C139.393 107.416 139.211 107.496 139.05 107.61C137.302 108.848 135.8 110.401 134.62 112.19C134.391 112.531 134.3 112.946 134.367 113.351C134.434 113.757 134.653 114.121 134.98 114.37C135.228 114.554 135.531 114.65 135.84 114.64Z" fill="#816A55"/>
<path d="M153.06 95.81C153.442 95.8 153.806 95.6443 154.078 95.3748C154.349 95.1053 154.507 94.7423 154.52 94.36C154.604 92.7992 154.342 91.2392 153.755 89.7908C153.167 88.3424 152.267 87.0413 151.12 85.98C150.975 85.8494 150.805 85.7501 150.62 85.6881C150.436 85.6261 150.24 85.6028 150.046 85.6197C149.852 85.6366 149.663 85.6933 149.492 85.7862C149.32 85.8792 149.17 86.0064 149.05 86.16C148.799 86.4809 148.679 86.8843 148.712 87.2902C148.745 87.696 148.93 88.0744 149.23 88.35C150.028 89.0844 150.655 89.9859 151.064 90.9902C151.474 91.9945 151.657 93.0768 151.6 94.16C151.567 94.5597 151.691 94.9566 151.948 95.2652C152.204 95.5738 152.571 95.7695 152.97 95.81H153.06Z" fill="#816A55"/>
<path d="M172.41 94.33C172.604 94.3236 172.795 94.2788 172.971 94.1983C173.148 94.1177 173.307 94.003 173.439 93.8608C173.571 93.7186 173.673 93.5516 173.74 93.3695C173.808 93.1875 173.838 92.9939 173.83 92.8V88.06C173.841 87.6681 173.697 87.2878 173.429 87.0014C173.162 86.715 172.792 86.5456 172.4 86.53C172.206 86.5338 172.014 86.5764 171.836 86.6553C171.659 86.7342 171.499 86.8477 171.365 86.9893C171.232 87.1309 171.129 87.2976 171.061 87.4798C170.993 87.6619 170.962 87.8558 170.97 88.05V92.8C170.959 93.1935 171.105 93.5753 171.374 93.862C171.644 94.1487 172.017 94.3169 172.41 94.33Z" fill="#816A55"/>
<path d="M177.67 91.8C178.027 91.7911 178.367 91.6502 178.626 91.4045C178.885 91.1587 179.043 90.8257 179.07 90.47C179.229 89.1443 179.565 87.846 180.07 86.61C180.214 86.244 180.218 85.8377 180.082 85.4688C179.945 85.0998 179.678 84.7941 179.33 84.61C179.157 84.5308 178.969 84.4883 178.779 84.485C178.589 84.4818 178.4 84.5179 178.225 84.5912C178.049 84.6644 177.89 84.7732 177.759 84.9107C177.627 85.0482 177.526 85.2113 177.46 85.39C176.852 86.9025 176.452 88.4902 176.27 90.11C176.215 90.499 176.314 90.8941 176.545 91.2115C176.777 91.529 177.123 91.7436 177.51 91.81L177.67 91.8Z" fill="#816A55"/>
<path d="M224.58 54.53H224.66C227.712 54.5855 230.725 53.8408 233.4 52.37C234.264 51.8464 234.899 51.0149 235.175 50.0429C235.451 49.0708 235.35 48.0301 234.89 47.13C234.714 46.6825 234.448 46.2766 234.106 45.938C233.765 45.5994 233.357 45.3356 232.908 45.1634C232.46 44.9913 231.98 44.9145 231.5 44.938C231.02 44.9615 230.55 45.0848 230.12 45.3C228.431 46.2267 226.526 46.689 224.6 46.64C222.601 46.5815 220.651 46.0061 218.94 44.97C218.527 44.7192 218.065 44.5601 217.585 44.5035C217.105 44.447 216.619 44.4943 216.159 44.6422C215.699 44.7902 215.276 45.0353 214.919 45.361C214.562 45.6868 214.279 46.0854 214.09 46.53C213.649 47.4627 213.565 48.5244 213.852 49.5152C214.139 50.506 214.779 51.3577 215.65 51.91C218.353 53.5337 221.428 54.4359 224.58 54.53Z" fill="#B39175"/>
<path d="M245.91 96.89C247.42 96.8907 248.924 96.6889 250.38 96.29C251.312 95.9651 252.088 95.3012 252.553 94.4303C253.018 93.5595 253.138 92.5455 252.89 91.59C252.817 91.1193 252.648 90.6687 252.393 90.2661C252.138 89.8635 251.804 89.5174 251.41 89.2492C251.016 88.9811 250.572 88.7967 250.104 88.7074C249.636 88.6181 249.155 88.6258 248.69 88.73C246.231 89.3842 243.62 89.1469 241.32 88.06C238.922 86.8728 236.956 84.9632 235.7 82.6C235.496 82.1681 235.203 81.7844 234.84 81.4743C234.476 81.1643 234.051 80.935 233.593 80.8017C233.134 80.6684 232.653 80.6341 232.18 80.701C231.707 80.7679 231.254 80.9346 230.85 81.19C230.024 81.7847 229.444 82.6618 229.221 83.6552C228.998 84.6485 229.147 85.6892 229.64 86.58C231.648 90.354 234.798 93.3959 238.64 95.27C240.914 96.3408 243.397 96.8941 245.91 96.89Z" fill="#B39175"/>
<path d="M237.34 143.7C237.707 143.689 238.069 143.614 238.41 143.48C239.335 143.07 240.077 142.333 240.493 141.411C240.91 140.489 240.973 139.446 240.67 138.48C240.082 136.446 239.137 134.533 237.88 132.83C236.588 131.074 234.952 129.601 233.07 128.5C232.649 128.268 232.183 128.127 231.703 128.088C231.224 128.048 230.741 128.11 230.287 128.269C229.833 128.429 229.418 128.682 229.069 129.013C228.719 129.344 228.444 129.745 228.26 130.19C227.803 131.1 227.699 132.148 227.968 133.13C228.238 134.113 228.862 134.961 229.72 135.51C230.773 136.115 231.689 136.932 232.41 137.91C233.107 138.857 233.632 139.92 233.96 141.05C234.147 141.805 234.582 142.476 235.194 142.957C235.807 143.437 236.562 143.698 237.34 143.7Z" fill="#B39175"/>
<path d="M216 165.09C216.629 165.04 217.235 164.83 217.76 164.48C218.285 164.13 218.712 163.652 219 163.09C219.52 162.205 219.695 161.158 219.49 160.152C219.285 159.146 218.715 158.251 217.89 157.64C217.219 157.189 216.672 156.577 216.3 155.86C215.975 155.221 215.778 154.525 215.72 153.81C215.706 153.318 215.591 152.833 215.382 152.387C215.174 151.94 214.877 151.541 214.509 151.213C214.141 150.886 213.71 150.636 213.243 150.481C212.775 150.326 212.281 150.268 211.79 150.31C210.781 150.496 209.879 151.057 209.267 151.881C208.655 152.705 208.377 153.73 208.49 154.75C208.63 156.585 209.144 158.371 210 160C210.93 161.82 212.306 163.375 214 164.52C214.586 164.925 215.289 165.126 216 165.09Z" fill="#B39175"/>
<path d="M91.4 164.3C92.0915 164.266 92.7648 164.067 93.3634 163.719C93.9619 163.371 94.4683 162.884 94.84 162.3L98.98 155.89C99.606 154.962 99.8435 153.826 99.6416 152.725C99.4397 151.624 98.8145 150.646 97.9 150C97.4371 149.702 96.9195 149.499 96.3775 149.404C95.8355 149.308 95.2798 149.321 94.7428 149.442C94.2058 149.563 93.6983 149.789 93.2497 150.108C92.8012 150.427 92.4205 150.832 92.13 151.3L88 157.74C87.3704 158.67 87.1327 159.811 87.3386 160.916C87.5446 162.02 88.1774 162.999 89.1 163.64C89.7814 164.09 90.584 164.32 91.4 164.3Z" fill="#B39175"/>
<path d="M62.89 137.62H63.25C66.2851 137.297 69.2528 136.511 72.05 135.29C74.968 134.025 77.6679 132.307 80.05 130.2C80.901 129.45 81.4268 128.398 81.5164 127.267C81.6059 126.136 81.2522 125.015 80.53 124.14C80.1695 123.709 79.7254 123.355 79.2245 123.101C78.7236 122.846 78.1762 122.695 77.6155 122.658C77.0548 122.62 76.4923 122.697 75.962 122.883C75.4317 123.069 74.9446 123.361 74.53 123.74C72.8198 125.237 70.8866 126.459 68.8 127.36C66.7948 128.22 64.6705 128.769 62.5 128.99C61.3526 129.116 60.2998 129.686 59.5658 130.576C58.8318 131.467 58.4745 132.61 58.57 133.76C58.6568 134.835 59.1538 135.835 59.958 136.554C60.7622 137.273 61.8121 137.654 62.89 137.62Z" fill="#B39175"/>
<path d="M63.53 98.21C64.2939 98.2089 65.0436 98.0034 65.7012 97.6148C66.3589 97.2262 66.9006 96.6686 67.27 96C68.5116 93.7098 70.174 91.6742 72.17 90C73.924 88.5328 75.9116 87.37 78.05 86.56C79.1188 86.1622 79.9859 85.3561 80.4603 84.319C80.9348 83.2819 80.9778 82.0988 80.58 81.03C80.1822 79.9612 79.3761 79.0942 78.339 78.6197C77.3019 78.1453 76.1188 78.1022 75.05 78.5C72.0209 79.6244 69.2044 81.2542 66.72 83.32C63.8808 85.6565 61.5062 88.506 59.72 91.72C59.1648 92.724 59.0276 93.9065 59.3384 95.0109C59.6491 96.1154 60.3827 97.0528 61.38 97.62C62.031 98.0054 62.7735 98.2092 63.53 98.21Z" fill="#B39175"/>
<path d="M81 57.85C83.4106 57.9014 85.8158 57.6016 88.14 56.96C92.1817 55.8296 95.8658 53.6811 98.84 50.72C99.6149 49.9135 100.048 48.8384 100.048 47.72C100.048 46.6016 99.6149 45.5265 98.84 44.72C98.4727 44.3159 98.0278 43.9898 97.5319 43.7611C97.0359 43.5325 96.499 43.406 95.9532 43.3892C95.4073 43.3724 94.8636 43.4657 94.3546 43.6634C93.8455 43.8611 93.3814 44.1592 92.99 44.54C90.9912 46.5346 88.5057 47.9721 85.78 48.71C83.0767 49.4381 80.2348 49.4827 77.51 48.84C76.9702 48.7095 76.4096 48.6898 75.862 48.782C75.3144 48.8742 74.7912 49.0764 74.3239 49.3764C73.8566 49.6764 73.455 50.0679 73.1432 50.5275C72.8314 50.987 72.616 51.5049 72.51 52.05C72.2871 53.1698 72.5062 54.3324 73.1213 55.2943C73.7365 56.2561 74.7 56.9427 75.81 57.21C77.5133 57.6019 79.2525 57.8164 81 57.85Z" fill="#B39175"/>
<path d="M99.37 92C99.7288 91.9938 100.075 91.8656 100.351 91.6366C100.627 91.4076 100.817 91.0914 100.89 90.74C101.837 86.0828 103.09 81.4928 104.64 77C106.285 72.2627 108.263 67.6479 110.56 63.19C110.749 62.8178 110.788 62.3874 110.669 61.9874C110.55 61.5874 110.282 61.2483 109.92 61.04C109.744 60.939 109.55 60.8745 109.349 60.8506C109.148 60.8267 108.944 60.8437 108.75 60.9007C108.555 60.9577 108.375 61.0535 108.218 61.1823C108.062 61.311 107.933 61.4701 107.84 61.65C105.469 66.2482 103.43 71.0104 101.74 75.9C100.131 80.5083 98.8319 85.2188 97.85 90C97.7604 90.4096 97.8363 90.838 98.061 91.192C98.2857 91.546 98.6412 91.7968 99.05 91.89C99.1531 91.9363 99.2603 91.9731 99.37 92Z" fill="#BC9C86"/>
<path d="M90.59 94.12C90.9519 94.1156 91.3013 93.987 91.5798 93.7559C91.8583 93.5247 92.049 93.2049 92.12 92.85C94.0783 83.2321 97.356 73.9308 101.86 65.21C102.051 64.8383 102.092 64.407 101.972 64.0063C101.853 63.6056 101.583 63.2665 101.22 63.06C101.043 62.9577 100.848 62.8925 100.645 62.8684C100.443 62.8443 100.237 62.8618 100.041 62.9199C99.8458 62.9779 99.6641 63.0752 99.5073 63.2059C99.3506 63.3366 99.2222 63.4979 99.13 63.68C96.7503 68.3022 94.7018 73.0876 93 78C91.3902 82.6436 90.0841 87.3869 89.09 92.2C89.0005 92.6122 89.0774 93.0432 89.304 93.399C89.5306 93.7548 89.8886 94.0068 90.3 94.1C90.3955 94.1182 90.4929 94.1249 90.59 94.12Z" fill="#BC9C86"/>
<path d="M88.19 91.19C88.3947 91.1903 88.5974 91.1497 88.7863 91.0708C88.9752 90.9918 89.1464 90.8759 89.29 90.73C91.788 88.215 94.7049 86.1542 97.91 84.64C101.055 83.142 104.441 82.2143 107.91 81.9C108.309 81.837 108.669 81.6247 108.917 81.306C109.165 80.9873 109.282 80.5862 109.245 80.1841C109.209 79.782 109.02 79.409 108.718 79.1408C108.416 78.8726 108.024 78.7293 107.62 78.74C103.784 79.0721 100.038 80.0882 96.56 81.74C93.0247 83.4036 89.8065 85.6709 87.05 88.44C86.7549 88.7441 86.5899 89.1512 86.5899 89.575C86.5899 89.9987 86.7549 90.4059 87.05 90.71C87.1969 90.864 87.3739 90.9861 87.57 91.0686C87.7662 91.1512 87.9772 91.1925 88.19 91.19Z" fill="#BC9C86"/>
<path d="M90.78 77.31C91.0003 77.3392 91.2243 77.3203 91.4366 77.2547C91.6489 77.1891 91.8445 77.0783 92.01 76.93C94.6346 74.5683 97.6494 72.6803 100.92 71.35C104.144 70.0424 107.573 69.3146 111.05 69.2C111.254 69.1898 111.453 69.1395 111.637 69.0519C111.822 68.9644 111.987 68.8414 112.123 68.69C112.26 68.5386 112.365 68.3617 112.433 68.1695C112.501 67.9773 112.531 67.7736 112.52 67.57C112.507 67.157 112.334 66.7653 112.037 66.4779C111.74 66.1904 111.343 66.0298 110.93 66.03C107.101 66.1521 103.323 66.9476 99.77 68.38C96.1661 69.8387 92.8433 71.9129 89.95 74.51C89.6384 74.7951 89.4496 75.1901 89.4235 75.6117C89.3974 76.0333 89.536 76.4486 89.81 76.77C90.055 77.0643 90.4008 77.2569 90.78 77.31Z" fill="#BC9C86"/>
<path d="M206.69 148.65C206.901 148.674 207.114 148.648 207.312 148.573C207.51 148.498 207.688 148.377 207.83 148.22C210.155 145.742 212.31 143.109 214.28 140.34C216.114 137.73 217.784 135.008 219.28 132.19C219.456 131.855 219.505 131.468 219.416 131.1C219.328 130.732 219.109 130.408 218.8 130.19C218.644 130.094 218.469 130.032 218.287 130.008C218.105 129.985 217.92 130 217.744 130.053C217.569 130.106 217.406 130.195 217.267 130.315C217.129 130.435 217.017 130.584 216.94 130.75C215.497 133.455 213.88 136.064 212.1 138.56C210.214 141.22 208.146 143.747 205.91 146.12C205.642 146.405 205.489 146.779 205.48 147.17C205.471 147.562 205.606 147.942 205.86 148.24C206.076 148.475 206.372 148.621 206.69 148.65Z" fill="#BC9C86"/>
<path d="M212.2 148.25C212.411 148.274 212.624 148.248 212.822 148.173C213.02 148.098 213.198 147.977 213.34 147.82C215.655 145.35 217.796 142.724 219.75 139.96C221.586 137.361 223.256 134.649 224.75 131.84C224.928 131.506 224.978 131.117 224.889 130.749C224.801 130.38 224.581 130.057 224.27 129.84C224.115 129.745 223.941 129.684 223.761 129.661C223.58 129.637 223.397 129.652 223.223 129.704C223.048 129.756 222.887 129.844 222.749 129.962C222.61 130.08 222.498 130.226 222.42 130.39C220.987 133.089 219.383 135.694 217.62 138.19C215.741 140.838 213.683 143.353 211.46 145.72C211.194 146.008 211.042 146.382 211.03 146.774C211.019 147.165 211.151 147.548 211.4 147.85C211.612 148.072 211.895 148.214 212.2 148.25Z" fill="#BC9C86"/>
<path d="M216.08 137.21L217.22 137.33C219.634 137.529 222.064 137.268 224.38 136.56C224.745 136.438 225.051 136.183 225.236 135.846C225.421 135.508 225.473 135.114 225.38 134.74C225.349 134.56 225.28 134.388 225.179 134.235C225.077 134.082 224.945 133.953 224.791 133.854C224.637 133.755 224.464 133.69 224.283 133.661C224.102 133.633 223.917 133.643 223.74 133.69C221.72 134.302 219.603 134.526 217.5 134.35C215.383 134.175 213.317 133.606 211.41 132.67C211.242 132.592 211.059 132.551 210.874 132.547C210.688 132.544 210.504 132.579 210.333 132.651C210.162 132.722 210.008 132.828 209.88 132.962C209.752 133.097 209.653 133.256 209.59 133.43C209.425 133.785 209.402 134.189 209.525 134.56C209.647 134.932 209.907 135.243 210.25 135.43C212.09 136.321 214.056 136.921 216.08 137.21Z" fill="#BC9C86"/>
<path d="M213 144.92C215.408 145.239 217.854 145.1 220.21 144.51C220.576 144.398 220.888 144.154 221.084 143.825C221.28 143.496 221.346 143.105 221.27 142.73C221.246 142.547 221.185 142.372 221.09 142.214C220.995 142.056 220.869 141.92 220.718 141.814C220.568 141.707 220.397 141.634 220.216 141.597C220.036 141.56 219.85 141.561 219.67 141.6C217.614 142.11 215.48 142.229 213.38 141.95C211.271 141.671 209.234 140.992 207.38 139.95C207.215 139.864 207.033 139.813 206.847 139.801C206.661 139.789 206.475 139.815 206.3 139.879C206.125 139.943 205.965 140.043 205.831 140.172C205.696 140.302 205.591 140.458 205.52 140.63C205.349 140.975 205.313 141.373 205.421 141.743C205.528 142.113 205.77 142.43 206.1 142.63C208.235 143.822 210.576 144.599 213 144.92Z" fill="#BC9C86"/>
<path d="M156.18 25C156.57 25.0073 156.959 24.9498 157.33 24.83C160.593 23.7943 163.446 21.7538 165.48 19C170.31 12.51 168.57 4.76999 168.17 3.27999C168.05 2.77951 167.831 2.308 167.526 1.8929C167.222 1.47781 166.838 1.12743 166.397 0.862187C165.956 0.596941 165.466 0.422129 164.957 0.347928C164.448 0.273727 163.928 0.301621 163.43 0.429989C162.434 0.739935 161.598 1.42676 161.101 2.344C160.604 3.26124 160.486 4.33631 160.77 5.33999C160.91 5.84999 162.03 10.45 159.38 14.01C158.283 15.4763 156.749 16.5579 155 17.1C154.011 17.4399 153.195 18.1536 152.725 19.0882C152.256 20.0227 152.172 21.1039 152.49 22.1C152.711 22.916 153.19 23.6389 153.855 24.1613C154.519 24.6837 155.335 24.9778 156.18 25Z" fill="#B39175"/>
<path d="M143.83 36.35C140.75 36.58 139.15 34.81 138.62 31.65C138.24 29.41 137.25 24.59 136.49 21.3C139.876 20.6741 143.295 20.2401 146.73 20C147.701 23.5931 148.274 27.2818 148.44 31C148.51 34.29 146.91 36.12 143.83 36.35Z" fill="#B39175"/>
<path d="M171.21 36.64C168.13 36.64 166.47 34.89 165.99 31.64C165.51 28.39 164.32 24.04 163.59 20.58C166.818 20.9894 170.022 21.5668 173.19 22.31C173.88 25.24 175.07 28.56 175.12 31.31C175.16 34.39 174.28 36.62 171.21 36.64Z" fill="#B39175"/>
<path d="M254.4 159.21C255.619 155.519 257.338 152.013 259.51 148.79C259.596 148.664 259.711 148.559 259.844 148.484C259.977 148.409 260.125 148.366 260.278 148.357C260.43 148.348 260.583 148.375 260.724 148.434C260.865 148.494 260.99 148.585 261.09 148.7C263.589 151.679 265.668 154.987 267.27 158.53C268.86 162.04 270.47 165.61 270.42 170.53C270.41 173.655 269.728 176.742 268.42 179.58C266.98 182.5 264.89 184.04 262.37 188.42C259.37 184.33 257.17 183.02 255.42 180.27C253.832 177.582 252.84 174.585 252.51 171.48C252 166.59 253.19 162.87 254.4 159.21Z" fill="#98B55A"/>
<path d="M261.34 195.67C261.467 195.703 261.6 195.711 261.73 195.692C261.861 195.674 261.986 195.63 262.1 195.563C262.213 195.496 262.312 195.408 262.391 195.303C262.47 195.197 262.527 195.078 262.56 194.95C262.86 193.78 263.078 192.591 263.21 191.39C263.382 189.802 263.408 188.202 263.29 186.61C263.27 186.345 263.146 186.098 262.944 185.925C262.742 185.751 262.48 185.665 262.215 185.685C261.95 185.705 261.703 185.829 261.53 186.031C261.356 186.233 261.27 186.495 261.29 186.76C261.491 189.346 261.265 191.948 260.62 194.46C260.556 194.716 260.596 194.987 260.731 195.213C260.866 195.44 261.085 195.604 261.34 195.67Z" fill="#98B55A"/>
<path d="M284.81 172.44C287.882 172.272 290.962 172.514 293.97 173.16C294.123 173.19 294.267 173.256 294.39 173.351C294.514 173.447 294.613 173.571 294.68 173.711C294.747 173.852 294.78 174.007 294.777 174.163C294.773 174.319 294.733 174.472 294.66 174.61C293.166 177.309 291.32 179.797 289.17 182.01C286.97 184.26 284.75 186.54 280.99 188.01C278.617 188.936 276.074 189.345 273.53 189.21C270.89 188.98 269.1 187.85 265.02 187.21C267.25 183.74 267.58 181.65 269.14 179.51C270.706 177.504 272.684 175.857 274.94 174.68C278.49 172.79 281.68 172.62 284.81 172.44Z" fill="#ADC667"/>
<path d="M247.85 232.08H275.23C276.34 232.08 277.3 231.57 277.39 230.92L282.13 196C282.28 194.9 281.21 194 279.74 194H243.34C241.87 194 240.8 194.9 240.95 196L245.69 230.92C245.78 231.57 246.74 232.08 247.85 232.08Z" fill="#6593B3"/>
<path d="M243.56 206.75H279.56C281.01 206.75 282.21 206.53 282.24 206.25L283.43 194C283.43 193.69 282.23 193.43 280.69 193.43H242.39C240.85 193.43 239.62 193.69 239.65 194L240.89 206.22C240.91 206.53 242.11 206.75 243.56 206.75Z" fill="#6593B3"/>
</svg>
