<svg width="266" height="199" viewBox="0 0 266 199" fill="none" xmlns="http://www.w3.org/2000/svg">
<path d="M205.72 109.15C197.41 103.24 186.39 102.61 177.12 103.45C167.85 104.29 157.87 107 150 113.54C142.65 119.62 137.4 125.65 133.92 132.67C129.53 141.53 129.22 149.43 128.48 165.19C127.81 179.43 125.86 188.92 130.07 190.05C137.65 192.05 150.5 194.28 179.51 193.7C210.81 193.07 216.68 184.4 219.61 180.9C223.85 175.9 226.4 168.95 226.78 159.61C227.68 135.66 222.93 121.39 205.72 109.15Z" fill="#CAB49F"/>
<path d="M197.2 101.66C192.779 98.5072 187.916 96.0238 182.77 94.29C179.71 93.0413 177.007 91.0558 174.9 88.51C178.682 81.6531 180.822 74.0123 181.152 66.1884C181.482 58.3645 179.992 50.5707 176.801 43.4198C173.609 36.269 168.802 29.956 162.757 24.9771C156.713 19.9983 149.596 16.4894 141.966 14.7262C134.337 12.9631 126.402 12.9938 118.786 14.816C111.17 16.6381 104.081 20.202 98.075 25.2275C92.0695 30.253 87.3115 36.6031 84.1751 43.7784C81.0388 50.9538 79.6096 58.7589 80 66.58C79.38 81.8 89.83 100.45 100.13 107.94C104.133 110.907 108.502 113.344 113.13 115.19C115.389 116.086 117.692 116.867 120.03 117.53C120.03 117.53 121.31 117.9 122.67 118.23C126.24 119.09 141.81 124.65 162.51 121.36C170.9 120.03 176.98 117.36 181.58 117.11C185.97 116.82 190.28 115.85 198.9 113.91C200.728 113.579 202.401 112.668 203.67 111.31C204.354 110.517 204.864 109.591 205.17 108.59C202.744 106.028 200.075 103.707 197.2 101.66Z" fill="#BAA496"/>
<path d="M187.72 70.84C181.293 70.8472 175.125 68.3046 170.57 63.77C170.182 63.4033 169.871 62.9626 169.656 62.4739C169.441 61.9853 169.326 61.4585 169.318 60.9247C169.31 60.3909 169.409 59.8609 169.609 59.3658C169.808 58.8708 170.105 58.4208 170.482 58.0423C170.858 57.6638 171.307 57.3645 171.801 57.162C172.295 56.9595 172.824 56.858 173.358 56.8634C173.892 56.8688 174.419 56.981 174.909 57.1933C175.399 57.4057 175.841 57.714 176.21 58.1C178.121 59.9968 180.471 61.3919 183.051 62.1612C185.632 62.9306 188.362 63.0504 191 62.51C191.521 62.3845 192.062 62.3651 192.591 62.4528C193.12 62.5406 193.626 62.7338 194.079 63.021C194.532 63.3082 194.922 63.6834 195.227 64.1245C195.532 64.5656 195.745 65.0634 195.853 65.5884C195.962 66.1135 195.964 66.655 195.859 67.1808C195.754 67.7066 195.545 68.206 195.243 68.6493C194.942 69.0925 194.554 69.4706 194.103 69.7611C193.653 70.0515 193.148 70.2484 192.62 70.34C191.008 70.6743 189.366 70.8418 187.72 70.84Z" fill="#B19A82"/>
<path d="M166.06 21.07C165.561 21.577 164.935 21.9416 164.248 22.1262C163.56 22.3108 162.836 22.3086 162.15 22.12C157.703 20.9092 152.971 21.3094 148.79 23.25C147.835 23.6532 146.761 23.6702 145.795 23.2973C144.828 22.9245 144.043 22.191 143.606 21.2512C143.17 20.3115 143.115 19.2389 143.453 18.2594C143.791 17.2799 144.496 16.4699 145.42 16C151.312 13.2497 157.99 12.6861 164.26 14.41C164.933 14.5939 165.545 14.9504 166.038 15.4441C166.53 15.9378 166.885 16.5517 167.066 17.2247C167.248 17.8978 167.251 18.6067 167.075 19.2812C166.898 19.9557 166.548 20.5724 166.06 21.07Z" fill="#B19A82"/>
<path d="M82.81 42.47H82.73C79.2987 42.4506 75.9204 41.6214 72.87 40.05C72.4031 39.8084 71.9884 39.4772 71.6496 39.0753C71.3108 38.6734 71.0544 38.2087 70.8951 37.7077C70.7359 37.2067 70.6769 36.6793 70.7215 36.1555C70.766 35.6317 70.9133 35.1219 71.155 34.655C71.3966 34.1882 71.7278 33.7735 72.1297 33.4346C72.5316 33.0958 72.9963 32.8394 73.4973 32.6802C73.9983 32.5209 74.5257 32.4619 75.0495 32.5065C75.5733 32.5511 76.0831 32.6984 76.55 32.94C78.4697 33.9343 80.5981 34.4586 82.76 34.47C84.9616 34.4708 87.1317 33.9462 89.09 32.94C90.0328 32.4533 91.1304 32.3612 92.1412 32.6837C92.6417 32.8434 93.1059 33.1002 93.5071 33.4393C93.9084 33.7784 94.239 34.1932 94.48 34.66C94.721 35.1269 94.8676 35.6366 94.9116 36.1601C94.9556 36.6837 94.896 37.2107 94.7363 37.7112C94.5766 38.2118 94.3198 38.6759 93.9807 39.0772C93.6416 39.4785 93.2268 39.809 92.76 40.05C89.6828 41.636 86.2718 42.4656 82.81 42.47Z" fill="#B19A82"/>
<path d="M112.08 26.47C111.698 26.3703 111.333 26.2117 111 26C108.09 24.0505 105.843 21.2596 104.56 18C101.56 10.3 105.56 3.45001 106.35 2.16001C106.621 1.69733 106.983 1.29394 107.413 0.973854C107.844 0.653768 108.334 0.42352 108.855 0.296799C109.377 0.170078 109.918 0.14947 110.447 0.236214C110.977 0.322958 111.483 0.515278 111.937 0.801728C112.39 1.08818 112.781 1.46291 113.087 1.90363C113.393 2.34436 113.607 2.84207 113.716 3.36716C113.826 3.89225 113.828 4.43399 113.724 4.96017C113.62 5.48634 113.411 5.9862 113.11 6.43001C112.83 6.87001 110.41 10.91 112.03 15.13C112.719 16.8739 113.927 18.3644 115.49 19.4C116.278 19.9373 116.848 20.7385 117.097 21.659C117.347 22.5796 117.259 23.5589 116.85 24.4205C116.441 25.2821 115.738 25.9691 114.867 26.3577C113.996 26.7464 113.014 26.811 112.1 26.54L112.08 26.47Z" fill="#B19A82"/>
<path d="M96.73 70.22C133.67 70.84 179.43 95.39 182.51 147.95C182.87 153.95 182.62 168.11 175.07 178.95C164.97 193.39 150.85 197.41 96.07 197.41C63.62 197.41 37.92 197.35 28.95 197.35C28.4771 197.33 28.0078 197.26 27.55 197.14C26.55 196.9 23.68 196 20.2 190.78C18.9378 188.9 17.8849 186.888 17.06 184.78C13.2383 174.18 11.1188 163.042 10.78 151.78C10.91 144.09 11.22 126.3 20.42 109.78C35.49 82.69 68.57 69.75 96.73 70.22Z" fill="#CAB49F"/>
<path d="M243.52 168.1L239.1 175.94C238.658 176.698 237.979 177.29 237.168 177.624C236.356 177.959 235.458 178.017 234.61 177.79L222.93 173.69C220.225 172.685 217.85 170.952 216.068 168.683C214.286 166.414 213.165 163.696 212.83 160.83C212.21 153.57 217.49 146.35 225.57 144.42C230.11 147.66 239.28 158.9 243.1 163.69C243.597 164.302 243.901 165.047 243.976 165.832C244.051 166.616 243.892 167.405 243.52 168.1Z" fill="#CAB49F"/>
<path d="M159.13 180.7C157.39 181.05 144.01 186.37 143.53 192.95C143.57 194.759 144.178 196.509 145.267 197.954C146.356 199.398 147.872 200.464 149.6 201C155.51 202.44 162.14 199.43 167.03 196.51C171.42 193.89 179.57 187.81 181.21 184.46C183.91 179 164.71 179.6 159.13 180.7Z" fill="#CAB49F"/>
<path d="M24.48 152.56H7.27998C3.52444 152.56 0.47998 155.604 0.47998 159.36V160.13C0.47998 163.886 3.52444 166.93 7.27998 166.93H24.48C28.2355 166.93 31.28 163.886 31.28 160.13V159.36C31.28 155.604 28.2355 152.56 24.48 152.56Z" fill="#CAB49F"/>
<path d="M103.54 152.56H86.34C82.5844 152.56 79.54 155.604 79.54 159.36V160.13C79.54 163.886 82.5844 166.93 86.34 166.93H103.54C107.296 166.93 110.34 163.886 110.34 160.13V159.36C110.34 155.604 107.296 152.56 103.54 152.56Z" fill="#CAB49F"/>
<path d="M103.54 168.43H86.34C84.1395 168.427 82.0299 167.552 80.4739 165.996C78.9179 164.44 78.0426 162.33 78.04 160.13V159.36C78.0436 158.045 78.3591 156.749 78.9606 155.579C79.562 154.409 80.4323 153.398 81.5 152.63C81.8222 152.397 82.224 152.301 82.6169 152.364C83.0097 152.426 83.3616 152.643 83.595 152.965C83.8284 153.287 83.9242 153.689 83.8614 154.082C83.7985 154.475 83.5822 154.827 83.26 155.06C82.5763 155.55 82.0187 156.195 81.6328 156.943C81.2468 157.69 81.0437 158.519 81.04 159.36V160.13C81.04 161.536 81.5984 162.884 82.5923 163.878C83.5863 164.872 84.9343 165.43 86.34 165.43H103.54C104.235 165.431 104.923 165.295 105.565 165.029C106.207 164.763 106.79 164.373 107.28 163.88C107.564 163.615 107.94 163.471 108.329 163.478C108.718 163.485 109.088 163.642 109.363 163.917C109.638 164.192 109.795 164.562 109.802 164.951C109.809 165.34 109.665 165.716 109.4 166C108.633 166.773 107.719 167.385 106.714 167.802C105.708 168.219 104.629 168.433 103.54 168.43Z" fill="#BAA496"/>
<path d="M46.91 159.24C46.6522 166.831 44.5224 174.241 40.7099 180.81C40.0574 181.958 39.8853 183.317 40.2312 184.591C40.5771 185.866 41.413 186.951 42.5565 187.611C43.6999 188.272 45.0581 188.453 46.3345 188.115C47.611 187.778 48.7022 186.949 49.37 185.81C54.014 177.804 56.6011 168.771 56.9 159.52V158.92C56.42 142.78 62.8999 132.77 63.6799 131.68C64.4099 130.586 64.6792 129.248 64.4294 127.956C64.1796 126.665 63.4309 125.524 62.3456 124.78C61.2602 124.037 59.9257 123.751 58.6312 123.985C57.3366 124.219 56.1865 124.954 55.4299 126.03C53.8999 128.26 46.34 140.31 46.9 159.22L46.91 159.24Z" fill="#B19A82"/>
<path d="M73.14 182.72C72.2331 182.722 71.3427 182.478 70.5641 182.013C69.7855 181.548 69.148 180.88 68.72 180.08C65.1317 173.337 63.1727 165.847 63 158.21C62.72 145.07 66.23 134.93 69.32 130.21C70.0507 129.103 71.1913 128.331 72.4909 128.065C73.7905 127.798 75.1427 128.059 76.25 128.79C77.3573 129.521 78.1289 130.661 78.3952 131.961C78.6615 133.261 78.4007 134.613 77.67 135.72C75.94 138.33 72.75 146.35 73 157.97C73.1449 164.038 74.7101 169.987 77.57 175.34C77.9751 176.101 78.1767 176.954 78.1551 177.815C78.1335 178.677 77.8895 179.519 77.4467 180.258C77.0039 180.998 76.3775 181.61 75.6281 182.037C74.8788 182.463 74.032 182.688 73.17 182.69L73.14 182.72Z" fill="#B19A82"/>
<path d="M42.25 183.21C41.2526 183.211 40.2778 182.913 39.451 182.355C38.6241 181.797 37.983 181.005 37.61 180.08C34.834 173.232 33.3882 165.919 33.35 158.53C33.28 145.93 36.12 135.89 38.81 130.7C39.4398 129.56 40.4892 128.712 41.7352 128.334C42.9811 127.956 44.3253 128.079 45.4819 128.677C46.6385 129.275 47.5163 130.3 47.9287 131.535C48.341 132.77 48.2554 134.117 47.69 135.29C46.05 138.47 43.28 146.93 43.35 158.47C43.3816 164.597 44.5796 170.661 46.88 176.34C47.1858 177.098 47.3009 177.92 47.2154 178.733C47.1298 179.547 46.8461 180.326 46.3891 181.004C45.9321 181.682 45.3158 182.238 44.5942 182.623C43.8726 183.007 43.0676 183.209 42.25 183.21Z" fill="#B19A82"/>
<path d="M122.6 134.85C122.257 134.85 121.924 134.732 121.658 134.515C121.392 134.298 121.209 133.996 121.14 133.66C120.204 129.266 118.975 124.94 117.46 120.71C115.844 116.198 113.909 111.807 111.67 107.57C111.568 107.395 111.502 107.202 111.476 107.001C111.45 106.8 111.466 106.596 111.521 106.401C111.577 106.206 111.671 106.024 111.799 105.867C111.926 105.71 112.084 105.58 112.263 105.485C112.442 105.391 112.639 105.333 112.841 105.317C113.043 105.3 113.246 105.324 113.438 105.388C113.63 105.452 113.807 105.555 113.959 105.689C114.111 105.823 114.233 105.987 114.32 106.17C116.639 110.532 118.644 115.053 120.32 119.7C121.862 124.046 123.115 128.489 124.07 133C124.111 133.193 124.113 133.392 124.077 133.586C124.041 133.78 123.967 133.965 123.859 134.131C123.752 134.296 123.612 134.439 123.449 134.55C123.286 134.661 123.103 134.74 122.91 134.78C122.809 134.814 122.705 134.837 122.6 134.85Z" fill="#BAA496"/>
<path d="M128.5 137.82C128.16 137.763 127.851 137.59 127.623 137.332C127.395 137.073 127.264 136.744 127.25 136.4C127.071 131.906 126.59 127.429 125.81 123C124.974 118.28 123.805 113.625 122.31 109.07C122.185 108.692 122.216 108.28 122.395 107.925C122.574 107.569 122.887 107.3 123.265 107.175C123.643 107.05 124.055 107.081 124.41 107.26C124.766 107.439 125.035 107.752 125.16 108.13C126.701 112.822 127.907 117.617 128.77 122.48C129.573 127.038 130.067 131.645 130.25 136.27C130.264 136.667 130.12 137.054 129.85 137.346C129.581 137.638 129.207 137.812 128.81 137.83L128.5 137.82Z" fill="#BAA496"/>
<path d="M133.35 134.16C132.974 134.149 132.617 133.995 132.35 133.73C127.49 128.95 121.135 125.985 114.35 125.33C113.952 125.293 113.585 125.099 113.33 124.792C113.075 124.484 112.953 124.088 112.99 123.69C113.027 123.292 113.221 122.925 113.528 122.67C113.836 122.415 114.232 122.293 114.63 122.33C122.115 123.036 129.129 126.299 134.49 131.57C134.771 131.851 134.929 132.233 134.929 132.63C134.929 133.028 134.771 133.409 134.49 133.69C134.345 133.846 134.168 133.968 133.971 134.049C133.775 134.13 133.563 134.168 133.35 134.16Z" fill="#BAA496"/>
<path d="M130.09 123.66C129.875 123.66 129.663 123.613 129.468 123.524C129.273 123.434 129.1 123.303 128.96 123.14C124.456 118.006 118.323 114.578 111.59 113.43C111.393 113.397 111.204 113.326 111.035 113.22C110.866 113.114 110.719 112.976 110.603 112.814C110.486 112.651 110.404 112.468 110.358 112.273C110.313 112.078 110.307 111.877 110.34 111.68C110.373 111.483 110.444 111.294 110.55 111.125C110.656 110.956 110.794 110.809 110.956 110.693C111.119 110.576 111.302 110.494 111.497 110.449C111.691 110.403 111.893 110.397 112.09 110.43C119.503 111.688 126.256 115.464 131.21 121.12C131.396 121.338 131.516 121.603 131.556 121.887C131.597 122.17 131.556 122.459 131.439 122.72C131.321 122.981 131.132 123.203 130.893 123.36C130.655 123.518 130.376 123.605 130.09 123.61V123.66Z" fill="#BAA496"/>
<path d="M20.86 110.16H20.77C17.3382 110.144 13.959 109.315 10.91 107.74C9.99828 107.235 9.31946 106.395 9.01794 105.398C8.71642 104.4 8.816 103.325 9.29549 102.4C9.77497 101.474 10.5965 100.773 11.5853 100.444C12.5741 100.116 13.6521 100.186 14.59 100.64C16.529 101.639 18.6787 102.16 20.86 102.16C23.0412 102.16 25.1909 101.639 27.13 100.64C27.5984 100.371 28.1163 100.2 28.6525 100.137C29.1888 100.074 29.7322 100.121 30.2502 100.273C30.7681 100.426 31.2497 100.682 31.6661 101.025C32.0825 101.369 32.425 101.794 32.6729 102.273C32.9208 102.753 33.0691 103.278 33.1087 103.816C33.1484 104.355 33.0786 104.896 32.9036 105.407C32.7286 105.917 32.452 106.387 32.0905 106.788C31.7289 107.189 31.2899 107.513 30.8 107.74C27.7275 109.329 24.319 110.159 20.86 110.16Z" fill="#B19A82"/>
<path d="M183.55 154.66C182.843 154.665 182.148 154.482 181.535 154.131C180.922 153.779 180.413 153.272 180.06 152.66C177.815 148.632 174.21 145.534 169.89 143.92C169.394 143.738 168.939 143.46 168.552 143.102C168.164 142.744 167.851 142.313 167.631 141.833C167.411 141.353 167.288 140.835 167.269 140.307C167.25 139.779 167.336 139.253 167.521 138.759C167.706 138.265 167.988 137.812 168.349 137.427C168.71 137.042 169.144 136.733 169.625 136.516C170.107 136.3 170.626 136.181 171.154 136.166C171.682 136.151 172.207 136.241 172.7 136.43C178.765 138.705 183.83 143.051 187 148.7C187.257 149.159 187.422 149.664 187.484 150.186C187.545 150.709 187.504 151.238 187.361 151.744C187.218 152.251 186.976 152.724 186.65 153.137C186.324 153.549 185.919 153.894 185.46 154.15C184.875 154.475 184.219 154.65 183.55 154.66Z" fill="#B19A82"/>
<path d="M167.08 111.48C163.896 111.484 160.743 110.861 157.8 109.647C154.858 108.432 152.183 106.649 149.93 104.4C149.542 104.033 149.231 103.593 149.016 103.104C148.801 102.615 148.686 102.089 148.678 101.555C148.67 101.021 148.769 100.491 148.969 99.9958C149.168 99.5008 149.465 99.0508 149.842 98.6723C150.218 98.2938 150.667 97.9945 151.161 97.792C151.655 97.5895 152.184 97.488 152.718 97.4934C153.252 97.4988 153.779 97.611 154.269 97.8233C154.759 98.0357 155.201 98.344 155.57 98.73C157.48 100.635 159.833 102.036 162.418 102.805C165.003 103.575 167.739 103.69 170.38 103.14C170.896 103.034 171.428 103.03 171.946 103.129C172.463 103.228 172.956 103.429 173.396 103.718C173.836 104.008 174.215 104.382 174.511 104.818C174.807 105.254 175.014 105.744 175.12 106.26C175.226 106.776 175.23 107.308 175.131 107.826C175.032 108.343 174.831 108.836 174.542 109.276C174.252 109.716 173.878 110.095 173.442 110.391C173.006 110.687 172.516 110.894 172 111C170.38 111.324 168.732 111.485 167.08 111.48Z" fill="#B19A82"/>
<path d="M61.43 82.3C61.0233 82.299 60.619 82.2383 60.23 82.12C56.8729 81.0854 53.9111 79.0516 51.7399 76.29C46.7399 69.77 48.48 62.08 48.89 60.6C49.1737 59.5776 49.852 58.7098 50.7757 58.1875C51.233 57.9289 51.7368 57.7629 52.2583 57.699C52.7797 57.6351 53.3087 57.6745 53.815 57.815C54.3212 57.9555 54.7948 58.1944 55.2087 58.5179C55.6227 58.8415 55.9688 59.2434 56.2275 59.7007C56.4861 60.1581 56.6521 60.6618 56.716 61.1833C56.7799 61.7048 56.7405 62.2338 56.5999 62.74C56.4599 63.25 55.3 67.82 58.07 71.39C59.2365 72.8594 60.824 73.9375 62.62 74.48C63.5341 74.7639 64.3161 75.3662 64.824 76.1776C65.3319 76.9889 65.532 77.9555 65.388 78.9018C65.244 79.8481 64.7654 80.7114 64.0392 81.3349C63.3129 81.9585 62.3872 82.3009 61.43 82.3Z" fill="#B19A82"/>
<path d="M13.7799 190.7C12.9115 190.705 12.0652 190.426 11.3688 189.907C10.6725 189.389 10.1639 188.657 9.91996 187.824C9.67602 186.99 9.70995 186.1 10.0166 185.288C10.3233 184.475 10.8861 183.784 11.6199 183.32C12.3489 182.86 12.9507 182.223 13.3699 181.47C13.723 180.828 13.9408 180.12 14.0099 179.39C14.1014 178.329 14.6106 177.348 15.4255 176.663C16.2403 175.977 17.2941 175.644 18.3549 175.735C19.4158 175.827 20.3969 176.336 21.0823 177.151C21.7678 177.965 22.1014 179.019 22.0099 180.08C21.8512 181.938 21.299 183.742 20.3899 185.37C19.3192 187.275 17.7982 188.889 15.9599 190.07C15.3093 190.486 14.5522 190.705 13.7799 190.7Z" fill="#B19A82"/>
<path d="M263.89 133.77C264.526 129.936 264.633 126.033 264.21 122.17C264.192 122.018 264.139 121.873 264.055 121.745C263.972 121.616 263.86 121.509 263.729 121.431C263.598 121.353 263.45 121.306 263.298 121.293C263.145 121.281 262.992 121.304 262.85 121.36C259.269 122.839 255.905 124.797 252.85 127.18C249.85 129.55 246.72 131.96 244.48 136.35C243.025 139.115 242.183 142.161 242.01 145.28C241.93 148.53 243.07 150.86 243.25 155.92C247.78 153.67 250.38 153.55 253.19 151.92C255.851 150.287 258.127 148.097 259.86 145.5C262.61 141.43 263.26 137.57 263.89 133.77Z" fill="#98B55A"/>
<path d="M240.79 162.82C240.662 162.791 240.541 162.736 240.434 162.66C240.327 162.584 240.236 162.487 240.166 162.375C240.097 162.264 240.05 162.14 240.028 162.01C240.006 161.881 240.01 161.748 240.04 161.62C240.696 158.886 241.791 156.275 243.28 153.89C243.421 153.665 243.645 153.504 243.904 153.444C244.162 153.384 244.435 153.429 244.66 153.57C244.885 153.711 245.046 153.935 245.106 154.194C245.166 154.453 245.121 154.725 244.98 154.95C244.187 156.195 243.517 157.515 242.98 158.89C242.57 159.928 242.236 160.994 241.98 162.08C241.918 162.335 241.759 162.555 241.536 162.693C241.314 162.832 241.046 162.877 240.79 162.82Z" fill="#98B55A"/>
<path d="M228.43 134.08C225.638 132.79 222.684 131.882 219.65 131.38C219.496 131.352 219.338 131.361 219.189 131.406C219.039 131.45 218.902 131.529 218.788 131.636C218.675 131.743 218.587 131.875 218.534 132.021C218.48 132.168 218.462 132.325 218.48 132.48C218.878 135.536 219.682 138.526 220.87 141.37C222.08 144.27 223.31 147.22 226.28 149.93C228.144 151.664 230.357 152.979 232.77 153.79C235.31 154.54 237.39 154.16 241.41 155.09C240.61 151.09 241.08 148.99 240.41 146.42C239.693 143.979 238.458 141.721 236.79 139.8C234.18 136.73 231.29 135.39 228.43 134.08Z" fill="#ADC667"/>
<path d="M257.3 198.21H229.92C228.81 198.21 227.85 197.7 227.76 197.05L223 162.13C222.85 161.03 223.92 160.13 225.39 160.13H261.79C263.26 160.13 264.33 161.03 264.18 162.13L259.44 197.05C259.37 197.7 258.41 198.21 257.3 198.21Z" fill="#6593B3"/>
<path d="M261.59 172.88H225.59C224.14 172.88 222.94 172.66 222.91 172.38L221.68 160.16C221.68 159.85 222.88 159.59 224.42 159.59H262.72C264.26 159.59 265.49 159.85 265.46 160.16L264.23 172.38C264.24 172.66 263 172.88 261.59 172.88Z" fill="#6593B3"/>
</svg>
