<svg width="267" height="238" viewBox="0 0 267 238" fill="none" xmlns="http://www.w3.org/2000/svg">
<path d="M2.08 120.3C2.39 119.14 9.61 96.06 31.26 86.98C57.04 76.17 83.13 91.57 94.48 111.14C96.6368 114.795 98.5251 118.601 100.13 122.53C104.098 132.689 106.31 143.449 106.67 154.35C107.4 170.98 103.96 176.87 106.3 190.84C107.95 200.71 110.8 204.56 112.79 206.51C113.79 207.51 115.35 208.89 117.94 211.51C119.944 213.511 121.786 215.668 123.45 217.96C119.315 218.559 115.127 218.707 110.96 218.4C107.217 218.073 103.51 217.421 99.88 216.45C92.5315 214.77 85.7336 211.242 80.13 206.2C70.33 197.15 67.19 184.78 66.22 176.28C60.104 179.899 53.1928 181.959 46.0939 182.282C38.9949 182.604 31.9254 181.178 25.5066 178.128C19.0879 175.079 13.5163 170.5 9.28161 164.793C5.04688 159.086 2.27859 152.427 1.22 145.4C-0.378323 137.075 -0.0844088 128.496 2.08 120.3Z" fill="#BAA496"/>
<path d="M196.92 171.09C199.6 171.38 216.92 173.09 215.5 181.92C214.88 185.83 211.2 187.83 207.03 188.17C200.41 188.71 195.29 187.38 189.08 183.9C183.5 180.76 174.55 167.19 176.98 161.7C181 152.66 188.33 170.18 196.92 171.09Z" fill="#CAB49F"/>
<path d="M164.07 237.93L155.42 238.11C154.558 238.1 153.724 237.798 153.056 237.253C152.387 236.708 151.923 235.953 151.74 235.11L148.67 223.04C148.67 223.04 166.88 212.33 174.52 210.19C173.97 215.78 169.73 229.49 167.52 235.27C167.271 236.004 166.811 236.648 166.197 237.122C165.583 237.595 164.843 237.876 164.07 237.93Z" fill="#CAB49F"/>
<path d="M119.83 135.1C126.6 132.42 137.94 131.71 146.96 133.1C155.98 134.49 166.5 138.43 172.09 142.94C183.62 152.23 189.22 170.17 184.67 195.59C179.46 224.82 159.35 227.48 133.15 223.89C106.76 220.26 87.92 212.18 91.74 182.37C95.08 156.4 105.78 140.66 119.83 135.1Z" fill="#CAB49F"/>
<path d="M160.28 223.81C154.564 224.967 148.711 225.304 142.9 224.81C140.38 224.56 137.9 224.29 135.9 224.07C130.175 223.437 124.496 222.435 118.9 221.07C122.119 214.44 124.31 207.359 125.4 200.07C126.21 194.3 126.7 190.27 129.5 185.35C131.401 181.789 134.148 178.75 137.5 176.5C141.701 173.819 146.703 172.681 151.65 173.28C153.97 173.5 162.44 174.41 168.48 181.28C170.818 183.937 172.509 187.1 173.42 190.52C174.103 193.35 174.276 196.279 173.93 199.17C173.93 199.17 173.5 210.58 167.48 218.3C165.815 220.092 164.024 221.763 162.12 223.3L160.28 223.81Z" fill="#F2ECDF"/>
<path d="M82.81 161.33C80.24 163.33 68.95 172.54 70.12 180.89C70.63 184.59 75.53 186.59 79.12 186.66C84.88 186.77 89.05 181.53 94.91 173.96C100.15 167.15 104.78 155.96 106.01 152.76C108.11 147.51 91 154.88 82.81 161.33Z" fill="#CAB49F"/>
<path d="M109.42 237.89L118.18 237.52C119.053 237.458 119.882 237.112 120.54 236.534C121.197 235.956 121.647 235.178 121.82 234.32L125.64 221.81C125.615 219.542 125.117 217.305 124.18 215.24C123.145 212.92 121.572 210.88 119.592 209.289C117.613 207.698 115.282 206.601 112.794 206.089C110.306 205.577 107.732 205.664 105.285 206.344C102.837 207.025 100.587 208.278 98.72 210C99.43 215.62 103.44 229.83 105.83 235.52C106.119 236.231 106.616 236.839 107.257 237.262C107.898 237.685 108.652 237.904 109.42 237.89Z" fill="#CAB49F"/>
<path d="M210.5 14.6C201.62 13.09 193.24 19.45 191.8 28.81C190.36 38.17 196.42 46.94 205.31 48.4C214.2 49.86 222.51 43.48 223.94 34.17C225.37 24.86 219.36 16.09 210.5 14.6Z" fill="#CAB49F"/>
<path d="M209.33 22.26C208.15 22.0897 206.948 22.1554 205.794 22.4533C204.64 22.7512 203.557 23.2755 202.607 23.9955C201.657 24.7156 200.86 25.6172 200.261 26.648C199.663 27.6787 199.275 28.8181 199.12 30C198.698 32.3939 199.235 34.8576 200.613 36.8595C201.992 38.8613 204.103 40.2407 206.49 40.7C207.665 40.8677 208.862 40.8013 210.012 40.5045C211.161 40.2078 212.24 39.6865 213.188 38.9708C214.135 38.2551 214.931 37.359 215.53 36.3343C216.13 35.3096 216.52 34.1764 216.68 33C217.108 30.6035 216.578 28.1347 215.203 26.1256C213.828 24.1166 211.719 22.7283 209.33 22.26Z" fill="#F2ECDF"/>
<path d="M128.14 0.669995C119.05 -0.870005 110.48 5.55 109 15C107.52 24.45 113.73 33.35 122.82 34.85C131.91 36.35 140.41 29.85 141.82 20.48C143.23 11.11 137.2 2.19999 128.14 0.669995Z" fill="#CAB49F"/>
<path d="M126.94 8.42C125.738 8.23662 124.512 8.2949 123.332 8.59141C122.153 8.88792 121.045 9.4167 120.073 10.1468C119.101 10.8769 118.284 11.7936 117.67 12.8433C117.057 13.893 116.659 15.0546 116.5 16.26C116.081 18.6891 116.632 21.1856 118.035 23.2126C119.437 25.2397 121.579 26.6355 124 27.1C125.201 27.2776 126.425 27.2148 127.601 26.9152C128.778 26.6156 129.883 26.0852 130.852 25.3548C131.822 24.6244 132.636 23.7086 133.249 22.6605C133.861 21.6125 134.259 20.4532 134.42 19.25C134.836 16.8253 134.287 14.3339 132.889 12.3096C131.49 10.2853 129.355 8.88909 126.94 8.42Z" fill="#F2ECDF"/>
<path d="M170.48 17.2C134.29 11.12 84.59 27.2 73.38 79.7C63.25 127.06 95.63 158.35 147.55 165.96C198.73 173.47 237.64 153.27 242.21 106.21C247.28 54 206.32 23.21 170.48 17.2Z" fill="#CAB49F"/>
<path d="M166.43 110.29C164.06 109.94 161.91 111.16 161.62 113.02C161.33 114.88 163.03 116.65 165.39 117.02C167.75 117.39 169.89 116.13 170.18 114.28C170.47 112.43 168.78 110.63 166.43 110.29Z" fill="#977C6A"/>
<path d="M163.22 131.21C161.79 132.61 159.93 133.487 157.94 133.7C156.924 133.835 155.896 133.835 154.88 133.7C151.01 133.19 147.41 130.78 146.72 126.61C146.652 126.206 146.739 125.791 146.963 125.449C147.188 125.106 147.533 124.86 147.93 124.76C148.124 124.72 148.323 124.719 148.517 124.759C148.711 124.799 148.894 124.878 149.056 124.991C149.218 125.105 149.355 125.25 149.459 125.418C149.563 125.587 149.631 125.774 149.66 125.97C150.2 129.39 154.23 131.05 157.66 130.62C158.892 130.358 160.016 129.73 160.885 128.818C161.755 127.906 162.328 126.753 162.53 125.51L164.17 115.14L167.17 115.57L165.57 126C165.377 127.222 165.572 128.474 166.128 129.579C166.685 130.684 167.574 131.587 168.67 132.16C171.76 133.45 176.02 132.92 177.54 129.82C177.62 129.638 177.736 129.474 177.883 129.34C178.029 129.205 178.202 129.103 178.39 129.039C178.578 128.975 178.778 128.951 178.976 128.968C179.174 128.986 179.366 129.044 179.54 129.14C179.866 129.343 180.105 129.661 180.21 130.03C180.316 130.4 180.28 130.795 180.11 131.14C178.25 134.89 174.19 136.26 170.41 135.76C169.416 135.618 168.445 135.349 167.52 134.96C165.693 134.248 164.175 132.918 163.23 131.2" fill="#977C6A"/>
<path d="M204.78 113.08C205.433 113.14 206.087 112.974 206.633 112.61C207.179 112.246 207.584 111.706 207.78 111.08C208.066 110.36 208.063 109.557 207.77 108.839C207.477 108.121 206.918 107.545 206.21 107.23C204.307 106.466 202.546 105.387 201 104.04C200.717 103.797 200.386 103.616 200.028 103.509C199.67 103.401 199.294 103.37 198.924 103.417C198.554 103.464 198.197 103.589 197.878 103.782C197.559 103.975 197.283 104.234 197.07 104.54C196.592 105.166 196.366 105.947 196.434 106.732C196.503 107.516 196.861 108.246 197.44 108.78C199.441 110.518 201.719 111.907 204.18 112.89C204.373 112.974 204.574 113.038 204.78 113.08Z" fill="#977C6A"/>
<path d="M126.29 101.45C126.503 101.47 126.717 101.47 126.93 101.45C129.787 101.241 132.591 100.565 135.23 99.45C135.984 99.1208 136.583 98.5157 136.904 97.759C137.226 97.0022 137.246 96.151 136.96 95.38C136.83 95.0037 136.624 94.658 136.355 94.3642C136.086 94.0705 135.759 93.8349 135.396 93.6719C135.032 93.5089 134.639 93.422 134.241 93.4165C133.843 93.411 133.448 93.4871 133.08 93.64C131.023 94.492 128.841 95.0053 126.62 95.16C125.798 95.2339 125.038 95.6252 124.5 96.2507C123.963 96.8762 123.69 97.6867 123.74 98.51C123.746 99.2232 124.006 99.9108 124.474 100.45C124.941 100.988 125.585 101.343 126.29 101.45Z" fill="#977C6A"/>
<path d="M159.39 126.45C158.15 124.22 160.05 119.88 164.21 115.72C164.223 115.707 164.239 115.697 164.256 115.693C164.274 115.688 164.293 115.688 164.31 115.694C164.328 115.699 164.343 115.709 164.356 115.722C164.368 115.736 164.376 115.752 164.38 115.77C165.68 121.52 164.99 126.18 162.77 127.42C162.189 127.709 161.52 127.767 160.898 127.581C160.276 127.395 159.748 126.98 159.42 126.42L159.39 126.45Z" fill="#EEE8E6"/>
<path d="M158.45 32C155.37 31.75 154.07 29.75 154.03 26.55C154.03 24.27 153.78 19.36 153.54 15.99C156.98 15.9115 160.422 16.025 163.85 16.33C164.256 20.0189 164.256 23.7411 163.85 27.43C163.39 30.7 161.53 32.26 158.45 32Z" fill="#B19A82"/>
<path d="M185.46 36.54C182.46 36.09 181.04 34.08 181.08 30.77C181.12 27.46 180.61 23 180.42 19.47C183.547 20.3767 186.624 21.4448 189.64 22.67C189.86 25.67 190.53 29.13 190.14 31.9C189.71 34.93 188.5 37 185.46 36.54Z" fill="#B19A82"/>
<path d="M167.38 16.74C168.43 16.87 169.46 17.02 170.48 17.2C172.62 17.55 174.77 18 176.92 18.53C177.936 24.0853 178.271 29.7436 177.92 35.38C177.11 38.82 175.4 40.27 172.32 39.74C169.24 39.21 167.79 37.22 168.14 33.84C168.6 28.93 167.71 22.07 167.38 16.74Z" fill="#B19A82"/>
<path d="M220.66 169.21C220.243 165.343 220.358 161.436 221 157.6C221.027 157.449 221.088 157.306 221.179 157.182C221.27 157.059 221.388 156.958 221.525 156.887C221.661 156.816 221.812 156.778 221.965 156.775C222.119 156.772 222.271 156.805 222.41 156.87C225.915 158.546 229.176 160.692 232.1 163.25C235 165.79 237.95 168.37 239.94 172.89C241.25 175.728 241.933 178.815 241.94 181.94C241.83 185.19 240.57 187.46 240.1 192.49C235.7 189.99 233.1 189.73 230.4 187.95C227.833 186.165 225.684 183.845 224.1 181.15C221.5 176.93 221.07 173 220.66 169.21Z" fill="#98B55A"/>
<path d="M242.07 199.52C242.199 199.497 242.323 199.449 242.434 199.378C242.544 199.307 242.64 199.216 242.715 199.108C242.791 199 242.844 198.879 242.872 198.75C242.9 198.622 242.903 198.489 242.88 198.36C242.38 195.593 241.434 192.925 240.08 190.46C240.014 190.345 239.927 190.244 239.822 190.163C239.717 190.082 239.598 190.023 239.47 189.988C239.342 189.953 239.209 189.944 239.078 189.96C238.947 189.977 238.82 190.019 238.705 190.085C238.59 190.151 238.489 190.238 238.408 190.343C238.327 190.448 238.268 190.567 238.233 190.695C238.198 190.823 238.189 190.956 238.205 191.087C238.222 191.218 238.264 191.345 238.33 191.46C239.037 192.737 239.626 194.076 240.09 195.46C240.439 196.519 240.713 197.602 240.91 198.7C240.932 198.83 240.979 198.955 241.049 199.067C241.12 199.179 241.211 199.276 241.319 199.352C241.427 199.428 241.549 199.482 241.678 199.511C241.807 199.54 241.94 199.543 242.07 199.52Z" fill="#98B55A"/>
<path d="M256 171.52C258.864 170.398 261.863 169.658 264.92 169.32C265.076 169.3 265.234 169.317 265.382 169.37C265.53 169.423 265.663 169.51 265.771 169.624C265.88 169.738 265.959 169.876 266.004 170.026C266.049 170.176 266.058 170.335 266.03 170.49C265.456 173.521 264.484 176.463 263.14 179.24C261.76 182.06 260.37 184.93 257.25 187.47C255.292 189.097 253.007 190.283 250.55 190.95C247.97 191.57 245.92 191.06 241.86 191.77C242.86 187.77 242.53 185.69 243.34 183.17C244.201 180.773 245.565 178.587 247.34 176.76C250.15 173.84 253.12 172.67 256 171.52Z" fill="#ADC667"/>
<path d="M227.38 237.11H254.77C255.87 237.11 256.84 236.59 256.93 235.95L261.67 201C261.82 199.9 260.75 199 259.28 199H222.87C221.4 199 220.33 199.91 220.48 201L225.22 236C225.31 236.59 226.28 237.11 227.38 237.11Z" fill="#6593B3"/>
<path d="M223.1 211.77H259.1C260.55 211.77 261.75 211.55 261.78 211.27L263 199.05C263 198.74 261.81 198.49 260.26 198.49H221.93C220.38 198.49 219.16 198.74 219.19 199.05L220.42 211.27C220.45 211.55 221.65 211.77 223.1 211.77Z" fill="#6593B3"/>
</svg>
