<svg width="232" height="230" viewBox="0 0 232 230" fill="none" xmlns="http://www.w3.org/2000/svg">
<path d="M153.51 229.24C173.25 226.92 181.27 217.66 183.51 214.69C197.92 195.99 191.24 158.69 159.97 129.16L122.31 129.69C95.88 165.77 97.42 205.58 116.31 221.5C127.84 231.2 144.11 230.6 153.51 229.24Z" fill="#CAB49F"/>
<path d="M169.63 216.36C176.144 209.604 181.39 201.732 185.12 193.12C187.06 188.589 188.557 183.88 189.59 179.06C192.4 193.2 190.28 205.97 183.59 214.69C181.31 217.69 173.29 226.92 153.59 229.24C159.472 225.659 164.864 221.33 169.63 216.36Z" fill="#F2ECDF"/>
<path d="M136.27 229.58C123.58 229.22 15.27 229.35 15.27 229.35C11.7064 229.003 8.34324 227.541 5.66001 225.17C-4.46999 215.59 -0.259993 189.97 14.43 177.82C22.43 171.2 31.5 170.25 37.27 169.65C56.76 167.65 72.13 176.65 76.73 179.79C91.88 190.01 91.41 199.17 108.6 213.54C118.34 221.66 129.66 226.75 136.27 229.58Z" fill="#BAA496"/>
<path d="M179.93 216.57L179.34 224.91C179.277 225.793 178.923 226.631 178.333 227.292C177.743 227.952 176.951 228.398 176.08 228.56C169.24 229.81 152.81 232.04 147.26 225.86C142.31 220.34 141.72 211.74 149.47 207.61C154.04 205.18 170.47 210.24 177.21 212.49C178.052 212.772 178.776 213.326 179.269 214.064C179.761 214.803 179.994 215.685 179.93 216.57Z" fill="#CAB49F"/>
<path d="M144.7 155.46C145.44 155.02 148.63 153.52 155.84 159.1C167.03 167.77 173.15 176.43 173.07 183.73C172.751 185.944 171.591 187.95 169.831 189.33C168.071 190.71 165.846 191.358 163.62 191.14C156.51 189.47 149.56 181.47 143.82 168.53C140.12 160.19 142.34 157.46 142.94 156.84L144.7 155.46Z" fill="#CAB49F"/>
<path d="M171 190.29C172.028 189.521 172.876 188.538 173.486 187.409C174.095 186.28 174.452 185.031 174.53 183.75C174.53 179.8 173 175.54 169.87 171.07C169.642 170.744 169.294 170.522 168.902 170.452C168.51 170.383 168.106 170.472 167.78 170.7C167.454 170.928 167.232 171.276 167.162 171.668C167.093 172.06 167.182 172.464 167.41 172.79C170.18 176.79 171.57 180.41 171.53 183.71C171.223 185.472 170.277 187.058 168.873 188.166C167.468 189.273 165.705 189.823 163.92 189.71C157.36 188.17 150.69 180.44 145.15 167.95C141.89 160.59 143.6 158.3 143.98 157.95C144.118 157.809 144.227 157.642 144.3 157.459C144.373 157.275 144.41 157.08 144.408 156.882C144.405 156.685 144.364 156.49 144.286 156.309C144.209 156.127 144.096 155.963 143.955 155.825C143.814 155.687 143.647 155.578 143.464 155.505C143.28 155.432 143.085 155.395 142.887 155.397C142.69 155.4 142.495 155.441 142.314 155.519C142.132 155.596 141.968 155.709 141.83 155.85C140.46 157.25 138.71 160.85 142.41 169.2C148.41 182.76 155.63 190.88 163.24 192.66C164.571 192.898 165.938 192.831 167.239 192.464C168.54 192.096 169.74 191.439 170.75 190.54L171 190.29Z" fill="#BAA496"/>
<path d="M83.57 85.15C80.92 124.67 92.88 152.64 149.86 160.87C211.28 169.74 226.32 143.03 231 104.05C235.91 63.21 220.2 24.6 177.64 14.21C120.45 0.249996 85.86 51.1 83.57 85.15Z" fill="#CAB49F"/>
<path d="M218.74 137.55C219.67 137.661 220.586 137.872 221.47 138.18C220.97 139.08 220.47 139.96 219.9 140.82C219.356 140.688 218.805 140.585 218.25 140.51C217.852 140.445 217.496 140.225 217.261 139.897C217.026 139.57 216.93 139.163 216.995 138.765C217.06 138.367 217.28 138.011 217.608 137.776C217.935 137.541 218.342 137.445 218.74 137.51V137.55Z" fill="#977C6A"/>
<path d="M224.55 131.71L219.55 127.82L226.83 125.3C226.13 127.52 225.39 129.66 224.55 131.71Z" fill="#D6B2A6"/>
<path d="M212.4 125.59C212.264 125.719 212.102 125.82 211.926 125.884C211.749 125.948 211.562 125.976 211.374 125.965C211.186 125.953 211.003 125.904 210.836 125.819C210.668 125.733 210.52 125.615 210.4 125.47C210.154 125.163 210.034 124.775 210.064 124.383C210.094 123.992 210.271 123.626 210.56 123.36C210.995 122.89 211.53 122.525 212.125 122.289C212.721 122.054 213.361 121.955 214 122C215.005 122.181 215.903 122.739 216.51 123.56C217.89 125.17 222.38 126.56 224.91 125.07C226.72 124.02 227.39 121.58 227.64 120.21C227.677 119.975 227.77 119.752 227.91 119.561C228.051 119.369 228.237 119.215 228.45 119.11C227.75 122.11 226.95 125.03 226.01 127.81C224.385 128.602 222.556 128.877 220.77 128.6C221.221 129.053 221.717 129.458 222.25 129.81C223.045 130.337 223.915 130.741 224.83 131.01C224.64 131.51 224.43 132.01 224.21 132.54C223.99 133.07 223.78 133.54 223.56 134.03C222.24 133.498 221.012 132.762 219.92 131.85C218.356 130.51 217.089 128.858 216.2 127C215.501 126.598 214.87 126.088 214.33 125.49C214.146 125.233 213.888 125.037 213.59 124.93C213.122 124.985 212.694 125.222 212.4 125.59Z" fill="#977C6A"/>
<path d="M229.12 116C228.33 115.85 227.62 116.85 227.19 119C226.76 121.15 227.04 122.5 227.85 122.48C228.66 122.46 229.32 121.62 230.01 119.54C230.74 117.31 229.91 116.17 229.12 116Z" fill="#977C6A"/>
<path d="M134 23.29C134.506 23.3932 135.031 23.3445 135.51 23.15C146.367 18.9808 158.15 17.8267 169.61 19.81C182.581 21.8133 194.675 27.594 204.38 36.43C204.823 36.8649 205.399 37.138 206.016 37.2051C206.633 37.2722 207.254 37.1295 207.78 36.8C208.052 36.6149 208.279 36.3703 208.443 36.0846C208.607 35.7989 208.704 35.4796 208.726 35.151C208.748 34.8224 208.695 34.4931 208.571 34.188C208.447 33.8829 208.255 33.61 208.01 33.39C203.53 29.05 190.87 18.59 170.31 15.28C152.97 12.46 139.85 16.28 133.5 18.88C132.938 19.0695 132.474 19.473 132.208 20.0029C131.942 20.5329 131.896 21.1463 132.08 21.71C132.238 22.1158 132.497 22.4743 132.833 22.751C133.17 23.0277 133.571 23.2133 134 23.29Z" fill="#B19A82"/>
<path d="M198.66 107.25C197.864 107.271 197.093 106.975 196.515 106.428C195.938 105.88 195.601 105.126 195.58 104.33C195.559 103.534 195.855 102.763 196.402 102.185C196.95 101.608 197.704 101.271 198.5 101.25C200.306 101.145 202.077 100.715 203.73 99.98C204.091 99.8224 204.48 99.7375 204.874 99.7301C205.268 99.7227 205.659 99.793 206.026 99.9369C206.393 100.081 206.728 100.296 207.011 100.569C207.295 100.842 207.522 101.169 207.68 101.53C207.838 101.891 207.923 102.28 207.93 102.674C207.937 103.068 207.867 103.459 207.723 103.826C207.579 104.193 207.364 104.528 207.091 104.811C206.818 105.095 206.491 105.322 206.13 105.48C203.821 106.5 201.349 107.099 198.83 107.25H198.66Z" fill="#977C6A"/>
<path d="M208.31 113.9C208.107 113.9 207.907 113.859 207.721 113.778C207.535 113.697 207.368 113.579 207.23 113.43C206.949 113.149 206.791 112.767 206.791 112.37C206.791 111.972 206.949 111.591 207.23 111.31C208.751 109.865 210.524 108.709 212.46 107.9C212.825 107.758 213.232 107.765 213.592 107.918C213.953 108.072 214.239 108.361 214.389 108.723C214.539 109.085 214.542 109.491 214.396 109.855C214.251 110.219 213.968 110.512 213.61 110.67C212.016 111.333 210.558 112.286 209.31 113.48C209.041 113.74 208.684 113.89 208.31 113.9Z" fill="#977C6A"/>
<path d="M161.799 26.656L146.964 27.5269C146.763 27.5387 146.565 27.4701 146.415 27.3362C146.264 27.2023 146.173 27.014 146.161 26.8128L145.152 9.63234C145.024 7.45601 145.766 5.31806 147.215 3.68881C148.663 2.05956 150.7 1.07247 152.876 0.944697C155.053 0.816924 157.191 1.55893 158.82 3.00748C160.449 4.45603 161.436 6.49247 161.564 8.6688L162.573 25.8492C162.584 26.0504 162.516 26.2481 162.382 26.3987C162.248 26.5494 162.06 26.6406 161.858 26.6525L161.799 26.656Z" fill="#CAB49F"/>
<path d="M215.74 96.53C216.114 96.6061 216.504 96.5354 216.828 96.3325C217.152 96.1297 217.385 95.8101 217.48 95.44C217.854 93.9588 217.883 92.4118 217.566 90.9175C217.248 89.4233 216.593 88.0216 215.65 86.82C215.401 86.5097 215.038 86.3111 214.643 86.268C214.247 86.2249 213.85 86.3407 213.54 86.59C213.23 86.8393 213.031 87.2017 212.988 87.5974C212.945 87.9931 213.061 88.3897 213.31 88.7C213.969 89.5349 214.427 90.5107 214.647 91.5514C214.867 92.5921 214.844 93.6696 214.58 94.7C214.479 95.0845 214.536 95.4933 214.736 95.8364C214.937 96.1795 215.266 96.429 215.65 96.53H215.74Z" fill="#977C6A"/>
<path d="M227.36 132C225.36 130.37 225.77 125.79 228.41 120.6C228.42 120.586 228.434 120.574 228.449 120.566C228.465 120.557 228.482 120.553 228.5 120.553C228.518 120.553 228.535 120.557 228.551 120.566C228.566 120.574 228.58 120.586 228.59 120.6C231.83 125.43 232.75 129.94 230.99 131.79C230.506 132.231 229.892 132.501 229.24 132.56C228.582 132.58 227.935 132.384 227.4 132H227.36Z" fill="#EEE8E6"/>
<path d="M22.79 104.44C22.3753 100.576 22.4864 96.674 23.12 92.84C23.1469 92.6888 23.2082 92.5459 23.2992 92.4222C23.3902 92.2986 23.5085 92.1975 23.6448 92.127C23.7812 92.0564 23.9319 92.0181 24.0854 92.0152C24.2389 92.0122 24.3911 92.0447 24.53 92.11C28.0389 93.7848 31.3025 95.9313 34.23 98.49C37.13 101.03 40.07 103.61 42.07 108.12C43.3733 110.942 44.0554 114.011 44.07 117.12C43.97 120.37 42.7 122.64 42.23 127.68C37.83 125.18 35.23 124.91 32.53 123.13C29.9677 121.344 27.8191 119.029 26.23 116.34C23.63 112.17 23.21 108.27 22.79 104.44Z" fill="#98B55A"/>
<path d="M44.21 134.75C44.3394 134.727 44.463 134.679 44.5737 134.608C44.6845 134.537 44.7802 134.446 44.8554 134.338C44.9306 134.23 44.9839 134.109 45.0121 133.98C45.0404 133.852 45.043 133.719 45.02 133.59C44.5329 130.819 43.5866 128.149 42.22 125.69C42.0915 125.461 41.8777 125.291 41.6251 125.218C41.3724 125.145 41.1011 125.174 40.87 125.3C40.6388 125.427 40.4671 125.64 40.3921 125.893C40.3172 126.146 40.3452 126.418 40.47 126.65C41.1811 127.926 41.7736 129.265 42.24 130.65C42.5815 131.711 42.8521 132.793 43.05 133.89C43.067 134.024 43.1108 134.153 43.179 134.269C43.2471 134.386 43.3381 134.487 43.4465 134.568C43.5549 134.648 43.6784 134.705 43.8096 134.737C43.9408 134.768 44.077 134.773 44.21 134.75Z" fill="#98B55A"/>
<path d="M58.17 106.76C61.0338 105.638 64.0329 104.898 67.09 104.56C67.2448 104.541 67.402 104.558 67.549 104.61C67.6961 104.662 67.8288 104.748 67.9367 104.861C68.0446 104.974 68.1245 105.11 68.1703 105.259C68.216 105.408 68.2262 105.566 68.2 105.72C67.6273 108.751 66.6555 111.694 65.31 114.47C63.94 117.3 62.54 120.17 59.42 122.71C57.4629 124.338 55.1776 125.525 52.72 126.19C50.14 126.8 48.09 126.3 44.03 127.01C45.03 123.01 44.7 120.93 45.52 118.4C46.379 116.002 47.7431 113.816 49.52 111.99C52.28 109.08 55.25 107.91 58.17 106.76Z" fill="#ADC667"/>
<path d="M29.51 172.34H56.9C58.01 172.34 58.97 171.82 59.06 171.18L63.8 136.26C63.95 135.16 62.88 134.26 61.41 134.26H25C23.53 134.26 22.47 135.16 22.62 136.26L27.36 171.18C27.44 171.82 28.41 172.34 29.51 172.34Z" fill="#6593B3"/>
<path d="M25.23 147H61.23C62.68 147 63.88 146.78 63.9 146.5L65.13 134.28C65.13 133.96 63.94 133.71 62.39 133.71H24.06C22.52 133.71 21.29 133.96 21.32 134.28L22.55 146.5C22.58 146.79 23.78 147 25.23 147Z" fill="#6593B3"/>
</svg>
