<svg width="266" height="247" viewBox="0 0 266 247" fill="none" xmlns="http://www.w3.org/2000/svg">
<path d="M14.87 157.58C14.92 156.39 16.72 132.27 35.75 118.52C58.41 102.15 87.3 111.23 102.75 127.71C105.688 130.781 108.392 134.066 110.84 137.54C117.024 146.514 121.634 156.477 124.47 167C128.95 183 126.93 189.55 132.37 202.62C136.22 211.86 139.87 214.97 142.25 216.42C143.44 217.15 145.25 218.16 148.4 220.1C150.799 221.588 153.079 223.26 155.22 225.1C151.331 226.626 147.287 227.722 143.16 228.37C139.437 228.892 135.677 229.093 131.92 228.97C124.387 229.008 116.97 227.122 110.37 223.49C98.77 216.9 92.91 205.55 90.04 197.49C84.9053 202.413 78.639 205.998 71.793 207.929C64.9469 209.86 57.731 210.079 50.7805 208.566C43.8301 207.052 37.3583 203.853 31.935 199.25C26.5117 194.648 22.3032 188.782 19.68 182.17C14.58 171.32 14.79 160.05 14.87 157.58Z" fill="#BAA496"/>
<path d="M27.94 208.59C28.2827 208.55 28.6188 208.466 28.94 208.34C30.7832 207.641 32.4791 206.603 33.94 205.28C35.7998 203.595 37.2413 201.499 38.15 199.16C38.3638 198.639 38.4718 198.081 38.4676 197.518C38.4634 196.955 38.3472 196.399 38.1256 195.881C37.9041 195.363 37.5817 194.895 37.1773 194.504C36.7728 194.112 36.2944 193.805 35.77 193.6C34.6898 193.213 33.501 193.264 32.4581 193.742C31.4152 194.221 30.601 195.089 30.19 196.16C29.8394 197.077 29.2966 197.909 28.5981 198.598C27.8995 199.288 27.0614 199.821 26.14 200.16C25.0466 200.565 24.1521 201.377 23.6434 202.426C23.1346 203.475 23.051 204.681 23.41 205.79C23.7201 206.712 24.3426 207.496 25.1698 208.007C25.997 208.519 26.9769 208.725 27.94 208.59Z" fill="#B19A82"/>
<path d="M17.46 170.69C18.2514 170.611 19.0066 170.319 19.6457 169.845C20.2847 169.372 20.7838 168.734 21.09 168C21.3052 167.481 21.4144 166.925 21.4114 166.364C21.4083 165.802 21.2929 165.247 21.0721 164.731C20.8513 164.215 20.5294 163.748 20.1255 163.358C19.7215 162.968 19.2437 162.663 18.72 162.46C16.0104 161.417 13.1078 160.97 10.21 161.15C7.72082 161.294 5.27818 161.887 3 162.9C1.94055 163.363 1.10733 164.227 0.682079 165.302C0.256827 166.378 0.274051 167.577 0.729997 168.64C0.965748 169.159 1.30229 169.626 1.72006 170.013C2.13784 170.401 2.6285 170.702 3.16353 170.898C3.69856 171.094 4.26728 171.182 4.83663 171.157C5.40598 171.132 5.96459 170.993 6.48 170.75C7.78086 170.15 9.1807 169.794 10.61 169.7C12.2702 169.59 13.9346 169.839 15.49 170.43C16.1171 170.67 16.792 170.759 17.46 170.69Z" fill="#B19A82"/>
<path d="M28.42 131.5C29.4987 131.426 30.5067 130.936 31.2321 130.134C31.9575 129.332 32.344 128.281 32.3103 127.2C32.2767 126.119 31.8255 125.093 31.0516 124.338C30.2777 123.583 29.2413 123.157 28.16 123.15C26.5438 123.093 24.957 122.702 23.5 122C22.3613 121.459 21.3205 120.732 20.42 119.85C19.6147 119.073 18.5392 118.638 17.42 118.638C16.3008 118.638 15.2253 119.073 14.42 119.85C14.0251 120.237 13.7114 120.699 13.4973 121.209C13.2831 121.719 13.1729 122.267 13.1729 122.82C13.1729 123.373 13.2831 123.921 13.4973 124.431C13.7114 124.941 14.0251 125.403 14.42 125.79C18.049 129.326 22.8846 131.352 27.95 131.46C28.1057 131.483 28.2626 131.497 28.42 131.5Z" fill="#B19A82"/>
<path d="M61.34 115.1C62.0597 115.039 62.7501 114.787 63.34 114.37C65.686 112.719 67.4834 110.403 68.5 107.72C69.5383 104.929 69.7125 101.891 69 99C68.7452 97.9496 68.0906 97.0401 67.1755 96.4649C66.2604 95.8897 65.157 95.6942 64.1 95.92C63.5845 96.0377 63.0975 96.2564 62.6671 96.5635C62.2366 96.8706 61.8714 97.26 61.5924 97.7092C61.3134 98.1583 61.1262 98.6584 61.0417 99.1803C60.9572 99.7022 60.977 100.236 61.1 100.75C61.4105 102.055 61.327 103.423 60.86 104.68C60.3914 105.888 59.5776 106.931 58.52 107.68C58.0777 107.987 57.7017 108.379 57.4147 108.834C57.1277 109.29 56.9355 109.798 56.8496 110.329C56.7637 110.861 56.7859 111.404 56.9148 111.926C57.0438 112.449 57.2768 112.94 57.6 113.37C58.0188 113.959 58.5841 114.429 59.2401 114.732C59.8961 115.035 60.6199 115.162 61.34 115.1Z" fill="#B19A82"/>
<path d="M79.62 213.45C80.5126 213.321 81.3425 212.917 81.9935 212.293C82.6445 211.669 83.0838 210.856 83.25 209.97C83.3703 209.43 83.3823 208.872 83.2852 208.327C83.1881 207.782 82.9839 207.263 82.6844 206.797C82.3849 206.332 81.996 205.931 81.5404 205.618C81.0847 205.304 80.5713 205.084 80.03 204.97C79.6643 204.896 79.3335 204.703 79.09 204.42C78.8364 204.105 78.6956 203.714 78.69 203.31C78.6954 202.761 78.5908 202.216 78.3822 201.709C78.1737 201.201 77.8655 200.74 77.4759 200.353C77.0863 199.966 76.6231 199.661 76.1137 199.456C75.6043 199.251 75.059 199.151 74.51 199.16C73.3862 199.209 72.3262 199.696 71.5564 200.516C70.7866 201.337 70.368 202.425 70.39 203.55C70.3998 205.954 71.2447 208.28 72.78 210.13C74.2131 211.829 76.1868 212.983 78.37 213.4C78.7815 213.482 79.2033 213.499 79.62 213.45Z" fill="#B19A82"/>
<path d="M195.31 182.65C193.78 174.34 194.73 162.41 195.09 159.04C195.69 153.49 207.26 167.47 211.48 176.71L195.31 182.65Z" fill="#CAB49F"/>
<path d="M188.85 245L180.21 245.18C179.346 245.173 178.51 244.872 177.839 244.326C177.169 243.781 176.704 243.024 176.52 242.18L173.45 230.11C173.45 230.11 191.67 219.4 199.3 217.26C198.76 222.85 194.51 236.56 192.3 242.34C192.051 243.074 191.591 243.718 190.977 244.192C190.363 244.665 189.623 244.946 188.85 245Z" fill="#CAB49F"/>
<path d="M134.06 145.34C140.33 141.64 151.43 139.19 160.56 139.14C169.69 139.09 180.68 141.38 186.9 144.98C199.73 152.38 208.03 169.23 207.47 195.05C206.83 224.74 187.38 230.47 160.94 230.97C134.3 231.47 114.44 226.4 113.61 196.35C112.9 170.21 121 153 134.06 145.34Z" fill="#CAB49F"/>
<path d="M136.79 199.34C136.827 198.802 136.904 198.267 137.02 197.74C140.18 185.19 146.52 177.04 159.72 175.4C162.508 175.13 165.311 175.05 168.11 175.16C181.38 175.99 187.34 182.98 191.36 195.21C191.48 195.59 192.18 198.92 192.24 199.34C194.07 212.53 190.44 221.84 179.56 229.26C173.416 230.38 167.185 230.963 160.94 231C156.051 231.132 151.159 230.968 146.29 230.51C135 223.91 136.09 212 136.79 199.34Z" fill="#F2ECDF"/>
<path d="M134.06 145.34C140.33 141.64 151.43 139.19 160.56 139.14C169.69 139.09 180.68 141.38 186.9 144.98C199.73 152.38 208.03 169.23 207.47 195.05C206.83 224.74 187.38 230.47 160.94 230.97C134.3 231.47 114.44 226.4 113.61 196.35C112.9 170.21 121 153 134.06 145.34Z" fill="#CAB49F"/>
<path d="M187.73 226.73C182.268 228.769 176.544 230.022 170.73 230.45C168.21 230.59 165.73 230.7 163.73 230.8C157.985 231.055 152.23 230.942 146.5 230.46C148.65 223.425 149.726 216.106 149.69 208.75C149.6 202.92 149.45 198.86 151.46 193.57C152.787 189.748 155.037 186.313 158.01 183.57C161.744 180.271 166.51 178.376 171.49 178.21C173.82 178.06 182.33 177.66 189.35 183.49C192.065 185.757 194.224 188.617 195.66 191.85C196.772 194.542 197.395 197.41 197.5 200.32C197.5 200.32 198.84 211.67 194.09 220.22C192.699 222.253 191.165 224.185 189.5 226L187.73 226.73Z" fill="#F2ECDF"/>
<path d="M129.84 246.2L138.61 246.02C139.485 245.978 140.321 245.65 140.991 245.086C141.662 244.522 142.128 243.754 142.32 242.9L146.41 230.48C146.41 230.48 127.55 219.93 119.76 218C120.35 223.64 124.05 237.93 126.31 243.67C126.571 244.401 127.048 245.035 127.679 245.487C128.31 245.939 129.064 246.188 129.84 246.2Z" fill="#CAB49F"/>
<path d="M209.93 13.49C200.93 12.85 193.23 19.99 192.7 29.49C192.17 38.99 199.05 47.09 208.04 47.69C217.03 48.29 224.68 41.13 225.2 31.69C225.72 22.25 218.89 14.12 209.93 13.49Z" fill="#CAB49F"/>
<path d="M209.51 21.23C208.313 21.1751 207.117 21.3596 205.993 21.7729C204.868 22.1862 203.838 22.8198 202.961 23.6366C202.085 24.4535 201.38 25.4371 200.889 26.5298C200.398 27.6225 200.129 28.8023 200.1 30C199.914 32.4233 200.686 34.823 202.252 36.6821C203.817 38.5413 206.05 39.7112 208.47 39.94C209.662 39.9922 210.852 39.8069 211.972 39.3949C213.092 38.9829 214.118 38.3524 214.992 37.54C215.866 36.7277 216.569 35.7497 217.062 34.663C217.554 33.5763 217.825 32.4026 217.86 31.21C218.058 28.7833 217.293 26.3761 215.73 24.5087C214.168 22.6413 211.934 21.4636 209.51 21.23Z" fill="#F2ECDF"/>
<path d="M126.61 7.6C117.42 6.95 109.51 14.17 108.97 23.73C108.43 33.29 115.45 41.53 124.65 42.14C133.85 42.75 141.65 35.52 142.21 26C142.77 16.48 135.77 8.25 126.61 7.6Z" fill="#CAB49F"/>
<path d="M126.16 15.43C124.947 15.3669 123.734 15.5456 122.59 15.9557C121.447 16.3659 120.397 16.9993 119.501 17.8192C118.605 18.639 117.88 19.6289 117.37 20.7312C116.86 21.8335 116.575 23.0262 116.53 24.24C116.35 26.705 117.147 29.142 118.748 31.0243C120.35 32.9067 122.628 34.0833 125.09 34.3C126.302 34.3618 127.513 34.182 128.655 33.7711C129.796 33.3602 130.845 32.7264 131.739 31.9065C132.633 31.0867 133.356 30.0972 133.864 28.9957C134.372 27.8941 134.656 26.7024 134.7 25.49C134.88 23.0282 134.086 20.594 132.489 18.7122C130.891 16.8304 128.618 15.6516 126.16 15.43Z" fill="#F2ECDF"/>
<path d="M170.36 20C133.75 17.46 85.84 38.27 79.75 91.61C74.26 139.73 109.52 167.74 161.93 170.29C213.6 172.8 250.37 148.93 250.36 101.65C250.35 49.11 206.61 22.47 170.36 20Z" fill="#CAB49F"/>
<path d="M175.33 113C172.94 112.88 170.92 114.31 170.81 116.18C170.7 118.05 172.56 119.66 174.95 119.76C177.34 119.86 179.34 118.44 179.45 116.58C179.56 114.72 177.71 113.11 175.33 113Z" fill="#977C6A"/>
<path d="M174.16 134.13C172.88 135.666 171.117 136.723 169.16 137.13C168.162 137.371 167.136 137.479 166.11 137.45C162.21 137.32 158.4 135.26 157.31 131.19C157.188 130.792 157.223 130.362 157.41 129.99C157.596 129.617 157.918 129.331 158.31 129.19C158.496 129.129 158.693 129.107 158.888 129.124C159.084 129.142 159.273 129.2 159.446 129.293C159.618 129.387 159.769 129.515 159.89 129.669C160.011 129.823 160.1 130 160.15 130.19C161.02 133.54 165.2 134.8 168.54 134.04C169.742 133.663 170.802 132.931 171.58 131.941C172.358 130.95 172.818 129.747 172.9 128.49L173.53 118L176.53 118.14L176 128.67C175.925 129.905 176.239 131.132 176.9 132.178C177.56 133.225 178.533 134.037 179.68 134.5C182.87 135.5 187.07 134.5 188.27 131.32C188.333 131.137 188.433 130.969 188.563 130.826C188.693 130.683 188.85 130.567 189.025 130.486C189.201 130.405 189.391 130.36 189.584 130.354C189.777 130.347 189.97 130.38 190.15 130.45C190.515 130.616 190.8 130.919 190.944 131.293C191.088 131.667 191.079 132.082 190.92 132.45C189.43 136.36 185.52 138.12 181.71 137.99C180.691 137.951 179.682 137.776 178.71 137.47C176.823 136.944 175.183 135.768 174.08 134.15" fill="#977C6A"/>
<path d="M213.77 112.06C214.427 112.067 215.066 111.848 215.581 111.441C216.096 111.033 216.456 110.461 216.6 109.82C216.816 109.076 216.735 108.278 216.375 107.592C216.016 106.906 215.405 106.386 214.67 106.14C212.7 105.565 210.841 104.662 209.17 103.47C208.864 103.256 208.516 103.108 208.149 103.036C207.782 102.965 207.405 102.97 207.04 103.053C206.676 103.136 206.333 103.294 206.033 103.518C205.733 103.741 205.484 104.024 205.3 104.35C204.889 105.02 204.741 105.818 204.885 106.59C205.029 107.363 205.455 108.054 206.08 108.53C208.238 110.085 210.646 111.259 213.2 112C213.387 112.044 213.578 112.064 213.77 112.06Z" fill="#977C6A"/>
<path d="M134.53 108.08C134.739 108.105 134.951 108.105 135.16 108.08C137.988 107.603 140.718 106.664 143.24 105.3C143.957 104.898 144.493 104.237 144.739 103.452C144.984 102.668 144.92 101.819 144.56 101.08C144.393 100.723 144.155 100.403 143.861 100.14C143.567 99.8764 143.223 99.6753 142.85 99.5483C142.476 99.4213 142.081 99.371 141.687 99.4005C141.294 99.43 140.91 99.5387 140.56 99.72C138.6 100.778 136.478 101.501 134.28 101.86C133.468 102.014 132.749 102.478 132.275 103.154C131.8 103.83 131.608 104.665 131.74 105.48C131.831 106.17 132.16 106.806 132.669 107.28C133.178 107.755 133.836 108.037 134.53 108.08Z" fill="#977C6A"/>
<path d="M237.39 52.47H237.47C240.522 52.5255 243.535 51.7808 246.21 50.31C247.068 49.778 247.696 48.9448 247.972 47.9736C248.248 47.0025 248.151 45.9634 247.7 45.06C247.523 44.6134 247.256 44.2085 246.914 43.871C246.573 43.5334 246.164 43.2707 245.716 43.0995C245.267 42.9283 244.788 42.8524 244.308 42.8766C243.828 42.9008 243.359 43.0245 242.93 43.24C241.239 44.1622 239.336 44.6243 237.41 44.58C235.412 44.5165 233.463 43.9416 231.75 42.91C231.338 42.6589 230.876 42.4993 230.397 42.4421C229.917 42.3848 229.431 42.4313 228.971 42.5782C228.511 42.7252 228.088 42.9693 227.731 43.294C227.374 43.6186 227.09 44.0163 226.9 44.46C226.459 45.3942 226.374 46.4575 226.661 47.45C226.948 48.4425 227.588 49.2959 228.46 49.85C231.165 51.4692 234.239 52.371 237.39 52.47Z" fill="#B19A82"/>
<path d="M258.72 94.83C260.227 94.8275 261.727 94.6224 263.18 94.22C264.115 93.899 264.895 93.2362 265.362 92.3646C265.83 91.4929 265.95 90.4768 265.7 89.52C265.625 89.0502 265.455 88.6007 265.2 88.1992C264.945 87.7977 264.611 87.4528 264.217 87.1857C263.823 86.9186 263.379 86.7351 262.912 86.6464C262.445 86.5577 261.964 86.5657 261.5 86.67C259.04 87.3246 256.428 87.0836 254.13 85.99C251.73 84.8056 249.763 82.8952 248.51 80.53C248.307 80.0978 248.013 79.7139 247.65 79.4039C247.286 79.094 246.861 78.8652 246.402 78.7327C245.943 78.6002 245.461 78.5671 244.988 78.6356C244.515 78.7041 244.063 78.8727 243.66 79.13C242.834 79.7247 242.254 80.6018 242.031 81.5952C241.808 82.5885 241.957 83.6292 242.45 84.52C244.458 88.294 247.608 91.3359 251.45 93.21C253.726 94.2755 256.207 94.8285 258.72 94.83Z" fill="#B19A82"/>
<path d="M250.15 141.64C250.517 141.629 250.879 141.554 251.22 141.42C252.142 141.006 252.881 140.269 253.297 139.348C253.714 138.427 253.779 137.386 253.48 136.42C252.89 134.39 251.945 132.481 250.69 130.78C249.399 129.02 247.762 127.544 245.88 126.44C245.458 126.208 244.991 126.068 244.511 126.029C244.031 125.99 243.549 126.053 243.094 126.213C242.64 126.374 242.225 126.628 241.876 126.96C241.528 127.292 241.253 127.694 241.07 128.14C240.611 129.048 240.506 130.095 240.776 131.077C241.046 132.058 241.671 132.904 242.53 133.45C243.58 134.06 244.493 134.88 245.21 135.86C245.916 136.804 246.444 137.868 246.77 139C246.959 139.753 247.394 140.422 248.007 140.9C248.619 141.379 249.373 141.639 250.15 141.64Z" fill="#B19A82"/>
<path d="M228.8 163C229.429 162.951 230.036 162.742 230.561 162.391C231.086 162.041 231.513 161.562 231.8 161C232.32 160.116 232.494 159.072 232.289 158.067C232.084 157.063 231.514 156.17 230.69 155.56C230.017 155.112 229.469 154.499 229.1 153.78C228.774 153.138 228.577 152.438 228.52 151.72C228.504 151.228 228.388 150.745 228.179 150.3C227.971 149.855 227.673 149.456 227.306 149.13C226.938 148.803 226.507 148.555 226.04 148.4C225.574 148.246 225.08 148.188 224.59 148.23C223.579 148.414 222.676 148.974 222.064 149.799C221.451 150.623 221.175 151.649 221.29 152.67C221.427 154.496 221.934 156.276 222.78 157.9C223.71 159.72 225.086 161.275 226.78 162.42C227.372 162.828 228.081 163.032 228.8 163Z" fill="#B19A82"/>
<path d="M104.21 162.24C104.901 162.203 105.573 162.003 106.171 161.655C106.77 161.308 107.276 160.822 107.65 160.24L111.79 153.83C112.399 152.906 112.626 151.782 112.422 150.695C112.219 149.607 111.602 148.641 110.7 148C110.238 147.701 109.721 147.497 109.18 147.401C108.638 147.305 108.083 147.317 107.547 147.438C107.01 147.559 106.503 147.787 106.055 148.106C105.608 148.426 105.229 148.832 104.94 149.3L100.76 155.72C100.132 156.653 99.896 157.795 100.102 158.9C100.307 160.005 100.939 160.985 101.86 161.63C102.561 162.072 103.382 162.285 104.21 162.24Z" fill="#B19A82"/>
<path d="M75.7 135.56H76.06C79.0948 135.235 82.0623 134.45 84.86 133.23C87.7759 131.961 90.4753 130.244 92.86 128.14C93.7109 127.39 94.2368 126.338 94.3263 125.207C94.4159 124.076 94.0622 122.955 93.34 122.08C92.9794 121.649 92.5355 121.296 92.035 121.041C91.5345 120.786 90.9876 120.635 90.4273 120.597C89.867 120.559 89.3047 120.634 88.7742 120.818C88.2436 121.003 87.7558 121.292 87.34 121.67C83.9876 124.634 79.7912 126.473 75.34 126.93C74.1934 127.054 73.1407 127.621 72.4064 128.51C71.6722 129.4 71.3146 130.541 71.41 131.69C71.4941 132.761 71.9858 133.76 72.7838 134.48C73.5819 135.2 74.6255 135.586 75.7 135.56Z" fill="#B19A82"/>
<path d="M76.34 96.15C77.1049 96.1479 77.8552 95.9409 78.513 95.5505C79.1707 95.16 79.7118 94.6005 80.08 93.93C81.319 91.638 82.9817 89.602 84.98 87.93C86.7314 86.4592 88.7196 85.296 90.86 84.49C91.9129 84.0805 92.7619 83.2722 93.2225 82.2406C93.683 81.209 93.7181 80.0373 93.32 78.98C93.1312 78.4547 92.8405 77.9719 92.4646 77.5592C92.0887 77.1465 91.635 76.8121 91.1296 76.5752C90.6241 76.3383 90.0769 76.2035 89.5193 76.1786C88.9616 76.1537 88.4045 76.2391 87.88 76.43C84.8491 77.5505 82.0319 79.1807 79.55 81.25C76.7107 83.5865 74.3362 86.436 72.55 89.65C72.1806 90.3078 71.9895 91.0506 71.9956 91.805C72.0017 92.5593 72.2048 93.299 72.5847 93.9507C72.9646 94.6024 73.5082 95.1436 74.1616 95.5206C74.815 95.8976 75.5556 96.0973 76.31 96.1L76.34 96.15Z" fill="#B19A82"/>
<path d="M93.78 55.79C96.1906 55.8414 98.5958 55.5416 100.92 54.9C104.965 53.7709 108.65 51.6183 111.62 48.65C112.397 47.8447 112.832 46.7692 112.832 45.65C112.832 44.5308 112.397 43.4553 111.62 42.65C111.253 42.2446 110.809 41.9174 110.313 41.688C109.817 41.4585 109.28 41.3316 108.733 41.3148C108.187 41.298 107.643 41.3917 107.134 41.5902C106.625 41.7887 106.161 42.0879 105.77 42.47C103.769 44.4613 101.284 45.8983 98.56 46.64C95.8567 47.3681 93.0148 47.4127 90.29 46.77C89.7502 46.6395 89.1896 46.6198 88.642 46.712C88.0944 46.8042 87.5712 47.0064 87.1039 47.3064C86.6366 47.6064 86.235 47.9979 85.9232 48.4575C85.6114 48.917 85.396 49.4349 85.29 49.98C85.0671 51.0998 85.2862 52.2624 85.9013 53.2243C86.5165 54.1861 87.48 54.8727 88.59 55.14C90.2937 55.5306 92.0325 55.7483 93.78 55.79Z" fill="#B19A82"/>
<path d="M112.18 89.88C112.54 89.8794 112.889 89.7533 113.167 89.5233C113.444 89.2934 113.633 88.9739 113.7 88.62C114.65 83.9765 115.903 79.4 117.45 74.92C119.093 70.182 121.071 65.567 123.37 61.11C123.557 60.7359 123.595 60.3047 123.476 59.9038C123.357 59.5028 123.091 59.1619 122.73 58.95C122.553 58.8507 122.359 58.788 122.158 58.7655C121.956 58.743 121.753 58.7613 121.559 58.8191C121.365 58.877 121.184 58.9732 121.028 59.1022C120.872 59.2312 120.743 59.3903 120.65 59.57C118.282 64.1674 116.24 68.9258 114.54 73.81C112.936 78.4495 111.64 83.1898 110.66 88C110.573 88.4094 110.65 88.8365 110.874 89.1898C111.099 89.5431 111.453 89.7945 111.86 89.89L112.18 89.88Z" fill="#BAA496"/>
<path d="M103.4 92.06C103.762 92.0556 104.111 91.927 104.39 91.6959C104.668 91.4647 104.859 91.1449 104.93 90.79C106.888 81.1721 110.166 71.8708 114.67 63.15C114.854 62.7738 114.887 62.3416 114.762 61.9418C114.638 61.5421 114.365 61.2051 114 61C113.822 60.8995 113.626 60.836 113.424 60.8134C113.221 60.7908 113.016 60.8095 112.82 60.8683C112.625 60.9272 112.444 61.0251 112.287 61.156C112.131 61.2869 112.002 61.4481 111.91 61.63C109.521 66.2449 107.462 71.0236 105.75 75.93C104.134 80.5717 102.828 85.3155 101.84 90.13C101.75 90.5423 101.827 90.9732 102.054 91.329C102.281 91.6848 102.639 91.9368 103.05 92.03C103.165 92.0517 103.283 92.0618 103.4 92.06Z" fill="#BAA496"/>
<path d="M101 89.13C101.205 89.1303 101.407 89.0898 101.596 89.0108C101.785 88.9318 101.956 88.8159 102.1 88.67C104.598 86.1519 107.514 84.0877 110.72 82.57C113.868 81.0811 117.252 80.1538 120.72 79.83C120.923 79.8088 121.12 79.7477 121.299 79.6502C121.479 79.5527 121.637 79.4207 121.765 79.2618C121.894 79.1029 121.989 78.9202 122.047 78.7243C122.104 78.5283 122.122 78.323 122.1 78.12C122.069 77.705 121.875 77.3192 121.56 77.0473C121.245 76.7754 120.835 76.6397 120.42 76.67C116.606 77.0187 112.883 78.0341 109.42 79.67C105.886 81.3406 102.669 83.6109 99.91 86.38C99.6149 86.6842 99.4499 87.0912 99.4499 87.515C99.4499 87.9388 99.6149 88.3459 99.91 88.65C100.051 88.7979 100.22 88.9165 100.407 88.9989C100.594 89.0813 100.796 89.1258 101 89.13Z" fill="#BAA496"/>
<path d="M103.59 75.25C103.81 75.2791 104.034 75.2603 104.247 75.1947C104.459 75.1291 104.655 75.0183 104.82 74.87C107.442 72.505 110.458 70.6166 113.73 69.29C116.952 67.9778 120.382 67.2497 123.86 67.14C124.27 67.1167 124.655 66.9325 124.93 66.6273C125.205 66.322 125.349 65.9205 125.33 65.51C125.32 65.0962 125.147 64.703 124.85 64.415C124.552 64.127 124.154 63.9672 123.74 63.97C119.911 64.0921 116.133 64.8876 112.58 66.32C108.976 67.7787 105.653 69.8529 102.76 72.45C102.448 72.7351 102.26 73.1301 102.233 73.5517C102.207 73.9733 102.346 74.3886 102.62 74.71C102.865 75.0043 103.211 75.1968 103.59 75.25Z" fill="#BAA496"/>
<path d="M219.49 146.58C219.701 146.61 219.917 146.587 220.118 146.514C220.318 146.441 220.498 146.319 220.64 146.16C222.965 143.682 225.12 141.049 227.09 138.28C228.922 135.668 230.592 132.947 232.09 130.13C232.266 129.795 232.315 129.408 232.226 129.04C232.138 128.672 231.919 128.348 231.61 128.13C231.454 128.035 231.28 127.974 231.099 127.95C230.917 127.927 230.733 127.941 230.558 127.993C230.383 128.045 230.221 128.133 230.082 128.251C229.942 128.369 229.829 128.515 229.75 128.68C228.309 131.39 226.692 134.002 224.91 136.5C223.027 139.159 220.958 141.682 218.72 144.05C218.452 144.337 218.298 144.713 218.289 145.105C218.28 145.498 218.415 145.881 218.67 146.18C218.885 146.41 219.177 146.552 219.49 146.58Z" fill="#BAA496"/>
<path d="M225 146.19C225.211 146.214 225.424 146.188 225.622 146.113C225.82 146.038 225.998 145.917 226.14 145.76C228.455 143.29 230.596 140.664 232.55 137.9C234.382 135.296 236.052 132.58 237.55 129.77C237.728 129.436 237.778 129.047 237.689 128.679C237.601 128.31 237.381 127.987 237.07 127.77C236.914 127.676 236.74 127.615 236.559 127.592C236.378 127.57 236.195 127.585 236.02 127.638C235.846 127.691 235.684 127.78 235.547 127.899C235.409 128.018 235.297 128.165 235.22 128.33C233.787 131.029 232.184 133.634 230.42 136.13C228.538 138.778 226.477 141.294 224.25 143.66C223.993 143.953 223.852 144.33 223.852 144.72C223.852 145.11 223.993 145.487 224.25 145.78C224.446 145.998 224.711 146.143 225 146.19Z" fill="#BAA496"/>
<path d="M228.89 135.14C229.27 135.2 229.65 135.24 230.03 135.27C232.44 135.46 234.865 135.199 237.18 134.5C237.546 134.376 237.852 134.119 238.037 133.78C238.222 133.441 238.273 133.045 238.18 132.67C238.144 132.493 238.072 132.326 237.969 132.178C237.865 132.031 237.732 131.906 237.578 131.812C237.424 131.718 237.253 131.657 237.074 131.633C236.895 131.608 236.714 131.621 236.54 131.67C232.448 132.906 228.04 132.548 224.2 130.67C224.032 130.593 223.85 130.551 223.666 130.548C223.481 130.544 223.298 130.58 223.128 130.651C222.957 130.723 222.804 130.829 222.677 130.963C222.55 131.097 222.452 131.256 222.39 131.43C222.225 131.785 222.202 132.189 222.325 132.56C222.447 132.932 222.707 133.243 223.05 133.43C224.895 134.302 226.866 134.879 228.89 135.14Z" fill="#BAA496"/>
<path d="M225.77 142.86H225.85C228.258 143.179 230.704 143.04 233.06 142.45C233.426 142.338 233.738 142.094 233.934 141.765C234.13 141.436 234.196 141.045 234.12 140.67C234.096 140.487 234.035 140.312 233.94 140.154C233.845 139.996 233.719 139.86 233.568 139.754C233.418 139.647 233.247 139.574 233.066 139.537C232.886 139.5 232.7 139.501 232.52 139.54C230.463 140.045 228.33 140.164 226.23 139.89C224.122 139.607 222.086 138.928 220.23 137.89C220.065 137.803 219.885 137.752 219.699 137.739C219.514 137.727 219.327 137.752 219.152 137.815C218.978 137.878 218.818 137.977 218.683 138.105C218.548 138.234 218.442 138.388 218.37 138.56C218.199 138.905 218.163 139.303 218.271 139.673C218.378 140.043 218.621 140.36 218.95 140.56C221.061 141.742 223.374 142.522 225.77 142.86Z" fill="#BAA496"/>
<path d="M175.25 130.17C173.39 128.42 173.88 123.71 176.57 118.48C176.578 118.463 176.591 118.449 176.607 118.439C176.623 118.429 176.641 118.424 176.66 118.424C176.679 118.424 176.697 118.429 176.713 118.439C176.729 118.449 176.742 118.463 176.75 118.48C179.75 123.56 180.51 128.21 178.75 130.07C178.277 130.504 177.67 130.765 177.03 130.81C176.388 130.809 175.767 130.586 175.27 130.18L175.25 130.17Z" fill="#EEE8E6"/>
<path d="M170.61 25.09C171.002 25.1083 171.394 25.061 171.77 24.95C175.059 24.0344 177.975 22.1023 180.1 19.43C185.1 13.09 183.63 5.3 183.28 3.80001C183.174 3.29622 182.97 2.8184 182.678 2.39422C182.387 1.97003 182.014 1.60793 181.582 1.32889C181.149 1.04984 180.665 0.859415 180.159 0.768629C179.652 0.677844 179.133 0.688507 178.63 0.800005C177.622 1.07698 176.763 1.73751 176.236 2.64022C175.708 3.54293 175.556 4.61609 175.81 5.63001C175.93 6.15001 176.92 10.78 174.16 14.25C173.01 15.6712 171.443 16.696 169.68 17.18C168.673 17.4856 167.828 18.1754 167.326 19.1C166.825 20.0246 166.707 21.1096 167 22.12C167.206 22.9356 167.667 23.6638 168.317 24.1982C168.967 24.7326 169.77 25.0451 170.61 25.09Z" fill="#B19A82"/>
<path d="M157.92 36.07C154.84 36.21 153.29 34.39 152.86 31.21C152.55 28.96 151.71 24.11 151.05 20.8C154.456 20.2772 157.887 19.9433 161.33 19.8C162.187 23.4055 162.643 27.0945 162.69 30.8C162.66 34.16 161 35.94 157.92 36.07Z" fill="#B19A82"/>
<path d="M185.28 37.21C182.21 37.13 180.59 35.31 180.22 32.02C179.85 28.73 178.79 24.37 178.16 20.89C181.373 21.3899 184.557 22.0575 187.7 22.89C188.3 25.89 189.39 29.19 189.35 31.99C189.3 35.08 188.35 37.28 185.28 37.21Z" fill="#B19A82"/>
<path d="M140.08 115.49C138.29 112.042 136.039 108.852 133.39 106.01C133.284 105.899 133.154 105.813 133.01 105.76C132.865 105.707 132.711 105.688 132.558 105.704C132.405 105.721 132.258 105.772 132.128 105.855C131.999 105.937 131.89 106.049 131.81 106.18C129.817 109.514 128.286 113.104 127.26 116.85C126.26 120.57 125.26 124.35 126.06 129.22C126.551 132.302 127.7 135.242 129.43 137.84C131.32 140.49 133.63 141.68 136.8 145.61C139.08 141.1 141.09 139.45 142.37 136.46C143.519 133.556 144.027 130.438 143.86 127.32C143.65 122.39 141.85 118.91 140.08 115.49Z" fill="#98B55A"/>
<path d="M139 152.59C138.879 152.643 138.749 152.672 138.617 152.674C138.486 152.677 138.355 152.653 138.232 152.605C138.109 152.556 137.997 152.484 137.903 152.392C137.808 152.301 137.732 152.191 137.68 152.07C137.197 150.961 136.796 149.818 136.48 148.65C136.051 147.11 135.77 145.533 135.64 143.94C135.629 143.809 135.645 143.677 135.686 143.551C135.726 143.426 135.791 143.31 135.876 143.209C135.962 143.109 136.066 143.027 136.183 142.967C136.301 142.907 136.429 142.871 136.56 142.86C136.691 142.85 136.823 142.865 136.949 142.906C137.074 142.946 137.19 143.011 137.291 143.096C137.391 143.182 137.473 143.286 137.533 143.403C137.593 143.521 137.629 143.649 137.64 143.78C137.767 145.247 138.024 146.699 138.41 148.12C138.708 149.195 139.083 150.248 139.53 151.27C139.583 151.391 139.611 151.522 139.613 151.654C139.614 151.787 139.59 151.918 139.541 152.041C139.491 152.163 139.418 152.275 139.325 152.37C139.233 152.464 139.122 152.539 139 152.59Z" fill="#98B55A"/>
<path d="M111.88 137C108.873 137.639 105.967 138.682 103.24 140.1C103.101 140.17 102.979 140.271 102.886 140.396C102.793 140.521 102.73 140.666 102.703 140.82C102.676 140.973 102.685 141.131 102.73 141.28C102.774 141.43 102.853 141.567 102.96 141.68C105.109 143.891 107.544 145.805 110.2 147.37C112.91 148.96 115.66 150.58 119.66 150.97C122.192 151.248 124.754 150.975 127.17 150.17C129.66 149.26 131.09 147.7 134.86 146.05C131.8 143.28 130.94 141.35 128.86 139.7C126.822 138.175 124.478 137.107 121.99 136.57C118.07 135.66 115 136.33 111.88 137Z" fill="#ADC667"/>
<path d="M165.11 181.18L139.41 190.63C138.41 191.01 137.29 190.86 136.98 190.29L120.48 159.15C119.96 158.15 120.66 156.95 122.03 156.44L156.21 143.88C157.58 143.37 158.9 143.88 159.14 144.94L166.74 179.35C166.88 180 166.15 180.8 165.11 181.18Z" fill="#6593B3"/>
<path d="M160.39 155.92L126.65 168.33C125.28 168.83 124.08 169.04 123.96 168.79L118.59 157.79C118.45 157.51 119.51 156.85 120.96 156.31L156.9 143.1C158.35 142.57 159.59 142.38 159.67 142.69L162.73 154.58C162.8 154.8 161.76 155.42 160.39 155.92Z" fill="#6593B3"/>
<path d="M133.11 188.11C136.542 189.305 140.195 189.732 143.81 189.36C148.04 189.09 151.23 188.89 153.62 186.42C156.32 183.6 157.4 178.42 155.36 175.42C152.78 171.58 148.48 170.32 138.11 171.83C132.21 172.7 124.52 166.47 118.56 167.31C114.82 167.83 122.26 184 133.11 188.11Z" fill="#CAB49F"/>
<path d="M205.92 188.42C196.03 192.42 186.71 190.22 183.41 184.7C181.8 182 181.3 177.94 183.1 174.97C185.98 170.23 194.6 168.48 203.46 172.97C204.496 172.758 205.564 172.757 206.6 172.969C207.636 173.181 208.619 173.6 209.488 174.202C210.358 174.804 211.096 175.575 211.66 176.47C212.223 177.365 212.599 178.365 212.765 179.409C212.932 180.454 212.885 181.521 212.627 182.546C212.37 183.572 211.907 184.535 211.268 185.377C210.628 186.219 209.824 186.923 208.905 187.446C207.986 187.969 206.971 188.3 205.92 188.42Z" fill="#CAB49F"/>
<path d="M196 191.92C189.91 191.92 184.67 189.66 182.17 185.47C180.46 182.61 179.63 177.86 181.86 174.19C183.53 171.43 186.86 169.54 190.86 169.02C191.258 168.97 191.659 169.079 191.976 169.325C192.293 169.571 192.5 169.932 192.55 170.33C192.6 170.728 192.491 171.129 192.245 171.446C191.999 171.763 191.638 171.97 191.24 172.02C188.09 172.43 185.59 173.8 184.39 175.78C182.88 178.27 183.39 181.78 184.71 183.96C187.37 188.42 195.52 191.02 205.37 187.06C205.554 186.976 205.754 186.931 205.956 186.926C206.159 186.921 206.36 186.958 206.548 187.033C206.736 187.108 206.907 187.221 207.05 187.364C207.194 187.507 207.306 187.677 207.382 187.865C207.458 188.053 207.495 188.254 207.491 188.456C207.486 188.659 207.441 188.858 207.358 189.043C207.274 189.228 207.155 189.393 207.005 189.53C206.856 189.667 206.681 189.773 206.49 189.84C203.156 191.191 199.597 191.897 196 191.92Z" fill="#BAA496"/>
</svg>
