<svg width="285" height="241" viewBox="0 0 285 241" fill="none" xmlns="http://www.w3.org/2000/svg">
<path d="M116.94 230.53C97.08 229.62 88.42 220.95 85.94 218.16C70.24 200.53 74.25 162.88 103.33 131.16L140.93 129C169.87 163.1 171.16 202.92 153.48 220.14C142.68 230.65 126.41 231.21 116.94 230.53Z" fill="#CBAC92"/>
<path d="M99.94 218.83C92.9595 212.555 87.1639 205.076 82.83 196.75C80.5765 192.368 78.7482 187.781 77.37 183.05C75.57 197.35 78.61 209.94 85.93 218.16C88.42 220.95 97.08 229.62 116.93 230.53C110.785 227.38 105.075 223.447 99.94 218.83Z" fill="#F8EFDC"/>
<path d="M269.7 134.54C269.5 133.44 264.38 111.25 244.57 101.02C220.35 88.5 193.57 101.51 180.98 119.93C178.591 123.377 176.462 126.997 174.61 130.76C170.031 140.446 167.191 150.861 166.22 161.53C164.58 177.65 167.76 183.48 164.65 196.86C162.45 206.3 159.36 209.92 157.24 211.75C156.17 212.68 154.52 213.99 151.73 216.42C149.58 218.303 147.574 220.346 145.73 222.53C149.935 223.166 154.193 223.373 158.44 223.15C162.233 222.896 165.998 222.334 169.7 221.47C177.074 220.025 183.994 216.832 189.88 212.16C200 203.85 203.79 192.26 205.23 184.25C210.929 187.842 217.405 190.017 224.117 190.592C230.829 191.167 237.581 190.125 243.807 187.555C250.034 184.985 255.554 180.96 259.906 175.818C264.258 170.676 267.315 164.566 268.82 158C270.843 150.341 271.144 142.329 269.7 134.54Z" fill="#BC9C86"/>
<path d="M265.65 184.26C265.335 184.3 265.015 184.3 264.7 184.26C262.681 183.913 260.762 183.132 259.073 181.972C257.385 180.812 255.968 179.3 254.92 177.54C254.432 176.633 254.313 175.573 254.587 174.581C254.861 173.588 255.507 172.74 256.391 172.212C257.274 171.683 258.328 171.516 259.332 171.745C260.335 171.974 261.212 172.581 261.78 173.44C262.295 174.299 263.009 175.022 263.86 175.55C264.529 175.964 265.273 176.243 266.05 176.37C267.012 176.538 267.879 177.052 268.488 177.815C269.097 178.578 269.406 179.537 269.357 180.512C269.308 181.487 268.904 182.41 268.221 183.108C267.538 183.806 266.624 184.23 265.65 184.3V184.26Z" fill="#B39175"/>
<path d="M269.82 148C268.924 148.061 268.034 147.818 267.293 147.312C266.551 146.805 266.002 146.064 265.733 145.208C265.464 144.351 265.491 143.429 265.81 142.589C266.128 141.75 266.72 141.042 267.49 140.58C269.629 139.296 272.005 138.458 274.476 138.114C276.947 137.77 279.462 137.929 281.87 138.58C282.895 138.855 283.769 139.525 284.3 140.444C284.831 141.363 284.975 142.455 284.7 143.48C284.426 144.505 283.755 145.379 282.836 145.91C281.917 146.441 280.825 146.585 279.8 146.31C278.536 145.971 277.221 145.869 275.92 146.01C274.389 146.176 272.912 146.67 271.59 147.46C271.052 147.781 270.445 147.966 269.82 148Z" fill="#B39175"/>
<path d="M254 113.25C252.972 113.336 251.951 113.021 251.15 112.371C250.348 111.722 249.829 110.788 249.7 109.764C249.571 108.741 249.842 107.707 250.457 106.879C251.072 106.051 251.983 105.492 253 105.32C254.503 105.05 255.931 104.464 257.19 103.6C258.173 102.922 259.038 102.088 259.75 101.13C260.063 100.708 260.455 100.351 260.906 100.081C261.356 99.8104 261.855 99.6313 262.375 99.5538C262.894 99.4762 263.424 99.5018 263.934 99.629C264.443 99.7561 264.923 99.9825 265.345 100.295C265.767 100.608 266.124 101 266.394 101.451C266.665 101.901 266.844 102.4 266.921 102.92C266.999 103.439 266.973 103.969 266.846 104.479C266.719 104.988 266.493 105.468 266.18 105.89C264.943 107.558 263.439 109.011 261.73 110.19C259.545 111.698 257.063 112.721 254.45 113.19C254.302 113.22 254.151 113.24 254 113.25Z" fill="#B39175"/>
<path d="M220.24 102.47C219.533 102.511 218.827 102.369 218.19 102.06C215.649 100.797 213.532 98.8196 212.1 96.37C210.629 93.8266 209.953 90.9009 210.16 87.97C210.198 87.4447 210.339 86.9321 210.575 86.4613C210.812 85.9906 211.138 85.571 211.537 85.2265C211.935 84.882 212.397 84.6194 212.897 84.4535C213.397 84.2877 213.925 84.2219 214.45 84.26C214.975 84.2981 215.488 84.4393 215.959 84.6755C216.429 84.9117 216.849 85.2383 217.193 85.6366C217.538 86.035 217.801 86.4973 217.966 86.9972C218.132 87.4971 218.198 88.0247 218.16 88.55C218.062 89.8461 218.354 91.1417 218.997 92.2712C219.64 93.4006 220.606 94.3125 221.77 94.89C222.56 95.2793 223.2 95.9187 223.59 96.7088C223.98 97.499 224.098 98.3957 223.925 99.2598C223.753 100.124 223.301 100.907 222.638 101.487C221.975 102.068 221.139 102.413 220.26 102.47H220.24Z" fill="#B39175"/>
<path d="M218.42 198C217.464 198.068 216.516 197.792 215.747 197.22C214.978 196.648 214.44 195.82 214.231 194.885C214.021 193.95 214.154 192.971 214.606 192.126C215.057 191.281 215.797 190.626 216.69 190.28C217.023 190.142 217.306 189.904 217.5 189.6C217.692 189.267 217.763 188.879 217.7 188.5C217.532 187.452 217.786 186.381 218.408 185.521C219.03 184.661 219.967 184.083 221.015 183.915C222.063 183.747 223.134 184.001 223.994 184.623C224.854 185.245 225.432 186.182 225.6 187.23C225.956 189.403 225.554 191.632 224.461 193.544C223.369 195.455 221.653 196.933 219.6 197.73C219.223 197.879 218.825 197.97 218.42 198Z" fill="#B39175"/>
<path d="M111.72 241.37H120.08C120.966 241.369 121.827 241.074 122.528 240.531C123.228 239.988 123.728 239.228 123.95 238.37C125.68 231.64 129.07 215.37 123.29 209.44C118.14 204.11 109.6 202.91 104.94 210.35C102.19 214.74 106.07 231.47 107.84 238.35C108.058 239.214 108.558 239.98 109.261 240.527C109.964 241.074 110.829 241.37 111.72 241.37Z" fill="#CBAC92"/>
<path d="M166 70.07C176.52 108.26 170.4 138.07 116.21 157.53C57.81 178.53 37.73 155.35 25.34 118.09C12.34 79.09 20.02 38.09 59.65 19.39C112.85 -5.74 156.92 37.17 166 70.07Z" fill="#CBAC92"/>
<path d="M44 148.46C43.1114 148.76 42.2567 149.152 41.45 149.63C42.12 150.41 42.81 151.17 43.52 151.9C43.89 151.71 44.35 151.54 45.07 151.26C45.2616 151.196 45.4382 151.093 45.5893 150.959C45.7403 150.824 45.8627 150.661 45.9489 150.478C46.0352 150.295 46.0836 150.097 46.0913 149.895C46.0989 149.693 46.0657 149.491 45.9935 149.303C45.9214 149.114 45.8118 148.941 45.6713 148.796C45.5309 148.651 45.3625 148.535 45.1763 148.456C44.9901 148.378 44.7899 148.337 44.5878 148.338C44.3856 148.339 44.1857 148.38 44 148.46Z" fill="#816A55"/>
<path d="M37.1699 143.91L41.3199 139.08L33.6799 138.08C34.7799 140.11 35.9399 142.06 37.1699 143.91Z" fill="#DDB5A9"/>
<path d="M47.85 135.48C48.0096 135.58 48.1882 135.647 48.3747 135.675C48.5611 135.703 48.7513 135.692 48.9334 135.643C49.1155 135.594 49.2856 135.509 49.4329 135.391C49.5803 135.273 49.7019 135.127 49.79 134.96C49.9575 134.615 49.992 134.22 49.8868 133.851C49.7817 133.482 49.5443 133.165 49.22 132.96C48.6987 132.582 48.0985 132.327 47.4646 132.215C46.8307 132.102 46.1795 132.135 45.56 132.31C44.6157 132.68 43.8472 133.395 43.41 134.31C42.41 136.17 38.26 138.41 35.49 137.47C33.49 136.8 32.35 134.54 31.84 133.26C31.7582 133.038 31.6248 132.839 31.4509 132.679C31.2771 132.519 31.0677 132.403 30.84 132.34C32.0859 135.074 33.4676 137.744 34.98 140.34C36.7292 140.795 38.5762 140.701 40.27 140.07C39.3917 141.41 38.1873 142.504 36.77 143.25C37.06 143.7 37.37 144.15 37.68 144.62C37.99 145.09 38.31 145.51 38.62 145.95C39.803 145.162 40.8586 144.197 41.75 143.09C43.0129 141.472 43.9256 139.609 44.43 137.62C45.0482 137.098 45.5783 136.48 46 135.79C46.11 135.58 46.32 135.2 46.6 135.1C47.0498 135.063 47.497 135.199 47.85 135.48Z" fill="#816A55"/>
<path d="M29.5499 129.44C30.2899 129.13 31.19 129.97 32.04 131.99C32.89 134.01 32.8799 135.39 32.0999 135.53C31.3199 135.67 30.4799 134.99 29.3899 133.08C28.2999 131.17 28.8099 129.75 29.5499 129.44Z" fill="#816A55"/>
<path d="M104.15 19.56C103.675 19.7663 103.149 19.8256 102.64 19.73C91.1677 17.8181 79.3919 19.0447 68.5599 23.28C56.2542 27.8413 45.5632 35.9238 37.8199 46.52C37.4671 47.0277 36.954 47.4023 36.3628 47.5836C35.7717 47.765 35.1368 47.7425 34.5599 47.52C34.2563 47.392 33.9857 47.1969 33.7683 46.9494C33.551 46.7018 33.3925 46.4082 33.3049 46.0906C33.2174 45.773 33.2029 45.4397 33.2627 45.1157C33.3224 44.7917 33.4548 44.4854 33.6499 44.22C37.1799 39.12 47.4899 26.34 66.9999 19C83.4299 12.77 96.9999 13.9 103.78 15.16C104.375 15.2254 104.92 15.5243 105.295 15.9912C105.67 16.4581 105.844 17.0547 105.78 17.65C105.7 18.0834 105.507 18.4882 105.221 18.8235C104.935 19.1587 104.565 19.4128 104.15 19.56Z" fill="#B39175"/>
<path d="M104.15 19.56C103.675 19.7663 103.149 19.8256 102.64 19.73C91.1677 17.8181 79.3919 19.0447 68.5599 23.28C56.2542 27.8413 45.5632 35.9238 37.8199 46.52C37.4671 47.0277 36.954 47.4023 36.3628 47.5836C35.7717 47.765 35.1368 47.7425 34.5599 47.52C34.2563 47.392 33.9857 47.1969 33.7683 46.9494C33.551 46.7018 33.3925 46.4082 33.3049 46.0906C33.2174 45.773 33.2029 45.4397 33.2627 45.1157C33.3224 44.7917 33.4548 44.4854 33.6499 44.22C37.1799 39.12 47.4899 26.34 66.9999 19C83.4299 12.77 96.9999 13.9 103.78 15.16C104.375 15.2254 104.92 15.5243 105.295 15.9912C105.67 16.4581 105.844 17.0547 105.78 17.65C105.7 18.0834 105.507 18.4882 105.221 18.8235C104.935 19.1587 104.565 19.4128 104.15 19.56Z" fill="#B39175"/>
<path d="M61.2199 26.21C60.8302 26.3676 60.4189 26.4654 59.9999 26.5C56.5297 26.8286 53.0416 26.0927 49.9999 24.39C42.7999 20.32 41.4799 12.54 41.2899 11C41.1573 9.94707 41.4484 8.8846 42.0992 8.04632C42.7499 7.20803 43.707 6.66258 44.7599 6.52997C45.8128 6.39737 46.8753 6.68846 47.7136 7.33921C48.5519 7.98996 49.0973 8.94707 49.2299 9.99997C49.2999 10.52 49.9899 15.18 53.9199 17.41C55.5608 18.3221 57.4429 18.7062 59.3099 18.51C60.2649 18.4171 61.2214 18.6706 62.0051 19.2242C62.7887 19.7778 63.3473 20.5947 63.5788 21.5258C63.8104 22.4569 63.6996 23.4403 63.2665 24.2965C62.8335 25.1527 62.1071 25.8247 61.2199 26.19V26.21Z" fill="#B39175"/>
<path fill-rule="evenodd" clip-rule="evenodd" d="M47.6305 110.933C47.9876 109.315 49.5886 108.293 51.2066 108.65C52.9688 109.039 54.7869 109.107 56.5732 108.85C58.2132 108.615 59.7338 109.753 59.9695 111.393C60.2051 113.033 59.0667 114.554 57.4267 114.789C54.9258 115.149 52.3806 115.054 49.9134 114.509C48.2955 114.152 47.2734 112.551 47.6305 110.933Z" fill="#816A55"/>
<path fill-rule="evenodd" clip-rule="evenodd" d="M42.4478 119.353C42.6065 118.539 43.3943 118.009 44.2074 118.168C46.2668 118.57 48.2351 119.346 50.0147 120.458C50.7173 120.897 50.931 121.822 50.4921 122.525C50.0532 123.227 49.1278 123.441 48.4252 123.002C46.9565 122.085 45.3321 121.444 43.6325 121.112C42.8195 120.953 42.289 120.166 42.4478 119.353Z" fill="#816A55"/>
<path d="M81.2718 1.4629C82.3402 1.30931 83.4285 1.36768 84.4744 1.63467C85.5204 1.90166 86.5035 2.37205 87.3676 3.01898C88.2317 3.66591 88.96 4.4767 89.5108 5.40508C90.0616 6.33345 90.4241 7.36122 90.5777 8.42971L93.0264 25.4646C93.0406 25.5634 93.0352 25.664 93.0105 25.7607C92.9858 25.8574 92.9423 25.9483 92.8825 26.0282C92.8227 26.1081 92.7477 26.1754 92.6619 26.2264C92.5761 26.2773 92.481 26.3108 92.3823 26.325L77.624 28.4465C77.5252 28.4607 77.4245 28.4553 77.3278 28.4306C77.2311 28.4059 77.1402 28.3624 77.0603 28.3026C76.9804 28.2428 76.9131 28.1678 76.8622 28.082C76.8113 27.9961 76.7778 27.9011 76.7635 27.8023L74.3134 10.7575C74.0032 8.59962 74.563 6.40688 75.8695 4.66168C77.176 2.91648 79.1223 1.76177 81.2802 1.45158L81.2718 1.4629Z" fill="#CBAC92"/>
<path d="M168.39 124.32C167.789 124.57 167.136 124.67 166.488 124.611C165.84 124.552 165.216 124.335 164.67 123.98L158.67 120.11C157.779 119.533 157.153 118.626 156.931 117.588C156.709 116.55 156.908 115.466 157.485 114.575C158.062 113.684 158.969 113.058 160.007 112.836C161.045 112.614 162.129 112.813 163.02 113.39L169.02 117.27C169.619 117.669 170.099 118.222 170.41 118.871C170.72 119.52 170.85 120.241 170.786 120.957C170.721 121.674 170.465 122.36 170.043 122.943C169.621 123.526 169.05 123.984 168.39 124.27V124.32Z" fill="#B39175"/>
<path d="M183.36 90.3L183.05 90.42C177.495 92.2194 171.516 92.2368 165.95 90.47C165.433 90.3255 164.95 90.0783 164.53 89.7431C164.11 89.408 163.762 88.9917 163.507 88.5192C163.252 88.0467 163.094 87.5275 163.044 86.9928C162.993 86.458 163.051 85.9186 163.214 85.4066C163.376 84.8947 163.64 84.4207 163.99 84.0131C164.34 83.6054 164.768 83.2723 165.249 83.0337C165.73 82.7951 166.255 82.6558 166.791 82.6243C167.327 82.5927 167.864 82.6695 168.37 82.85C172.341 84.1181 176.609 84.1181 180.58 82.85C181.558 82.5435 182.617 82.6243 183.537 83.0755C184.457 83.5268 185.169 84.3142 185.526 85.2752C185.883 86.2361 185.857 87.2973 185.454 88.2398C185.051 89.1823 184.301 89.934 183.36 90.34V90.3Z" fill="#B39175"/>
<path d="M168.74 57C168.085 57.2727 167.37 57.3664 166.667 57.2715C165.964 57.1766 165.299 56.8965 164.74 56.46C162.84 54.9612 160.676 53.8317 158.36 53.13C156.296 52.5084 154.144 52.2314 151.99 52.31C151.465 52.329 150.941 52.2444 150.448 52.061C149.956 51.8775 149.504 51.5989 149.119 51.2409C148.734 50.883 148.424 50.4527 148.205 49.9747C147.986 49.4966 147.864 48.9803 147.845 48.455C147.826 47.9297 147.911 47.4058 148.094 46.9132C148.277 46.4206 148.556 45.969 148.914 45.5841C149.272 45.1992 149.702 44.8885 150.18 44.6699C150.658 44.4513 151.175 44.329 151.7 44.31C158.202 44.065 164.58 46.1344 169.7 50.15C170.249 50.5806 170.676 51.1474 170.938 51.7942C171.201 52.4409 171.289 53.145 171.195 53.8365C171.101 54.528 170.828 55.1829 170.402 55.7361C169.977 56.2893 169.414 56.7216 168.77 56.99L168.74 57Z" fill="#B39175"/>
<path d="M139 28.61C133.067 31.0902 126.394 31.119 120.44 28.69C119.496 28.2657 118.754 27.4922 118.368 26.5321C117.983 25.5719 117.985 24.4998 118.373 23.5408C118.761 22.5818 119.506 21.8105 120.451 21.389C121.395 20.9674 122.467 20.9283 123.44 21.28C125.937 22.3008 128.649 22.6853 131.332 22.3991C134.015 22.1128 136.584 21.1647 138.81 19.64C139.244 19.3438 139.732 19.1361 140.246 19.0286C140.761 18.9211 141.291 18.916 141.807 19.0135C142.324 19.111 142.816 19.3092 143.255 19.5969C143.695 19.8845 144.074 20.256 144.37 20.69C144.666 21.124 144.874 21.6121 144.981 22.1264C145.089 22.6407 145.094 23.1711 144.996 23.6874C144.899 24.2037 144.701 24.6958 144.413 25.1354C144.125 25.5751 143.754 25.9538 143.32 26.25C141.962 27.179 140.515 27.9696 139 28.61Z" fill="#B39175"/>
<path d="M38.76 107.68C38.4083 107.826 38.0143 107.833 37.6577 107.699C37.3012 107.566 37.0088 107.301 36.8399 106.96C36.1765 105.582 35.8379 104.071 35.85 102.542C35.8621 101.013 36.2247 99.5069 36.91 98.1399C36.9999 97.9646 37.1235 97.8088 37.2737 97.6812C37.4239 97.5537 37.5978 97.4569 37.7853 97.3966C37.9729 97.3362 38.1705 97.3134 38.3669 97.3294C38.5633 97.3454 38.7546 97.4 38.9299 97.49C39.1053 97.5799 39.2611 97.7035 39.3887 97.8537C39.5162 98.0039 39.6129 98.1778 39.6733 98.3653C39.7337 98.5529 39.7565 98.7505 39.7405 98.9469C39.7244 99.1433 39.6699 99.3346 39.58 99.5099C39.1092 100.461 38.8643 101.508 38.8643 102.57C38.8643 103.631 39.1092 104.679 39.58 105.63C39.7533 105.986 39.7791 106.395 39.6517 106.77C39.5244 107.145 39.2542 107.454 38.9 107.63L38.76 107.68Z" fill="#816A55"/>
<path d="M93.87 81C93.5531 81.1321 93.2006 81.1515 92.8712 81.055C92.5418 80.9586 92.2555 80.7521 92.0599 80.47C89.5009 76.7987 86.7015 73.3011 83.6799 70C80.4473 66.4587 76.965 63.1536 73.26 60.11C72.9523 59.8567 72.7579 59.4916 72.7194 59.0949C72.681 58.6983 72.8017 58.3026 73.0549 57.995C73.3082 57.6873 73.6734 57.4929 74.07 57.4545C74.4666 57.416 74.8623 57.5367 75.1699 57.79C78.9864 60.9321 82.5722 64.3443 85.9 68C89.0178 71.4181 91.901 75.043 94.5299 78.85C94.6574 79.0333 94.742 79.2429 94.7776 79.4633C94.8131 79.6838 94.7987 79.9094 94.7353 80.1235C94.672 80.3375 94.5613 80.5347 94.4115 80.7002C94.2617 80.8658 94.0766 80.9956 93.87 81.08V81Z" fill="#BC9C86"/>
<path d="M100.45 81.51C100.116 81.5835 99.7668 81.5414 99.4598 81.3906C99.1527 81.2398 98.906 80.9893 98.76 80.68C94.8377 72.2495 89.7587 64.4073 83.67 57.38C83.5386 57.2316 83.4378 57.0588 83.3733 56.8714C83.3087 56.6841 83.2817 56.4858 83.2938 56.2881C83.3059 56.0903 83.3568 55.8968 83.4436 55.7187C83.5305 55.5406 83.6516 55.3813 83.8 55.25C83.9484 55.1187 84.1212 55.0178 84.3085 54.9533C84.4959 54.8888 84.6941 54.8618 84.8919 54.8738C85.0897 54.8859 85.2831 54.9368 85.4613 55.0237C85.6394 55.1105 85.7986 55.2316 85.93 55.38C89.166 59.1069 92.1272 63.064 94.79 67.22C97.288 71.1165 99.523 75.1755 101.48 79.37C101.564 79.5491 101.612 79.7431 101.621 79.9408C101.63 80.1385 101.599 80.336 101.531 80.5219C101.463 80.7079 101.359 80.8785 101.225 81.024C101.091 81.1696 100.93 81.2871 100.75 81.37C100.654 81.4256 100.554 81.4725 100.45 81.51Z" fill="#BC9C86"/>
<path d="M103.52 76.2599C103.341 76.3345 103.149 76.3728 102.955 76.3728C102.761 76.3728 102.569 76.3345 102.39 76.2599C96.0481 73.7173 89.0236 73.4383 82.5 75.4699C82.1194 75.588 81.7075 75.55 81.3549 75.3643C81.0024 75.1786 80.738 74.8605 80.62 74.4799C80.5019 74.0993 80.5399 73.6875 80.7256 73.3349C80.9113 72.9823 81.2294 72.718 81.61 72.5999C88.7903 70.3643 96.5222 70.6751 103.5 73.4799C103.683 73.5527 103.85 73.6609 103.992 73.7983C104.133 73.9357 104.246 74.0996 104.324 74.2807C104.402 74.4619 104.444 74.6566 104.447 74.8538C104.449 75.051 104.413 75.2468 104.34 75.4299C104.187 75.804 103.892 76.1024 103.52 76.2599Z" fill="#BC9C86"/>
<path d="M96.4599 67.83C96.2652 67.9184 96.0538 67.9641 95.8399 67.9641C95.6261 67.9641 95.4147 67.9184 95.2199 67.83C89.0845 64.8305 82.104 64.0326 75.4499 65.57C75.2575 65.614 75.0584 65.6197 74.8638 65.5867C74.6692 65.5537 74.4831 65.4827 74.3159 65.3778C74.1488 65.2729 74.0039 65.136 73.8897 64.9751C73.7754 64.8142 73.6939 64.6324 73.6499 64.44C73.6059 64.2476 73.6003 64.0484 73.6333 63.8539C73.6662 63.6593 73.7372 63.4731 73.8421 63.306C73.9471 63.1388 74.0839 62.994 74.2448 62.8797C74.4057 62.7654 74.5875 62.684 74.7799 62.64C82.1054 60.9545 89.7876 61.8371 96.5399 65.14C96.8959 65.3145 97.1683 65.6229 97.2976 65.9976C97.4269 66.3724 97.4026 66.7831 97.2299 67.14C97.0592 67.4508 96.7876 67.6942 96.4599 67.83Z" fill="#BC9C86"/>
<path d="M113 163.26C114.9 160.34 109.26 157.1 106.07 153.79C101.07 148.65 99.35 135.69 92.54 130.79C91.6639 130.123 90.6138 129.722 89.5158 129.637C88.4177 129.552 87.3185 129.786 86.35 130.31C84.22 131.4 82.74 132.16 82.11 135.36C80.9839 140.769 81.5087 146.391 83.6163 151.497C85.7239 156.604 89.3171 160.96 93.93 164C99.83 167.92 107.03 167.85 110.47 165.78C113.91 163.71 111.14 166.18 113 163.26Z" fill="#CBAC92"/>
<path d="M86.14 128.62C88.57 127.98 91.14 127.92 93.28 129.44C96.83 131.96 98.65 135.19 100.28 139.22C100.351 139.594 100.302 139.981 100.141 140.326C99.979 140.67 99.7128 140.955 99.38 141.14C99.2387 141.236 99.0793 141.301 98.9116 141.332C98.744 141.363 98.5717 141.359 98.4056 141.321C98.2395 141.282 98.0831 141.21 97.9462 141.108C97.8093 141.007 97.6949 140.878 97.61 140.73C96.14 137.33 94.92 134.09 91.8 131.99C91.0964 131.503 90.269 131.225 89.414 131.19C88.5589 131.155 87.7114 131.363 86.97 131.79C85.27 132.68 84.05 133.22 83.48 135.79C80.93 147.04 86.2 157.09 94.75 162.91C96.8276 164.264 99.1771 165.144 101.633 165.49C104.088 165.836 106.589 165.638 108.96 164.91C111.82 163.83 111.36 163.98 112.32 164.57C113.28 165.16 114.18 165.71 112.01 166.78C109.033 168.202 105.734 168.814 102.445 168.552C99.156 168.29 95.9945 167.165 93.28 165.29C82.6 158.29 79.13 147.51 80.72 134.97C81.23 130.97 83.24 130.59 85.8 128.75C85.9065 128.691 86.021 128.647 86.14 128.62Z" fill="#BC9C86"/>
<path d="M19.24 201.58C19.2214 201.302 19.1319 201.034 18.98 200.8C18.8495 200.605 18.6814 200.439 18.4856 200.31C18.2899 200.181 18.0704 200.093 17.84 200.05L13.62 199.78C13.6112 200.366 13.7656 200.943 14.0658 201.446C14.366 201.949 14.8002 202.359 15.32 202.63C15.9947 202.931 16.7525 202.991 17.4662 202.8C18.18 202.609 18.8063 202.178 19.24 201.58Z" fill="#DFB99A"/>
<path d="M22.19 201.36C22.9183 200.393 23.9942 199.748 25.19 199.56C27.68 199.24 29.9 201.16 29.7 201.78C29.6 202.2 28.26 202.45 22.19 201.36Z" fill="#DFB99A"/>
<path d="M35.7 239.74H8.30997C7.19997 239.74 6.23997 239.22 6.14997 238.58L1.40996 203.66C1.25996 202.56 2.32996 201.66 3.79996 201.66H40.21C41.67 201.66 42.74 202.56 42.59 203.66L37.85 238.58C37.77 239.22 36.8 239.74 35.7 239.74Z" fill="#6593B3"/>
<path d="M40 214.41H3.99998C2.54998 214.41 1.34998 214.18 1.32998 213.91L0.0999756 201.68C0.0999756 201.37 1.28998 201.12 2.83998 201.12H41.15C42.69 201.12 43.92 201.37 43.89 201.68L42.66 213.91C42.63 214.18 41.43 214.41 40 214.41Z" fill="#6593B3"/>
<path d="M15.18 199.61C13.48 199.53 12.1 199.61 11.18 199.53C9.47999 199.34 6.47999 198.8 4.50999 199.29C4.10709 199.386 3.72668 199.559 3.38999 199.8C2.8551 200.217 2.4579 200.785 2.24999 201.43C1.16067 204.637 0.468837 207.965 0.189989 211.34C0.0812021 214.381 0.370315 217.424 1.04999 220.39C1.0886 220.556 1.16597 220.711 1.27577 220.841C1.38557 220.971 1.52467 221.074 1.68171 221.14C1.83875 221.207 2.00925 221.235 2.17929 221.223C2.34932 221.21 2.51404 221.158 2.65999 221.07C5.28462 219.536 7.69826 217.667 9.83999 215.51C11.2256 214.133 12.4717 212.622 13.56 211C14.3875 209.832 15.0598 208.561 15.56 207.22C16.8 203.72 16.21 200.63 17.64 200.12C17.7244 200.093 17.8117 200.077 17.9 200.07C17.004 199.859 16.0955 199.705 15.18 199.61Z" fill="#F5CE9B"/>
<path d="M41.61 206.75C40.43 204.25 39.61 202.29 37.7 200.9C36.7761 200.222 35.7404 199.711 34.64 199.39C32.0999 199.006 29.5192 198.973 26.97 199.29C26.36 199.37 25.78 199.46 25.22 199.56C25.4637 199.685 25.6892 199.843 25.89 200.03C28.33 202.36 25.26 207.44 25.97 213.16C26.41 216.73 27.53 219.16 31.76 223.72C34.4105 226.569 37.4386 229.042 40.76 231.07C40.8915 231.15 41.0396 231.198 41.1928 231.211C41.346 231.224 41.5002 231.202 41.6434 231.146C41.7866 231.09 41.9149 231.002 42.0184 230.888C42.1218 230.774 42.1977 230.638 42.24 230.49C43.2578 226.745 43.7657 222.881 43.75 219C43.73 215.13 43.71 211.21 41.61 206.75Z" fill="#F0E8BC"/>
</svg>
