<svg width="297" height="249" viewBox="0 0 297 249" fill="none" xmlns="http://www.w3.org/2000/svg">
<path d="M14.5 170.27C14.44 169.07 14.18 144.85 32.99 129.12C55.39 110.39 86.65 116.36 104.45 131.12C107.802 133.854 110.944 136.836 113.85 140.04C121.13 148.293 126.886 157.774 130.85 168.04C137.01 183.53 135.47 190.24 142.38 202.69C147.26 211.49 151.38 214.19 154.02 215.39C155.34 215.99 157.37 216.8 160.83 218.39C163.482 219.623 166.037 221.057 168.47 222.68C164.48 224.614 160.301 226.132 156 227.21C152.13 228.133 148.19 228.735 144.22 229.01C136.344 229.856 128.38 228.768 121.02 225.84C108.21 220.51 101.02 209.84 97.27 202.1C91.3397 208.543 83.7539 213.234 75.34 215.66C53.76 221.94 31.58 212.59 21.76 194.33C15.43 184 14.64 172.74 14.5 170.27Z" fill="#BAA496"/>
<path d="M32.84 219.71C33.1864 219.63 33.5221 219.509 33.84 219.35C35.7112 218.468 37.4057 217.251 38.84 215.76C40.6318 213.915 41.9643 211.675 42.73 209.22C42.9037 208.676 42.9629 208.102 42.904 207.534C42.845 206.965 42.6691 206.416 42.3873 205.919C42.1055 205.422 41.724 204.989 41.2667 204.646C40.8093 204.304 40.2862 204.06 39.73 203.93C38.5646 203.647 37.3352 203.814 36.2877 204.398C35.2402 204.982 34.4517 205.94 34.08 207.08C33.7405 208.153 33.1549 209.133 32.37 209.94C31.7346 210.583 30.9896 211.108 30.17 211.49C29.0776 211.963 28.2165 212.849 27.7744 213.954C27.3324 215.059 27.3451 216.294 27.81 217.39C28.2498 218.3 28.9918 219.028 29.9092 219.451C30.8267 219.875 31.8626 219.966 32.84 219.71Z" fill="#B19A82"/>
<path d="M18.4 183.06C19.2216 182.903 19.9873 182.532 20.6194 181.984C21.2516 181.436 21.7278 180.731 22 179.94C22.1752 179.397 22.2355 178.824 22.177 178.257C22.1185 177.689 21.9426 177.14 21.6605 176.644C21.3783 176.149 20.996 175.717 20.538 175.377C20.0799 175.037 19.5562 174.797 19 174.67C16.0292 173.917 12.9355 173.781 9.91 174.27C7.29759 174.693 4.77746 175.562 2.46 176.84C1.93233 177.1 1.46289 177.464 1.08018 177.91C0.697471 178.356 0.409467 178.876 0.233652 179.437C0.0578367 179.998 -0.00212237 180.589 0.0574145 181.174C0.116951 181.759 0.294742 182.326 0.579995 182.84C1.22809 183.847 2.24123 184.564 3.40664 184.84C4.57206 185.116 5.79907 184.93 6.83 184.32C8.15499 183.587 9.59586 183.086 11.09 182.84C12.8191 182.549 14.59 182.62 16.29 183.05C16.9837 183.211 17.7048 183.215 18.4 183.06Z" fill="#B19A82"/>
<path d="M26.44 142.84C27.4941 142.672 28.4507 142.126 29.1301 141.303C29.8096 140.48 30.1652 139.437 30.13 138.37C30.0765 137.807 29.9112 137.26 29.644 136.761C29.3767 136.262 29.0127 135.822 28.5733 135.465C28.1339 135.108 27.6279 134.843 27.0847 134.684C26.5416 134.525 25.9723 134.476 25.41 134.54C23.7194 134.67 22.0198 134.462 20.41 133.93C19.1852 133.51 18.0344 132.899 17 132.12C16.0471 131.426 14.8709 131.109 13.6983 131.231C12.5257 131.353 11.4398 131.905 10.65 132.78C10.2704 133.193 9.98179 133.681 9.80291 134.212C9.62404 134.743 9.55889 135.306 9.6117 135.865C9.6645 136.423 9.83408 136.964 10.1094 137.452C10.3848 137.941 10.7597 138.366 11.21 138.7C13.0237 140.072 15.0507 141.136 17.21 141.85C20.026 142.787 23.0024 143.144 25.96 142.9C26.1211 142.89 26.2813 142.87 26.44 142.84Z" fill="#B19A82"/>
<path d="M64.49 122C65.2014 121.879 65.8657 121.564 66.41 121.09C68.5856 119.218 70.1526 116.739 70.91 113.97C71.6835 111.098 71.5754 108.06 70.6 105.25C70.2443 104.228 69.5044 103.385 68.5373 102.899C67.5702 102.414 66.452 102.325 65.42 102.65C64.92 102.818 64.4581 103.083 64.061 103.43C63.6638 103.777 63.3393 104.2 63.106 104.673C62.8727 105.146 62.7353 105.66 62.7016 106.187C62.668 106.713 62.7388 107.241 62.91 107.74C63.3462 109.011 63.3915 110.383 63.04 111.68C62.6972 112.915 62.0023 114.023 61.04 114.87C60.6332 115.221 60.3002 115.649 60.0605 116.13C59.8208 116.611 59.6791 117.134 59.6437 117.67C59.6084 118.206 59.68 118.744 59.8545 119.252C60.029 119.76 60.3028 120.229 60.66 120.63C61.1271 121.168 61.7249 121.576 62.3956 121.816C63.0664 122.056 63.7877 122.12 64.49 122Z" fill="#B19A82"/>
<path d="M92.06 218.21C92.9374 217.996 93.7257 217.512 94.3141 216.827C94.9024 216.142 95.2612 215.29 95.34 214.39C95.4041 213.843 95.3598 213.289 95.2095 212.759C95.0592 212.229 94.8059 211.734 94.4641 211.302C94.1223 210.87 93.6987 210.51 93.2175 210.242C92.7364 209.974 92.2071 209.803 91.66 209.74C91.2849 209.702 90.9331 209.54 90.66 209.28C90.3766 208.989 90.1973 208.613 90.15 208.21C90.1039 207.663 89.9487 207.131 89.6936 206.645C89.4384 206.158 89.0884 205.728 88.6643 205.38C88.2402 205.031 87.7505 204.771 87.2242 204.615C86.6979 204.459 86.1456 204.409 85.6 204.47C84.4866 204.632 83.4796 205.22 82.7912 206.109C82.1028 206.999 81.7868 208.122 81.91 209.24C82.1526 211.629 83.2122 213.862 84.91 215.56C86.4982 217.113 88.5693 218.076 90.78 218.29C91.2082 218.331 91.6402 218.304 92.06 218.21Z" fill="#B19A82"/>
<path d="M228.26 164.14C230.08 164.34 246.12 165.52 245.11 174.48C245.021 176.265 244.33 177.967 243.149 179.309C241.969 180.651 240.369 181.554 238.61 181.87C232.61 183.2 226.19 180.29 220.27 178.23C214.94 176.38 205.68 166.81 204.56 162.46C202.72 155.31 222.42 163.5 228.26 164.14Z" fill="#CAB49F"/>
<path d="M199.49 247.66L190.84 247.84C189.978 247.83 189.144 247.528 188.476 246.983C187.807 246.438 187.343 245.683 187.16 244.84L184.09 232.77C183.259 229.498 183.576 226.041 184.988 222.974C186.4 219.908 188.821 217.42 191.848 215.925C194.874 214.43 198.322 214.019 201.615 214.76C204.908 215.502 207.847 217.352 209.94 220C209.39 225.59 205.15 239.3 202.94 245.08C202.679 245.799 202.213 246.426 201.6 246.885C200.987 247.343 200.254 247.613 199.49 247.66Z" fill="#CAB49F"/>
<path d="M144.7 148C150.97 144.3 162.07 141.85 171.19 141.8C180.31 141.75 191.32 144.04 197.53 147.64C210.36 155.04 218.67 171.89 218.1 197.71C217.47 227.4 198.02 233.14 171.57 233.63C144.94 234.13 125.07 229.06 124.25 199.01C123.54 172.87 131.68 155.66 144.7 148Z" fill="#CAB49F"/>
<path d="M198.37 229.39C192.91 231.434 187.185 232.686 181.37 233.11C178.84 233.25 176.37 233.36 174.37 233.46C168.622 233.715 162.864 233.602 157.13 233.12C159.292 226.088 160.367 218.767 160.32 211.41C160.23 205.58 160.09 201.52 162.1 196.23C163.431 192.413 165.676 188.979 168.64 186.23C172.374 182.932 177.141 181.037 182.12 180.87C184.45 180.72 192.96 180.32 199.99 186.16C202.707 188.421 204.866 191.279 206.3 194.51C207.407 197.203 208.03 200.07 208.14 202.98C208.14 202.98 209.47 214.33 204.73 222.89C203.349 224.907 201.832 226.829 200.19 228.64L198.37 229.39Z" fill="#F2ECDF"/>
<path d="M112.05 182.52C110.29 185.27 102.7 197.7 106.58 205.18C108.3 208.51 113.58 208.77 117.04 207.63C122.51 205.8 124.7 199.48 127.71 190.4C130.39 182.23 131.03 170.14 131.14 166.71C131.32 161.07 117.65 173.71 112.05 182.52Z" fill="#CAB49F"/>
<path d="M140.48 248.86L149.24 248.68C150.116 248.64 150.955 248.313 151.628 247.749C152.3 247.185 152.768 246.416 152.96 245.56L157.05 233.14C156.857 230.139 155.861 227.245 154.165 224.761C152.47 222.277 150.137 220.294 147.413 219.022C144.688 217.749 141.671 217.232 138.678 217.525C135.685 217.819 132.826 218.912 130.4 220.69C130.99 226.33 134.68 240.62 136.94 246.36C137.206 247.087 137.688 247.716 138.32 248.162C138.952 248.609 139.706 248.852 140.48 248.86Z" fill="#CAB49F"/>
<path d="M236.92 179.1C239.1 180.649 241.648 181.6 244.31 181.86C245.651 182.888 247.099 183.766 248.63 184.48C248.804 184.561 248.993 184.603 249.185 184.603C249.377 184.603 249.566 184.561 249.74 184.48L274.5 172.87C274.783 172.713 275.008 172.468 275.14 172.172C275.271 171.876 275.303 171.546 275.23 171.23C274.461 167.543 274.229 163.764 274.54 160.01C275.04 154.75 277.4 137.36 281.44 132.19C281.566 131.982 281.612 131.736 281.57 131.497C281.528 131.257 281.4 131.042 281.21 130.89L278.82 129C278.697 128.883 278.534 128.818 278.365 128.818C278.196 128.818 278.033 128.883 277.91 129C273.585 133.946 270.148 139.603 267.75 145.72C266.88 141.54 264.84 138.72 259.93 141.35L239.39 150.95C236.03 152.53 234.39 156.67 234.97 161.09C233.973 161.871 233.124 162.822 232.46 163.9C231.079 166.126 230.633 168.807 231.22 171.36C232.119 174.545 234.145 177.296 236.92 179.1ZM234.56 170.77C234.243 169.197 234.547 167.563 235.41 166.21C235.62 165.854 235.865 165.519 236.14 165.21C236.14 165.29 236.19 165.4 236.25 165.46L241.92 177.59C240.71 177.213 239.566 176.65 238.53 175.92C236.641 174.725 235.235 172.901 234.56 170.77Z" fill="#C5DCE8"/>
<path fill-rule="evenodd" clip-rule="evenodd" d="M259.284 155.227C260.097 155.384 260.63 156.17 260.473 156.984L257.853 170.584C257.696 171.397 256.91 171.93 256.096 171.773C255.283 171.616 254.75 170.83 254.907 170.016L257.527 156.416C257.684 155.603 258.47 155.07 259.284 155.227Z" fill="#AED3DE"/>
<path fill-rule="evenodd" clip-rule="evenodd" d="M263.614 156.057C264.428 156.214 264.96 157.001 264.803 157.814C263.93 162.34 263.056 166.874 262.183 171.413C262.026 172.227 261.24 172.759 260.427 172.603C259.613 172.446 259.081 171.66 259.237 170.847C260.11 166.306 260.984 161.773 261.857 157.246C262.014 156.432 262.801 155.9 263.614 156.057Z" fill="#AED3DE"/>
<path fill-rule="evenodd" clip-rule="evenodd" d="M253.367 159.506C253.574 158.704 254.392 158.221 255.194 158.427L265.374 161.047C266.176 161.254 266.659 162.072 266.453 162.874C266.246 163.676 265.428 164.159 264.626 163.953L254.446 161.333C253.644 161.126 253.161 160.308 253.367 159.506Z" fill="#AED3DE"/>
<path fill-rule="evenodd" clip-rule="evenodd" d="M252.937 164.859C253.141 164.056 253.958 163.572 254.761 163.777L264.991 166.387C265.794 166.591 266.278 167.408 266.073 168.211C265.869 169.014 265.052 169.498 264.249 169.293L254.019 166.683C253.216 166.479 252.732 165.662 252.937 164.859Z" fill="#AED3DE"/>
<path d="M190.81 7.99995C181.81 8.89995 175.45 17.2399 176.53 26.6499C177.61 36.0599 185.76 42.8999 194.72 41.9999C203.68 41.0999 210.02 32.7199 208.94 23.3599C207.86 13.9999 199.75 7.08995 190.81 7.99995Z" fill="#CAB49F"/>
<path d="M191.7 15.6899C190.516 15.8375 189.373 16.2191 188.337 16.8126C187.302 17.4062 186.395 18.1997 185.669 19.147C184.943 20.0944 184.413 21.1766 184.109 22.3308C183.805 23.485 183.734 24.688 183.9 25.8699C184.126 28.2914 185.295 30.5269 187.155 32.0945C189.014 33.6622 191.415 34.4362 193.84 34.2499C195.022 34.0987 196.161 33.7144 197.193 33.1193C198.225 32.5242 199.129 31.7302 199.852 30.7832C200.575 29.8363 201.102 28.7552 201.404 27.6028C201.706 26.4504 201.776 25.2496 201.61 24.0699C201.386 21.653 200.222 19.4206 198.369 17.8534C196.515 16.2861 194.121 15.5092 191.7 15.6899Z" fill="#F2ECDF"/>
<path d="M107.69 16.28C98.52 17.19 92 25.64 93 35.15C94 44.66 102.4 51.61 111.57 50.65C120.74 49.69 127.24 41.24 126.16 31.77C125.08 22.3 116.84 15.37 107.69 16.28Z" fill="#CAB49F"/>
<path d="M108.58 24.07C107.373 24.2105 106.206 24.5902 105.148 25.187C104.089 25.7837 103.16 26.5856 102.416 27.5455C101.671 28.5055 101.125 29.6044 100.81 30.7779C100.494 31.9514 100.416 33.176 100.58 34.38C100.816 36.84 102.011 39.108 103.907 40.6932C105.803 42.2784 108.247 43.0532 110.71 42.85C111.917 42.7095 113.084 42.3298 114.142 41.733C115.201 41.1363 116.129 40.3344 116.874 39.3745C117.619 38.4145 118.165 37.3156 118.48 36.1421C118.796 34.9686 118.874 33.744 118.71 32.54C118.469 30.0821 117.272 27.8172 115.377 26.233C113.483 24.6488 111.042 23.8721 108.58 24.07Z" fill="#F2ECDF"/>
<path d="M152.9 21.05C116.39 24.73 72.69 53.35 75.71 106.95C78.44 155.31 117.93 176.95 170.02 170.6C221.36 164.34 253.57 134.6 245.56 87.99C236.67 36.26 189.05 17.4 152.9 21.05Z" fill="#CAB49F"/>
<path d="M173.54 111.9C171.17 112.19 169.41 113.9 169.62 115.8C169.83 117.7 171.94 118.93 174.31 118.63C176.68 118.33 178.41 116.63 178.2 114.74C177.99 112.85 175.9 111.61 173.54 111.9Z" fill="#977C6A"/>
<path d="M182.78 124.21C186.56 123.72 190.11 121.34 190.92 117.21C191.007 116.822 190.942 116.416 190.74 116.074C190.537 115.732 190.212 115.48 189.83 115.37C189.641 115.331 189.446 115.331 189.258 115.369C189.069 115.407 188.889 115.483 188.731 115.593C188.572 115.702 188.437 115.842 188.333 116.005C188.23 116.168 188.161 116.35 188.13 116.54C187.48 119.92 183.51 121.54 180.19 121.08C178.75 120.88 175.4 119.99 175.57 115.93L175.63 114.12L172.05 114.56L172.54 116.31C173.61 120.22 170.54 121.93 169.18 122.49C166 123.78 161.68 123.23 160.24 120.06C160.165 119.881 160.055 119.718 159.916 119.583C159.776 119.448 159.611 119.342 159.429 119.273C159.248 119.203 159.054 119.172 158.86 119.18C158.666 119.188 158.475 119.236 158.3 119.32C157.943 119.512 157.672 119.833 157.544 120.218C157.416 120.603 157.439 121.022 157.61 121.39C159.79 126.22 165.76 127.2 170.23 125.39C172.093 124.676 173.658 123.35 174.67 121.63C176.036 123.039 177.85 123.93 179.8 124.15C180.787 124.298 181.788 124.318 182.78 124.21Z" fill="#977C6A"/>
<path d="M178.56 144.36C178.767 144.334 178.965 144.262 179.14 144.15C179.438 143.957 179.647 143.655 179.724 143.309C179.801 142.963 179.738 142.601 179.55 142.3L178.37 140.43C178.166 140.104 177.842 139.872 177.468 139.782C177.094 139.692 176.7 139.753 176.37 139.95C176.209 140.039 176.069 140.161 175.958 140.307C175.847 140.453 175.767 140.621 175.724 140.799C175.681 140.978 175.675 141.163 175.707 141.344C175.739 141.525 175.808 141.697 175.91 141.85L177.17 143.77C177.319 143.993 177.53 144.167 177.777 144.272C178.024 144.377 178.296 144.407 178.56 144.36Z" fill="#977C6A"/>
<path d="M172.62 146.53C172.988 146.486 173.33 146.317 173.588 146.051C173.847 145.785 174.006 145.439 174.04 145.07L174.12 143.45C174.12 143.253 174.081 143.057 174.005 142.875C173.929 142.693 173.817 142.528 173.677 142.389C173.536 142.251 173.369 142.141 173.186 142.068C173.003 141.994 172.807 141.957 172.61 141.96C172.195 141.926 171.783 142.056 171.462 142.321C171.141 142.586 170.935 142.966 170.89 143.38L170.8 145.07C170.798 145.274 170.838 145.475 170.918 145.662C170.998 145.849 171.116 146.018 171.265 146.157C171.414 146.296 171.589 146.403 171.781 146.471C171.973 146.538 172.177 146.565 172.38 146.55L172.62 146.53Z" fill="#977C6A"/>
<path d="M183.37 124.54C183.404 126.019 183.06 127.482 182.37 128.79C181.694 129.923 180.764 130.883 179.653 131.594C178.542 132.306 177.282 132.749 175.97 132.89C174.842 133.235 173.645 133.293 172.488 133.057C171.332 132.821 170.253 132.3 169.35 131.54C167.999 130.259 167.157 128.533 166.98 126.68L174.59 120.86L183.37 124.54Z" fill="#D6B2A6"/>
<path d="M182.8 124.67C184.798 124.463 186.671 123.602 188.129 122.22C189.586 120.839 190.547 119.014 190.86 117.03C190.951 116.611 190.889 116.173 190.685 115.795C190.482 115.417 190.15 115.125 189.75 114.97C189.554 114.926 189.351 114.926 189.154 114.968C188.958 115.01 188.773 115.095 188.612 115.216C188.452 115.336 188.319 115.49 188.224 115.667C188.128 115.844 188.073 116.04 188.06 116.24C187.45 120 183.49 121.74 180.17 121.19C178.78 121.034 177.508 120.337 176.628 119.249C175.748 118.162 175.332 116.772 175.47 115.38V113.38L171.89 113.82L172.4 115.82C172.838 117.165 172.74 118.626 172.127 119.9C171.515 121.174 170.434 122.163 169.11 122.66C165.94 124.04 161.61 123.36 160.11 119.81C160.051 119.611 159.948 119.428 159.81 119.273C159.672 119.118 159.501 118.996 159.31 118.914C159.119 118.833 158.912 118.795 158.705 118.803C158.497 118.811 158.294 118.865 158.11 118.96C157.744 119.202 157.476 119.566 157.355 119.988C157.234 120.41 157.268 120.861 157.45 121.26C159.7 126.68 165.69 127.87 170.15 125.89C172.053 125.072 173.607 123.61 174.54 121.76C175.86 123.314 177.695 124.339 179.71 124.65C180.734 124.804 181.774 124.811 182.8 124.67Z" fill="#977C6A"/>
<path d="M173.53 111.91C171.16 112.2 169.4 113.91 169.62 115.81C169.84 117.71 171.93 118.94 174.3 118.64C176.67 118.34 178.41 116.64 178.19 114.74C177.97 112.84 175.9 111.62 173.53 111.91Z" fill="#977C6A"/>
<path d="M175.94 136.27L176.34 136.2C184.51 135.32 186.4 127.37 186.25 123.28C186.267 123.078 186.24 122.874 186.173 122.683C186.106 122.492 185.998 122.317 185.859 122.17C185.719 122.023 185.55 121.907 185.362 121.83C185.174 121.753 184.972 121.716 184.77 121.723C184.567 121.729 184.368 121.778 184.185 121.867C184.003 121.955 183.841 122.082 183.711 122.237C183.581 122.393 183.485 122.574 183.429 122.769C183.374 122.965 183.361 123.169 183.39 123.37C183.39 123.72 183.59 132.09 175.97 132.91C168.26 134.22 166.53 125.97 166.46 125.62C166.433 125.419 166.366 125.225 166.263 125.05C166.16 124.876 166.022 124.724 165.859 124.603C165.696 124.483 165.51 124.397 165.312 124.35C165.115 124.303 164.91 124.296 164.71 124.33C164.304 124.457 163.962 124.736 163.756 125.108C163.549 125.481 163.493 125.918 163.6 126.33C164.38 130.28 168 137.38 175.94 136.27Z" fill="#977C6A"/>
<path d="M206.83 94.17C205.624 94.2116 204.459 94.6157 203.487 95.3295C202.514 96.0432 201.78 97.0336 201.379 98.1712C200.977 99.3089 200.929 100.541 201.238 101.707C201.548 102.873 202.202 103.918 203.115 104.707C204.028 105.495 205.157 105.991 206.356 106.128C207.554 106.265 208.766 106.037 209.833 105.475C210.901 104.913 211.774 104.042 212.339 102.976C212.903 101.91 213.134 100.699 213 99.5C212.875 97.9804 212.158 96.5707 211.004 95.574C209.85 94.5773 208.352 94.0731 206.83 94.17Z" fill="#977C6A"/>
<path d="M134.72 102.4C133.47 102.487 132.275 102.946 131.288 103.718C130.301 104.491 129.569 105.541 129.185 106.734C128.801 107.926 128.783 109.207 129.134 110.41C129.484 111.613 130.187 112.683 131.152 113.482C132.117 114.282 133.299 114.774 134.546 114.896C135.793 115.017 137.048 114.762 138.149 114.163C139.25 113.564 140.146 112.65 140.722 111.537C141.298 110.424 141.527 109.164 141.38 107.92C141.22 106.308 140.431 104.825 139.185 103.791C137.938 102.758 136.333 102.258 134.72 102.4Z" fill="#977C6A"/>
<path d="M227.48 47.62H227.55C230.592 47.3321 233.505 46.253 236 44.49C236.789 43.8637 237.318 42.9669 237.485 41.973C237.651 40.9792 237.443 39.959 236.9 39.11C236.675 38.6917 236.365 38.3243 235.992 38.0307C235.618 37.7372 235.188 37.5237 234.729 37.4036C234.269 37.2835 233.789 37.2594 233.32 37.3327C232.85 37.4061 232.401 37.5754 232 37.83C230.425 38.9515 228.584 39.641 226.66 39.83C224.667 39.9962 222.664 39.652 220.84 38.83C220.401 38.6277 219.924 38.5218 219.441 38.5195C218.958 38.5172 218.48 38.6185 218.039 38.8166C217.599 39.0146 217.206 39.3049 216.887 39.6677C216.568 40.0305 216.33 40.4576 216.19 40.92C215.883 41.8806 215.928 42.9189 216.316 43.8495C216.705 44.7802 217.411 45.5424 218.31 46C221.178 47.3143 224.335 47.872 227.48 47.62Z" fill="#B19A82"/>
<path d="M253.37 87.35C254.87 87.1829 256.34 86.8128 257.74 86.2499C258.637 85.8301 259.342 85.0863 259.713 84.168C260.084 83.2498 260.094 82.2251 259.74 81.3C259.614 80.8411 259.396 80.4128 259.098 80.0417C258.8 79.6707 258.429 79.3646 258.008 79.1425C257.587 78.9204 257.126 78.7869 256.651 78.7503C256.177 78.7138 255.7 78.7749 255.25 78.9299C252.879 79.8543 250.257 79.9075 247.85 79.0799C245.334 78.1646 243.169 76.4821 241.66 74.2699C241.41 73.8594 241.075 73.5073 240.677 73.2374C240.279 72.9675 239.828 72.7862 239.354 72.7056C238.88 72.625 238.394 72.6471 237.929 72.7703C237.465 72.8936 237.032 73.1151 236.66 73.4199C235.904 74.1019 235.425 75.0373 235.312 76.0491C235.2 77.0608 235.462 78.0787 236.05 78.91C238.466 82.4348 241.935 85.1054 245.96 86.5399C248.34 87.3529 250.87 87.6295 253.37 87.35Z" fill="#B19A82"/>
<path d="M250.05 134.82C250.4 134.763 250.738 134.648 251.05 134.48C251.921 133.97 252.575 133.157 252.886 132.196C253.198 131.236 253.146 130.195 252.74 129.27C251.935 127.312 250.787 125.514 249.35 123.96C247.869 122.357 246.075 121.074 244.08 120.19C243.635 120.008 243.157 119.922 242.676 119.937C242.195 119.953 241.723 120.069 241.291 120.278C240.858 120.487 240.474 120.785 240.164 121.153C239.853 121.52 239.624 121.948 239.49 122.41C239.135 123.36 239.142 124.408 239.511 125.352C239.88 126.297 240.585 127.072 241.49 127.53C242.603 128.017 243.604 128.729 244.43 129.62C245.231 130.483 245.871 131.482 246.32 132.57C246.593 133.314 247.111 133.942 247.789 134.351C248.468 134.76 249.265 134.925 250.05 134.82Z" fill="#B19A82"/>
<path d="M231.21 158.44C231.833 158.332 232.418 158.065 232.908 157.666C233.398 157.267 233.778 156.748 234.01 156.16C234.43 155.223 234.488 154.163 234.172 153.186C233.856 152.209 233.189 151.384 232.3 150.87C231.583 150.501 230.974 149.953 230.53 149.28C230.129 148.674 229.853 147.994 229.72 147.28C229.648 146.795 229.479 146.33 229.221 145.913C228.963 145.496 228.623 145.136 228.222 144.855C227.82 144.574 227.365 144.378 226.885 144.28C226.405 144.181 225.91 144.181 225.43 144.28C224.441 144.563 223.599 145.217 223.079 146.106C222.559 146.994 222.402 148.049 222.64 149.05C222.99 150.836 223.69 152.536 224.7 154.05C225.838 155.762 227.393 157.156 229.22 158.1C229.829 158.425 230.527 158.544 231.21 158.44Z" fill="#B19A82"/>
<path d="M107.31 171.49C107.992 171.38 108.637 171.108 109.192 170.698C109.747 170.287 110.196 169.75 110.5 169.13L113.91 162.3C114.424 161.308 114.529 160.154 114.204 159.086C113.879 158.017 113.149 157.118 112.17 156.58C111.678 156.335 111.143 156.191 110.595 156.155C110.047 156.119 109.497 156.193 108.978 156.371C108.459 156.55 107.98 156.83 107.57 157.196C107.16 157.561 106.827 158.004 106.59 158.5L103.15 165.36C102.625 166.354 102.515 167.515 102.843 168.59C103.171 169.665 103.91 170.568 104.9 171.1C105.642 171.482 106.486 171.619 107.31 171.49Z" fill="#B19A82"/>
<path d="M76 148.15L76.35 148.09C82.469 146.734 88.013 143.505 92.21 138.85C92.9755 138.01 93.3829 136.905 93.3455 135.769C93.3082 134.634 92.829 133.558 92.01 132.77C91.6039 132.384 91.124 132.083 90.599 131.886C90.0741 131.689 89.5148 131.6 88.9547 131.625C88.3946 131.649 87.8451 131.786 87.3392 132.027C86.8332 132.269 86.3811 132.61 86.01 133.03C82.9991 136.352 79.0226 138.646 74.64 139.59C73.5144 139.842 72.5315 140.523 71.9003 141.489C71.2691 142.454 71.0394 143.628 71.26 144.76C71.458 145.828 72.0625 146.779 72.9464 147.411C73.8303 148.043 74.9248 148.308 76 148.15Z" fill="#B19A82"/>
<path d="M72.27 108.91C73.0286 108.823 73.75 108.534 74.3587 108.074C74.9674 107.613 75.441 106.997 75.73 106.29C76.7406 103.89 78.1885 101.7 80 99.8299C81.5781 98.1758 83.424 96.7998 85.46 95.7599C86.4405 95.2265 87.1753 94.3327 87.5088 93.2674C87.8423 92.2022 87.7485 91.049 87.2472 90.0516C86.746 89.0542 85.8765 88.2909 84.8226 87.9229C83.7688 87.555 82.6131 87.6113 81.6 88.0799C78.7156 89.5366 76.0959 91.4667 73.85 93.7899C71.2997 96.4337 69.2649 99.53 67.85 102.92C67.4091 103.979 67.4033 105.169 67.8338 106.232C68.2643 107.295 69.0965 108.146 70.15 108.6C70.8186 108.883 71.5484 108.989 72.27 108.91Z" fill="#B19A82"/>
<path d="M85.12 66.87C87.5222 66.6506 89.8799 66.0847 92.12 65.19C96.0149 63.6198 99.4387 61.0709 102.06 57.79C102.758 56.9026 103.079 55.7771 102.956 54.6551C102.832 53.5332 102.274 52.5045 101.4 51.79C100.991 51.4284 100.513 51.153 99.9949 50.9803C99.4769 50.8077 98.9293 50.7413 98.3851 50.7852C97.8408 50.8291 97.3109 50.9823 96.8272 51.2357C96.3435 51.4891 95.9159 51.8375 95.57 52.26C93.8012 54.4581 91.4928 56.1601 88.87 57.2C86.2574 58.2041 83.4373 58.5476 80.66 58.2C80.097 58.1216 79.5239 58.1611 78.977 58.316C78.4301 58.471 77.9214 58.738 77.4832 59.1C77.045 59.462 76.6868 59.9112 76.4315 60.4191C76.1762 60.9269 76.0292 61.4823 76 62.05C75.9009 63.1863 76.2469 64.3168 76.9651 65.203C77.6834 66.0891 78.7177 66.6617 79.85 66.8C81.5998 67.0009 83.3655 67.0243 85.12 66.87Z" fill="#B19A82"/>
<path d="M107.19 98.7C107.548 98.6611 107.882 98.4977 108.132 98.2382C108.383 97.9787 108.534 97.6396 108.56 97.28C108.991 92.5701 109.729 87.8935 110.77 83.28C111.879 78.3912 113.329 73.5861 115.11 68.9C115.258 68.5106 115.249 68.0794 115.087 67.6958C114.925 67.3122 114.622 67.0057 114.24 66.84C114.054 66.756 113.854 66.7113 113.65 66.7085C113.447 66.7057 113.245 66.745 113.057 66.8238C112.869 66.9027 112.7 67.0194 112.559 67.1667C112.419 67.314 112.31 67.4888 112.24 67.68C110.389 72.5089 108.888 77.4651 107.75 82.51C106.668 87.2837 105.906 92.1245 105.47 97C105.428 97.4169 105.551 97.8338 105.812 98.161C106.074 98.4883 106.454 98.6997 106.87 98.75C106.979 98.7487 107.086 98.7319 107.19 98.7Z" fill="#BAA496"/>
<path d="M98.71 101.84C99.0679 101.795 99.3994 101.629 99.6489 101.368C99.8984 101.108 100.051 100.769 100.08 100.41C100.519 95.6662 101.267 90.9562 102.32 86.3099C103.437 81.3958 104.9 76.567 106.7 71.8599C106.847 71.4679 106.838 71.0342 106.674 70.6488C106.51 70.2634 106.205 69.9558 105.82 69.7899C105.633 69.7092 105.433 69.6673 105.229 69.6666C105.026 69.666 104.825 69.7066 104.638 69.7861C104.451 69.8656 104.282 69.9823 104.141 70.1291C104.001 70.2758 103.891 70.4496 103.82 70.6399C101.961 75.4938 100.448 80.4728 99.29 85.5399C98.2102 90.3348 97.4453 95.1952 97 100.09C96.9578 100.508 97.0822 100.927 97.346 101.254C97.6099 101.582 97.9921 101.792 98.41 101.84H98.71Z" fill="#BAA496"/>
<path d="M96 99.1999C96.413 99.1532 96.7906 98.9446 97.05 98.6199C99.2538 95.8464 101.924 93.4777 104.94 91.6199C107.906 89.7785 111.178 88.4815 114.6 87.7899C114.993 87.6862 115.331 87.4358 115.546 87.0903C115.76 86.7447 115.833 86.3303 115.752 85.9321C115.67 85.5339 115.438 85.1823 115.105 84.9494C114.772 84.7165 114.362 84.6201 113.96 84.6799C110.186 85.4444 106.578 86.8696 103.3 88.89C99.9766 90.9384 97.0331 93.5469 94.6 96.6C94.3354 96.9328 94.2123 97.3563 94.2572 97.7791C94.3021 98.2019 94.5114 98.5901 94.84 98.86C95.0004 98.9919 95.1859 99.0901 95.3852 99.1485C95.5846 99.207 95.7937 99.2244 96 99.1999Z" fill="#BAA496"/>
<path d="M97 85.11C97.2219 85.1157 97.4424 85.073 97.6462 84.9849C97.8499 84.8969 98.0321 84.7655 98.18 84.6C100.522 81.9608 103.307 79.751 106.41 78.07C109.467 76.4081 112.796 75.3041 116.24 74.81C116.442 74.7772 116.635 74.7049 116.809 74.597C116.983 74.4891 117.134 74.3479 117.253 74.1815C117.372 74.0151 117.457 73.8268 117.503 73.6275C117.548 73.4281 117.554 73.2216 117.52 73.02C117.465 72.6097 117.251 72.2377 116.923 71.9849C116.595 71.732 116.181 71.6189 115.77 71.67C111.998 72.2193 108.353 73.4277 105 75.24C101.581 77.0938 98.5084 79.5265 95.92 82.43C95.6422 82.7476 95.4985 83.1607 95.519 83.5822C95.5395 84.0037 95.7227 84.4008 96.03 84.69C96.296 84.9365 96.6382 85.0847 97 85.11Z" fill="#BAA496"/>
<path d="M220.14 143.14C220.352 143.141 220.562 143.092 220.751 142.996C220.941 142.901 221.105 142.761 221.23 142.59C223.269 139.871 225.117 137.014 226.76 134.04C228.308 131.247 229.674 128.358 230.85 125.39C231.009 125.03 231.025 124.623 230.895 124.252C230.765 123.88 230.499 123.572 230.15 123.39C229.985 123.311 229.805 123.268 229.622 123.265C229.439 123.261 229.257 123.296 229.088 123.368C228.92 123.44 228.769 123.547 228.645 123.682C228.521 123.816 228.427 123.976 228.37 124.15C227.234 126.997 225.918 129.769 224.43 132.45C222.848 135.303 221.071 138.043 219.11 140.65C218.878 140.966 218.77 141.356 218.805 141.746C218.84 142.136 219.016 142.5 219.3 142.77C219.526 142.991 219.824 143.123 220.14 143.14Z" fill="#BAA496"/>
<path d="M225.57 142.13C225.782 142.131 225.992 142.082 226.181 141.986C226.371 141.891 226.535 141.751 226.66 141.58C228.684 138.869 230.518 136.023 232.15 133.06C233.689 130.273 235.049 127.39 236.22 124.43C236.377 124.071 236.394 123.666 236.266 123.295C236.138 122.924 235.875 122.616 235.53 122.43C235.364 122.353 235.185 122.311 235.002 122.308C234.819 122.305 234.638 122.341 234.47 122.413C234.302 122.484 234.151 122.591 234.027 122.725C233.903 122.858 233.809 123.017 233.75 123.19C232.624 126.03 231.318 128.796 229.84 131.47C228.267 134.315 226.5 137.048 224.55 139.65C224.318 139.963 224.208 140.35 224.241 140.739C224.274 141.127 224.448 141.491 224.73 141.76C224.957 141.98 225.255 142.111 225.57 142.13Z" fill="#BAA496"/>
<path d="M228.2 130.73C228.59 130.73 228.97 130.73 229.35 130.73C231.759 130.651 234.133 130.126 236.35 129.18C236.694 129.011 236.963 128.719 237.104 128.362C237.244 128.005 237.246 127.608 237.11 127.25C237.059 127.075 236.972 126.913 236.854 126.773C236.737 126.634 236.591 126.521 236.428 126.441C236.264 126.361 236.085 126.316 235.903 126.309C235.721 126.302 235.539 126.333 235.37 126.4C231.437 128.08 227.012 128.205 222.99 126.75C222.811 126.693 222.623 126.674 222.436 126.694C222.25 126.714 222.07 126.773 221.908 126.868C221.746 126.962 221.605 127.089 221.495 127.241C221.385 127.393 221.309 127.566 221.27 127.75C221.151 128.118 221.175 128.517 221.338 128.868C221.502 129.219 221.792 129.494 222.15 129.64C224.097 130.32 226.138 130.688 228.2 130.73Z" fill="#BAA496"/>
<path d="M226 138.74C228.428 138.788 230.844 138.378 233.12 137.53C233.474 137.381 233.759 137.103 233.917 136.752C234.075 136.401 234.094 136.004 233.97 135.64C233.927 135.461 233.847 135.294 233.736 135.148C233.624 135.002 233.484 134.881 233.323 134.792C233.162 134.704 232.984 134.65 232.801 134.634C232.618 134.618 232.434 134.64 232.26 134.7C228.231 136.183 223.791 136.086 219.83 134.43C219.657 134.363 219.471 134.333 219.285 134.342C219.1 134.35 218.918 134.397 218.751 134.48C218.585 134.563 218.437 134.679 218.318 134.822C218.199 134.965 218.111 135.131 218.06 135.31C217.926 135.675 217.934 136.076 218.082 136.436C218.23 136.795 218.508 137.086 218.86 137.25C221.127 138.183 223.548 138.689 226 138.74Z" fill="#BAA496"/>
<path d="M171 129.36C169.21 127.53 169.9 122.85 172.81 117.74C172.818 117.723 172.831 117.709 172.847 117.699C172.863 117.689 172.881 117.684 172.9 117.684C172.919 117.684 172.937 117.689 172.953 117.699C172.969 117.709 172.982 117.723 172.99 117.74C175.76 122.94 176.33 127.63 174.51 129.4C174.038 129.841 173.416 130.086 172.77 130.086C172.124 130.086 171.502 129.841 171.03 129.4L171 129.36Z" fill="#EEE8E6"/>
<path d="M123.53 151.6C122.803 151.706 122.062 151.665 121.35 151.48C120.639 151.294 119.973 150.968 119.39 150.52C116.66 148.27 116.93 142.94 120.03 137.87C120.133 137.694 120.27 137.541 120.433 137.419C120.597 137.297 120.783 137.21 120.981 137.163C121.179 137.115 121.385 137.108 121.586 137.142C121.787 137.176 121.979 137.25 122.15 137.36C122.495 137.594 122.737 137.953 122.824 138.361C122.912 138.769 122.839 139.195 122.62 139.55C120.13 143.62 120.28 147.14 121.33 148.01C121.762 148.316 122.282 148.475 122.812 148.463C123.341 148.45 123.853 148.267 124.27 147.94C124.638 147.544 124.886 147.052 124.985 146.521C125.085 145.99 125.031 145.442 124.83 144.94C124.704 144.55 124.732 144.126 124.906 143.755C125.08 143.384 125.389 143.092 125.77 142.94C125.959 142.868 126.161 142.836 126.364 142.845C126.566 142.855 126.764 142.905 126.946 142.995C127.128 143.084 127.289 143.209 127.421 143.363C127.552 143.517 127.651 143.696 127.71 143.89C128.114 144.994 128.192 146.191 127.935 147.338C127.678 148.485 127.097 149.534 126.26 150.36C125.498 151.043 124.545 151.476 123.53 151.6Z" fill="#EEE8E6"/>
<path d="M131.882 117.975C133.83 117.757 135.261 116.254 135.078 114.619C134.896 112.983 133.168 111.834 131.219 112.052C129.271 112.269 127.84 113.772 128.022 115.408C128.205 117.043 129.933 118.193 131.882 117.975Z" fill="#EEE8E6"/>
<path d="M156.21 25.85C156.6 25.808 156.981 25.7068 157.34 25.55C160.459 24.1685 163.065 21.8424 164.79 18.9C168.87 11.9 166.29 4.41001 165.73 2.98001C165.554 2.49966 165.285 2.05876 164.938 1.68258C164.591 1.3064 164.174 1.00231 163.709 0.787736C163.245 0.573161 162.743 0.452312 162.231 0.432111C161.72 0.41191 161.21 0.49275 160.73 0.670007C159.771 1.08648 159.013 1.86177 158.619 2.82991C158.225 3.79805 158.225 4.8821 158.62 5.85001C158.82 6.34001 160.45 10.79 158.21 14.62C157.28 16.1874 155.881 17.4224 154.21 18.15C153.259 18.5975 152.523 19.4012 152.16 20.3873C151.797 21.3735 151.836 22.4628 152.27 23.42C152.594 24.1835 153.147 24.8275 153.853 25.2629C154.559 25.6982 155.382 25.9034 156.21 25.85Z" fill="#B19A82"/>
<path d="M145.2 38.52C142.2 39.09 140.38 37.52 139.5 34.43C138.87 32.24 137.36 27.56 136.24 24.37C139.528 23.393 142.866 22.5952 146.24 21.98C147.6 25.4323 148.576 29.024 149.15 32.69C149.62 36 148.24 38 145.2 38.52Z" fill="#B19A82"/>
<path d="M172.44 35.76C169.39 36.12 167.53 34.55 166.7 31.35C165.87 28.15 164.2 23.97 163.08 20.62C166.333 20.6726 169.58 20.8929 172.81 21.28C173.81 24.11 175.38 27.28 175.74 30.05C176.12 33.09 175.5 35.4 172.44 35.76Z" fill="#B19A82"/>
<path d="M211.94 88.14C211.031 88.2864 210.111 88.3533 209.19 88.3399C206.051 88.2408 203.015 87.1951 200.48 85.3399C200.319 85.2264 200.182 85.0821 200.077 84.9152C199.972 84.7484 199.901 84.5624 199.869 84.368C199.836 84.1736 199.842 83.9747 199.887 83.7828C199.932 83.5909 200.015 83.4098 200.13 83.25C200.363 82.9261 200.714 82.7075 201.108 82.6419C201.501 82.5763 201.905 82.6691 202.23 82.8999C204.268 84.3875 206.708 85.2242 209.23 85.3C210.716 85.3253 212.194 85.0779 213.59 84.57C213.776 84.5043 213.973 84.4759 214.17 84.4863C214.366 84.4968 214.559 84.5459 214.737 84.6308C214.915 84.7158 215.074 84.835 215.206 84.9815C215.338 85.1281 215.439 85.2991 215.505 85.485C215.571 85.6708 215.599 85.8677 215.589 86.0645C215.578 86.2613 215.529 86.4541 215.444 86.632C215.359 86.8098 215.24 86.9691 215.093 87.1009C214.947 87.2327 214.776 87.3343 214.59 87.3999C213.73 87.7228 212.843 87.9704 211.94 88.14Z" fill="#977C6A"/>
<path d="M272.24 209.69C272.223 209.412 272.133 209.143 271.98 208.91C271.711 208.516 271.298 208.243 270.83 208.15L266.62 207.89C266.609 208.476 266.762 209.054 267.063 209.558C267.363 210.062 267.799 210.471 268.32 210.74C268.995 211.041 269.752 211.101 270.466 210.91C271.18 210.719 271.806 210.288 272.24 209.69Z" fill="#DFB99A"/>
<path d="M275.18 209.46C275.929 208.494 277.021 207.853 278.23 207.67C280.72 207.34 282.93 209.26 282.74 209.89C282.6 210.3 281.26 210.56 275.18 209.46Z" fill="#DFB99A"/>
<path d="M288.69 247.85H261.31C260.2 247.85 259.24 247.33 259.15 246.69L254.41 211.77C254.26 210.67 255.33 209.77 256.8 209.77H293.2C294.67 209.77 295.74 210.68 295.59 211.77L290.85 246.69C290.76 247.33 289.8 247.85 288.69 247.85Z" fill="#6593B3"/>
<path d="M293 222.51H257C255.55 222.51 254.35 222.29 254.32 222.01L253.09 209.79C253.09 209.48 254.29 209.22 255.83 209.22H294.13C295.67 209.22 296.9 209.48 296.87 209.79L295.66 222C295.63 222.29 294.43 222.51 293 222.51Z" fill="#6593B3"/>
<path d="M268.18 207.71C266.48 207.63 265.1 207.71 264.13 207.64C262.42 207.45 259.43 206.91 257.46 207.39C257.052 207.485 256.668 207.662 256.33 207.91C255.801 208.332 255.405 208.898 255.19 209.54C254.107 212.748 253.418 216.076 253.14 219.45C253.034 222.475 253.324 225.5 254 228.45C254.039 228.616 254.117 228.77 254.226 228.9C254.336 229.03 254.475 229.133 254.631 229.2C254.788 229.267 254.958 229.297 255.128 229.286C255.298 229.276 255.463 229.226 255.61 229.14C258.232 227.606 260.642 225.737 262.78 223.58C264.189 222.204 265.455 220.69 266.56 219.06C267.387 217.895 268.06 216.628 268.56 215.29C269.8 211.79 269.2 208.7 270.64 208.19C270.724 208.161 270.811 208.141 270.9 208.13C270.001 207.942 269.093 207.802 268.18 207.71Z" fill="#F5CE9B"/>
<path d="M294.61 214.85C293.43 212.36 292.61 210.4 290.69 209.01C289.768 208.333 288.736 207.818 287.64 207.49C285.096 207.115 282.512 207.085 279.96 207.4C279.36 207.47 278.78 207.57 278.22 207.67C278.464 207.791 278.69 207.946 278.89 208.13C281.33 210.46 278.25 215.55 278.96 221.27C279.41 224.84 280.53 227.27 284.76 231.83C287.416 234.673 290.443 237.146 293.76 239.18C293.892 239.26 294.041 239.308 294.195 239.32C294.349 239.333 294.503 239.309 294.646 239.252C294.79 239.195 294.918 239.106 295.021 238.991C295.124 238.876 295.199 238.739 295.24 238.59C296.266 234.843 296.781 230.975 296.77 227.09C296.73 223.23 296.71 219.32 294.61 214.85Z" fill="#F0E8BC"/>
</svg>
