<svg width="281" height="227" viewBox="0 0 281 227" fill="none" xmlns="http://www.w3.org/2000/svg">
<path d="M279.74 139C279.58 137.81 275.23 114 253.74 102.11C228.2 88 198.65 99.78 184 117.67C181.229 120.996 178.712 124.526 176.47 128.23C170.905 137.701 167.069 148.086 165.14 158.9C162.04 175.28 164.83 181.58 160.42 195.11C157.3 204.68 153.76 208.11 151.42 209.79C150.23 210.63 148.42 211.79 145.3 214.04C142.927 215.754 140.69 217.65 138.61 219.71C142.88 220.852 147.257 221.552 151.67 221.8C155.646 221.971 159.63 221.814 163.58 221.33C171.472 220.659 179.082 218.075 185.75 213.8C197.31 206.13 202.35 194.28 204.55 185.98C211.604 191.173 219.946 194.334 228.67 195.12C251 197.18 271 183.78 277.18 164C281.44 152.63 280.08 141.43 279.74 139Z" fill="#BAA496"/>
<path d="M70.18 164.2C68.13 164.91 54.91 169.68 59 178.2C60.82 181.98 64.36 182.66 68.14 182.35C74.14 181.86 79.26 180.7 83.72 176.05C87.72 171.87 90.28 157.73 88.72 153.75C86.15 147.2 76.73 161.93 70.18 164.2Z" fill="#CAB49F"/>
<path d="M70.29 219.58L66.73 211.69C66.399 210.899 66.3443 210.02 66.5747 209.194C66.8052 208.369 67.3073 207.645 68 207.14L77.9 199.58C80.5782 197.484 83.8983 196.378 87.2983 196.449C90.6983 196.521 93.9692 197.764 96.5575 199.97C99.1457 202.176 100.892 205.209 101.501 208.554C102.11 211.9 101.545 215.353 99.9 218.33C94.54 220.02 80.26 221.49 74.1 221.74C73.3225 221.797 72.5455 221.623 71.8672 221.238C71.189 220.854 70.6401 220.277 70.29 219.58Z" fill="#CAB49F"/>
<path d="M152.82 136.16C146.55 132.46 135.45 130.01 126.33 129.95C117.21 129.89 106.2 132.2 100 135.79C87.17 143.2 78.86 160.05 79.43 185.87C80.06 215.55 99.51 221.29 125.96 221.79C152.59 222.28 172.46 217.21 173.28 187.17C174 161 165.84 143.82 152.82 136.16Z" fill="#CAB49F"/>
<path d="M99.15 217.55C104.612 219.586 110.336 220.835 116.15 221.26C118.68 221.4 121.15 221.52 123.15 221.61C128.898 221.873 134.657 221.763 140.39 221.28C138.229 214.244 137.153 206.92 137.2 199.56C137.29 193.73 137.43 189.68 135.42 184.38C134.091 180.562 131.846 177.128 128.88 174.38C125.158 171.092 120.413 169.191 115.45 169C113.12 168.86 104.61 168.45 97.58 174.29C94.8617 176.554 92.7024 179.415 91.27 182.65C90.1616 185.343 89.5387 188.21 89.43 191.12C89.43 191.12 88.1 202.46 92.84 211.02C94.2185 213.039 95.7355 214.961 97.38 216.77L99.15 217.55Z" fill="#F2ECDF"/>
<path d="M151.42 181C150.09 182.36 137.14 189.42 131.11 185.95C128.43 184.4 124.6 182.23 125.21 176.95C126.21 168.55 134.31 168.18 141.12 166.9C147.24 165.75 154.68 156.9 159.06 156.63C166.28 156.14 155.67 176.66 151.42 181Z" fill="#CAB49F"/>
<path d="M135.27 188.41C133.561 188.461 131.869 188.064 130.36 187.26C127.57 185.65 123 183.01 123.72 176.77C124.72 168.16 132.42 166.86 138.61 165.77L140.85 165.37C143.67 164.84 147.13 162.24 150.18 159.94C151.5 158.94 152.74 158.02 153.95 157.22C154.114 157.098 154.301 157.011 154.499 156.965C154.698 156.918 154.904 156.912 155.104 156.947C155.305 156.982 155.497 157.058 155.667 157.17C155.838 157.282 155.984 157.428 156.096 157.598C156.208 157.768 156.285 157.96 156.321 158.16C156.357 158.361 156.351 158.567 156.305 158.766C156.258 158.964 156.172 159.151 156.051 159.316C155.93 159.48 155.776 159.617 155.6 159.72C154.47 160.47 153.26 161.38 151.98 162.34C148.51 164.96 144.91 167.66 141.4 168.34L139.11 168.74C131.85 169.98 127.39 171.15 126.7 177.1C126.2 181.38 129.18 183.1 131.8 184.6C133.55 185.6 136.3 185.6 139.8 184.72C139.993 184.662 140.196 184.643 140.396 184.665C140.597 184.687 140.791 184.749 140.967 184.847C141.143 184.946 141.297 185.079 141.42 185.238C141.544 185.398 141.634 185.581 141.685 185.776C141.736 185.971 141.747 186.174 141.718 186.374C141.689 186.573 141.62 186.765 141.515 186.937C141.41 187.109 141.271 187.258 141.107 187.376C140.943 187.493 140.757 187.576 140.56 187.62C138.837 188.106 137.06 188.371 135.27 188.41Z" fill="#BAA496"/>
<path d="M131.52 229.09L125.45 222.76C124.861 222.112 124.501 221.288 124.425 220.416C124.349 219.543 124.562 218.67 125.03 217.93L132.26 206.59C134.062 203.902 136.715 201.898 139.794 200.9C142.872 199.903 146.197 199.97 149.233 201.091C152.269 202.212 154.839 204.321 156.531 207.08C158.223 209.838 158.937 213.086 158.56 216.3C154.16 219.87 141.44 227.36 135.79 229.82C135.088 230.145 134.304 230.249 133.542 230.119C132.779 229.988 132.074 229.63 131.52 229.09Z" fill="#CAB49F"/>
<path d="M65.68 8.62002C74.68 7.75002 82.55 14.69 83.33 24.12C84.11 33.55 77.44 41.88 68.46 42.71C59.48 43.54 51.66 36.58 50.89 27.19C50.12 17.8 56.74 9.49002 65.68 8.62002Z" fill="#CAB49F"/>
<path d="M66.31 16.35C67.5052 16.2562 68.7072 16.4021 69.8452 16.7793C70.9832 17.1564 72.0344 17.7571 72.9371 18.5462C73.8398 19.3352 74.5757 20.2966 75.1017 21.374C75.6277 22.4513 75.9331 23.6229 76 24.82C76.2504 27.2502 75.5333 29.6813 74.0041 31.5866C72.475 33.492 70.2568 34.7183 67.83 35C66.6404 35.0826 65.4462 34.928 64.3169 34.5452C63.1875 34.1624 62.1455 33.5589 61.2514 32.77C60.3572 31.981 59.6288 31.0221 59.1084 29.9492C58.588 28.8763 58.286 27.7106 58.22 26.52C57.9659 24.1026 58.6714 21.6822 60.1846 19.78C61.6977 17.8778 63.8975 16.6461 66.31 16.35Z" fill="#F2ECDF"/>
<path d="M148.83 0.569962C158 -0.320038 166.09 6.68997 166.83 16.23C167.57 25.77 160.83 34.23 151.64 35.04C142.45 35.85 134.44 28.86 133.64 19.37C132.84 9.87996 139.68 1.44996 148.83 0.569962Z" fill="#CAB49F"/>
<path d="M149.48 8.37998C150.692 8.28474 151.91 8.43152 153.064 8.81177C154.218 9.19201 155.285 9.79812 156.203 10.5948C157.121 11.3915 157.871 12.3628 158.409 13.4521C158.948 14.5415 159.264 15.7271 159.34 16.94C159.582 19.3998 158.847 21.856 157.295 23.7791C155.742 25.7022 153.496 26.938 151.04 27.22C149.83 27.3124 148.614 27.1636 147.462 26.7821C146.31 26.4006 145.246 25.794 144.33 24.9976C143.415 24.2012 142.666 23.2308 142.129 22.1429C141.592 21.0549 141.276 19.871 141.2 18.66C140.958 16.2033 141.69 13.7497 143.238 11.8272C144.787 9.90468 147.028 8.66683 149.48 8.37998Z" fill="#F2ECDF"/>
<path d="M105.42 14.0499C141.95 10.5499 190.42 30.1099 197.85 83.2699C204.59 131.27 170.08 160.15 117.75 164.07C66.17 167.93 28.75 145.07 27.57 97.7499C26.21 45.2799 69.24 17.5099 105.42 14.0499Z" fill="#CAB49F"/>
<path d="M102.87 107.2C105.25 107.02 107.31 108.39 107.47 110.26C107.63 112.13 105.81 113.78 103.47 113.95C101.13 114.12 99.05 112.74 98.9 110.88C98.75 109.02 100.49 107.37 102.87 107.2Z" fill="#977C6A"/>
<path d="M104.58 128.29C105.906 129.79 107.699 130.798 109.67 131.15C110.676 131.359 111.704 131.44 112.73 131.39C116.62 131.16 120.38 129 121.36 124.9C121.464 124.502 121.41 124.08 121.211 123.721C121.012 123.362 120.682 123.093 120.29 122.97C120.101 122.915 119.902 122.899 119.707 122.923C119.511 122.948 119.323 123.012 119.153 123.112C118.983 123.213 118.836 123.347 118.72 123.506C118.604 123.666 118.523 123.848 118.48 124.04C117.7 127.42 113.56 128.79 110.19 128.12C108.98 127.771 107.903 127.065 107.1 126.095C106.297 125.124 105.806 123.934 105.69 122.68L104.79 112.21L101.79 112.43L102.65 122.88C102.754 124.113 102.469 125.348 101.836 126.411C101.203 127.475 100.254 128.313 99.12 128.81C95.95 129.87 91.73 129.04 90.44 125.81C90.3729 125.629 90.2696 125.463 90.1365 125.322C90.0034 125.182 89.8431 125.07 89.6655 124.993C89.4879 124.917 89.2966 124.877 89.1031 124.876C88.9096 124.876 88.7181 124.914 88.54 124.99C88.1877 125.169 87.9176 125.476 87.7855 125.848C87.6533 126.22 87.6693 126.629 87.83 126.99C89.42 130.86 93.37 132.52 97.18 132.29C98.1822 132.22 99.1707 132.019 100.12 131.69C101.989 131.109 103.595 129.892 104.66 128.25" fill="#977C6A"/>
<path d="M64.42 107.26C63.7613 107.29 63.1126 107.09 62.5853 106.694C62.058 106.298 61.6849 105.731 61.53 105.09C61.2976 104.354 61.3582 103.556 61.6991 102.863C62.0399 102.17 62.6348 101.635 63.36 101.37C65.3156 100.742 67.1513 99.7884 68.79 98.55C69.0901 98.3267 69.4338 98.169 69.7988 98.0871C70.1637 98.0051 70.5418 98.0008 70.9086 98.0743C71.2753 98.1479 71.6225 98.2977 71.9277 98.514C72.2329 98.7303 72.4892 99.0083 72.68 99.33C73.111 99.9879 73.2812 100.783 73.1573 101.56C73.0334 102.336 72.6243 103.039 72.01 103.53C69.8965 105.121 67.53 106.345 65.01 107.15C64.8177 107.207 64.62 107.244 64.42 107.26Z" fill="#977C6A"/>
<path d="M143.53 101.22C143.317 101.245 143.103 101.245 142.89 101.22C140.055 100.81 137.306 99.9419 134.75 98.65C134.021 98.2668 133.466 97.6196 133.198 96.8408C132.931 96.062 132.971 95.2103 133.31 94.46C133.468 94.094 133.699 93.7641 133.989 93.4905C134.279 93.2168 134.621 93.0052 134.996 92.8685C135.37 92.7319 135.768 92.673 136.166 92.6956C136.564 92.7182 136.953 92.8218 137.31 93C139.298 94.0042 141.436 94.6796 143.64 95C144.455 95.1285 145.188 95.5708 145.681 96.2323C146.174 96.8938 146.389 97.722 146.28 98.54C146.207 99.2377 145.892 99.888 145.39 100.378C144.888 100.867 144.229 101.165 143.53 101.22Z" fill="#977C6A"/>
<path d="M108.74 123.82C110.14 121.68 108.55 117.22 104.69 112.82C104.681 112.806 104.669 112.794 104.654 112.785C104.639 112.777 104.622 112.773 104.605 112.773C104.588 112.773 104.571 112.777 104.556 112.785C104.542 112.794 104.529 112.806 104.52 112.82C102.82 118.46 103.17 123.16 105.3 124.55C105.854 124.883 106.514 124.993 107.146 124.86C107.779 124.726 108.338 124.358 108.71 123.83L108.74 123.82Z" fill="#EEE8E6"/>
<path d="M51.33 82.69C50.6719 82.7493 50.0087 82.6714 49.3822 82.4615C48.7556 82.2515 48.1795 81.9139 47.69 81.47C45.34 79.24 45.69 74.28 48.55 69.66C48.6401 69.5011 48.7629 69.3632 48.9103 69.2554C49.0577 69.1476 49.2263 69.0722 49.4049 69.0344C49.5836 68.9966 49.7683 68.9972 49.9467 69.036C50.1251 69.0749 50.2933 69.1512 50.44 69.26C50.7449 69.4995 50.9511 69.8428 51.0194 70.2245C51.0876 70.6062 51.0131 70.9997 50.81 71.33C48.51 75.05 48.56 78.33 49.46 79.21C49.8221 79.5202 50.2794 79.6972 50.7559 79.7117C51.2325 79.7263 51.6997 79.5775 52.08 79.29C52.4224 78.9203 52.6567 78.4636 52.7572 77.9698C52.8577 77.476 52.8207 76.9641 52.65 76.49C52.5341 76.1221 52.5614 75.7241 52.7264 75.3755C52.8914 75.0269 53.182 74.7535 53.54 74.61C53.7186 74.5544 53.9068 74.5365 54.0927 74.5575C54.2786 74.5785 54.4581 74.6378 54.6198 74.7319C54.7816 74.8259 54.922 74.9525 55.0322 75.1037C55.1424 75.2548 55.22 75.4272 55.26 75.61C55.5923 76.6476 55.6319 77.7568 55.3743 78.8154C55.1167 79.8741 54.5719 80.8411 53.8 81.61C53.1141 82.226 52.248 82.6047 51.33 82.69Z" fill="#EEE8E6"/>
<path d="M159.65 136.38C160.384 136.343 161.104 136.159 161.766 135.837C162.427 135.516 163.017 135.065 163.5 134.51C165.74 131.77 164.44 126.6 160.41 122.23C160.274 122.078 160.11 121.955 159.926 121.868C159.742 121.781 159.542 121.732 159.339 121.724C159.136 121.715 158.933 121.748 158.742 121.819C158.552 121.891 158.378 122 158.23 122.14C157.942 122.442 157.78 122.843 157.78 123.26C157.78 123.677 157.942 124.079 158.23 124.38C161.46 127.9 162 131.38 161.14 132.43C160.776 132.816 160.297 133.075 159.775 133.167C159.252 133.259 158.714 133.179 158.24 132.94C157.801 132.622 157.462 132.187 157.26 131.685C157.058 131.182 157.003 130.633 157.1 130.1C157.158 129.685 157.053 129.263 156.807 128.924C156.561 128.584 156.193 128.354 155.78 128.28C155.581 128.249 155.377 128.259 155.181 128.308C154.985 128.358 154.802 128.447 154.641 128.569C154.481 128.691 154.346 128.845 154.247 129.02C154.147 129.196 154.083 129.389 154.06 129.59C153.884 130.753 154.044 131.942 154.521 133.017C154.997 134.092 155.771 135.009 156.75 135.66C157.624 136.182 158.633 136.433 159.65 136.38Z" fill="#EEE8E6"/>
<path d="M144.933 105.035C146.886 104.868 148.357 103.404 148.217 101.764C148.078 100.125 146.381 98.9299 144.428 99.096C142.474 99.2621 141.004 100.726 141.143 102.366C141.282 104.006 142.979 105.201 144.933 105.035Z" fill="#EEE8E6"/>
<path d="M116.37 29.68C119.46 29.68 120.9 27.76 121.16 24.56C121.35 22.29 121.92 17.41 122.4 14.06C118.973 13.7423 115.531 13.6121 112.09 13.67C111.43 17.3242 111.176 21.04 111.33 24.75C111.53 28 113.28 29.72 116.37 29.68Z" fill="#B19A82"/>
<path d="M89.11 32.29C92.18 32.05 93.69 30.14 93.88 26.84C94.07 23.54 94.88 19.12 95.34 15.61C92.1626 16.2977 89.0219 17.1454 85.93 18.15C85.49 21.15 84.57 24.53 84.77 27.32C85 30.38 86.05 32.53 89.11 32.29Z" fill="#B19A82"/>
<path d="M108.54 13.8101C107.493 13.8701 106.453 13.9501 105.42 14.0501C103.26 14.2501 101.09 14.5501 98.9 14.9301C97.5078 20.3987 96.7891 26.017 96.76 31.6601C97.33 35.1601 98.93 36.7201 102.04 36.4101C105.15 36.1001 106.74 34.2101 106.63 30.8201C106.46 25.8901 107.84 19.1001 108.54 13.8101Z" fill="#B19A82"/>
<path d="M19.87 187.12C19.8398 186.743 19.6847 186.387 19.4293 186.108C19.1739 185.829 18.8329 185.643 18.46 185.58L14.24 185.32C14.2342 185.904 14.3899 186.478 14.6899 186.979C14.9899 187.481 15.4225 187.889 15.94 188.16C16.6145 188.467 17.3743 188.531 18.0906 188.341C18.807 188.152 19.4356 187.72 19.87 187.12Z" fill="#DFB99A"/>
<path d="M22.81 186.89C23.546 185.932 24.6181 185.288 25.81 185.09C28.3 184.77 30.51 186.69 30.31 187.31C30.23 187.73 28.89 188 22.81 186.89Z" fill="#DFB99A"/>
<path d="M36.32 225.27H8.93002C7.83002 225.27 6.86002 224.76 6.77002 224.11L2.00002 189.19C1.85002 188.09 2.92002 187.19 4.39002 187.19H40.83C42.3 187.19 43.37 188.09 43.22 189.19L38.48 224.11C38.39 224.76 37.42 225.27 36.32 225.27Z" fill="#6593B3"/>
<path d="M40.6 199.94H4.65002C3.20002 199.94 2.00002 199.72 1.97002 199.44L0.740021 187.22C0.740021 186.91 1.93002 186.65 3.48002 186.65H41.77C43.32 186.65 44.54 186.91 44.51 187.22L43.28 199.44C43.25 199.72 42.05 199.94 40.6 199.94Z" fill="#6593B3"/>
<path d="M15.8 185.14C14.1 185.06 12.72 185.14 11.8 185.07C10.09 184.88 7.10001 184.34 5.13001 184.82C4.72208 184.915 4.33768 185.092 4.00001 185.34C3.44248 185.756 3.02972 186.337 2.82001 187C1.73557 190.211 1.04387 193.542 0.760013 196.92C0.653694 199.945 0.946208 202.971 1.63001 205.92C1.66736 206.087 1.74382 206.242 1.85309 206.374C1.96235 206.506 2.10131 206.609 2.25851 206.677C2.41572 206.744 2.58668 206.773 2.75731 206.762C2.92795 206.75 3.09339 206.698 3.24001 206.61C5.86516 205.062 8.27575 203.176 10.41 201C11.8206 199.632 13.0842 198.121 14.18 196.49C15.0091 195.323 15.6815 194.052 16.18 192.71C17.41 189.22 16.82 186.12 18.25 185.62C18.3347 185.592 18.4217 185.572 18.51 185.56C17.6157 185.367 16.7108 185.226 15.8 185.14Z" fill="#F5CE9B"/>
<path d="M42.23 192.28C41.06 189.78 40.23 187.82 38.32 186.44C37.3962 185.759 36.3607 185.245 35.26 184.92C32.719 184.545 30.1391 184.515 27.59 184.83C26.99 184.897 26.41 184.987 25.85 185.1C26.0906 185.221 26.3129 185.376 26.51 185.56C28.96 187.89 25.88 192.97 26.59 198.7C27.03 202.26 28.16 204.7 32.38 209.25C35.0292 212.101 38.0575 214.574 41.38 216.6C41.5112 216.678 41.6584 216.724 41.8104 216.737C41.9624 216.749 42.1152 216.726 42.2571 216.67C42.3989 216.614 42.5261 216.526 42.6289 216.414C42.7316 216.301 42.8073 216.166 42.85 216.02C43.8863 212.272 44.4011 208.399 44.38 204.51C44.35 200.66 44.34 196.75 42.23 192.28Z" fill="#F0E8BC"/>
</svg>
