<svg width="282" height="246" viewBox="0 0 282 246" fill="none" xmlns="http://www.w3.org/2000/svg">
<path d="M267.75 164.38C267.81 163.18 267.93 139 250.06 123.77C228.78 105.65 199.25 112.4 182.5 127.59C179.329 130.418 176.371 133.477 173.65 136.74C166.785 145.214 161.412 154.794 157.76 165.07C152 180.69 153.51 187.35 147 200C142.43 208.9 138.54 211.7 136.05 213C134.8 213.63 132.89 214.49 129.63 216.18C127.114 217.48 124.703 218.975 122.42 220.65C126.18 222.477 130.126 223.892 134.19 224.87C137.857 225.689 141.587 226.191 145.34 226.37C152.847 227.007 160.392 225.716 167.26 222.62C179.35 216.98 186.1 206.13 189.6 198.33C195.155 204.559 202.376 209.069 210.41 211.33C220.173 214.052 230.582 213.265 239.825 209.107C249.068 204.949 256.561 197.682 261 188.57C267 178.1 267.64 166.85 267.75 164.38Z" fill="#BC9C86"/>
<path d="M250.66 214.19C250.316 214.117 249.98 214.006 249.66 213.86C247.87 213.012 246.252 211.839 244.89 210.4C243.168 208.574 241.895 206.373 241.17 203.97C240.999 203.432 240.937 202.866 240.987 202.304C241.037 201.742 241.198 201.196 241.462 200.697C241.725 200.198 242.085 199.756 242.521 199.398C242.957 199.04 243.46 198.772 244 198.61C245.107 198.31 246.287 198.456 247.288 199.017C248.288 199.578 249.029 200.509 249.35 201.61C249.671 202.661 250.233 203.623 250.99 204.42C251.581 205.048 252.287 205.558 253.07 205.92C254.125 206.411 254.949 207.291 255.372 208.375C255.795 209.459 255.784 210.664 255.34 211.74C254.964 212.627 254.292 213.356 253.439 213.803C252.585 214.25 251.603 214.387 250.66 214.19Z" fill="#B39175"/>
<path d="M264.14 177.24C263.353 177.096 262.62 176.741 262.019 176.213C261.418 175.684 260.973 175.002 260.73 174.24C260.557 173.706 260.493 173.142 260.54 172.583C260.588 172.023 260.747 171.479 261.008 170.982C261.269 170.484 261.626 170.044 262.059 169.687C262.492 169.329 262.992 169.062 263.53 168.9C266.318 168.075 269.252 167.863 272.13 168.28C274.608 168.633 277.001 169.436 279.19 170.65C280.209 171.195 280.971 172.122 281.309 173.228C281.646 174.334 281.531 175.528 280.99 176.55C280.713 177.048 280.34 177.486 279.893 177.839C279.445 178.191 278.932 178.451 278.383 178.604C277.834 178.757 277.26 178.799 276.695 178.728C276.13 178.656 275.584 178.474 275.09 178.19C273.848 177.499 272.494 177.032 271.09 176.81C269.444 176.57 267.766 176.689 266.17 177.16C265.51 177.35 264.813 177.377 264.14 177.24Z" fill="#B39175"/>
<path d="M256.33 137.3C255.266 137.133 254.308 136.562 253.654 135.706C253.001 134.85 252.703 133.775 252.823 132.705C252.943 131.635 253.472 130.652 254.298 129.962C255.125 129.272 256.186 128.927 257.26 129C258.871 129.082 260.481 128.83 261.99 128.26C263.17 127.809 264.268 127.167 265.24 126.36C266.11 125.647 267.223 125.302 268.344 125.397C269.464 125.493 270.503 126.021 271.24 126.87C271.604 127.288 271.88 127.775 272.052 128.301C272.224 128.828 272.289 129.384 272.242 129.936C272.195 130.488 272.038 131.025 271.78 131.515C271.522 132.005 271.169 132.439 270.74 132.79C266.838 136.02 261.856 137.65 256.8 137.35C256.642 137.344 256.485 137.327 256.33 137.3Z" fill="#B39175"/>
<path d="M224.82 118.33C224.107 118.208 223.438 117.901 222.88 117.44C220.679 115.601 219.077 113.146 218.28 110.39C217.461 107.532 217.52 104.494 218.45 101.67C218.79 100.642 219.516 99.7867 220.476 99.2847C221.435 98.7826 222.552 98.6734 223.59 98.98C224.094 99.1399 224.561 99.3981 224.964 99.7397C225.368 100.081 225.699 100.499 225.94 100.97C226.181 101.44 226.326 101.954 226.367 102.481C226.409 103.008 226.345 103.538 226.18 104.04C225.766 105.317 225.742 106.689 226.11 107.98C226.482 109.215 227.209 110.314 228.2 111.14C228.612 111.484 228.951 111.907 229.198 112.384C229.445 112.861 229.594 113.382 229.638 113.917C229.682 114.452 229.619 114.99 229.453 115.501C229.286 116.011 229.02 116.483 228.67 116.89C228.206 117.441 227.608 117.862 226.934 118.115C226.259 118.367 225.531 118.441 224.82 118.33Z" fill="#B39175"/>
<path d="M198.76 214.91C197.88 214.708 197.084 214.237 196.485 213.561C195.887 212.885 195.514 212.038 195.42 211.14C195.346 210.594 195.38 210.039 195.52 209.506C195.661 208.974 195.906 208.474 196.241 208.036C196.575 207.599 196.993 207.231 197.47 206.956C197.947 206.68 198.474 206.501 199.02 206.43C199.397 206.391 199.75 206.226 200.02 205.96C200.296 205.662 200.467 205.283 200.51 204.88C200.549 204.333 200.697 203.799 200.945 203.31C201.193 202.821 201.536 202.386 201.954 202.031C202.372 201.676 202.857 201.408 203.38 201.243C203.903 201.078 204.454 201.019 205 201.07C206.116 201.213 207.132 201.784 207.834 202.663C208.536 203.543 208.868 204.66 208.76 205.78C208.557 208.176 207.529 210.428 205.85 212.15C204.283 213.741 202.218 214.746 200 215C199.585 215.03 199.167 214.999 198.76 214.91Z" fill="#B39175"/>
<path d="M49.1 160.85C43.1 156.21 33.9 160.64 33.48 169.85C34.02 173.67 35.93 176.23 40 178.52C46.47 182.17 53.06 182.15 60.12 180.83C66.47 179.65 77.38 170.58 77.64 166.83C78.09 160.51 56.79 165 49.1 160.85Z" fill="#CBAC92"/>
<path d="M77.64 242.3L86.19 243.61C87.0763 243.694 87.9646 243.47 88.7056 242.977C89.4467 242.483 89.9955 241.75 90.26 240.9L95 228.25C95 227.42 95.42 218.42 88.72 212.81C86.3083 210.801 83.3529 209.556 80.2308 209.234C77.1087 208.912 73.9613 209.526 71.19 211C70.94 217.11 73.19 232.47 74.57 239C74.6908 239.795 75.0483 240.535 75.596 241.124C76.1436 241.712 76.8559 242.122 77.64 242.3Z" fill="#CBAC92"/>
<path d="M140.16 144.32C133.89 140.62 122.79 138.17 113.67 138.12C104.55 138.07 93.55 140.36 87.33 143.96C74.5 151.36 66.2 168.21 66.76 194C67.4 223.69 86.85 229.43 113.29 229.92C139.93 230.42 159.79 225.35 160.62 195.3C161.33 169.19 153.19 152 140.16 144.32Z" fill="#CBAC92"/>
<path d="M86.49 225.71C91.9521 227.748 97.6759 229 103.49 229.43C106.01 229.57 108.49 229.68 110.49 229.78C116.235 230.035 121.99 229.921 127.72 229.44C125.56 222.407 124.484 215.087 124.53 207.73C124.62 201.9 124.76 197.84 122.75 192.55C121.422 188.731 119.177 185.297 116.21 182.55C112.476 179.252 107.709 177.357 102.73 177.19C100.4 177.04 91.89 176.64 84.86 182.47C82.1454 184.735 79.9895 187.596 78.56 190.83C77.4432 193.52 76.8199 196.389 76.72 199.3C76.72 199.3 75.38 210.65 80.13 219.2C81.5034 221.224 83.0171 223.148 84.66 224.96L86.49 225.71Z" fill="#F8EFDC"/>
<path d="M173.84 171.14C176.44 173.14 187.92 182.07 186.91 190.44C186.47 194.15 181.62 196.25 177.98 196.44C172.22 196.66 167.98 191.51 161.98 184.06C156.6 177.35 151.75 166.26 150.45 163.06C148.26 157.83 165.49 164.86 173.84 171.14Z" fill="#CBAC92"/>
<path d="M144.38 245.18L135.62 245C134.744 244.96 133.905 244.633 133.232 244.069C132.56 243.505 132.092 242.736 131.9 241.88L127.82 229.46C127.82 229.46 146.68 218.91 154.46 217.01C153.88 222.65 150.18 236.94 147.92 242.68C147.653 243.406 147.171 244.034 146.539 244.481C145.907 244.927 145.154 245.171 144.38 245.18Z" fill="#CBAC92"/>
<path d="M83.83 9.30999C92.83 9.68999 99.69 17.65 99.15 27.1C98.61 36.55 90.86 43.87 81.86 43.45C72.86 43.03 66.06 35.06 66.61 25.65C67.16 16.24 74.85 8.91999 83.83 9.30999Z" fill="#CBAC92"/>
<path d="M83.38 17C84.572 17.0794 85.7363 17.3954 86.8049 17.9295C87.8735 18.4636 88.8251 19.2051 89.6042 20.1108C90.3833 21.0165 90.9743 22.0682 91.3427 23.2046C91.7111 24.3411 91.8496 25.5395 91.75 26.73C91.6613 29.1606 90.6208 31.459 88.8531 33.1295C87.0853 34.8 84.7317 35.7088 82.3 35.66C81.1205 35.5714 79.97 35.2512 78.9143 34.7176C77.8586 34.1841 76.9184 33.4477 76.1476 32.5505C75.3767 31.6533 74.7902 30.613 74.4217 29.489C74.0533 28.365 73.9099 27.1794 74 26C74.0732 23.5702 75.0968 21.2662 76.8509 19.5832C78.6049 17.9002 80.9493 16.9727 83.38 17Z" fill="#F8EFDC"/>
<path d="M167.29 12.85C176.49 13.24 183.53 21.3 183 30.85C182.47 40.4 174.55 47.85 165.34 47.38C156.13 46.91 149.17 38.88 149.7 29.38C150.23 19.88 158.11 12.46 167.29 12.85Z" fill="#CBAC92"/>
<path d="M166.84 20.68C168.053 20.7521 169.24 21.0652 170.331 21.601C171.422 22.1367 172.395 22.8845 173.194 23.8005C173.993 24.7166 174.601 25.7826 174.983 26.9363C175.365 28.09 175.514 29.3083 175.42 30.52C175.316 32.9852 174.247 35.3105 172.443 36.9943C170.64 38.6781 168.246 39.5852 165.78 39.52C164.569 39.4441 163.386 39.1283 162.298 38.5908C161.211 38.0534 160.241 37.305 159.446 36.3894C158.65 35.4737 158.044 34.409 157.664 33.2572C157.284 32.1054 157.136 30.8894 157.23 29.68C157.334 27.2202 158.399 24.8994 160.196 23.2165C161.993 21.5336 164.379 20.6228 166.84 20.68Z" fill="#F8EFDC"/>
<path d="M122.42 20.1899C159.09 21.7899 204.35 47.8699 204.42 101.55C204.42 149.99 166.26 173.84 113.89 170.47C62.27 167.14 28.42 139.28 33.77 92.2999C39.65 40.1399 86.12 18.5999 122.42 20.1899Z" fill="#CBAC92"/>
<path d="M107 112.07C109.39 112.22 111.24 113.87 111.13 115.74C111.02 117.61 109 119 106.62 118.83C104.24 118.66 102.4 117.03 102.51 115.17C102.62 113.31 104.62 111.92 107 112.07Z" fill="#816A55"/>
<path d="M98.43 125.52C94.63 125.25 90.95 123.08 89.91 119.04C89.7992 118.655 89.8414 118.243 90.0278 117.889C90.2142 117.535 90.5303 117.266 90.91 117.14C91.0966 117.089 91.2915 117.077 91.483 117.104C91.6744 117.131 91.8584 117.196 92.0239 117.296C92.1893 117.396 92.3328 117.529 92.4455 117.686C92.5583 117.843 92.6381 118.021 92.68 118.21C93.52 121.55 97.58 122.93 100.86 122.29C102.29 122.01 105.58 120.93 105.18 116.89L105.01 115.08L108.61 115.32L108.23 117.1C107.38 121.1 110.54 122.59 111.94 123.1C115.19 124.2 119.47 123.4 120.72 120.16C120.784 119.976 120.885 119.807 121.017 119.663C121.149 119.52 121.309 119.404 121.487 119.325C121.664 119.245 121.857 119.203 122.052 119.2C122.247 119.198 122.44 119.235 122.62 119.31C122.98 119.482 123.263 119.783 123.413 120.153C123.563 120.523 123.569 120.936 123.43 121.31C121.52 126.31 115.62 127.58 111.05 126.01C109.149 125.396 107.511 124.16 106.4 122.5C105.115 123.995 103.345 124.99 101.4 125.31C100.424 125.512 99.425 125.583 98.43 125.52Z" fill="#816A55"/>
<path d="M97.89 125.24C97.9536 126.723 98.3941 128.165 99.17 129.43C99.9085 130.523 100.891 131.428 102.04 132.076C103.189 132.723 104.473 133.094 105.79 133.16C106.936 133.439 108.134 133.427 109.275 133.125C110.416 132.823 111.462 132.24 112.32 131.43C113.596 130.069 114.338 128.294 114.41 126.43L106.48 121.06L97.89 125.24Z" fill="#DDB5A9"/>
<path d="M98.47 125.34C96.4648 125.249 94.5459 124.497 93.0121 123.202C91.4784 121.907 90.4159 120.142 89.99 118.18C89.8739 117.765 89.9111 117.323 90.0947 116.934C90.2784 116.544 90.5963 116.234 90.99 116.06C91.1832 116.007 91.3855 115.996 91.5833 116.027C91.7811 116.059 91.9698 116.133 92.1367 116.244C92.3035 116.355 92.4446 116.5 92.5504 116.67C92.6562 116.84 92.7243 117.031 92.75 117.23C93.56 120.95 97.61 122.46 100.9 121.72C102.28 121.487 103.512 120.719 104.329 119.582C105.145 118.445 105.48 117.032 105.26 115.65L105.11 113.65L108.71 113.89L108.31 115.89C107.959 117.255 108.147 118.702 108.834 119.933C109.52 121.163 110.654 122.082 112 122.5C115.24 123.7 119.53 122.77 120.81 119.14C120.855 118.941 120.942 118.754 121.066 118.592C121.191 118.429 121.348 118.296 121.529 118.201C121.71 118.106 121.909 118.051 122.113 118.041C122.317 118.03 122.52 118.064 122.71 118.14C123.089 118.359 123.378 118.705 123.525 119.118C123.671 119.53 123.666 119.981 123.51 120.39C121.57 125.93 115.65 127.45 111.09 125.74C109.142 125.03 107.506 123.656 106.47 121.86C105.246 123.494 103.468 124.624 101.47 125.04C100.49 125.284 99.4793 125.386 98.47 125.34Z" fill="#816A55"/>
<path d="M107 112.07C109.39 112.23 111.24 113.87 111.13 115.75C111.02 117.63 109 119 106.62 118.84C104.24 118.68 102.4 117.03 102.51 115.17C102.62 113.31 104.62 111.92 107 112.07Z" fill="#816A55"/>
<path d="M106.11 134.3H105.7C102.915 134.278 100.247 133.181 98.2525 131.237C96.2582 129.293 95.0929 126.653 95 123.87C94.996 123.687 95.0288 123.505 95.0965 123.334C95.1642 123.164 95.2653 123.009 95.394 122.878C95.5227 122.748 95.6763 122.644 95.8456 122.574C96.015 122.504 96.1967 122.469 96.38 122.47C96.7553 122.459 97.1201 122.595 97.3966 122.849C97.673 123.103 97.8393 123.455 97.86 123.83C97.9452 125.894 98.8256 127.845 100.317 129.275C101.808 130.704 103.794 131.502 105.86 131.5C106.875 131.671 107.914 131.64 108.917 131.408C109.919 131.177 110.866 130.749 111.703 130.149C112.54 129.549 113.249 128.79 113.791 127.915C114.333 127.04 114.696 126.066 114.86 125.05C114.952 124.696 115.172 124.39 115.478 124.189C115.784 123.989 116.153 123.91 116.514 123.968C116.875 124.025 117.201 124.215 117.43 124.5C117.658 124.785 117.773 125.145 117.75 125.51C117.343 128.206 115.898 130.635 113.722 132.278C111.546 133.921 108.814 134.647 106.11 134.3Z" fill="#816A55"/>
<path d="M72.75 96.27C73.956 96.2436 75.1419 96.5814 76.153 97.2393C77.1642 97.8971 77.9535 98.8444 78.4181 99.9576C78.8827 101.071 79.001 102.298 78.7575 103.48C78.514 104.661 77.9201 105.742 77.0532 106.581C76.1863 107.419 75.0867 107.977 73.8979 108.182C72.709 108.386 71.4862 108.228 70.3889 107.727C69.2916 107.225 68.3708 106.405 67.7466 105.373C67.1225 104.341 66.824 103.144 66.89 101.94C66.9241 100.414 67.5585 98.9628 68.6555 97.9014C69.7525 96.84 71.2237 96.2538 72.75 96.27Z" fill="#EEE8E6"/>
<path d="M145.21 100.37C146.838 100.5 148.348 101.27 149.411 102.51C150.473 103.751 151.002 105.361 150.88 106.99C150.852 107.797 150.664 108.59 150.327 109.324C149.99 110.058 149.512 110.718 148.918 111.266C148.325 111.813 147.629 112.238 146.871 112.515C146.112 112.792 145.307 112.916 144.5 112.88C142.888 112.724 141.398 111.95 140.344 110.721C139.289 109.491 138.752 107.901 138.843 106.284C138.935 104.667 139.649 103.148 140.836 102.045C142.023 100.943 143.59 100.342 145.21 100.37Z" fill="#EEE8E6"/>
<path d="M72.38 109.79H71.96C70.0666 109.55 68.3348 108.601 67.1149 107.133C65.8949 105.665 65.2778 103.789 65.3883 101.884C65.4989 99.9783 66.3287 98.186 67.7102 96.8692C69.0916 95.5523 70.9216 94.8092 72.83 94.79C73.7765 94.8475 74.7004 95.1022 75.5425 95.5379C76.3847 95.9737 77.1264 96.5807 77.72 97.32C78.9736 98.8818 79.5856 100.862 79.4314 102.859C79.2772 104.856 78.3685 106.719 76.89 108.07C75.6496 109.179 74.0438 109.791 72.38 109.79ZM72.45 97.79C71.3743 97.9259 70.3822 98.4406 69.6517 99.2419C68.9212 100.043 68.5002 101.078 68.464 102.162C68.4279 103.246 68.7791 104.307 69.4546 105.155C70.1301 106.003 71.0857 106.583 72.15 106.79C72.652 106.816 73.154 106.74 73.6263 106.568C74.0986 106.397 74.5317 106.132 74.9 105.79C75.801 104.958 76.3535 103.816 76.4462 102.593C76.539 101.371 76.1652 100.158 75.4 99.2C75.0704 98.7807 74.6559 98.4357 74.1837 98.1875C73.7116 97.9394 73.1924 97.7937 72.66 97.76H72.45V97.79Z" fill="#816A55"/>
<path d="M144.88 114.4H144.41C142.39 114.234 140.516 113.285 139.186 111.756C137.856 110.227 137.176 108.239 137.29 106.216C137.405 104.193 138.306 102.295 139.8 100.926C141.295 99.5575 143.265 98.8269 145.29 98.89C147.315 99.041 149.198 99.989 150.525 101.526C151.853 103.063 152.516 105.064 152.37 107.09C152.321 108.127 152.065 109.143 151.617 110.079C151.168 111.015 150.537 111.852 149.76 112.54C148.418 113.74 146.68 114.402 144.88 114.4ZM144.88 101.86C143.674 101.913 142.533 102.421 141.686 103.281C140.839 104.14 140.349 105.289 140.313 106.495C140.278 107.701 140.7 108.876 141.495 109.784C142.29 110.692 143.4 111.266 144.6 111.39C145.176 111.424 145.752 111.343 146.296 111.153C146.84 110.962 147.341 110.665 147.77 110.28C148.249 109.851 148.637 109.331 148.914 108.751C149.19 108.171 149.348 107.542 149.38 106.9C149.471 105.674 149.075 104.461 148.278 103.524C147.48 102.588 146.345 102.005 145.12 101.9L144.88 101.86Z" fill="#816A55"/>
<path d="M118.66 96.06C118.279 96.0271 117.925 95.8509 117.669 95.5669C117.412 95.283 117.274 94.9124 117.28 94.53C117.285 92.9694 117.632 91.4288 118.297 90.0171C118.962 88.6054 119.929 87.357 121.13 86.36C121.279 86.2352 121.453 86.1429 121.64 86.0891C121.828 86.0353 122.024 86.0211 122.217 86.0475C122.41 86.0738 122.595 86.1401 122.761 86.2422C122.927 86.3442 123.069 86.4797 123.18 86.64C123.416 86.9708 123.518 87.3793 123.464 87.7824C123.41 88.1854 123.205 88.5529 122.89 88.81C122.054 89.5043 121.38 90.3738 120.917 91.357C120.454 92.3402 120.213 93.4132 120.21 94.5C120.221 94.8998 120.074 95.2878 119.8 95.5798C119.527 95.8718 119.15 96.0444 118.75 96.06H118.66Z" fill="#816A55"/>
<path d="M99.42 93.53C99.2267 93.5136 99.0385 93.4592 98.8663 93.3698C98.6942 93.2804 98.5414 93.1578 98.4168 93.009C98.2922 92.8603 98.1984 92.6884 98.1406 92.5032C98.0828 92.318 98.0622 92.1231 98.08 91.93L98.35 87.2C98.3631 86.8065 98.5292 86.4336 98.8132 86.1609C99.0971 85.8882 99.4763 85.7371 99.87 85.74C100.063 85.7563 100.252 85.8107 100.424 85.9002C100.596 85.9896 100.749 86.1122 100.873 86.2609C100.998 86.4096 101.092 86.5816 101.149 86.7668C101.207 86.952 101.228 87.1468 101.21 87.34L100.94 92.08C100.93 92.4734 100.764 92.8467 100.479 93.1184C100.194 93.3901 99.8135 93.538 99.42 93.53Z" fill="#816A55"/>
<path d="M94.31 90.73C93.9532 90.6986 93.6202 90.5379 93.3734 90.2783C93.1267 90.0187 92.9832 89.6779 92.97 89.32C92.8998 87.9877 92.644 86.6716 92.21 85.41C92.0683 85.0324 92.0764 84.6149 92.2326 84.2431C92.3887 83.8712 92.6812 83.5732 93.05 83.41C93.2267 83.3393 93.4161 83.3059 93.6063 83.3119C93.7965 83.3179 93.9834 83.3632 94.1552 83.4449C94.3271 83.5266 94.4802 83.643 94.6049 83.7867C94.7296 83.9304 94.8233 84.0983 94.88 84.28C95.4093 85.8231 95.7256 87.4313 95.82 89.06C95.8537 89.4528 95.7324 89.8433 95.482 90.1479C95.2316 90.4525 94.872 90.647 94.48 90.69L94.31 90.73Z" fill="#816A55"/>
<path d="M49.48 51H49.4C46.3495 50.8905 43.381 49.9838 40.79 48.37C39.9523 47.789 39.3639 46.9141 39.1416 45.9193C38.9192 44.9244 39.0793 43.8822 39.59 43C39.7892 42.5627 40.0776 42.1718 40.4367 41.8525C40.7957 41.5331 41.2176 41.2923 41.6751 41.1454C42.1326 40.9986 42.6158 40.9489 43.0937 40.9996C43.5715 41.0503 44.0335 41.2003 44.45 41.44C46.0913 42.4472 47.9655 43.0122 49.89 43.08C51.8919 43.119 53.8708 42.6475 55.64 41.71C56.0664 41.4833 56.5363 41.3505 57.0183 41.3207C57.5002 41.2909 57.983 41.3647 58.434 41.5372C58.885 41.7097 59.2939 41.9767 59.633 42.3205C59.9721 42.6642 60.2337 43.0766 60.4 43.53C60.7849 44.4872 60.8085 45.5519 60.4662 46.5252C60.124 47.4986 59.4393 48.3142 58.54 48.82C55.7581 50.3145 52.6373 51.0654 49.48 51Z" fill="#B39175"/>
<path d="M25.89 92.1C24.3823 92.0201 22.8923 91.7375 21.46 91.26C20.5453 90.8866 19.8054 90.1816 19.3882 89.286C18.971 88.3905 18.9074 87.3704 19.21 86.43C19.3085 85.9637 19.5017 85.5226 19.7777 85.134C20.0537 84.7455 20.4065 84.4177 20.8144 84.1712C21.2222 83.9246 21.6764 83.7644 22.1487 83.7005C22.621 83.6367 23.1013 83.6705 23.56 83.8C25.9767 84.5946 28.5978 84.4989 30.95 83.53C33.4142 82.48 35.4829 80.6773 36.86 78.38C37.086 77.9599 37.399 77.5929 37.7783 77.3036C38.1575 77.0143 38.5941 76.8093 39.0589 76.7023C39.5238 76.5953 40.0061 76.5888 40.4736 76.6833C40.9412 76.7777 41.3832 76.9709 41.77 77.25C42.5633 77.8865 43.0953 78.7921 43.2649 79.795C43.4345 80.7978 43.2299 81.828 42.69 82.69C40.4824 86.3481 37.1748 89.2147 33.24 90.88C30.9104 91.8251 28.4001 92.2418 25.89 92.1Z" fill="#B39175"/>
<path d="M31.91 139.31C31.5432 139.278 31.1847 139.183 30.85 139.03C29.9488 138.571 29.2473 137.797 28.8787 136.855C28.51 135.913 28.4998 134.869 28.85 133.92C29.5661 131.918 30.6328 130.059 32 128.43C33.3721 126.749 35.0737 125.368 37 124.37C37.4336 124.161 37.9062 124.047 38.3872 124.033C38.8681 124.02 39.3465 124.108 39.791 124.292C40.2355 124.476 40.6362 124.752 40.9669 125.101C41.2976 125.451 41.5508 125.866 41.71 126.32C42.1197 127.249 42.1717 128.297 41.8561 129.262C41.5405 130.227 40.8795 131.042 40 131.55C38.9186 132.099 37.962 132.865 37.19 133.8C36.432 134.706 35.8457 135.743 35.46 136.86C35.23 137.608 34.7545 138.257 34.1104 138.701C33.4662 139.146 32.691 139.36 31.91 139.31Z" fill="#B39175"/>
<path d="M52.06 161.82C51.4319 161.748 50.8331 161.515 50.3215 161.144C49.8099 160.772 49.4029 160.275 49.14 159.7C48.6687 158.788 48.551 157.735 48.8094 156.742C49.0678 155.749 49.6842 154.886 50.54 154.32C51.2374 153.909 51.8189 153.327 52.23 152.63C52.5857 152.014 52.8199 151.335 52.92 150.63C52.9577 150.141 53.0951 149.664 53.3237 149.23C53.5524 148.795 53.8675 148.412 54.2496 148.104C54.6317 147.796 55.0729 147.569 55.5458 147.438C56.0188 147.306 56.5137 147.273 57 147.34C57.9947 147.579 58.8601 148.19 59.4181 149.048C59.9761 149.905 60.1843 150.944 60 151.95C59.7601 153.765 59.1582 155.512 58.23 157.09C57.2078 158.856 55.7519 160.333 54 161.38C53.4157 161.727 52.7369 161.881 52.06 161.82Z" fill="#B39175"/>
<path d="M176.51 167.79C175.823 167.72 175.163 167.487 174.586 167.11C174.008 166.732 173.529 166.221 173.19 165.62L169.4 159C168.827 158.041 168.652 156.895 168.914 155.809C169.176 154.723 169.853 153.783 170.8 153.19C171.277 152.916 171.805 152.74 172.351 152.672C172.897 152.605 173.451 152.647 173.981 152.796C174.511 152.944 175.005 153.198 175.436 153.54C175.867 153.882 176.225 154.307 176.49 154.79L180.31 161.44C180.891 162.404 181.067 163.558 180.801 164.652C180.536 165.746 179.849 166.69 178.89 167.28C178.169 167.693 177.337 167.871 176.51 167.79Z" fill="#B39175"/>
<path d="M206.43 142.71L206.08 142.66C203.064 142.176 200.14 141.232 197.41 139.86C194.568 138.437 191.97 136.574 189.71 134.34C188.9 133.544 188.432 132.465 188.404 131.33C188.376 130.196 188.79 129.094 189.56 128.26C189.944 127.852 190.405 127.525 190.918 127.3C191.43 127.074 191.983 126.954 192.543 126.946C193.103 126.939 193.659 127.044 194.177 127.256C194.695 127.468 195.166 127.782 195.56 128.18C198.762 131.319 202.862 133.385 207.29 134.09C208.434 134.277 209.46 134.906 210.146 135.841C210.832 136.775 211.124 137.942 210.96 139.09C210.813 140.159 210.261 141.131 209.418 141.804C208.575 142.478 207.505 142.802 206.43 142.71Z" fill="#B39175"/>
<path d="M207.93 103.32C207.167 103.275 206.431 103.026 205.796 102.601C205.161 102.175 204.652 101.588 204.32 100.9C203.196 98.5636 201.647 96.4575 199.75 94.6899C198.077 93.1302 196.153 91.8626 194.06 90.9399C193.031 90.4726 192.228 89.6181 191.825 88.562C191.423 87.506 191.453 86.3337 191.91 85.2999C192.127 84.7858 192.444 84.3196 192.841 83.9281C193.239 83.5365 193.71 83.2274 194.228 83.0184C194.745 82.8093 195.299 82.7045 195.857 82.7099C196.415 82.7153 196.967 82.8309 197.48 83.0499C200.441 84.3355 203.163 86.1141 205.53 88.3099C208.224 90.803 210.428 93.7773 212.03 97.0799C212.531 98.1148 212.601 99.3058 212.227 100.393C211.852 101.479 211.062 102.374 210.03 102.88C209.38 103.206 208.656 103.358 207.93 103.32Z" fill="#B39175"/>
<path d="M192.71 62.07C189.411 61.9689 186.166 61.2019 183.171 59.8151C180.176 58.4283 177.492 56.4503 175.28 54C174.547 53.1528 174.17 52.0543 174.23 50.9354C174.29 49.8165 174.781 48.7643 175.6 48C175.989 47.6167 176.451 47.3155 176.958 47.1144C177.466 46.9134 178.009 46.8165 178.555 46.8295C179.101 46.8426 179.638 46.9653 180.136 47.1905C180.633 47.4156 181.08 47.7385 181.45 48.14C183.353 50.2363 185.764 51.8068 188.45 52.7C191.11 53.5736 193.945 53.7695 196.7 53.27C197.246 53.1702 197.807 53.1819 198.349 53.3044C198.89 53.4269 199.402 53.6576 199.852 53.9826C200.302 54.3077 200.682 54.7204 200.969 55.1959C201.255 55.6715 201.443 56.2001 201.52 56.75C201.689 57.8851 201.41 59.0415 200.742 59.9746C200.074 60.9077 199.069 61.5444 197.94 61.75C196.212 62.0368 194.46 62.144 192.71 62.07Z" fill="#B39175"/>
<path d="M172.48 95.1199C172.121 95.0973 171.78 94.9501 171.517 94.7038C171.255 94.4574 171.086 94.1272 171.04 93.7699C170.344 89.0795 169.342 84.4395 168.04 79.8799C166.654 75.0611 164.93 70.3461 162.88 65.7699C162.713 65.3878 162.698 64.956 162.839 64.5635C162.981 64.1709 163.267 63.8476 163.64 63.6599C163.819 63.573 164.013 63.523 164.211 63.5128C164.41 63.5025 164.608 63.5324 164.795 63.6005C164.982 63.6686 165.153 63.7736 165.298 63.9093C165.443 64.0449 165.559 64.2084 165.64 64.3899C167.773 69.1053 169.564 73.9678 171 78.9399C172.349 83.6434 173.388 88.4304 174.11 93.2699C174.177 93.6845 174.078 94.1088 173.835 94.4512C173.592 94.7935 173.224 95.0266 172.81 95.0999C172.701 95.1169 172.59 95.1236 172.48 95.1199Z" fill="#BC9C86"/>
<path d="M181.13 97.7599C180.769 97.7376 180.428 97.5909 180.163 97.3447C179.899 97.0984 179.728 96.7681 179.68 96.4099C178.984 91.6997 177.982 87.0399 176.68 82.4599C175.281 77.6207 173.543 72.8857 171.48 68.2899C171.312 67.9063 171.297 67.473 171.439 67.0789C171.58 66.6847 171.867 66.3595 172.24 66.1699C172.421 66.0763 172.62 66.021 172.823 66.0073C173.027 65.9936 173.231 66.0218 173.423 66.0903C173.616 66.1587 173.792 66.2659 173.941 66.4051C174.09 66.5444 174.209 66.7128 174.29 66.8999C176.428 71.6396 178.225 76.5253 179.67 81.5199C181.028 86.2433 182.077 91.0502 182.81 95.9099C182.874 96.3256 182.773 96.7498 182.528 97.0918C182.283 97.4338 181.914 97.6665 181.5 97.7399C181.378 97.7654 181.254 97.7721 181.13 97.7599Z" fill="#BC9C86"/>
<path d="M183.69 94.9999C183.275 94.9763 182.887 94.7893 182.61 94.4799C180.254 91.8337 177.456 89.6173 174.34 87.9299C171.268 86.2628 167.928 85.1492 164.47 84.6399C164.055 84.5776 163.682 84.353 163.432 84.0154C163.183 83.6778 163.078 83.255 163.14 82.8399C163.202 82.4249 163.427 82.0516 163.765 81.8021C164.102 81.5527 164.525 81.4476 164.94 81.5099C168.748 82.053 172.428 83.2686 175.81 85.0999C179.249 86.9548 182.339 89.3946 184.94 92.3099C185.223 92.627 185.37 93.0428 185.35 93.4675C185.329 93.8921 185.143 94.2917 184.83 94.5799C184.678 94.7226 184.498 94.8333 184.303 94.9055C184.107 94.9776 183.899 95.0097 183.69 94.9999Z" fill="#BC9C86"/>
<path d="M181.85 80.9999C181.628 81.015 181.405 80.9826 181.197 80.905C180.988 80.8275 180.798 80.7064 180.64 80.5499C178.15 78.0491 175.243 76.0017 172.05 74.4999C168.902 73.016 165.517 72.1019 162.05 71.7999C161.847 71.7787 161.65 71.7176 161.471 71.6201C161.291 71.5226 161.133 71.3906 161.005 71.2317C160.876 71.0728 160.781 70.8902 160.723 70.6942C160.666 70.4983 160.648 70.2929 160.67 70.0899C160.701 69.6786 160.892 69.296 161.203 69.0247C161.513 68.7533 161.918 68.6151 162.33 68.6399C166.144 68.9884 169.867 70.0039 173.33 71.6399C176.85 73.2923 180.055 75.5461 182.8 78.2999C183.097 78.6012 183.263 79.007 183.263 79.4299C183.263 79.8528 183.097 80.2587 182.8 80.5599C182.544 80.813 182.208 80.9687 181.85 80.9999Z" fill="#BC9C86"/>
<path d="M62.25 145.91C62.0377 145.925 61.8249 145.888 61.6299 145.802C61.4348 145.717 61.2634 145.586 61.13 145.42C58.9406 142.827 56.9357 140.083 55.13 137.21C53.4317 134.504 51.9021 131.695 50.55 128.8C50.3865 128.452 50.3563 128.056 50.465 127.688C50.5738 127.319 50.8139 127.003 51.14 126.8C51.301 126.714 51.4784 126.662 51.6606 126.649C51.8427 126.636 52.0257 126.661 52.1974 126.724C52.3691 126.786 52.5258 126.884 52.6572 127.011C52.7886 127.137 52.8918 127.291 52.96 127.46C54.2594 130.24 55.7323 132.935 57.37 135.53C59.1106 138.283 61.0385 140.912 63.14 143.4C63.3913 143.701 63.5239 144.084 63.5128 144.476C63.5018 144.869 63.3479 145.243 63.08 145.53C62.8617 145.758 62.5649 145.893 62.25 145.91Z" fill="#BC9C86"/>
<path d="M56.77 145.21C56.5586 145.225 56.3466 145.189 56.1518 145.106C55.957 145.022 55.785 144.893 55.65 144.73C53.4631 142.138 51.4583 139.399 49.65 136.53C47.9524 133.834 46.4293 131.031 45.09 128.14C44.9265 127.792 44.8963 127.396 45.005 127.028C45.1138 126.659 45.3539 126.343 45.68 126.14C45.8403 126.054 46.0169 126.002 46.1984 125.989C46.3799 125.976 46.5621 126.002 46.733 126.064C46.904 126.126 47.0598 126.224 47.1902 126.351C47.3207 126.478 47.4229 126.631 47.49 126.8C48.7811 129.556 50.244 132.228 51.87 134.8C53.6047 137.545 55.5259 140.168 57.62 142.65C57.87 142.952 58.0008 143.336 57.9879 143.728C57.975 144.12 57.8193 144.494 57.55 144.78C57.3499 145.012 57.0731 145.165 56.77 145.21Z" fill="#BC9C86"/>
<path d="M53.49 134C53.11 134 52.73 134.05 52.34 134.06C49.9226 134.119 47.5152 133.729 45.24 132.91C44.8872 132.761 44.6025 132.486 44.4417 132.138C44.2808 131.79 44.2553 131.395 44.37 131.03C44.4109 130.852 44.4884 130.685 44.5978 130.538C44.7071 130.392 44.8458 130.271 45.0049 130.181C45.164 130.092 45.3401 130.036 45.5218 130.019C45.7035 130.002 45.8868 130.022 46.06 130.08C50.0814 131.523 54.4994 131.395 58.43 129.72C58.6029 129.653 58.7877 129.622 58.9731 129.629C59.1584 129.636 59.3403 129.682 59.5073 129.762C59.6743 129.843 59.8229 129.957 59.9438 130.098C60.0647 130.239 60.1553 130.403 60.21 130.58C60.348 130.942 60.3443 131.343 60.1997 131.703C60.0552 132.062 59.7803 132.354 59.43 132.52C57.5396 133.321 55.5352 133.82 53.49 134Z" fill="#BC9C86"/>
<path d="M56.19 141.85H56.11C53.6878 142.03 51.2532 141.759 48.93 141.05C48.5634 140.924 48.2574 140.665 48.0723 140.324C47.8872 139.984 47.8364 139.586 47.93 139.21C47.9671 139.033 48.0402 138.865 48.1448 138.718C48.2493 138.57 48.3831 138.445 48.5379 138.352C48.6926 138.258 48.8649 138.197 49.0442 138.172C49.2235 138.148 49.4059 138.161 49.58 138.21C53.6912 139.455 58.1215 139.098 61.98 137.21C62.1493 137.134 62.3323 137.094 62.5177 137.092C62.7031 137.09 62.8869 137.127 63.0576 137.199C63.2284 137.271 63.3824 137.378 63.5101 137.512C63.6379 137.646 63.7366 137.806 63.8 137.98C63.9574 138.339 63.9737 138.744 63.8459 139.115C63.718 139.485 63.4553 139.794 63.11 139.98C60.9374 141.022 58.5918 141.656 56.19 141.85Z" fill="#BC9C86"/>
<path d="M59.35 80.6699C58.6928 80.6422 58.0483 80.4796 57.4565 80.1923C56.8648 79.905 56.3384 79.4992 55.91 78.9999C53.91 76.4599 54.91 71.5999 58.4 67.4199C58.5116 67.275 58.6527 67.1554 58.814 67.0691C58.9753 66.9828 59.1532 66.9318 59.3357 66.9195C59.5182 66.9072 59.7013 66.9339 59.8727 66.9978C60.0441 67.0616 60.2 67.1612 60.33 67.2899C60.6012 67.5684 60.7587 67.938 60.7716 68.3264C60.7846 68.7148 60.652 69.0941 60.4 69.3899C57.61 72.7199 57.2 75.9999 58 76.9999C58.3168 77.3545 58.7444 77.5911 59.2131 77.671C59.6818 77.751 60.1637 77.6695 60.58 77.44C60.9782 77.1248 61.282 76.7063 61.4584 76.2301C61.6348 75.7539 61.6768 75.2384 61.58 74.7399C61.5085 74.3673 61.5799 73.9813 61.78 73.6589C61.9801 73.3365 62.2943 73.1012 62.66 72.9999C62.8436 72.9689 63.0315 72.9761 63.2122 73.0211C63.3928 73.0662 63.5621 73.1481 63.7096 73.2617C63.857 73.3753 63.9794 73.5182 64.0689 73.6814C64.1585 73.8446 64.2133 74.0245 64.23 74.2099C64.4226 75.2925 64.3105 76.4072 63.9061 77.4297C63.5017 78.4521 62.821 79.342 61.94 79.9999C61.1699 80.493 60.2626 80.7277 59.35 80.6699Z" fill="#EEE8E6"/>
<path d="M159.19 148.85C159.92 148.915 160.656 148.832 161.353 148.607C162.05 148.382 162.696 148.019 163.25 147.54C165.85 145.14 165.25 139.83 161.9 134.95C161.787 134.78 161.64 134.635 161.47 134.524C161.3 134.412 161.108 134.336 160.908 134.299C160.707 134.263 160.501 134.267 160.302 134.312C160.103 134.357 159.916 134.441 159.75 134.56C159.418 134.813 159.197 135.184 159.134 135.596C159.07 136.008 159.169 136.429 159.41 136.77C162.12 140.7 162.17 144.22 161.17 145.14C160.757 145.471 160.248 145.661 159.718 145.68C159.189 145.7 158.667 145.549 158.23 145.25C157.837 144.87 157.56 144.387 157.431 143.856C157.302 143.325 157.326 142.768 157.5 142.25C157.617 141.845 157.573 141.411 157.378 141.039C157.182 140.666 156.849 140.383 156.45 140.25C156.256 140.191 156.053 140.172 155.851 140.193C155.65 140.215 155.455 140.277 155.279 140.376C155.102 140.475 154.947 140.609 154.824 140.77C154.7 140.93 154.611 141.114 154.56 141.31C154.222 142.436 154.213 143.636 154.536 144.766C154.858 145.897 155.498 146.912 156.38 147.69C157.176 148.355 158.157 148.76 159.19 148.85Z" fill="#EEE8E6"/>
<path d="M119.39 25.17C119 25.148 118.616 25.067 118.25 24.93C115.052 23.7345 112.312 21.5615 110.42 18.72C106 12 108.11 4.33998 108.59 2.87998C108.739 2.38698 108.983 1.92827 109.31 1.5303C109.637 1.13234 110.039 0.803002 110.493 0.561287C110.948 0.319572 111.446 0.170265 111.959 0.121983C112.471 0.0737012 112.988 0.127398 113.48 0.279976C114.447 0.643519 115.236 1.36703 115.681 2.29902C116.127 3.23102 116.194 4.29922 115.87 5.27998C115.71 5.78998 114.33 10.28 116.79 14.02C117.812 15.5308 119.28 16.6846 120.99 17.32C121.963 17.7121 122.742 18.4705 123.161 19.4318C123.58 20.3932 123.605 21.4806 123.23 22.46C122.958 23.2591 122.44 23.9517 121.75 24.4384C121.06 24.9252 120.234 25.1813 119.39 25.17Z" fill="#B39175"/>
<path d="M131.1 37.19C134.17 37.59 135.86 35.91 136.56 32.78C137.06 30.56 138.31 25.78 139.25 22.56C135.9 21.7643 132.508 21.1567 129.09 20.74C127.931 24.2657 127.16 27.9072 126.79 31.6C126.55 34.88 128 36.79 131.1 37.19Z" fill="#B39175"/>
<path d="M103.75 36C106.82 36.19 108.58 34.51 109.23 31.27C109.88 28.03 111.31 23.76 112.23 20.35C108.984 20.5838 105.753 20.9877 102.55 21.56C101.7 24.45 100.33 27.69 100.14 30.48C99.93 33.53 100.68 35.8 103.75 36Z" fill="#B39175"/>
<path d="M19.79 135.33C19.7677 135.053 19.6784 134.785 19.53 134.55C19.2627 134.159 18.8541 133.886 18.39 133.79L14.17 133.51C14.1596 134.096 14.312 134.674 14.6104 135.179C14.9087 135.684 15.3413 136.096 15.86 136.37C16.5351 136.673 17.2938 136.735 18.0091 136.546C18.7245 136.356 19.3532 135.927 19.79 135.33Z" fill="#DFB99A"/>
<path d="M27 134.23C27.6037 133.155 28.6 132.356 29.78 132C32.21 131.34 34.66 132.94 34.55 133.59C34.47 134.06 33.18 134.49 27 134.23Z" fill="#DFB99A"/>
<path d="M45.62 170.42L18.49 174.15C17.39 174.3 16.36 173.92 16.19 173.29L6.74001 139.35C6.44001 138.28 7.38001 137.24 8.83001 137.04L44.9 132.04C46.36 131.84 47.54 132.59 47.54 133.7L47.6 169C47.6 169.63 46.71 170.27 45.62 170.42Z" fill="#6593B3"/>
<path d="M46.42 144.74L10.79 149.64C9.35 149.83 8.14 149.78 8.07 149.51L5.19 137.57C5.12 137.26 6.30001 136.84 7.83001 136.63L45.76 131.42C47.29 131.21 48.54 131.29 48.55 131.61L49 143.88C49 144.16 47.85 144.54 46.42 144.74Z" fill="#6593B3"/>
<path d="M15.73 133.34C14.03 133.26 12.65 133.34 11.73 133.26C10.03 133.06 7.04001 132.51 5.07001 132.99C4.66115 133.082 4.27621 133.26 3.94001 133.51C3.40482 133.924 3.0046 134.488 2.79001 135.13C1.68568 138.322 0.97051 141.636 0.660007 145C0.540811 148.024 0.823275 151.05 1.50001 154C1.53663 154.166 1.61205 154.322 1.72012 154.453C1.82819 154.585 1.96585 154.689 2.12186 154.757C2.27786 154.825 2.4478 154.856 2.61779 154.846C2.78779 154.836 2.95302 154.786 3.10001 154.7C5.72884 153.172 8.1461 151.306 10.29 149.15C11.7005 147.78 12.9702 146.273 14.08 144.65C14.9106 143.487 15.5832 142.22 16.08 140.88C17.33 137.38 16.74 134.29 18.18 133.79C18.2629 133.756 18.3507 133.736 18.44 133.73C17.545 133.548 16.6401 133.417 15.73 133.34Z" fill="#F5CE9B"/>
<path d="M47 136.93C45.49 134.62 44.37 132.79 42.32 131.67C41.3142 131.125 40.2212 130.76 39.09 130.59C36.5189 130.564 33.956 130.884 31.47 131.54C30.89 131.7 30.32 131.87 29.78 132.05C30.0422 132.132 30.2889 132.257 30.51 132.42C33.25 134.42 30.89 139.84 32.37 145.42C33.3 148.89 34.74 151.15 39.55 155.09C42.5583 157.552 45.8892 159.591 49.45 161.15C49.591 161.21 49.7439 161.236 49.8969 161.228C50.0498 161.219 50.1987 161.175 50.332 161.1C50.4654 161.024 50.5796 160.919 50.666 160.793C50.7523 160.666 50.8084 160.522 50.83 160.37C51.3597 156.518 51.3597 152.612 50.83 148.76C50.23 144.94 49.68 141.07 47 136.93Z" fill="#F0E8BC"/>
</svg>
