<svg width="281" height="243" viewBox="0 0 281 243" fill="none" xmlns="http://www.w3.org/2000/svg">
<path d="M280.424 170.54C280.594 169.35 283.154 145.3 266.904 128.35C247.554 108.18 217.504 111.93 199.304 125.35C195.865 127.843 192.616 130.587 189.584 133.56C181.896 141.295 175.582 150.284 170.914 160.14C163.634 175.14 164.444 181.88 156.744 193.77C151.304 202.16 147.144 204.56 144.554 205.56C143.244 206.07 141.254 206.73 137.834 208.08C135.202 209.122 132.654 210.366 130.214 211.8C133.77 213.998 137.556 215.802 141.504 217.18C145.067 218.37 148.728 219.246 152.444 219.8C159.85 221.19 167.488 220.664 174.634 218.27C187.224 213.87 195.034 203.77 199.304 196.35C203.469 202.124 208.991 206.783 215.382 209.918C221.774 213.053 228.839 214.567 235.954 214.326C243.069 214.085 250.016 212.096 256.18 208.536C262.345 204.975 267.539 199.952 271.304 193.91C278.244 184.1 280.064 173 280.424 170.54Z" fill="#BC9C86"/>
<path d="M72.6936 162.69C70.1936 164.69 59.2636 173.59 60.3136 181.84C60.7736 185.51 65.4736 187.58 68.9736 187.71C74.5536 187.91 78.6336 182.78 84.3736 175.35C89.5236 168.65 94.1136 157.6 95.3736 154.43C97.3236 149.22 80.6536 156.39 72.6936 162.69Z" fill="#CBAC92"/>
<path d="M99.8436 241.8L108.494 241.98C109.358 241.973 110.194 241.672 110.864 241.126C111.535 240.581 112 239.824 112.184 238.98L115.284 227C115.284 227 97.0636 216.29 89.4336 214.15C89.9736 219.74 94.2136 233.45 96.4336 239.22C96.6923 239.933 97.1519 240.557 97.757 241.014C98.3621 241.472 99.0868 241.745 99.8436 241.8Z" fill="#CBAC92"/>
<path d="M159.734 144.81C153.844 140.53 143.014 137.05 133.944 136.14C124.874 135.23 113.694 136.48 107.164 139.47C93.6936 145.63 83.8436 161.62 81.9736 187.38C79.8436 217 98.6336 224.54 124.914 227.52C151.384 230.52 171.634 227.35 175.284 197.52C178.454 171.56 171.974 153.66 159.734 144.81Z" fill="#CBAC92"/>
<path d="M98.6336 220.78C103.884 223.324 109.47 225.109 115.224 226.08C117.714 226.46 120.154 226.8 122.224 227.08C127.919 227.884 133.662 228.315 139.414 228.37C137.931 221.162 137.55 213.772 138.284 206.45C138.924 200.66 139.444 196.63 137.944 191.18C136.98 187.257 135.068 183.63 132.374 180.62C128.961 176.971 124.38 174.63 119.424 174C117.124 173.63 108.694 172.43 101.144 177.58C98.2275 179.579 95.8087 182.22 94.0736 185.3C92.7171 187.877 91.8267 190.673 91.4436 193.56C91.4436 193.56 89.0436 204.73 92.9636 213.7C94.1515 215.841 95.4881 217.896 96.9636 219.85L98.6336 220.78Z" fill="#F8EFDC"/>
<path d="M191.244 166.33C194.014 168.07 206.194 176.05 205.894 184.47C205.774 188.21 201.104 190.71 197.494 191.15C191.774 191.86 187.084 187.08 180.494 180.15C174.574 173.92 168.804 163.27 167.244 160.22C164.644 155.21 182.414 160.78 191.244 166.33Z" fill="#CBAC92"/>
<path d="M158.844 243L150.084 242.82C149.206 242.779 148.366 242.451 147.694 241.885C147.021 241.319 146.554 240.548 146.364 239.69L142.284 227.28C142.284 227.28 161.144 216.72 168.934 214.83C168.344 220.46 164.644 234.76 162.384 240.5C162.116 241.226 161.635 241.854 161.002 242.301C160.37 242.747 159.617 242.991 158.844 243Z" fill="#CBAC92"/>
<path d="M104.954 0.539985C113.954 1.31999 120.434 9.58998 119.464 19C118.494 28.41 110.464 35.39 101.464 34.56C92.4636 33.73 86.0636 25.47 87.0236 16.1C87.9836 6.72998 96.0036 -0.240015 104.954 0.539985Z" fill="#CBAC92"/>
<path d="M104.164 8.24998C105.35 8.38351 106.498 8.75169 107.54 9.33309C108.583 9.91449 109.499 10.6975 110.236 11.6365C110.974 12.5755 111.516 13.6518 111.834 14.8027C112.151 15.9535 112.236 17.156 112.084 18.34C111.884 20.7625 110.743 23.0103 108.905 24.6012C107.068 26.1922 104.68 26.9995 102.254 26.85C101.068 26.7141 99.9216 26.3438 98.8805 25.7607C97.8395 25.1776 96.9248 24.3933 96.1897 23.4534C95.4546 22.5136 94.9136 21.4369 94.5984 20.2861C94.2832 19.1353 94.2 17.9333 94.3536 16.75C94.5506 14.331 95.6884 12.0858 97.5226 10.4965C99.3569 8.90716 101.741 8.1006 104.164 8.24998Z" fill="#F8EFDC"/>
<path d="M188.164 7.80999C197.344 8.60999 204.024 16.98 203.064 26.51C202.104 36.04 193.844 43.07 184.684 42.23C175.524 41.39 168.904 33 169.844 23.53C170.784 14.06 179.014 6.99999 188.164 7.80999Z" fill="#CBAC92"/>
<path d="M187.374 15.61C188.583 15.7364 189.755 16.1025 190.821 16.687C191.887 17.2715 192.826 18.0626 193.583 19.0141C194.34 19.9656 194.9 21.0585 195.229 22.2287C195.559 23.399 195.652 24.6233 195.504 25.83C195.297 28.2873 194.132 30.5649 192.262 32.1718C190.391 33.7787 187.964 34.5861 185.504 34.42C184.297 34.2898 183.128 33.921 182.064 33.3351C181.001 32.7491 180.065 31.9577 179.31 31.0067C178.556 30.0558 177.998 28.9643 177.669 27.7958C177.34 26.6273 177.246 25.405 177.394 24.2C177.608 21.7493 178.772 19.4795 180.636 17.8746C182.501 16.2698 184.918 15.4572 187.374 15.61Z" fill="#F8EFDC"/>
<path d="M143.024 13.14C179.574 16.37 223.624 44.45 221.254 98.08C219.124 146.47 179.904 168.6 127.744 162.88C76.3236 157.26 43.7436 127.88 51.1936 81.21C59.4436 29.37 106.844 9.92999 143.024 13.14Z" fill="#CBAC92"/>
<path d="M117.914 131.71C117.561 131.648 117.241 131.468 117.006 131.198C116.771 130.929 116.636 130.587 116.623 130.23C116.61 129.872 116.721 129.521 116.936 129.236C117.15 128.95 117.457 128.747 117.804 128.66C119.494 128.212 121.267 128.178 122.974 128.56C123.366 128.638 123.713 128.864 123.943 129.193C124.172 129.521 124.265 129.925 124.204 130.32C124.184 130.513 124.126 130.7 124.033 130.871C123.939 131.041 123.813 131.191 123.662 131.312C123.51 131.433 123.335 131.523 123.149 131.576C122.962 131.629 122.766 131.644 122.574 131.62C121.181 131.278 119.724 131.302 118.344 131.69C118.202 131.717 118.057 131.723 117.914 131.71Z" fill="#816A55"/>
<path d="M113.774 117.44L121.634 122.52L130.214 119.38L122.544 113.65L113.774 117.44Z" fill="#DDB5A9"/>
<path d="M140.424 117.82C140.134 117.216 139.715 116.684 139.197 116.261C138.678 115.837 138.073 115.533 137.424 115.37C136.379 115.232 135.321 115.504 134.474 116.13C132.634 117.28 127.814 117.22 125.774 114.97C124.324 113.38 124.394 110.77 124.564 109.36C124.624 108.966 124.527 108.565 124.293 108.243C124.059 107.921 123.707 107.704 123.314 107.64H123.194H123.014C122.818 107.629 122.623 107.657 122.439 107.722C122.254 107.788 122.085 107.889 121.94 108.02C121.795 108.151 121.677 108.309 121.594 108.486C121.51 108.663 121.463 108.855 121.454 109.05C121.334 110.46 120.874 113.05 119.154 114.25C116.744 115.97 112.154 114.94 110.534 113.38C109.867 112.621 108.938 112.142 107.934 112.04C107.29 112.048 106.657 112.204 106.083 112.495C105.51 112.787 105.01 113.206 104.624 113.72C104.356 114.016 104.208 114.401 104.208 114.8C104.208 115.199 104.356 115.584 104.624 115.88C104.754 116.015 104.912 116.121 105.086 116.193C105.26 116.264 105.447 116.298 105.635 116.293C105.822 116.289 106.007 116.245 106.178 116.165C106.348 116.086 106.5 115.971 106.624 115.83C106.892 115.448 107.296 115.184 107.754 115.09C108.054 115.09 108.374 115.43 108.594 115.65C109.179 116.21 109.855 116.666 110.594 117C111.65 118.799 113.066 120.362 114.754 121.59C116.735 123.011 119.043 123.909 121.464 124.2C123.892 124.501 126.358 124.174 128.624 123.25C130.557 122.439 132.296 121.225 133.724 119.69C134.538 119.524 135.318 119.223 136.034 118.8C136.288 118.6 136.6 118.488 136.924 118.48C137.214 118.53 137.584 118.9 137.924 119.48C138.018 119.649 138.145 119.796 138.298 119.915C138.451 120.033 138.626 120.119 138.813 120.167C138.999 120.216 139.194 120.226 139.385 120.197C139.576 120.169 139.759 120.101 139.924 120C140.273 119.772 140.521 119.418 140.614 119.011C140.707 118.604 140.639 118.177 140.424 117.82ZM116.364 118.7C116.004 118.44 115.634 118.46 115.304 118.17C117.219 118.324 119.131 117.831 120.734 116.77C121.396 116.197 121.963 115.522 122.414 114.77C122.854 116.134 123.693 117.334 124.824 118.215C125.954 119.096 127.323 119.617 128.754 119.71C128.364 119.93 127.994 119.82 127.584 119.99C125.755 120.734 123.769 121.005 121.809 120.78C119.848 120.555 117.975 119.839 116.364 118.7Z" fill="#816A55"/>
<path d="M123.464 104.69C125.834 104.95 127.614 106.69 127.464 108.54C127.314 110.39 125.184 111.7 122.814 111.43C120.444 111.16 118.684 109.43 118.874 107.58C119.064 105.73 121.094 104.43 123.464 104.69Z" fill="#816A55"/>
<path d="M85.6836 97.29C85.0324 97.1964 84.4336 96.8804 83.9888 96.3955C83.5441 95.9107 83.2808 95.2869 83.2436 94.63C83.1478 93.8623 83.3523 93.0872 83.8145 92.4667C84.2766 91.8461 84.9606 91.4282 85.7236 91.3C87.7606 91.0435 89.739 90.4416 91.5736 89.52C91.9098 89.3573 92.2762 89.2667 92.6495 89.2539C93.0227 89.2412 93.3945 89.3066 93.741 89.4459C94.0875 89.5853 94.401 89.7955 94.6615 90.0631C94.922 90.3308 95.1237 90.6499 95.2536 91C95.5572 91.725 95.5789 92.5372 95.3143 93.2773C95.0497 94.0174 94.518 94.6319 93.8236 95C91.4512 96.1815 88.8944 96.9492 86.2636 97.27C86.0719 97.3017 85.877 97.3084 85.6836 97.29Z" fill="#816A55"/>
<path d="M95.8436 104C95.6323 103.966 95.4317 103.884 95.2581 103.759C95.0844 103.634 94.9425 103.47 94.8436 103.28C94.6503 102.937 94.5914 102.534 94.6782 102.15C94.7651 101.765 94.9915 101.427 95.3136 101.2C96.6199 100.314 98.0575 99.6392 99.5736 99.2C99.7577 99.1545 99.9491 99.1468 100.136 99.1775C100.323 99.2082 100.502 99.2766 100.662 99.3785C100.822 99.4804 100.96 99.6138 101.066 99.7705C101.173 99.9271 101.247 100.104 101.284 100.29C101.38 100.668 101.331 101.068 101.145 101.411C100.96 101.753 100.652 102.014 100.284 102.14C99.0447 102.485 97.8672 103.022 96.7936 103.73C96.5224 103.937 96.183 104.033 95.8436 104Z" fill="#816A55"/>
<path d="M164.574 105.8C164.359 105.781 164.148 105.737 163.944 105.67C161.233 104.755 158.69 103.404 156.414 101.67C155.766 101.163 155.338 100.428 155.217 99.6146C155.096 98.8016 155.292 97.9731 155.764 97.3C155.984 96.9674 156.271 96.6835 156.606 96.466C156.94 96.2486 157.316 96.102 157.71 96.0355C158.103 95.9689 158.507 95.9838 158.894 96.0792C159.282 96.1746 159.646 96.3484 159.964 96.59C161.736 97.9343 163.715 98.9813 165.824 99.69C166.618 99.9569 167.274 100.528 167.649 101.277C168.024 102.027 168.087 102.894 167.824 103.69C167.619 104.369 167.18 104.954 166.585 105.34C165.99 105.726 165.277 105.889 164.574 105.8Z" fill="#816A55"/>
<path d="M151.144 109.21C150.903 109.182 150.673 109.096 150.475 108.958C150.276 108.82 150.114 108.635 150.004 108.42C149.179 106.861 148.077 105.465 146.754 104.3C146.447 104.027 146.257 103.647 146.222 103.238C146.187 102.829 146.309 102.422 146.564 102.1C146.683 101.943 146.834 101.813 147.006 101.717C147.178 101.621 147.369 101.562 147.565 101.543C147.761 101.524 147.959 101.546 148.147 101.608C148.334 101.669 148.507 101.769 148.654 101.9C150.267 103.309 151.606 105.004 152.604 106.9C152.802 107.26 152.854 107.683 152.748 108.08C152.642 108.477 152.386 108.818 152.034 109.03C151.763 109.181 151.452 109.244 151.144 109.21Z" fill="#816A55"/>
<path d="M135.844 88.77C135.464 88.7224 135.116 88.5311 134.872 88.2354C134.629 87.9398 134.508 87.5622 134.534 87.18C134.608 85.6199 135.024 84.0952 135.751 82.7131C136.479 81.3309 137.5 80.1249 138.744 79.18C138.899 79.0697 139.074 78.9918 139.26 78.9512C139.446 78.9105 139.638 78.9078 139.825 78.9433C140.012 78.9788 140.189 79.0518 140.347 79.1577C140.505 79.2637 140.64 79.4005 140.744 79.56C140.96 79.9044 141.04 80.3179 140.966 80.7181C140.892 81.1184 140.669 81.476 140.344 81.72C139.48 82.3744 138.77 83.2108 138.266 84.1699C137.761 85.129 137.474 86.1874 137.424 87.27C137.418 87.6714 137.254 88.0544 136.968 88.3354C136.681 88.6164 136.295 88.7727 135.894 88.77H135.844Z" fill="#816A55"/>
<path d="M116.764 85.38C116.572 85.3542 116.387 85.2907 116.219 85.1932C116.052 85.0957 115.906 84.9661 115.789 84.8119C115.672 84.6576 115.586 84.4818 115.537 84.2944C115.488 84.107 115.477 83.9118 115.504 83.72L115.984 79.01C116.019 78.6321 116.204 78.2838 116.496 78.0419C116.789 77.8 117.166 77.6842 117.544 77.72C117.922 77.7558 118.27 77.9403 118.512 78.2328C118.754 78.5254 118.869 78.9021 118.834 79.28L118.344 84C118.331 84.1945 118.28 84.3846 118.194 84.5593C118.107 84.7341 117.987 84.8901 117.84 85.0183C117.694 85.1465 117.523 85.2445 117.338 85.3066C117.153 85.3686 116.958 85.3936 116.764 85.38Z" fill="#816A55"/>
<path d="M111.784 82.35C111.428 82.3055 111.101 82.1306 110.866 81.8591C110.631 81.5876 110.506 81.2387 110.514 80.88C110.494 79.5462 110.296 78.221 109.924 76.94C109.804 76.5602 109.833 76.1494 110.003 75.7897C110.174 75.43 110.474 75.148 110.844 75C111.027 74.9377 111.221 74.9146 111.413 74.9321C111.606 74.9497 111.792 75.0074 111.961 75.1017C112.13 75.196 112.277 75.3247 112.393 75.4794C112.509 75.6341 112.591 75.8115 112.634 76C113.089 77.5635 113.332 79.1815 113.354 80.81C113.37 81.204 113.232 81.5888 112.968 81.8822C112.705 82.1755 112.337 82.3542 111.944 82.38C111.89 82.3744 111.836 82.3643 111.784 82.35Z" fill="#816A55"/>
<path d="M150.934 30.51C153.934 31.04 155.744 29.44 156.584 26.35C157.184 24.15 158.644 19.46 159.724 16.26C156.413 15.3144 153.051 14.5598 149.654 14C148.324 17.4622 147.382 21.0607 146.844 24.73C146.484 28 147.894 30 150.934 30.51Z" fill="#B39175"/>
<path d="M123.664 28.09C126.714 28.42 128.554 26.82 129.344 23.61C130.134 20.4 131.764 16.2 132.834 12.84C129.582 12.9249 126.338 13.182 123.114 13.61C122.114 16.46 120.614 19.61 120.294 22.42C119.954 25.46 120.604 27.77 123.664 28.09Z" fill="#B39175"/>
<path d="M146.144 13.47C145.09 13.3433 144.05 13.2333 143.024 13.14C140.874 12.95 138.674 12.84 136.454 12.81C134.089 17.9345 132.357 23.3274 131.294 28.87C131.214 32.41 132.504 34.24 135.614 34.5C138.724 34.76 140.614 33.2 141.144 29.85C141.844 25 144.484 18.55 146.144 13.47Z" fill="#B39175"/>
<path d="M1.71001 174.64C1.27385 170.765 1.37143 166.848 2.00001 163C2.02687 162.849 2.08819 162.706 2.1792 162.582C2.27021 162.459 2.38847 162.358 2.52481 162.287C2.66116 162.216 2.81192 162.178 2.96543 162.175C3.11894 162.172 3.27106 162.205 3.41001 162.27C6.914 163.948 10.1738 166.094 13.1 168.65C16 171.22 19 173.8 21 178.32C22.3103 181.158 22.9926 184.245 23 187.37C22.89 190.62 21.63 192.89 21.16 197.92C16.76 195.42 14.16 195.16 11.45 193.38C8.8869 191.594 6.74103 189.274 5.16001 186.58C2.55001 182.36 2.12001 178.47 1.71001 174.64Z" fill="#98B55A"/>
<path d="M23.12 205C23.2494 204.977 23.373 204.929 23.4837 204.858C23.5945 204.787 23.6902 204.696 23.7654 204.588C23.8406 204.48 23.8939 204.359 23.9221 204.23C23.9504 204.102 23.953 203.969 23.93 203.84C23.4301 201.073 22.4844 198.405 21.13 195.94C21.0643 195.825 20.9767 195.724 20.8721 195.643C20.7674 195.562 20.6479 195.503 20.5202 195.468C20.3925 195.433 20.2592 195.424 20.1279 195.44C19.9966 195.457 19.8699 195.499 19.755 195.565C19.6401 195.631 19.5393 195.718 19.4582 195.823C19.3772 195.928 19.3176 196.047 19.2827 196.175C19.2479 196.303 19.2386 196.436 19.2553 196.567C19.272 196.698 19.3143 196.825 19.38 196.94C20.0866 198.217 20.6757 199.556 21.14 200.94C21.4894 201.999 21.7635 203.082 21.96 204.18C21.9818 204.31 22.0291 204.435 22.0993 204.547C22.1696 204.659 22.2612 204.756 22.3691 204.832C22.4769 204.908 22.5988 204.962 22.7277 204.991C22.8566 205.02 22.9899 205.023 23.12 205Z" fill="#98B55A"/>
<path d="M37.09 177C39.9538 175.878 42.9529 175.138 46.01 174.8C46.1658 174.78 46.3241 174.797 46.472 174.85C46.6199 174.903 46.7533 174.99 46.8614 175.104C46.9695 175.218 47.0493 175.356 47.0942 175.506C47.1391 175.657 47.148 175.815 47.12 175.97C46.5456 179.001 45.5739 181.943 44.23 184.72C42.85 187.54 41.46 190.41 38.34 192.95C36.3817 194.577 34.0968 195.763 31.64 196.43C29.06 197.05 27.01 196.54 22.95 197.25C23.95 193.25 23.62 191.17 24.43 188.65C25.291 186.253 26.6548 184.067 28.43 182.24C31.2 179.27 34.17 178.1 37.09 177Z" fill="#ADC667"/>
<path d="M8.43 242.54H35.82C36.92 242.54 37.89 242.02 37.97 241.38L42.71 206.46C42.86 205.36 41.8 204.46 40.33 204.46H3.92C2.45 204.46 1.38 205.37 1.53 206.46L6.27 241.38C6.36 242 7.33 242.54 8.43 242.54Z" fill="#6593B3"/>
<path d="M4.14 217.2H40.14C41.59 217.2 42.79 216.98 42.82 216.7L44 204.48C44 204.17 42.81 203.92 41.26 203.92H3C1.45 203.92 0.230002 204.17 0.260002 204.48L1.49 216.7C1.5 217 2.69 217.2 4.14 217.2Z" fill="#6593B3"/>
</svg>
