<svg width="190" height="190" viewBox="0 0 190 190" fill="none" xmlns="http://www.w3.org/2000/svg">
<g clip-path="url(#clip0_333_4763)">
<rect width="190" height="190" fill="#F0F1F5"/>
<path d="M131.68 138.47C129.39 135.04 120.45 118.37 94.9101 118.37C69.3701 118.37 60.4201 135.04 58.1401 138.47C42.4101 162.1 53.8301 206.76 94.9101 239.29C136 206.76 147.4 162.1 131.68 138.47Z" fill="#BC9C86"/>
<path d="M153.93 185.88C155.72 188.56 163.46 200.65 159.53 208.03C157.79 211.31 152.41 211.64 148.89 210.57C143.3 208.86 141.05 202.68 137.96 193.79C135.2 185.79 134.51 173.9 134.4 170.53C134.2 165 148.2 177.29 153.93 185.88Z" fill="#CBAC92"/>
<path d="M35.82 185.88C34 188.56 26.3 200.65 30.22 208C31.96 211.28 37.34 211.61 40.86 210.54C46.45 208.83 48.7 202.65 51.79 193.76C54.55 185.76 55.25 173.87 55.35 170.5C55.51 165 41.52 177.29 35.82 185.88Z" fill="#CBAC92"/>
<path d="M122.35 156.74C115.89 153.13 104.44 150.74 94.9999 150.74C85.5599 150.74 74.1099 153.09 67.6499 156.74C54.2699 164.19 45.6499 181.04 46.3199 206.74C47.0899 236.23 67.4199 241.57 94.8699 241.57C122.32 241.57 142.63 236.23 143.42 206.74C144.09 181 135.73 164.19 122.35 156.74Z" fill="#CBAC92"/>
<path d="M109.85 240.81C121.5 236.26 127.79 223.01 124.85 210.19L124.49 208.61C121.61 195.94 110.15 187.35 98.4899 187.35H91.4199C79.7099 187.35 68.2499 195.94 65.3699 208.61L65.0099 210.19C62.0099 223.01 68.3199 236.26 80.0099 240.81C84.9912 241.35 89.9996 241.601 95.0099 241.56C99.9669 241.595 104.922 241.345 109.85 240.81Z" fill="#F8EFDC"/>
<path d="M52.06 55.3602C61.4985 55.3602 69.15 47.7087 69.15 38.2702C69.15 28.8316 61.4985 21.1802 52.06 21.1802C42.6214 21.1802 34.97 28.8316 34.97 38.2702C34.97 47.7087 42.6214 55.3602 52.06 55.3602Z" fill="#CBAC92"/>
<path d="M52.06 47.6102C57.2183 47.6102 61.4 43.4285 61.4 38.2702C61.4 33.1118 57.2183 28.9302 52.06 28.9302C46.9016 28.9302 42.72 33.1118 42.72 38.2702C42.72 43.4285 46.9016 47.6102 52.06 47.6102Z" fill="#F8EFDC"/>
<path d="M137.69 55.3602C147.129 55.3602 154.78 47.7087 154.78 38.2702C154.78 28.8316 147.129 21.1802 137.69 21.1802C128.252 21.1802 120.6 28.8316 120.6 38.2702C120.6 47.7087 128.252 55.3602 137.69 55.3602Z" fill="#CBAC92"/>
<path d="M137.69 47.6102C142.848 47.6102 147.03 43.4285 147.03 38.2702C147.03 33.1118 142.848 28.9302 137.69 28.9302C132.532 28.9302 128.35 33.1118 128.35 38.2702C128.35 43.4285 132.532 47.6102 137.69 47.6102Z" fill="#F8EFDC"/>
<path d="M95 30.3902C132.88 30.3902 180.48 54.0502 183.53 106.64C186.28 153.97 148.92 179.64 95 179.64C41.08 179.64 3.70996 153.97 6.45996 106.64C9.50996 54.0502 57.11 30.3902 95 30.3902Z" fill="#CBAC92"/>
<path d="M94.9099 126.28C97.3842 126.28 99.3899 124.803 99.3899 122.98C99.3899 121.158 97.3842 119.68 94.9099 119.68C92.4357 119.68 90.4299 121.158 90.4299 122.98C90.4299 124.803 92.4357 126.28 94.9099 126.28Z" fill="#816A55"/>
<path d="M86.8099 133.36C82.8099 133.36 78.8099 131.5 77.4699 127.61C77.4043 127.423 77.3761 127.225 77.3871 127.027C77.398 126.829 77.4479 126.635 77.5338 126.456C77.6196 126.277 77.7399 126.117 77.8877 125.985C78.0354 125.853 78.2078 125.751 78.3949 125.685C78.5821 125.62 78.7803 125.591 78.9783 125.602C79.1763 125.613 79.3703 125.663 79.549 125.749C79.7278 125.835 79.8879 125.955 80.0201 126.103C80.1524 126.251 80.2543 126.423 80.3199 126.61C81.3999 129.82 85.7399 130.89 89.1299 130.04C90.5999 129.67 93.9499 128.39 93.2999 124.49L93.0199 122.74H96.7599L96.4699 124.49C95.8199 128.39 99.1699 129.67 100.64 130.04C104.04 130.88 108.37 129.82 109.46 126.61C109.515 126.419 109.607 126.241 109.732 126.087C109.857 125.932 110.012 125.804 110.188 125.711C110.363 125.618 110.556 125.561 110.754 125.543C110.952 125.526 111.151 125.549 111.34 125.61C111.716 125.738 112.027 126.009 112.203 126.366C112.379 126.722 112.407 127.134 112.28 127.51C110.63 132.4 104.68 134.09 99.8999 132.89C97.9381 132.446 96.1794 131.362 94.8999 129.81C93.6204 131.362 91.8618 132.446 89.8999 132.89C88.8914 133.165 87.8546 133.323 86.8099 133.36Z" fill="#816A55"/>
<path d="M57.76 118.16C61.0627 118.16 63.74 115.483 63.74 112.18C63.74 108.878 61.0627 106.2 57.76 106.2C54.4574 106.2 51.78 108.878 51.78 112.18C51.78 115.483 54.4574 118.16 57.76 118.16Z" fill="#816A55"/>
<path d="M131.97 118.16C135.273 118.16 137.95 115.483 137.95 112.18C137.95 108.878 135.273 106.2 131.97 106.2C128.667 106.2 125.99 108.878 125.99 112.18C125.99 115.483 128.667 118.16 131.97 118.16Z" fill="#816A55"/>
<path d="M81.0898 47.1902C82.4159 47.1902 83.6877 46.6634 84.6254 45.7257C85.5631 44.788 86.0898 43.5163 86.0898 42.1902V30.8202C82.7341 31.1388 79.3966 31.626 76.0898 32.2802V42.1902C76.0898 42.8468 76.2192 43.497 76.4704 44.1036C76.7217 44.7102 77.09 45.2614 77.5543 45.7257C78.0186 46.19 78.5698 46.5583 79.1764 46.8096C79.7831 47.0609 80.4332 47.1902 81.0898 47.1902Z" fill="#B39175"/>
<path d="M99.8699 47.6802V30.5202C98.2299 30.4402 96.6099 30.3902 94.9999 30.3902C93.3899 30.3902 91.5999 30.3902 89.8699 30.5402V47.6802C89.8699 49.0063 90.3967 50.278 91.3344 51.2157C92.272 52.1534 93.5438 52.6802 94.8699 52.6802C96.196 52.6802 97.4677 52.1534 98.4054 51.2157C99.3431 50.278 99.8699 49.0063 99.8699 47.6802Z" fill="#B39175"/>
<path d="M108.65 47.0002C109.976 47.0002 111.248 46.4734 112.185 45.5358C113.123 44.5981 113.65 43.3263 113.65 42.0002V32.2202C110.3 31.5702 106.95 31.1002 103.65 30.7902V42.0002C103.65 43.3263 104.177 44.5981 105.114 45.5358C106.052 46.4734 107.324 47.0002 108.65 47.0002Z" fill="#B39175"/>
</g>
<defs>
<clipPath id="clip0_333_4763">
<rect width="190" height="190" fill="white"/>
</clipPath>
</defs>
</svg>
