<svg width="259" height="242" viewBox="0 0 259 242" fill="none" xmlns="http://www.w3.org/2000/svg">
<path d="M0.700006 166C0.620006 164.81 0.050005 140.63 17.64 125.08C38.64 106.57 68.23 112.78 85.26 127.67C88.4769 130.445 91.485 133.453 94.26 136.67C101.279 145.004 106.829 154.473 110.67 164.67C116.67 180.18 115.32 186.87 122.02 199.35C126.75 208.16 130.7 210.89 133.2 212.1C134.47 212.72 136.39 213.54 139.68 215.16C142.217 216.422 144.655 217.876 146.97 219.51C143.244 221.402 139.324 222.887 135.28 223.94C131.63 224.83 127.909 225.398 124.16 225.64C116.662 226.418 109.089 225.269 102.16 222.3C89.98 216.87 83.03 206.16 79.39 198.42C74.7544 203.81 68.8658 207.979 62.2418 210.561C55.6178 213.143 48.4611 214.058 41.4006 213.227C34.34 212.395 27.5917 209.842 21.7487 205.792C15.9056 201.743 11.1467 196.32 7.89001 190C3.72904 182.638 1.27208 174.437 0.700006 166Z" fill="#BAA496"/>
<path d="M213.48 162.23C215.97 164.23 226.9 173.13 225.86 181.39C225.39 185.06 220.69 187.12 217.19 187.25C211.61 187.45 207.53 182.32 201.79 174.89C196.64 168.19 192.05 157.14 190.79 153.98C188.84 148.76 205.51 155.93 213.48 162.23Z" fill="#CAB49F"/>
<path d="M183 240.22L174.35 240.4C173.488 240.39 172.654 240.088 171.986 239.543C171.317 238.998 170.853 238.243 170.67 237.4L167.6 225.32C167.6 225.32 185.82 214.61 193.45 212.48C192.9 218.07 188.66 231.78 186.45 237.55C186.202 238.285 185.742 238.931 185.128 239.406C184.514 239.881 183.774 240.164 183 240.22Z" fill="#CAB49F"/>
<path d="M128.9 140.56C135.17 136.86 146.27 134.41 155.4 134.35C164.53 134.29 175.52 136.6 181.74 140.19C194.57 147.6 202.87 164.45 202.31 190.27C201.67 219.95 182.22 225.69 155.78 226.19C129.14 226.68 109.28 221.61 108.45 191.57C107.74 165.42 115.88 148.22 128.9 140.56Z" fill="#CAB49F"/>
<path d="M182.57 222C177.108 224.036 171.384 225.285 165.57 225.71C163.05 225.85 160.57 225.97 158.57 226.06C152.826 226.323 147.07 226.213 141.34 225.73C143.475 218.686 144.534 211.36 144.48 204C144.39 198.17 144.24 194.12 146.25 188.82C147.578 184.999 149.827 181.564 152.8 178.82C156.536 175.523 161.3 173.625 166.28 173.45C168.61 173.31 177.12 172.9 184.14 178.74C186.858 181.004 189.018 183.865 190.45 187.1C191.563 189.791 192.186 192.66 192.29 195.57C192.29 195.57 193.63 206.91 188.88 215.47C187.505 217.492 185.988 219.413 184.34 221.22L182.57 222Z" fill="#F2ECDF"/>
<path d="M97.24 163.63C95 166 85.24 176.77 87.59 184.85C88.65 188.44 93.79 189.7 97.4 189.23C103.12 188.47 106.46 182.68 111.13 174.33C115.3 166.81 118.23 155.06 118.97 151.72C120.22 146.21 104.41 156 97.24 163.63Z" fill="#CAB49F"/>
<path d="M124 241.42L132.76 241.24C133.638 241.199 134.478 240.871 135.15 240.305C135.822 239.739 136.29 238.968 136.48 238.11L140.57 225.69C140.57 225.69 121.71 215.14 113.92 213.25C114.51 218.88 118.2 233.18 120.46 238.92C120.727 239.646 121.209 240.274 121.841 240.721C122.473 241.167 123.226 241.411 124 241.42Z" fill="#CAB49F"/>
<path d="M210.35 8.14995C201.35 7.29995 193.49 14.2499 192.74 23.6799C191.99 33.1099 198.66 41.4299 207.64 42.2399C216.62 43.0499 224.43 36.0799 225.18 26.6899C225.93 17.2999 219.29 8.99995 210.35 8.14995Z" fill="#CAB49F"/>
<path d="M209.73 15.88C208.54 15.7974 207.345 15.9523 206.215 16.3357C205.085 16.7192 204.042 17.3235 203.148 18.1135C202.254 18.9036 201.525 19.8636 201.006 20.9377C200.486 22.0118 200.185 23.1785 200.12 24.37C199.878 26.7881 200.593 29.2048 202.114 31.1009C203.634 32.9969 205.837 34.221 208.25 34.51C209.44 34.5912 210.635 34.435 211.765 34.0503C212.894 33.6656 213.936 33.0601 214.829 32.2692C215.722 31.4782 216.449 30.5175 216.968 29.443C217.487 28.3684 217.786 27.2015 217.85 26.01C218.09 23.5951 217.374 21.1823 215.856 19.2887C214.338 17.3951 212.139 16.1715 209.73 15.88Z" fill="#F2ECDF"/>
<path d="M127.19 0.260007C118.02 -0.609993 109.94 6.41001 109.19 15.96C108.44 25.51 115.25 33.96 124.43 34.74C133.61 35.52 141.58 28.53 142.35 19C143.12 9.47001 136.34 1.13001 127.19 0.260007Z" fill="#CAB49F"/>
<path d="M126.56 8.08002C125.348 7.98759 124.13 8.13703 122.976 8.51967C121.822 8.90231 120.756 9.51049 119.84 10.3089C118.923 11.1072 118.174 12.0799 117.637 13.1702C117.1 14.2605 116.785 15.4468 116.71 16.66C116.474 19.115 117.209 21.5648 118.76 23.4832C120.31 25.4016 122.55 26.6355 125 26.92C126.211 27.0096 127.427 26.8577 128.578 26.4731C129.73 26.0884 130.793 25.4788 131.707 24.6795C132.621 23.8802 133.367 22.9073 133.901 21.8172C134.435 20.7272 134.748 19.5418 134.82 18.33C135.057 15.8808 134.325 13.4362 132.781 11.5203C131.237 9.60429 129.004 8.36933 126.56 8.08002Z" fill="#F2ECDF"/>
<path d="M170.63 13.66C134.09 10.23 85.69 29.89 78.33 83.07C71.68 131.07 106.25 159.89 158.59 163.7C210.18 167.46 247.52 144.48 248.59 97.21C249.9 44.73 206.81 17.05 170.63 13.66Z" fill="#CAB49F"/>
<path d="M173.89 134.81C174.208 134.821 174.522 134.73 174.785 134.55C175.047 134.37 175.245 134.111 175.35 133.81C175.507 133.438 175.511 133.02 175.362 132.645C175.212 132.271 174.92 131.971 174.55 131.81C172.966 131.069 171.226 130.726 169.48 130.81C169.081 130.815 168.699 130.974 168.414 131.253C168.129 131.532 167.963 131.911 167.95 132.31C167.936 132.504 167.961 132.7 168.023 132.884C168.086 133.069 168.183 133.24 168.312 133.387C168.44 133.534 168.596 133.654 168.771 133.74C168.945 133.826 169.135 133.877 169.33 133.89C170.759 133.801 172.186 134.087 173.47 134.72C173.605 134.769 173.747 134.799 173.89 134.81Z" fill="#977C6A"/>
<path d="M180.55 121.52L171.9 125.11L164.02 120.46L172.61 116.22L180.55 121.52Z" fill="#D6B2A6"/>
<path d="M154.35 119.28C154.493 119.415 154.663 119.518 154.848 119.585C155.033 119.651 155.229 119.679 155.426 119.665C155.622 119.652 155.813 119.599 155.988 119.508C156.162 119.418 156.316 119.293 156.44 119.14C156.71 118.733 157.125 118.443 157.6 118.33C157.916 118.396 158.203 118.561 158.42 118.8C159.046 119.348 159.759 119.788 160.53 120.1C161.66 121.868 163.153 123.374 164.91 124.52C166.967 125.841 169.33 126.609 171.77 126.75C174.206 126.903 176.641 126.438 178.85 125.4C180.731 124.494 182.406 123.21 183.77 121.63C184.546 121.417 185.282 121.079 185.95 120.63C186.209 120.406 186.53 120.267 186.87 120.23C187.16 120.23 187.52 120.61 187.87 121.17C187.964 121.339 188.094 121.486 188.251 121.601C188.408 121.715 188.588 121.794 188.778 121.832C188.968 121.87 189.164 121.866 189.353 121.821C189.541 121.776 189.718 121.69 189.87 121.57C190.19 121.334 190.41 120.987 190.49 120.598C190.569 120.208 190.502 119.803 190.3 119.46C190.013 118.885 189.598 118.383 189.086 117.993C188.575 117.603 187.981 117.335 187.35 117.21C186.341 117.124 185.337 117.424 184.54 118.05C182.72 119.31 177.97 119.48 175.91 117.35C174.43 115.83 174.45 113.23 174.59 111.82C174.617 111.626 174.604 111.429 174.553 111.239C174.503 111.05 174.414 110.873 174.294 110.719C174.174 110.564 174.024 110.435 173.854 110.339C173.683 110.243 173.495 110.182 173.3 110.16H173C172.601 110.155 172.216 110.305 171.926 110.58C171.636 110.854 171.466 111.231 171.45 111.63C171.36 113.05 170.96 115.63 169.25 116.94C166.84 118.77 162.08 117.94 160.48 116.5C159.756 115.733 158.764 115.274 157.71 115.22C157.041 115.261 156.39 115.448 155.802 115.77C155.214 116.091 154.705 116.539 154.31 117.08C154.036 117.383 153.888 117.779 153.896 118.188C153.903 118.596 154.065 118.987 154.35 119.28ZM166.5 121.57C166.13 121.32 165.74 121.37 165.4 121.09C167.356 121.143 169.277 120.557 170.87 119.42C171.517 118.84 172.073 118.165 172.52 117.42C172.839 118.23 173.277 118.989 173.82 119.67C175.21 120.995 177 121.822 178.91 122.02C178.53 122.25 178.17 122.16 177.77 122.34C175.978 123.17 174.006 123.534 172.036 123.4C170.066 123.265 168.162 122.636 166.5 121.57Z" fill="#977C6A"/>
<path d="M173.32 107.24C170.94 107.06 168.88 108.44 168.73 110.31C168.58 112.18 170.4 113.83 172.78 113.99C175.16 114.15 177.2 112.78 177.35 110.92C177.5 109.06 175.7 107.41 173.32 107.24Z" fill="#977C6A"/>
<path d="M211.81 106.78C212.467 106.81 213.115 106.609 213.64 106.213C214.166 105.817 214.537 105.25 214.69 104.61C214.922 103.874 214.862 103.076 214.521 102.383C214.18 101.69 213.585 101.155 212.86 100.89C210.902 100.265 209.063 99.3155 207.42 98.08C207.12 97.8573 206.777 97.7004 206.412 97.6192C206.047 97.5381 205.67 97.5347 205.304 97.6093C204.938 97.6838 204.591 97.8346 204.288 98.0518C203.984 98.269 203.729 98.5478 203.54 98.87C203.109 99.5279 202.939 100.323 203.063 101.1C203.187 101.876 203.596 102.579 204.21 103.07C206.323 104.658 208.69 105.875 211.21 106.67C211.404 106.733 211.606 106.77 211.81 106.78Z" fill="#977C6A"/>
<path d="M200.6 111.52C200.82 111.534 201.04 111.495 201.242 111.406C201.444 111.317 201.621 111.182 201.76 111.01C202.013 110.705 202.143 110.317 202.125 109.921C202.106 109.525 201.94 109.15 201.66 108.87C200.53 107.783 199.238 106.879 197.83 106.19C197.657 106.12 197.472 106.085 197.285 106.087C197.098 106.09 196.914 106.131 196.743 106.206C196.572 106.282 196.418 106.391 196.291 106.527C196.163 106.664 196.064 106.825 196 107C195.836 107.356 195.814 107.761 195.939 108.133C196.063 108.504 196.325 108.814 196.67 109C197.828 109.565 198.891 110.308 199.82 111.2C200.038 111.388 200.312 111.501 200.6 111.52Z" fill="#977C6A"/>
<path d="M132.69 100.9C132.899 100.925 133.111 100.925 133.32 100.9C136.156 100.486 138.906 99.6108 141.46 98.31C142.188 97.9288 142.742 97.2828 143.008 96.5052C143.275 95.7275 143.232 94.8774 142.89 94.13C142.732 93.7641 142.501 93.4342 142.211 93.1605C141.921 92.8869 141.579 92.6752 141.204 92.5386C140.83 92.4019 140.432 92.3431 140.034 92.3657C139.636 92.3883 139.247 92.4918 138.89 92.67C136.905 93.6738 134.771 94.3493 132.57 94.67C131.753 94.7985 131.019 95.2422 130.525 95.906C130.032 96.5697 129.818 97.4005 129.93 98.22C130.003 98.9194 130.319 99.5708 130.824 100.061C131.328 100.551 131.989 100.848 132.69 100.9Z" fill="#977C6A"/>
<path d="M145.27 106.68C145.512 106.696 145.755 106.653 145.976 106.554C146.198 106.454 146.391 106.302 146.54 106.11C147.647 104.715 149.003 103.539 150.54 102.64C150.887 102.426 151.14 102.088 151.248 101.694C151.356 101.301 151.31 100.881 151.12 100.52C151.031 100.346 150.908 100.193 150.757 100.069C150.607 99.9444 150.433 99.8524 150.245 99.798C150.058 99.7437 149.861 99.7283 149.668 99.7527C149.474 99.7771 149.288 99.8409 149.12 99.94C147.279 101.03 145.655 102.451 144.33 104.13C144.072 104.45 143.946 104.856 143.98 105.266C144.013 105.676 144.203 106.057 144.51 106.33C144.723 106.519 144.988 106.641 145.27 106.68Z" fill="#977C6A"/>
<path d="M164 89.33C164.38 89.3527 164.754 89.2282 165.044 88.9824C165.335 88.7366 165.52 88.3883 165.56 88.0099C165.773 86.4622 165.643 84.8864 165.178 83.3948C164.713 81.9031 163.925 80.5323 162.87 79.38C162.738 79.2373 162.578 79.1234 162.4 79.0455C162.222 78.9677 162.029 78.9275 161.835 78.9275C161.641 78.9275 161.448 78.9677 161.27 79.0455C161.092 79.1234 160.932 79.2373 160.8 79.38C160.521 79.6782 160.366 80.0715 160.366 80.4799C160.366 80.8884 160.521 81.2817 160.8 81.58C161.534 82.3812 162.081 83.3342 162.405 84.3713C162.728 85.4083 162.818 86.5039 162.67 87.58C162.603 87.9749 162.695 88.3802 162.925 88.7079C163.155 89.0356 163.506 89.2592 163.9 89.33H164Z" fill="#977C6A"/>
<path d="M183.39 89.46C183.782 89.4764 184.165 89.3375 184.455 89.0735C184.745 88.8095 184.919 88.4418 184.94 88.05L185.32 83.33C185.365 82.939 185.254 82.5461 185.01 82.237C184.767 81.9278 184.411 81.7276 184.02 81.68C183.826 81.6692 183.632 81.697 183.449 81.7617C183.266 81.8263 183.097 81.9267 182.953 82.0568C182.809 82.187 182.692 82.3445 182.609 82.5201C182.526 82.6957 182.479 82.886 182.47 83.08L182.09 87.81C182.048 88.2005 182.16 88.592 182.403 88.9005C182.646 89.2091 183 89.4099 183.39 89.46Z" fill="#977C6A"/>
<path d="M188.85 87.37C189.207 87.3896 189.558 87.277 189.836 87.0537C190.115 86.8304 190.301 86.5122 190.36 86.16C190.614 84.8499 191.048 83.5813 191.65 82.39C191.83 82.0376 191.872 81.6304 191.766 81.249C191.661 80.8675 191.416 80.5396 191.08 80.33C190.915 80.236 190.732 80.1772 190.543 80.1572C190.354 80.1372 190.163 80.1564 189.982 80.2137C189.801 80.271 189.633 80.365 189.49 80.49C189.347 80.615 189.231 80.7682 189.15 80.94C188.419 82.3955 187.888 83.9427 187.57 85.54C187.484 85.9253 187.551 86.3288 187.756 86.6661C187.961 87.0034 188.289 87.2484 188.67 87.35L188.85 87.37Z" fill="#977C6A"/>
<path d="M171.37 124.06C169.46 122.37 169.81 117.65 172.37 112.34C172.378 112.323 172.391 112.309 172.407 112.299C172.423 112.289 172.441 112.284 172.46 112.284C172.479 112.284 172.497 112.289 172.513 112.299C172.529 112.309 172.542 112.323 172.55 112.34C175.69 117.34 176.55 121.96 174.9 123.86C174.442 124.305 173.846 124.58 173.21 124.64C172.567 124.663 171.936 124.458 171.43 124.06H171.37Z" fill="#EEE8E6"/>
<path d="M234.2 203C234.173 202.722 234.081 202.455 233.93 202.22C233.664 201.827 233.255 201.554 232.79 201.46L228.57 201.2C228.564 201.785 228.719 202.361 229.019 202.864C229.319 203.367 229.752 203.777 230.27 204.05C230.946 204.352 231.706 204.412 232.421 204.221C233.137 204.03 233.765 203.599 234.2 203Z" fill="#DFB99A"/>
<path d="M237.14 202.76C237.887 201.791 238.98 201.15 240.19 200.97C242.68 200.64 244.89 202.56 244.69 203.19C244.56 203.61 243.22 203.86 237.14 202.76Z" fill="#DFB99A"/>
<path d="M250.65 241.15H223.26C222.16 241.15 221.19 240.63 221.1 239.99L216.36 205.07C216.21 203.97 217.28 203.07 218.75 203.07H255.16C256.63 203.07 257.7 203.98 257.55 205.07L252.81 240C252.72 240.63 251.75 241.15 250.65 241.15Z" fill="#6593B3"/>
<path d="M254.93 215.81H219C217.55 215.81 216.35 215.59 216.32 215.31L215.09 203.09C215.09 202.78 216.28 202.53 217.83 202.53H256.1C257.65 202.53 258.87 202.78 258.84 203.09L257.61 215.31C257.58 215.59 256.38 215.81 254.93 215.81Z" fill="#6593B3"/>
<path d="M230.13 201C228.43 200.92 227.05 201 226.13 200.93C224.42 200.74 221.43 200.2 219.46 200.68C219.052 200.775 218.668 200.952 218.33 201.2C217.795 201.617 217.398 202.185 217.19 202.83C216.106 206.038 215.415 209.366 215.13 212.74C215.024 215.765 215.316 218.791 216 221.74C216.037 221.907 216.114 222.063 216.223 222.194C216.332 222.326 216.471 222.429 216.628 222.497C216.786 222.564 216.957 222.593 217.127 222.582C217.298 222.57 217.463 222.518 217.61 222.43C220.232 220.897 222.643 219.028 224.78 216.87C226.189 215.497 227.452 213.982 228.55 212.35C229.383 211.189 230.055 209.921 230.55 208.58C231.78 205.08 231.19 201.99 232.62 201.48C232.705 201.452 232.792 201.432 232.88 201.42C231.972 201.23 231.054 201.09 230.13 201Z" fill="#F5CE9B"/>
<path d="M256.56 208.15C255.39 205.66 254.56 203.7 252.65 202.31C251.741 201.64 250.727 201.127 249.65 200.79C247.106 200.415 244.522 200.385 241.97 200.7C241.37 200.77 240.79 200.87 240.23 200.97C240.471 201.091 240.693 201.246 240.89 201.43C243.34 203.76 240.26 208.85 240.97 214.57C241.41 218.14 242.54 220.57 246.76 225.13C249.415 227.975 252.442 230.447 255.76 232.48C255.892 232.558 256.04 232.604 256.192 232.616C256.345 232.627 256.498 232.603 256.64 232.546C256.782 232.489 256.909 232.401 257.011 232.287C257.114 232.173 257.188 232.037 257.23 231.89C258.266 228.145 258.781 224.275 258.76 220.39C258.68 216.53 258.67 212.62 256.56 208.15Z" fill="#F0E8BC"/>
</svg>
