<svg width="309" height="233" viewBox="0 0 309 233" fill="none" xmlns="http://www.w3.org/2000/svg">
<g clip-path="url(#clip0_192_680)">
<path d="M308.04 134.3C307.91 133.19 304.35 110.7 285.29 99.11C261.99 84.95 234.36 96.11 220.54 113.58C213.84 122.07 207.19 132.58 202.94 154.05C198.94 174.42 199.38 187 191.42 198.38C186.31 205.7 183.75 210.75 175.21 213.38C185.21 215.11 192.28 215.53 202.3 214.1C209.757 213.178 216.882 210.471 223.07 206.21C233.74 198.63 238.33 187.32 240.32 179.43C245.757 183.403 252.066 186.015 258.72 187.049C265.374 188.083 272.178 187.508 278.564 185.373C284.95 183.237 290.732 179.603 295.425 174.775C300.118 169.946 303.587 164.064 305.54 157.62C308.083 150.126 308.936 142.163 308.04 134.3Z" fill="#BFA490"/>
<path d="M190.04 231.64C185.44 233.2 180.15 233.64 175.84 231.32C175.33 231.05 168.14 208.65 175.07 200.79C179.93 195.27 189.37 195.48 196.96 199.62C197.61 206.21 192.55 230.8 190.04 231.64Z" fill="#C9AF94"/>
<path d="M125.16 229.14C129.92 229.73 132.73 230.34 138.77 229.45C139.28 229.21 147.18 207.35 140.77 199.45C136.28 193.94 127.26 194.01 119.94 197.9C119.02 204.24 122.83 228.21 125.16 229.14Z" fill="#C9AF94"/>
<path d="M188.55 124.49C181.79 120.49 169.55 118.11 159.44 118.36C149.33 118.61 137.39 121.56 130.75 125.74C117.37 134.16 110.27 161.54 112.18 186.03C114.18 212.03 132.54 216.82 157.42 217.26C182.85 217.7 202.47 213.39 205.78 186.42C208.92 160.91 202.42 132.62 188.55 124.49Z" fill="#C9AF94"/>
<path d="M172.21 216.77C175.622 214.588 178.44 211.595 180.412 208.058C182.384 204.52 183.449 200.549 183.51 196.5L183.6 191.56C183.84 178.29 173.51 167.5 160.79 167.56H156.09C143.55 167.56 133.14 178.24 132.85 191.22L132.73 196.06C132.616 200.001 133.48 203.909 135.246 207.434C137.012 210.96 139.625 213.992 142.85 216.26C147.683 216.874 152.548 217.208 157.42 217.26C162.355 217.381 167.294 217.218 172.21 216.77Z" fill="#FAF2DC"/>
<path d="M114.31 163C111.31 166.29 102.69 174.59 94.07 174.42C93.0218 174.389 91.9938 174.124 91.0621 173.642C90.1303 173.161 89.3187 172.476 88.687 171.639C88.0553 170.802 87.6198 169.834 87.4126 168.806C87.2054 167.778 87.2319 166.716 87.49 165.7C89.7 158.8 99.14 153.52 112.21 147.87C120.65 144.23 122.04 144.87 122.59 145.44C124.83 147.84 119.52 157.16 114.31 163Z" fill="#C9AF94"/>
<path d="M216.55 160.58C219.81 164.73 225.88 176.83 224.37 183.92C223.22 189.29 217.31 191.37 213.85 189.6C207.15 186.17 203.65 175.37 200.52 160.76C198.52 151.39 199.43 150 200.14 149.5C203.08 147.43 211.61 154.25 216.55 160.58Z" fill="#C9AF94"/>
<path d="M142.72 16.91C142.592 21.3838 140.704 25.6266 137.467 28.7175C134.23 31.8085 129.905 33.4982 125.43 33.42C123.237 33.4019 121.07 32.9486 119.054 32.0863C117.038 31.224 115.213 29.9699 113.686 28.3968C112.158 26.8237 110.958 24.9629 110.156 22.9224C109.353 20.8818 108.964 18.7022 109.01 16.51C109.138 12.0537 111.012 7.8261 114.227 4.73797C117.442 1.64983 121.742 -0.0516862 126.2 -1.63855e-05C128.402 0.00345327 130.58 0.446106 132.608 1.30202C134.637 2.15794 136.474 3.40992 138.012 4.98466C139.551 6.55939 140.76 8.42523 141.568 10.4729C142.376 12.5206 142.768 14.709 142.72 16.91Z" fill="#C9AF94"/>
<path d="M134.07 15.54C133.992 17.9785 132.958 20.2886 131.192 21.9722C129.426 23.6558 127.07 24.578 124.63 24.54C123.429 24.5404 122.239 24.3002 121.132 23.8336C120.025 23.367 119.022 22.6834 118.183 21.8231C117.345 20.9629 116.687 19.9434 116.248 18.8248C115.81 17.7062 115.599 16.5111 115.63 15.31C115.708 12.8767 116.738 10.5711 118.497 8.88839C120.257 7.20565 122.606 6.27992 125.04 6.30997C126.244 6.30557 127.437 6.5428 128.548 7.00761C129.658 7.47243 130.664 8.15538 131.506 9.01603C132.348 9.87669 133.009 10.8975 133.449 12.0181C133.89 13.1388 134.101 14.3363 134.07 15.54Z" fill="#FAF2DC"/>
<path d="M225.43 20C225.21 29.38 218.24 36.88 208.66 36.73C206.422 36.7276 204.207 36.2807 202.143 35.4152C200.079 34.5497 198.208 33.283 196.637 31.6884C195.067 30.0939 193.829 28.2033 192.995 26.1264C192.161 24.0496 191.748 21.8278 191.78 19.59C191.939 15.0365 193.88 10.7276 197.185 7.59102C200.49 4.45448 204.895 2.74118 209.45 2.81999C219.03 2.90999 225.61 10.59 225.43 20Z" fill="#C9AF94"/>
<path d="M217.53 19.85C217.441 22.3425 216.375 24.6998 214.562 26.4122C212.748 28.1245 210.334 29.0541 207.84 29C206.616 29.0001 205.404 28.7568 204.275 28.2842C203.146 27.8117 202.123 27.1192 201.264 26.2473C200.405 25.3753 199.728 24.3412 199.272 23.2051C198.817 22.0691 198.592 20.8538 198.61 19.63C198.701 17.1419 199.766 14.7891 201.574 13.0778C203.383 11.3666 205.791 10.4337 208.28 10.48C209.505 10.4785 210.719 10.7208 211.85 11.1927C212.98 11.6645 214.006 12.3566 214.867 13.2285C215.728 14.1005 216.406 15.135 216.864 16.2717C217.321 17.4085 217.547 18.6248 217.53 19.85Z" fill="#FAF2DC"/>
<path d="M161.88 8.83C200.01 9.23 247.09 33.39 249.02 86.01C250.75 133.41 211.86 157.72 157.46 155.74C104.09 153.81 71.2701 127.6 75.0001 81.82C79.1501 30.89 124.26 8.44 161.88 8.83Z" fill="#C9AF94"/>
<path d="M125.99 87.49C125.97 88.6583 125.603 89.7944 124.937 90.7541C124.27 91.7138 123.334 92.454 122.246 92.8808C121.158 93.3075 119.968 93.4017 118.827 93.1513C117.685 92.9009 116.644 92.3172 115.835 91.4743C115.026 90.6313 114.485 89.5671 114.281 88.4165C114.078 87.2658 114.22 86.0806 114.691 85.0112C115.162 83.9417 115.94 83.0361 116.926 82.4093C117.912 81.7824 119.062 81.4624 120.23 81.49C121.003 81.503 121.766 81.6688 122.475 81.9779C123.183 82.2869 123.824 82.7332 124.359 83.2909C124.894 83.8486 125.314 84.5068 125.594 85.2275C125.874 85.9481 126.009 86.7171 125.99 87.49Z" fill="#6F5C56"/>
<path d="M199.27 91.3C199.266 92.5012 198.904 93.674 198.231 94.6689C197.558 95.6637 196.604 96.4357 195.49 96.8865C194.377 97.3373 193.155 97.4464 191.979 97.2C190.803 96.9535 189.728 96.3627 188.889 95.5028C188.05 94.6428 187.487 93.5527 187.27 92.3713C187.053 91.1898 187.192 89.9705 187.671 88.8687C188.149 87.7669 188.945 86.8325 189.956 86.1845C190.968 85.5365 192.149 85.2042 193.35 85.23C194.94 85.2511 196.456 85.9022 197.566 87.0403C198.676 88.1784 199.289 89.7104 199.27 91.3Z" fill="#6F5C56"/>
<path d="M151.8 96.72C154.06 96.79 156.16 97.93 156.13 100.04C156.1 102.15 153.95 103.13 151.69 103.04C149.43 102.95 147.41 101.79 147.44 99.72C147.47 97.65 149.61 96.64 151.8 96.72Z" fill="#6F5C56"/>
<path d="M143.87 109.15C140.14 108.94 136.47 106.99 135.33 103.33C135.273 103.159 135.251 102.978 135.265 102.798C135.279 102.618 135.329 102.442 135.412 102.282C135.494 102.121 135.609 101.979 135.748 101.864C135.887 101.749 136.047 101.662 136.22 101.61C136.399 101.562 136.585 101.549 136.768 101.574C136.952 101.598 137.129 101.658 137.289 101.751C137.449 101.844 137.588 101.968 137.7 102.115C137.812 102.263 137.894 102.431 137.94 102.61C138.89 105.61 142.94 106.86 146.12 106.23C147.52 105.96 150.76 104.91 150.2 101.16L149.95 99.48L153.57 99.62L153.26 101.28C152.57 105 155.83 106.39 157.26 106.82C160.63 107.82 165.03 107.01 166.2 103.91C166.369 103.559 166.663 103.284 167.024 103.138C167.386 102.993 167.788 102.988 168.153 103.125C168.518 103.262 168.818 103.53 168.996 103.877C169.173 104.224 169.213 104.624 169.11 105C167.32 109.73 161.25 111 156.5 109.59C154.57 109.069 152.861 107.936 151.63 106.36C150.36 107.784 148.635 108.724 146.75 109.02C145.799 109.183 144.832 109.226 143.87 109.15Z" fill="#6F5C56"/>
<path d="M168.5 14.06C168.123 15.8584 167.859 17.6786 167.71 19.51C167.36 21.98 167.71 24.27 169.71 25.22C170.441 25.6211 171.258 25.8404 172.092 25.8596C172.925 25.8787 173.751 25.6971 174.5 25.33C175.83 24.55 176.27 23.26 177.01 21.1C177.75 18.94 177.6 18.1 178.17 15.72C178.574 14.0061 179.133 12.3325 179.84 10.72L179.23 10.57C176.07 9.98 172.93 9.57 169.83 9.25C169.294 10.8262 168.85 12.4322 168.5 14.06Z" fill="#9F857C"/>
<path d="M167.22 8.99998C165.42 8.87998 163.64 8.80998 161.88 8.78998C160.28 8.78998 158.67 8.78998 157.04 8.86998C156.424 10.6664 155.91 12.4959 155.5 14.35C154.751 17.6979 154.329 21.1105 154.24 24.54C154.06 27.31 155.57 29.75 158.31 29.95C158.965 30.0235 159.628 29.9669 160.261 29.7833C160.894 29.5996 161.484 29.2927 161.998 28.8801C162.512 28.4674 162.94 27.9572 163.256 27.3789C163.572 26.8005 163.77 26.1654 163.84 25.51C163.897 22.105 164.353 18.7184 165.2 15.42C165.674 13.2223 166.35 11.0731 167.22 8.99998Z" fill="#9F857C"/>
<path d="M146.33 24.68C149.16 24.79 152.18 22.68 152.33 19.96C152.461 18.259 152.684 16.5665 153 14.89C153.36 12.9138 153.848 10.9631 154.46 9.04999C151.018 9.27688 147.59 9.6841 144.19 10.27C143.798 11.4155 143.464 12.5804 143.19 13.76C142.617 15.6339 142.281 17.5724 142.19 19.53C142.21 22.46 144.01 24.58 146.33 24.68Z" fill="#9F857C"/>
<path d="M37.1901 226.76H9.80014C8.70014 226.76 7.73014 226.25 7.65014 225.6L2.91014 190.68C2.76014 189.58 3.82014 188.68 5.29014 188.68H41.7001C43.1701 188.68 44.2401 189.58 44.0901 190.68L39.3501 225.6C39.2601 226.25 38.3001 226.76 37.1901 226.76Z" fill="#517E99"/>
<path d="M41.4801 201.43H5.48011C4.03011 201.43 2.83011 201.21 2.80011 200.93L1.61011 188.71C1.61011 188.4 2.81011 188.14 4.35011 188.14H42.6101C44.1601 188.14 45.3801 188.4 45.3501 188.71L44.1201 200.93C44.1201 201.21 42.9301 201.43 41.4801 201.43Z" fill="#517E99"/>
<path d="M12.5402 158.91C8.83354 156.682 4.81147 155.026 0.610187 154C0.546411 158.322 1.12953 162.63 2.34019 166.78C3.43019 170.48 4.54019 174.23 7.80019 177.94C9.83307 180.308 12.354 182.208 15.1902 183.51C18.1902 184.78 20.7802 184.58 25.5502 186.26C25.1202 181.26 25.9602 178.77 25.4902 175.55C24.9408 172.48 23.7368 169.564 21.9602 167C19.2002 162.91 15.8502 160.89 12.5402 158.91Z" fill="#8CA57A"/>
<path d="M37.3001 151.47C36.5944 147.208 35.2457 143.077 33.3001 139.22C29.9743 141.983 27.0821 145.229 24.7201 148.85C22.6201 152.08 20.4901 155.36 19.7901 160.25C19.3152 163.336 19.5131 166.488 20.3701 169.49C21.3701 172.59 23.1901 174.43 25.0101 179.14C28.5601 175.54 31.0101 174.59 33.1101 172.14C35.0866 169.722 36.5221 166.909 37.3201 163.89C38.6101 159.13 37.9401 155.27 37.3001 151.47Z" fill="#9DBF87"/>
<path d="M95.2501 163.31C93.8875 161.077 91.6993 159.47 89.1601 158.84C87.9282 158.534 86.6523 158.446 85.3901 158.58C82.7001 155 78.6101 153.2 75.1401 154.42L53.7601 161.9C48.4201 163.48 48.9101 166.9 51.2101 170.5C45.2061 167.792 38.7772 166.147 32.2101 165.64C32.0395 165.643 31.8767 165.712 31.7569 165.834C31.6372 165.955 31.5701 166.119 31.5701 166.29L31.2201 169.34C31.1909 169.582 31.251 169.826 31.3891 170.027C31.5272 170.227 31.7338 170.371 31.9701 170.43C38.4701 171.3 52.3101 182.09 56.3401 185.51C59.1889 187.975 61.6676 190.838 63.7001 194.01C63.8674 194.288 64.1211 194.505 64.4226 194.626C64.724 194.746 65.0568 194.766 65.3701 194.68L91.1801 185.68C91.3614 185.616 91.5259 185.512 91.661 185.375C91.7961 185.238 91.8984 185.072 91.9601 184.89C92.5651 183.312 92.9944 181.672 93.2401 180C94.9664 177.947 96.1279 175.479 96.6101 172.84C97.3264 169.603 96.8431 166.217 95.2501 163.31ZM93.2501 171.72C93.0197 172.965 92.5944 174.167 91.9901 175.28L87.6101 162.65C87.6101 162.56 87.5401 162.48 87.5101 162.39C87.9182 162.418 88.323 162.482 88.7201 162.58C90.2816 162.945 91.6403 163.903 92.5101 165.25C93.5097 167.253 93.7717 169.543 93.2501 171.72Z" fill="#C7DEEA"/>
</g>
<defs>
<clipPath id="clip0_192_680">
<rect width="307.77" height="232.92" fill="white" transform="translate(0.610107)"/>
</clipPath>
</defs>
</svg>
