<svg width="178" height="236" viewBox="0 0 178 236" fill="none" xmlns="http://www.w3.org/2000/svg">
<path d="M125.955 117.936C123.665 114.496 114.725 97.8262 89.1755 97.8262C63.6255 97.8262 54.6955 114.496 52.4055 117.936C36.6855 141.566 48.0955 186.226 89.1855 218.756C130.255 186.226 141.675 141.566 125.955 117.936Z" fill="#BC9C86"/>
<path d="M59.1853 235.426H68.1853C69.063 235.415 69.9124 235.115 70.6028 234.572C71.2931 234.03 71.7859 233.276 72.0053 232.426L75.1853 220.426C75.1853 220.426 55.3853 210.156 47.4053 208.166C47.9953 213.706 53.2853 227.216 55.5853 232.896C55.8723 233.624 56.3663 234.251 57.0061 234.701C57.646 235.15 58.4036 235.403 59.1853 235.426Z" fill="#CBAC92"/>
<path d="M119.186 235.426H110.186C109.306 235.417 108.454 235.118 107.762 234.575C107.07 234.033 106.575 233.278 106.356 232.426L103.186 220.426C103.186 220.426 122.986 210.156 130.956 208.166C130.366 213.706 125.076 227.216 122.776 232.896C122.489 233.622 121.997 234.248 121.359 234.698C120.721 235.148 119.966 235.401 119.186 235.426Z" fill="#CBAC92"/>
<path d="M148.186 165.346C149.976 168.026 157.716 180.116 153.786 187.496C152.046 190.776 146.666 191.106 143.146 190.036C137.556 188.326 135.306 182.146 132.216 173.256C129.456 165.256 128.766 153.366 128.656 149.996C128.466 144.426 142.466 156.756 148.186 165.346Z" fill="#CBAC92"/>
<path d="M30.0855 165.346C28.2955 168.026 20.5655 180.116 24.4855 187.496C26.2255 190.776 31.6055 191.106 35.1255 190.036C40.7155 188.326 42.9655 182.146 46.0555 173.256C48.8155 165.256 49.5155 153.366 49.6155 149.996C49.7755 144.426 35.7855 156.756 30.0855 165.346Z" fill="#CBAC92"/>
<path d="M116.625 136.206C110.165 132.596 98.7152 130.206 89.2752 130.206C79.8352 130.206 68.3852 132.566 61.9152 136.206C48.5452 143.656 39.9152 160.506 40.5852 186.206C41.3652 215.706 61.6952 221.046 89.1352 221.046C116.575 221.046 136.905 215.706 137.685 186.206C138.365 160.506 130.005 143.656 116.625 136.206Z" fill="#CBAC92"/>
<path d="M104.125 220.276C115.775 215.726 122.055 202.476 119.125 189.656L118.765 188.076C115.885 175.406 104.425 166.816 92.705 166.816H85.645C73.925 166.816 62.475 175.406 59.645 188.076L59.185 189.656C56.185 202.476 62.505 215.726 74.185 220.276C79.1663 220.816 84.1747 221.066 89.185 221.026C94.1753 221.065 99.1637 220.815 104.125 220.276Z" fill="#F8EFDC"/>
<path d="M46.3254 34.8262C55.7639 34.8262 63.4154 27.1748 63.4154 17.7362C63.4154 8.29769 55.7639 0.64624 46.3254 0.64624C36.8868 0.64624 29.2354 8.29769 29.2354 17.7362C29.2354 27.1748 36.8868 34.8262 46.3254 34.8262Z" fill="#CBAC92"/>
<path d="M46.3254 27.0762C51.4837 27.0762 55.6654 22.8946 55.6654 17.7362C55.6654 12.5779 51.4837 8.39624 46.3254 8.39624C41.167 8.39624 36.9854 12.5779 36.9854 17.7362C36.9854 22.8946 41.167 27.0762 46.3254 27.0762Z" fill="#F8EFDC"/>
<path d="M131.965 34.8262C141.404 34.8262 149.055 27.1748 149.055 17.7362C149.055 8.29769 141.404 0.64624 131.965 0.64624C122.527 0.64624 114.875 8.29769 114.875 17.7362C114.875 27.1748 122.527 34.8262 131.965 34.8262Z" fill="#CBAC92"/>
<path d="M131.965 27.0762C137.124 27.0762 141.305 22.8946 141.305 17.7362C141.305 12.5779 137.124 8.39624 131.965 8.39624C126.807 8.39624 122.625 12.5779 122.625 17.7362C122.625 22.8946 126.807 27.0762 131.965 27.0762Z" fill="#F8EFDC"/>
<path d="M89.2756 9.8562C127.156 9.8562 174.756 33.5162 177.806 86.1062C180.556 133.436 143.196 159.106 89.2756 159.106C35.3556 159.106 -2.0144 133.426 0.735598 86.1062C3.7856 33.5162 51.3856 9.8562 89.2756 9.8562Z" fill="#CBAC92"/>
<path d="M89.1851 105.746C91.6593 105.746 93.6651 104.269 93.6651 102.446C93.6651 100.624 91.6593 99.1462 89.1851 99.1462C86.7108 99.1462 84.7051 100.624 84.7051 102.446C84.7051 104.269 86.7108 105.746 89.1851 105.746Z" fill="#816A55"/>
<path d="M81.0853 112.816C77.0853 112.816 73.0853 110.956 71.7453 107.066C71.6127 106.688 71.6357 106.273 71.8092 105.912C71.9826 105.551 72.2924 105.274 72.6703 105.141C73.0483 105.009 73.4634 105.032 73.8244 105.205C74.1854 105.379 74.4627 105.688 74.5953 106.066C75.6753 109.276 80.0153 110.346 83.4053 109.496C84.8753 109.126 88.2253 107.846 87.5753 103.946L87.2953 102.196H91.0353L90.7453 103.946C90.0953 107.846 93.4453 109.126 94.9153 109.496C98.3153 110.336 102.645 109.276 103.735 106.066C103.796 105.881 103.894 105.709 104.021 105.561C104.149 105.413 104.305 105.292 104.479 105.205C104.654 105.117 104.845 105.065 105.04 105.052C105.235 105.038 105.43 105.064 105.615 105.126C105.99 105.256 106.299 105.528 106.475 105.884C106.651 106.239 106.68 106.65 106.555 107.026C104.905 111.916 98.9553 113.606 94.1753 112.406C92.2112 111.968 90.4507 110.883 89.1753 109.326C87.9056 110.889 86.1486 111.98 84.1853 112.426C83.1713 112.68 82.1305 112.811 81.0853 112.816Z" fill="#816A55"/>
<path d="M52.0352 97.6263C55.3378 97.6263 58.0152 94.9489 58.0152 91.6463C58.0152 88.3436 55.3378 85.6663 52.0352 85.6663C48.7325 85.6663 46.0552 88.3436 46.0552 91.6463C46.0552 94.9489 48.7325 97.6263 52.0352 97.6263Z" fill="#816A55"/>
<path d="M126.245 97.6263C129.548 97.6263 132.225 94.9489 132.225 91.6463C132.225 88.3436 129.548 85.6663 126.245 85.6663C122.942 85.6663 120.265 88.3436 120.265 91.6463C120.265 94.9489 122.942 97.6263 126.245 97.6263Z" fill="#816A55"/>
<path d="M75.3652 26.6561C76.6913 26.6561 77.9631 26.1293 78.9008 25.1917C79.8384 24.254 80.3652 22.9822 80.3652 21.6561V10.2861C77.0096 10.6006 73.672 11.0846 70.3652 11.7361V21.6561C70.3652 22.9822 70.892 24.254 71.8297 25.1917C72.7674 26.1293 74.0392 26.6561 75.3652 26.6561Z" fill="#B39175"/>
<path d="M94.1851 27.1462V9.9862C92.5451 9.9062 90.9251 9.8562 89.3151 9.8562C87.7051 9.8562 85.9051 9.9062 84.1851 9.9962V27.1462C84.1851 28.4723 84.7118 29.7441 85.6495 30.6817C86.5872 31.6194 87.859 32.1462 89.1851 32.1462C90.5111 32.1462 91.7829 31.6194 92.7206 30.6817C93.6583 29.7441 94.1851 28.4723 94.1851 27.1462Z" fill="#B39175"/>
<path d="M102.916 26.4261C104.242 26.4261 105.513 25.8993 106.451 24.9616C107.389 24.024 107.916 22.7522 107.916 21.4261V11.6861C104.608 11.041 101.271 10.5638 97.9155 10.2561V21.4261C97.9155 22.7522 98.4423 24.024 99.38 24.9616C100.318 25.8993 101.589 26.4261 102.916 26.4261Z" fill="#B39175"/>
</svg>
