<svg width="201" height="245" viewBox="0 0 201 245" fill="none" xmlns="http://www.w3.org/2000/svg">
<path d="M139.956 127.476C137.666 124.046 128.726 107.426 103.186 107.426C77.6458 107.426 68.7058 124.096 66.4158 127.526C50.6858 151.106 62.0958 195.766 103.186 228.296C144.256 195.766 155.676 151.106 139.956 127.476Z" fill="#BC9C86"/>
<path d="M131.386 208.656C131.066 208.654 130.747 208.617 130.436 208.546C128.446 208.059 126.586 207.148 124.982 205.874C123.379 204.6 122.07 202.994 121.146 201.166C120.889 200.696 120.729 200.18 120.676 199.647C120.622 199.114 120.676 198.576 120.835 198.064C120.993 197.553 121.253 197.078 121.598 196.669C121.944 196.26 122.367 195.924 122.845 195.682C123.322 195.439 123.844 195.295 124.378 195.258C124.912 195.221 125.448 195.291 125.955 195.465C126.461 195.639 126.928 195.913 127.326 196.27C127.725 196.628 128.048 197.062 128.276 197.546C128.727 198.442 129.389 199.214 130.206 199.796C130.84 200.266 131.56 200.605 132.326 200.796C133.279 201.024 134.115 201.595 134.676 202.399C135.236 203.204 135.482 204.186 135.366 205.159C135.25 206.133 134.781 207.03 134.047 207.68C133.313 208.33 132.366 208.688 131.386 208.686V208.656Z" fill="#B39175"/>
<path d="M138.056 172.766C137.156 172.767 136.281 172.465 135.574 171.908C134.867 171.351 134.369 170.572 134.159 169.696C133.95 168.821 134.042 167.9 134.421 167.084C134.799 166.267 135.442 165.602 136.246 165.196C138.653 163.983 141.292 163.301 143.986 163.196C146.275 163.112 148.56 163.451 150.726 164.196C151.729 164.54 152.556 165.268 153.023 166.22C153.49 167.173 153.559 168.272 153.216 169.276C152.872 170.28 152.144 171.106 151.191 171.573C150.239 172.04 149.139 172.11 148.136 171.766C146.899 171.338 145.593 171.144 144.286 171.196C142.747 171.257 141.239 171.649 139.866 172.346C139.304 172.626 138.684 172.77 138.056 172.766Z" fill="#B39175"/>
<path d="M128.826 124.886C127.765 124.944 126.724 124.579 125.933 123.87C125.141 123.161 124.664 122.167 124.606 121.106C124.547 120.045 124.913 119.005 125.622 118.213C126.331 117.422 127.325 116.944 128.386 116.886C129.904 116.718 131.369 116.23 132.686 115.456C133.711 114.845 134.629 114.072 135.406 113.166C135.751 112.767 136.172 112.44 136.644 112.203C137.115 111.966 137.629 111.825 138.156 111.787C138.682 111.749 139.211 111.815 139.712 111.981C140.213 112.147 140.676 112.411 141.076 112.756C141.475 113.101 141.802 113.522 142.039 113.994C142.275 114.466 142.417 114.98 142.455 115.506C142.493 116.033 142.427 116.562 142.261 117.063C142.094 117.564 141.831 118.027 141.486 118.426C138.395 122.07 134.025 124.389 129.276 124.906C129.125 124.909 128.975 124.903 128.826 124.886Z" fill="#B39175"/>
<path d="M91.7558 115.676C91.0524 115.672 90.3625 115.482 89.7558 115.126C87.3051 113.691 85.3274 111.571 84.0658 109.026C82.7803 106.383 82.3104 103.417 82.7158 100.506C82.7906 99.9861 82.9672 99.4859 83.2354 99.0341C83.5035 98.5823 83.858 98.1877 84.2787 97.8729C84.6993 97.5581 85.1779 97.3293 85.687 97.1994C86.1961 97.0696 86.7257 97.0413 87.2458 97.1161C87.7658 97.191 88.266 97.3675 88.7178 97.6357C89.1696 97.9039 89.5642 98.2584 89.879 98.679C90.1938 99.0997 90.4226 99.5782 90.5525 100.087C90.6823 100.596 90.7106 101.126 90.6358 101.646C90.4509 102.931 90.6526 104.242 91.2154 105.412C91.7781 106.582 92.6764 107.558 93.7958 108.216C94.5563 108.657 95.1503 109.337 95.4859 110.149C95.8215 110.962 95.8799 111.863 95.6523 112.712C95.4246 113.561 94.9234 114.312 94.2263 114.848C93.5292 115.383 92.675 115.675 91.7958 115.676H91.7558Z" fill="#B39175"/>
<path d="M57.8256 183.346C56.8991 183.346 55.9747 183.255 55.0656 183.076C54.0476 182.845 53.1602 182.225 52.593 181.349C52.0258 180.472 51.8238 179.409 52.03 178.385C52.2363 177.362 52.8345 176.46 53.6969 175.871C54.5593 175.283 55.6175 175.055 56.6456 175.236C57.6901 175.451 58.7737 175.371 59.7756 175.006C61.0371 174.513 62.0944 173.607 62.7756 172.436C63.0257 171.958 63.3699 171.536 63.7874 171.194C64.205 170.853 64.6874 170.599 65.2055 170.449C65.7236 170.298 66.2668 170.254 66.8023 170.319C67.3378 170.385 67.8547 170.557 68.3218 170.827C68.7888 171.097 69.1964 171.459 69.5201 171.89C69.8438 172.322 70.0768 172.815 70.2051 173.339C70.3335 173.863 70.3545 174.407 70.2669 174.939C70.1794 175.472 69.9851 175.981 69.6956 176.436C68.0718 179.223 65.5356 181.364 62.5156 182.496C61.014 183.051 59.4266 183.339 57.8256 183.346Z" fill="#B39175"/>
<path d="M83.3156 221.216C82.3745 221.196 81.4706 220.844 80.7632 220.223C80.0557 219.602 79.5899 218.752 79.4477 217.821C79.3056 216.891 79.4962 215.94 79.986 215.136C80.4758 214.332 81.2335 213.726 82.1256 213.426C82.4694 213.313 82.7675 213.092 82.9756 212.796C83.1871 212.478 83.2856 212.097 83.2556 211.716C83.2077 211.191 83.2637 210.661 83.4204 210.158C83.5771 209.654 83.8315 209.186 84.1691 208.781C84.8508 207.962 85.8297 207.448 86.8906 207.351C87.9515 207.254 89.0073 207.583 89.8259 208.265C90.6445 208.946 91.1588 209.925 91.2556 210.986C91.4588 213.179 90.9035 215.375 89.6822 217.208C88.4609 219.041 86.6478 220.399 84.5456 221.056C84.1469 221.175 83.7315 221.229 83.3156 221.216Z" fill="#B39175"/>
<path d="M69.0057 131.956C68.8157 131.956 68.6257 131.956 68.4257 131.956C66.3883 131.663 64.486 130.764 62.9657 129.376C61.2623 127.806 60.1325 125.712 59.7557 123.426C59.6528 122.901 59.6565 122.36 59.7664 121.836C59.8764 121.312 60.0904 120.815 60.3958 120.376C60.7013 119.936 61.0919 119.562 61.5445 119.276C61.9971 118.99 62.5026 118.798 63.0309 118.711C63.5591 118.624 64.0995 118.644 64.62 118.769C65.1405 118.895 65.6304 119.124 66.0608 119.442C66.4911 119.761 66.8532 120.162 67.1254 120.623C67.3977 121.085 67.5746 121.596 67.6457 122.126C67.7334 122.631 67.9825 123.095 68.3557 123.446C68.6943 123.751 69.1152 123.949 69.5657 124.016C70.6266 124.09 71.6145 124.583 72.3121 125.386C73.0098 126.188 73.36 127.235 73.2857 128.296C73.2114 129.357 72.7188 130.345 71.9162 131.043C71.1135 131.74 70.0666 132.09 69.0057 132.016V131.956Z" fill="#B39175"/>
<path d="M73.1855 245.006H82.1855C83.0632 244.995 83.9127 244.695 84.603 244.152C85.2933 243.61 85.7861 242.856 86.0055 242.006L89.1555 230.006C89.1555 230.006 69.3555 219.736 61.3755 217.746C61.9655 223.286 67.2555 236.746 69.5555 242.476C69.8445 243.208 70.3431 243.839 70.9888 244.289C71.6345 244.739 72.3986 244.988 73.1855 245.006Z" fill="#CBAC92"/>
<path d="M133.186 245.006H124.186C123.306 244.997 122.455 244.698 121.762 244.155C121.07 243.613 120.576 242.858 120.356 242.006L117.216 230.006C117.216 230.006 137.016 219.736 144.986 217.746C144.396 223.286 139.106 236.746 136.806 242.476C136.517 243.207 136.02 243.836 135.377 244.286C134.733 244.736 133.971 244.986 133.186 245.006Z" fill="#CBAC92"/>
<path d="M162.186 174.886C163.976 177.566 171.716 189.656 167.786 197.036C166.046 200.316 160.666 200.646 157.146 199.576C151.556 197.866 149.306 191.686 146.216 182.796C143.456 174.796 142.766 162.906 142.656 159.536C142.466 153.986 156.466 166.296 162.186 174.886Z" fill="#CBAC92"/>
<path d="M44.0855 174.886C42.2955 177.566 34.5655 189.656 38.4855 197.036C40.2255 200.316 45.6055 200.646 49.1255 199.576C54.7155 197.866 56.9655 191.686 60.0555 182.796C62.8155 174.796 63.5155 162.906 63.6155 159.536C63.7755 153.986 49.7855 166.296 44.0855 174.886Z" fill="#CBAC92"/>
<path d="M130.626 145.746C124.166 142.136 112.716 139.746 103.276 139.746C93.8357 139.746 82.3857 142.096 75.9157 145.746C62.5457 153.196 53.9157 170.046 54.5857 195.746C55.3657 225.236 75.6957 230.576 103.136 230.576C130.576 230.576 150.906 225.236 151.686 195.746C152.366 170.046 144.006 153.196 130.626 145.746Z" fill="#CBAC92"/>
<path d="M118.126 229.816C129.776 225.266 136.056 212.016 133.126 199.196L132.766 197.616C129.886 184.946 118.426 176.356 106.706 176.356H99.646C87.926 176.356 76.476 184.946 73.646 197.616L73.186 199.196C70.186 212.016 76.506 225.266 88.186 229.816C93.1673 230.356 98.1757 230.606 103.186 230.566C108.176 230.605 113.165 230.355 118.126 229.816Z" fill="#F8EFDC"/>
<path d="M60.3254 44.3661C69.7639 44.3661 77.4154 36.7147 77.4154 27.2762C77.4154 17.8376 69.7639 10.1862 60.3254 10.1862C50.8868 10.1862 43.2354 17.8376 43.2354 27.2762C43.2354 36.7147 50.8868 44.3661 60.3254 44.3661Z" fill="#CBAC92"/>
<path d="M60.3254 36.6161C65.4837 36.6161 69.6654 32.4345 69.6654 27.2762C69.6654 22.1178 65.4837 17.9362 60.3254 17.9362C55.167 17.9362 50.9854 22.1178 50.9854 27.2762C50.9854 32.4345 55.167 36.6161 60.3254 36.6161Z" fill="#F8EFDC"/>
<path d="M145.965 44.3661C155.404 44.3661 163.055 36.7147 163.055 27.2762C163.055 17.8376 155.404 10.1862 145.965 10.1862C136.527 10.1862 128.875 17.8376 128.875 27.2762C128.875 36.7147 136.527 44.3661 145.965 44.3661Z" fill="#CBAC92"/>
<path d="M145.965 36.6161C151.124 36.6161 155.305 32.4345 155.305 27.2762C155.305 22.1178 151.124 17.9362 145.965 17.9362C140.807 17.9362 136.625 22.1178 136.625 27.2762C136.625 32.4345 140.807 36.6161 145.965 36.6161Z" fill="#F8EFDC"/>
<path d="M103.276 19.4261C141.156 19.4261 188.756 43.0861 191.806 95.6761C194.556 143.006 157.196 168.676 103.276 168.676C49.3556 168.676 11.9856 143.006 14.7356 95.6761C17.7856 43.0561 65.3856 19.4261 103.276 19.4261Z" fill="#CBAC92"/>
<path d="M103.186 115.286C105.66 115.286 107.666 113.809 107.666 111.986C107.666 110.164 105.66 108.686 103.186 108.686C100.711 108.686 98.7056 110.164 98.7056 111.986C98.7056 113.809 100.711 115.286 103.186 115.286Z" fill="#816A55"/>
<path d="M95.0853 122.366C91.0853 122.366 87.0853 120.506 85.7453 116.616C85.6127 116.238 85.6357 115.823 85.8092 115.462C85.9826 115.101 86.2924 114.824 86.6703 114.691C87.0483 114.558 87.4634 114.581 87.8244 114.755C88.1854 114.928 88.4627 115.238 88.5953 115.616C89.6753 118.826 94.0153 119.896 97.4053 119.046C98.8753 118.676 102.225 117.396 101.575 113.496L101.295 111.746H105.035L104.745 113.496C104.095 117.396 107.445 118.676 108.915 119.046C112.315 119.886 116.645 118.826 117.735 115.616C117.795 115.43 117.892 115.257 118.019 115.108C118.146 114.959 118.302 114.837 118.477 114.748C118.652 114.66 118.842 114.607 119.038 114.593C119.233 114.579 119.43 114.604 119.615 114.666C119.992 114.794 120.302 115.065 120.478 115.422C120.655 115.778 120.682 116.189 120.555 116.566C118.905 121.456 112.955 123.146 108.175 121.946C106.211 121.507 104.451 120.423 103.175 118.866C101.896 120.418 100.137 121.502 98.1753 121.946C97.1648 122.204 96.128 122.345 95.0853 122.366Z" fill="#816A55"/>
<path d="M66.0357 107.166C69.3383 107.166 72.0157 104.489 72.0157 101.186C72.0157 97.8835 69.3383 95.2062 66.0357 95.2062C62.733 95.2062 60.0557 97.8835 60.0557 101.186C60.0557 104.489 62.733 107.166 66.0357 107.166Z" fill="#816A55"/>
<path d="M140.246 107.166C143.548 107.166 146.226 104.489 146.226 101.186C146.226 97.8835 143.548 95.2062 140.246 95.2062C136.943 95.2062 134.266 97.8835 134.266 101.186C134.266 104.489 136.943 107.166 140.246 107.166Z" fill="#816A55"/>
<path d="M33.1852 50.7163H33.1052C29.6733 50.7018 26.2939 49.8724 23.2452 48.2963C22.7784 48.0553 22.3636 47.7248 22.0245 47.3235C21.6854 46.9222 21.4287 46.458 21.2689 45.9575C21.1092 45.457 21.0497 44.93 21.0936 44.4065C21.1376 43.8829 21.2843 43.3732 21.5252 42.9063C21.7662 42.4395 22.0968 42.0247 22.4981 41.6856C22.8994 41.3465 23.3635 41.0897 23.864 40.93C24.3645 40.7703 24.8916 40.7107 25.4151 40.7547C25.9387 40.7987 26.4484 40.9454 26.9152 41.1863C28.8523 42.1918 31.0028 42.7166 33.1852 42.7166C35.3677 42.7166 37.5182 42.1918 39.4552 41.1863C39.9221 40.9414 40.4326 40.7908 40.9576 40.7432C41.4827 40.6956 42.012 40.7519 42.5153 40.9088C43.0185 41.0657 43.486 41.3203 43.8909 41.6579C44.2959 41.9954 44.6303 42.4095 44.8752 42.8763C45.1202 43.3432 45.2707 43.8537 45.3183 44.3787C45.366 44.9037 45.3097 45.433 45.1528 45.9363C44.9958 46.4396 44.7413 46.9071 44.4037 47.312C44.0661 47.7169 43.6521 48.0514 43.1852 48.2963C40.0926 49.8889 36.6639 50.7187 33.1852 50.7163Z" fill="#B39175"/>
<path d="M9.18542 93.6664C7.45011 93.6668 5.72104 93.4587 4.03542 93.0464C3.50501 92.9413 3.0014 92.7298 2.55503 92.4247C2.10866 92.1195 1.72879 91.727 1.43838 91.2709C1.14797 90.8148 0.953053 90.3045 0.865403 89.771C0.777753 89.2374 0.799191 88.6916 0.928423 88.1666C1.05765 87.6415 1.292 87.1481 1.61728 86.7162C1.94257 86.2843 2.35206 85.9228 2.82099 85.6536C3.28993 85.3844 3.80857 85.213 4.34559 85.1499C4.88261 85.0868 5.42685 85.1332 5.94543 85.2864C8.76437 85.9652 11.7259 85.7342 14.4054 84.6264C17.0649 83.4966 19.2983 81.5537 20.7854 79.0764C21.3462 78.2039 22.2239 77.5833 23.2334 77.3455C24.243 77.1078 25.3054 77.2715 26.1966 77.802C27.0878 78.3326 27.738 79.1885 28.0102 80.1893C28.2824 81.1902 28.1552 82.2575 27.6554 83.1664C25.2904 87.1122 21.7325 90.2044 17.4954 91.9964C14.8649 93.1028 12.0392 93.6707 9.18542 93.6664Z" fill="#B39175"/>
<path d="M20.3155 141.346C19.6857 141.346 19.0647 141.198 18.5031 140.912C17.9416 140.627 17.4554 140.213 17.084 139.704C16.7127 139.196 16.4667 138.606 16.3662 137.985C16.2657 137.363 16.3134 136.726 16.5055 136.126C17.9153 131.697 20.9921 127.989 25.0855 125.786C25.5479 125.476 26.07 125.266 26.6183 125.169C27.1667 125.072 27.7292 125.091 28.2699 125.224C28.8106 125.357 29.3176 125.601 29.7584 125.941C30.1992 126.282 30.5641 126.71 30.8298 127.199C31.0954 127.689 31.256 128.228 31.3012 128.783C31.3464 129.338 31.2752 129.897 31.0921 130.422C30.9091 130.948 30.6183 131.43 30.2384 131.837C29.8584 132.244 29.3976 132.568 28.8855 132.786C26.6107 134.005 24.9025 136.065 24.1255 138.526C23.874 139.341 23.3686 140.054 22.6832 140.561C21.9978 141.069 21.1682 141.344 20.3155 141.346Z" fill="#B39175"/>
<path d="M43.1854 162.236C42.3199 162.238 41.4774 161.958 40.7843 161.44C40.0913 160.921 39.5851 160.192 39.3416 159.361C39.0982 158.531 39.1308 157.644 39.4343 156.833C39.7379 156.023 40.2962 155.333 41.0254 154.866C41.6998 154.441 42.2659 153.864 42.6789 153.182C43.092 152.5 43.3407 151.731 43.4054 150.936C43.4956 149.876 44.0035 148.894 44.8174 148.208C45.2204 147.868 45.6864 147.611 46.1888 147.451C46.6912 147.291 47.2201 147.232 47.7454 147.276C48.2707 147.321 48.782 147.469 49.2502 147.711C49.7185 147.953 50.1344 148.285 50.4742 148.688C50.8141 149.091 51.0713 149.557 51.231 150.06C51.3908 150.562 51.45 151.091 51.4054 151.616C51.2514 153.477 50.7026 155.284 49.7954 156.916C48.727 158.82 47.2054 160.431 45.3654 161.606C44.7148 162.022 43.9576 162.241 43.1854 162.236Z" fill="#B39175"/>
<path d="M169.606 156.646C168.954 156.648 168.312 156.49 167.735 156.187C167.158 155.884 166.664 155.444 166.296 154.906L162.296 149.016C161.999 148.582 161.792 148.094 161.684 147.58C161.577 147.066 161.572 146.535 161.669 146.019C161.767 145.502 161.965 145.01 162.252 144.571C162.54 144.131 162.912 143.752 163.346 143.456C163.78 143.16 164.268 142.952 164.782 142.845C165.296 142.737 165.827 142.732 166.343 142.83C166.859 142.927 167.351 143.125 167.791 143.413C168.231 143.701 168.609 144.072 168.906 144.506L172.906 150.396C173.501 151.272 173.724 152.348 173.528 153.388C173.331 154.429 172.73 155.348 171.856 155.946C171.195 156.405 170.41 156.65 169.606 156.646Z" fill="#B39175"/>
<path d="M196.536 131.036H196.206C190.384 130.567 184.856 128.279 180.406 124.496C179.634 123.8 179.163 122.831 179.094 121.794C179.024 120.756 179.361 119.733 180.034 118.94C180.706 118.147 181.66 117.647 182.694 117.545C183.729 117.444 184.762 117.749 185.576 118.396C188.757 121.091 192.701 122.723 196.856 123.066C197.917 123.109 198.917 123.571 199.637 124.351C200.357 125.131 200.738 126.165 200.696 127.226C200.653 128.287 200.191 129.288 199.411 130.008C198.631 130.728 197.597 131.109 196.536 131.066V131.036Z" fill="#B39175"/>
<path d="M195.895 94.6563C195.187 94.6627 194.49 94.4808 193.875 94.1294C193.26 93.778 192.749 93.2697 192.395 92.6563C190.147 88.6062 186.526 85.4924 182.185 83.8763C181.69 83.6947 181.235 83.4168 180.847 83.0586C180.459 82.7004 180.146 82.2689 179.926 81.7892C179.706 81.3094 179.583 80.7908 179.564 80.2633C179.545 79.7357 179.631 79.2097 179.816 78.7154C180.002 78.2212 180.283 77.7686 180.644 77.3836C181.006 76.9986 181.439 76.6889 181.921 76.4724C182.402 76.2559 182.922 76.1368 183.45 76.1221C183.977 76.1073 184.503 76.1971 184.995 76.3863C191.083 78.6662 196.164 83.0318 199.335 88.7063C199.853 89.6308 199.982 90.7228 199.695 91.7427C199.409 92.7626 198.729 93.627 197.805 94.1463C197.221 94.4734 196.565 94.6488 195.895 94.6563Z" fill="#B39175"/>
<path d="M179.416 57.0163C172.988 57.0235 166.82 54.4808 162.266 49.9463C161.545 49.192 161.147 48.186 161.158 47.1428C161.168 46.0996 161.586 45.1018 162.322 44.3622C163.058 43.6226 164.053 43.1996 165.096 43.1836C166.139 43.1675 167.147 43.5597 167.906 44.2763C169.82 46.1747 172.173 47.5707 174.757 48.34C177.341 49.1094 180.075 49.2284 182.716 48.6863C183.237 48.5608 183.778 48.5413 184.307 48.6291C184.836 48.7169 185.342 48.9101 185.794 49.1973C186.247 49.4845 186.638 49.8597 186.942 50.3008C187.247 50.7418 187.46 51.2397 187.569 51.7647C187.678 52.2897 187.68 52.8313 187.575 53.3571C187.47 53.8829 187.261 54.3823 186.959 54.8255C186.657 55.2688 186.27 55.6469 185.819 55.9373C185.368 56.2278 184.864 56.4247 184.336 56.5163C182.717 56.8519 181.068 57.0195 179.416 57.0163Z" fill="#B39175"/>
<path d="M164.696 88.8261C164.352 88.8248 164.019 88.7061 163.752 88.4897C163.484 88.2734 163.299 87.9722 163.226 87.6361C161.3 78.5407 158.113 69.7592 153.756 61.5461C153.569 61.1947 153.529 60.7834 153.646 60.4027C153.762 60.022 154.025 59.7031 154.376 59.5161C154.727 59.3291 155.139 59.2894 155.519 59.4057C155.9 59.5219 156.219 59.7847 156.406 60.1361C158.729 64.4992 160.734 69.0243 162.406 73.6761C163.961 78.0337 165.224 82.4903 166.186 87.0161C166.227 87.2085 166.229 87.4072 166.193 87.6006C166.157 87.7939 166.083 87.9782 165.975 88.1428C165.867 88.3074 165.728 88.4489 165.565 88.5593C165.402 88.6697 165.219 88.7468 165.026 88.7861C164.919 88.816 164.807 88.8295 164.696 88.8261Z" fill="#BC9C86"/>
<path d="M171.236 90.8661C170.891 90.8667 170.557 90.7487 170.29 90.532C170.022 90.3153 169.837 90.0131 169.766 89.6761C167.84 80.5808 164.652 71.7992 160.296 63.5861C160.193 63.4114 160.127 63.2177 160.102 63.0168C160.076 62.8158 160.092 62.6118 160.147 62.417C160.203 62.2222 160.297 62.0406 160.424 61.8833C160.552 61.7259 160.71 61.596 160.889 61.5014C161.068 61.4067 161.265 61.3494 161.467 61.3327C161.668 61.3161 161.872 61.3405 162.064 61.4045C162.256 61.4684 162.433 61.5707 162.585 61.705C162.736 61.8394 162.859 62.003 162.946 62.1861C167.431 70.6453 170.712 79.6893 172.696 89.0561C172.738 89.2486 172.742 89.4476 172.707 89.6416C172.672 89.8355 172.599 90.0207 172.492 90.1862C172.385 90.3518 172.247 90.4945 172.084 90.606C171.922 90.7176 171.739 90.7958 171.546 90.8361L171.236 90.8661Z" fill="#BC9C86"/>
<path d="M175.446 88.1361C175.071 88.1211 174.714 87.9679 174.446 87.7061C169.582 82.9313 163.229 79.9667 156.446 79.3061C156.249 79.2877 156.057 79.2307 155.882 79.1383C155.707 79.046 155.552 78.92 155.426 78.7677C155.3 78.6155 155.205 78.4398 155.146 78.2508C155.088 78.0617 155.067 77.863 155.086 77.6661C155.104 77.4691 155.161 77.2777 155.253 77.1027C155.346 76.9278 155.472 76.7727 155.624 76.6464C155.776 76.5201 155.952 76.4251 156.141 76.3667C156.33 76.3083 156.529 76.2877 156.726 76.3061C164.21 77.022 171.221 80.2876 176.586 85.5561C176.798 85.7647 176.943 86.0318 177.004 86.3234C177.064 86.615 177.036 86.9178 176.923 87.1934C176.81 87.469 176.618 87.7048 176.371 87.8709C176.124 88.037 175.833 88.1258 175.536 88.1261L175.446 88.1361Z" fill="#BC9C86"/>
<path d="M172.186 77.6261C171.972 77.6272 171.76 77.5822 171.565 77.4942C171.37 77.4062 171.196 77.2772 171.056 77.1161C166.552 71.9857 160.417 68.5637 153.686 67.4261C153.288 67.3598 152.933 67.1382 152.698 66.81C152.464 66.4818 152.369 66.0739 152.436 65.6761C152.502 65.2783 152.724 64.9231 153.052 64.6887C153.38 64.4542 153.788 64.3598 154.186 64.4261C161.597 65.6907 168.347 69.465 173.306 75.1161C173.436 75.2643 173.536 75.4369 173.599 75.6238C173.663 75.8106 173.689 76.0082 173.676 76.2051C173.663 76.4021 173.611 76.5945 173.523 76.7715C173.436 76.9484 173.314 77.1063 173.166 77.2361C172.898 77.4812 172.549 77.6199 172.186 77.6261Z" fill="#BC9C86"/>
<path d="M57.7555 144.286C57.5312 144.32 57.3022 144.302 57.0856 144.235C56.8691 144.167 56.6708 144.052 56.5055 143.896C53.9578 141.509 51.5882 138.939 49.4155 136.206C47.3774 133.647 45.5132 130.955 43.8355 128.146C43.7221 127.977 43.6443 127.787 43.6068 127.587C43.5693 127.387 43.5728 127.182 43.6172 126.983C43.6616 126.785 43.7459 126.597 43.865 126.432C43.9841 126.267 44.1355 126.128 44.31 126.024C44.4846 125.919 44.6785 125.851 44.8801 125.824C45.0817 125.797 45.2868 125.811 45.4828 125.865C45.6788 125.92 45.8616 126.014 46.0203 126.141C46.1789 126.268 46.3099 126.427 46.4055 126.606C48.0216 129.295 49.8086 131.877 51.7555 134.336C53.8424 136.953 56.1149 139.416 58.5555 141.706C58.8435 141.98 59.0123 142.355 59.0254 142.752C59.0385 143.149 58.8948 143.535 58.6255 143.826C58.3959 144.074 58.0892 144.236 57.7555 144.286Z" fill="#BC9C86"/>
<path d="M52.8257 145.026C52.6014 145.062 52.3718 145.046 52.1549 144.978C51.938 144.911 51.7397 144.794 51.5757 144.636C46.6405 140.001 42.3761 134.7 38.9057 128.886C38.8046 128.717 38.7378 128.529 38.7092 128.334C38.6806 128.139 38.6908 127.94 38.7391 127.749C38.7873 127.557 38.8728 127.377 38.9906 127.219C39.1085 127.061 39.2563 126.927 39.4257 126.826C39.5951 126.725 39.7828 126.658 39.978 126.63C40.1732 126.601 40.3721 126.611 40.5634 126.66C40.7547 126.708 40.9346 126.793 41.0928 126.911C41.2511 127.029 41.3846 127.177 41.4857 127.346C43.0901 130.04 44.8742 132.622 46.8257 135.076C48.918 137.692 51.1901 140.157 53.6257 142.456C53.7707 142.59 53.8876 142.752 53.9697 142.931C54.0518 143.111 54.0974 143.304 54.1039 143.502C54.1104 143.699 54.0777 143.895 54.0076 144.08C53.9375 144.264 53.8315 144.433 53.6957 144.576C53.4628 144.818 53.1572 144.976 52.8257 145.026Z" fill="#BC9C86"/>
<path d="M47.4154 134.106L46.1654 134.266C43.5039 134.518 40.8189 134.315 38.2254 133.666C37.8395 133.57 37.5079 133.323 37.3035 132.982C37.0991 132.641 37.0386 132.232 37.1354 131.846C37.2322 131.46 37.4784 131.129 37.8197 130.924C38.161 130.72 38.5695 130.66 38.9554 130.756C43.5133 131.893 48.3235 131.423 52.5754 129.426C52.9297 129.289 53.3228 129.292 53.6753 129.433C54.0279 129.575 54.3136 129.845 54.4748 130.189C54.636 130.533 54.6607 130.925 54.5439 131.287C54.427 131.648 54.1774 131.952 53.8454 132.136C51.808 133.099 49.6423 133.762 47.4154 134.106Z" fill="#BC9C86"/>
<path d="M50.8851 141.756H50.7951C48.1371 142.148 45.4316 142.084 42.7951 141.566C42.6014 141.528 42.4173 141.451 42.2531 141.341C42.089 141.231 41.9481 141.09 41.8386 140.926C41.729 140.761 41.6529 140.577 41.6145 140.383C41.5762 140.189 41.5764 139.99 41.6151 139.796C41.6539 139.603 41.7304 139.418 41.8403 139.254C41.9502 139.09 42.0914 138.949 42.2558 138.84C42.4201 138.73 42.6045 138.654 42.7982 138.616C42.992 138.577 43.1914 138.578 43.3851 138.616C45.6686 139.068 48.0123 139.125 50.3151 138.786C52.6239 138.455 54.8572 137.724 56.9151 136.626C57.2666 136.439 57.6779 136.4 58.0586 136.516C58.4393 136.632 58.7582 136.895 58.9451 137.246C59.1321 137.598 59.1718 138.009 59.0556 138.39C58.9393 138.77 58.6766 139.089 58.3251 139.276C56.0013 140.513 53.4864 141.352 50.8851 141.756Z" fill="#BC9C86"/>
<path d="M89.3657 36.196C90.6918 36.196 91.9636 35.6693 92.9013 34.7316C93.8389 33.7939 94.3657 32.5221 94.3657 31.196V19.826C91.0099 20.1439 87.6723 20.6311 84.3657 21.286V31.196C84.3657 32.5221 84.8925 33.7939 85.8302 34.7316C86.7679 35.6693 88.0396 36.196 89.3657 36.196Z" fill="#B39175"/>
<path d="M103.545 25.5061C103.138 25.5065 102.733 25.4424 102.345 25.3161C98.9895 24.2849 96.03 22.2503 93.8654 19.4861C88.8154 12.9761 90.6054 5.28612 91.0154 3.80612C91.2992 2.78371 91.9775 1.9159 92.9011 1.39361C93.8247 0.871325 94.918 0.737335 95.9404 1.02112C96.9628 1.3049 97.8306 1.98321 98.3529 2.90683C98.8752 3.83044 99.0092 4.92369 98.7254 5.9461C98.5854 6.4561 97.4254 11.0161 100.185 14.5861C101.355 16.0585 102.946 17.1398 104.745 17.6861C105.66 17.9703 106.443 18.5734 106.951 19.3858C107.459 20.1982 107.658 21.1659 107.513 22.1129C107.367 23.0598 106.887 23.9232 106.159 24.5459C105.431 25.1687 104.503 25.5094 103.545 25.5061Z" fill="#B39175"/>
<path d="M116.916 35.9561C118.242 35.9561 119.513 35.4294 120.451 34.4917C121.389 33.554 121.916 32.2822 121.916 30.9561V21.2261C118.608 20.5843 115.271 20.1104 111.916 19.8062V30.9561C111.916 32.2822 112.442 33.554 113.38 34.4917C114.318 35.4294 115.589 35.9561 116.916 35.9561Z" fill="#B39175"/>
</svg>
