<svg width="201" height="245" viewBox="0 0 201 245" fill="none" xmlns="http://www.w3.org/2000/svg">
<path d="M139.355 127.476C137.065 124.046 128.125 107.376 102.585 107.376C77.0452 107.376 68.0951 124.046 65.8051 127.476C50.0851 151.106 61.4952 195.766 102.585 228.296C143.665 195.766 155.075 151.106 139.355 127.476Z" fill="#BC9C86"/>
<path d="M130.785 208.656C130.465 208.654 130.147 208.617 129.835 208.546C127.846 208.059 125.985 207.148 124.382 205.874C122.778 204.6 121.469 202.994 120.545 201.166C120.307 200.697 120.164 200.186 120.124 199.662C120.084 199.138 120.147 198.611 120.311 198.112C120.474 197.612 120.735 197.15 121.077 196.751C121.419 196.352 121.836 196.024 122.305 195.786C122.774 195.548 123.285 195.405 123.809 195.365C124.333 195.325 124.86 195.389 125.36 195.552C125.859 195.715 126.322 195.976 126.721 196.318C127.12 196.66 127.447 197.077 127.685 197.546C128.079 198.34 128.641 199.039 129.332 199.595C130.022 200.151 130.825 200.551 131.685 200.766C132.639 200.994 133.475 201.565 134.035 202.369C134.596 203.174 134.841 204.156 134.725 205.129C134.609 206.103 134.14 207 133.406 207.65C132.673 208.3 131.726 208.658 130.745 208.656H130.785Z" fill="#B39175"/>
<path d="M137.455 172.766C136.555 172.768 135.681 172.465 134.974 171.908C134.267 171.351 133.768 170.572 133.559 169.696C133.35 168.821 133.442 167.901 133.82 167.084C134.199 166.267 134.842 165.602 135.645 165.196C138.052 163.984 140.692 163.302 143.385 163.196C145.674 163.112 147.959 163.451 150.125 164.196C150.622 164.366 151.081 164.633 151.475 164.98C151.869 165.327 152.191 165.749 152.422 166.221C152.654 166.692 152.79 167.205 152.823 167.729C152.856 168.253 152.785 168.779 152.615 169.276C152.445 169.773 152.179 170.232 151.832 170.626C151.484 171.02 151.063 171.342 150.591 171.573C150.119 171.805 149.607 171.941 149.082 171.974C148.558 172.007 148.032 171.936 147.535 171.766C146.299 171.338 144.993 171.145 143.685 171.196C142.146 171.257 140.639 171.649 139.265 172.346C138.703 172.626 138.083 172.77 137.455 172.766Z" fill="#B39175"/>
<path d="M128.185 124.886C127.124 124.944 126.084 124.579 125.292 123.87C124.501 123.161 124.024 122.167 123.965 121.106C123.907 120.045 124.272 119.005 124.981 118.213C125.69 117.422 126.684 116.944 127.745 116.886C129.263 116.718 130.729 116.23 132.045 115.456C133.07 114.845 133.989 114.072 134.765 113.166C135.099 112.743 135.514 112.392 135.986 112.134C136.458 111.875 136.978 111.715 137.514 111.662C138.05 111.609 138.591 111.665 139.104 111.826C139.618 111.987 140.094 112.25 140.504 112.6C140.913 112.95 141.248 113.378 141.488 113.86C141.728 114.342 141.868 114.868 141.9 115.405C141.932 115.943 141.855 116.481 141.673 116.988C141.492 117.495 141.211 117.961 140.845 118.356C137.757 121.996 133.391 124.315 128.645 124.836C128.493 124.863 128.339 124.879 128.185 124.886Z" fill="#B39175"/>
<path d="M91.1853 115.676C90.4818 115.672 89.792 115.482 89.1853 115.126C86.7357 113.693 84.7608 111.572 83.5053 109.026C82.2123 106.385 81.7387 103.418 82.1453 100.506C82.2965 99.4559 82.8586 98.5087 83.7082 97.873C84.5577 97.2372 85.625 96.965 86.6753 97.1161C87.7255 97.2673 88.6727 97.8295 89.3084 98.679C89.9442 99.5286 90.2164 100.596 90.0653 101.646C89.8804 102.931 90.0821 104.242 90.6449 105.412C91.2076 106.582 92.1059 107.558 93.2253 108.216C93.9858 108.657 94.5798 109.337 94.9154 110.149C95.2509 110.962 95.3094 111.863 95.0817 112.712C94.8541 113.561 94.3529 114.312 93.6558 114.848C92.9587 115.383 92.1045 115.675 91.2253 115.676H91.1853Z" fill="#B39175"/>
<path d="M57.1852 183.346C56.2587 183.346 55.3343 183.255 54.4252 183.076C53.4072 182.845 52.5198 182.225 51.9526 181.349C51.3854 180.472 51.1834 179.409 51.3896 178.385C51.5959 177.362 52.1941 176.46 53.0565 175.871C53.9189 175.283 54.9771 175.055 56.0052 175.236C57.0498 175.451 58.1333 175.371 59.1353 175.006C60.3967 174.513 61.454 173.607 62.1353 172.436C62.6887 171.565 63.5572 170.942 64.5593 170.697C65.5613 170.451 66.6195 170.603 67.5127 171.119C68.4059 171.635 69.0651 172.477 69.3525 173.468C69.64 174.458 69.5334 175.522 69.0552 176.436C67.4314 179.223 64.8952 181.364 61.8752 182.496C60.3736 183.051 58.7862 183.339 57.1852 183.346Z" fill="#B39175"/>
<path d="M82.7153 221.216C81.7581 221.217 80.8323 220.875 80.106 220.251C79.3798 219.628 78.9012 218.764 78.7572 217.818C78.6132 216.872 78.8133 215.905 79.3212 215.094C79.8291 214.282 80.6111 213.68 81.5253 213.396C81.8701 213.285 82.1687 213.064 82.3752 212.766C82.5829 212.446 82.6843 212.068 82.6652 211.686C82.5684 210.625 82.897 209.569 83.5787 208.751C84.2604 207.932 85.2394 207.418 86.3002 207.321C87.3611 207.224 88.4169 207.553 89.2355 208.235C90.0541 208.916 90.5684 209.895 90.6652 210.956C90.8685 213.149 90.3131 215.346 89.0919 217.178C87.8706 219.011 86.0574 220.369 83.9553 221.026C83.5551 221.157 83.1362 221.221 82.7153 221.216Z" fill="#B39175"/>
<path d="M68.4052 131.956C68.2153 131.966 68.0251 131.966 67.8352 131.956C65.7973 131.664 63.8945 130.765 62.3752 129.376C60.6773 127.805 59.5543 125.71 59.1852 123.426C59.0998 122.907 59.1175 122.377 59.2371 121.865C59.3568 121.353 59.5761 120.87 59.8825 120.443C60.189 120.015 60.5765 119.653 61.0231 119.376C61.4697 119.098 61.9665 118.911 62.4852 118.826C63.0039 118.741 63.5344 118.758 64.0463 118.878C64.5582 118.998 65.0415 119.217 65.4686 119.523C65.8958 119.83 66.2584 120.217 66.5358 120.664C66.8132 121.111 66.9999 121.607 67.0852 122.126C67.16 122.605 67.387 123.048 67.7328 123.388C68.0786 123.729 68.5247 123.949 69.0052 124.016C70.0661 124.092 71.0534 124.586 71.7501 125.389C72.4468 126.193 72.7958 127.24 72.7202 128.301C72.6446 129.362 72.1507 130.349 71.3471 131.046C70.5435 131.743 69.4961 132.092 68.4352 132.016L68.4052 131.956Z" fill="#B39175"/>
<path d="M72.5651 245.006H81.5651C82.4428 244.994 83.2923 244.694 83.9826 244.152C84.6729 243.61 85.1657 242.856 85.3851 242.006L88.5351 230.006C88.5351 230.006 68.7351 219.736 60.7551 217.746C61.3451 223.286 66.6351 236.746 68.9351 242.476C69.2242 243.208 69.7228 243.839 70.3685 244.289C71.0142 244.739 71.7783 244.988 72.5651 245.006Z" fill="#CBAC92"/>
<path d="M132.535 245.006H123.535C122.656 244.997 121.804 244.698 121.112 244.155C120.419 243.613 119.925 242.858 119.705 242.006L116.565 230.006C116.565 230.006 136.365 219.736 144.335 217.746C143.745 223.286 138.455 236.746 136.155 242.476C135.867 243.207 135.37 243.836 134.726 244.286C134.082 244.736 133.32 244.986 132.535 245.006Z" fill="#CBAC92"/>
<path d="M161.605 174.886C163.395 177.566 171.135 189.656 167.205 197.036C165.465 200.316 160.085 200.646 156.565 199.576C150.975 197.866 148.725 191.686 145.635 182.796C142.875 174.796 142.185 162.906 142.075 159.536C141.875 153.986 155.875 166.296 161.605 174.886Z" fill="#CBAC92"/>
<path d="M43.4951 174.886C41.7051 177.566 33.9751 189.656 37.8951 197.036C39.6351 200.316 45.0151 200.646 48.5351 199.576C54.1251 197.866 56.3751 191.686 59.4651 182.796C62.2251 174.796 62.9251 162.906 63.0251 159.536C63.1851 153.986 49.1851 166.296 43.4951 174.886Z" fill="#CBAC92"/>
<path d="M130.025 145.746C123.565 142.136 112.115 139.746 102.675 139.746C93.2351 139.746 81.7851 142.096 75.3251 145.746C61.9451 153.196 53.3251 170.046 53.9851 195.746C54.7651 225.236 75.0951 230.576 102.535 230.576C129.975 230.576 150.305 225.236 151.085 195.746C151.765 170.046 143.405 153.196 130.025 145.746Z" fill="#CBAC92"/>
<path d="M117.525 229.816C129.175 225.266 135.455 212.016 132.525 199.196L132.165 197.616C129.285 184.946 117.825 176.356 106.165 176.356H99.0951C87.3751 176.356 75.925 184.946 73.095 197.616L72.735 199.196C69.735 212.016 76.0451 225.266 87.7351 229.816C97.71 230.818 107.76 230.818 117.735 229.816H117.525Z" fill="#F8EFDC"/>
<path d="M59.725 44.3661C69.1635 44.3661 76.815 36.7147 76.815 27.2762C76.815 17.8376 69.1635 10.1862 59.725 10.1862C50.2864 10.1862 42.635 17.8376 42.635 27.2762C42.635 36.7147 50.2864 44.3661 59.725 44.3661Z" fill="#CBAC92"/>
<path d="M59.725 36.6161C64.8833 36.6161 69.065 32.4345 69.065 27.2762C69.065 22.1178 64.8833 17.9362 59.725 17.9362C54.5666 17.9362 50.385 22.1178 50.385 27.2762C50.385 32.4345 54.5666 36.6161 59.725 36.6161Z" fill="#F8EFDC"/>
<path d="M145.365 44.3661C154.804 44.3661 162.455 36.7147 162.455 27.2762C162.455 17.8376 154.804 10.1862 145.365 10.1862C135.926 10.1862 128.275 17.8376 128.275 27.2762C128.275 36.7147 135.926 44.3661 145.365 44.3661Z" fill="#CBAC92"/>
<path d="M145.365 36.6161C150.523 36.6161 154.705 32.4345 154.705 27.2762C154.705 22.1178 150.523 17.9362 145.365 17.9362C140.207 17.9362 136.025 22.1178 136.025 27.2762C136.025 32.4345 140.207 36.6161 145.365 36.6161Z" fill="#F8EFDC"/>
<path d="M102.675 19.4261C140.555 19.4261 188.155 43.0861 191.205 95.6761C193.955 143.006 156.595 168.676 102.675 168.676C48.7547 168.676 11.3848 143.006 14.1348 95.6761C17.1848 43.0561 64.7847 19.4261 102.675 19.4261Z" fill="#CBAC92"/>
<path d="M99.7151 135.906C99.3581 135.903 99.0139 135.773 98.7443 135.539C98.4747 135.305 98.2974 134.982 98.2444 134.629C98.1914 134.276 98.2661 133.915 98.455 133.612C98.6439 133.309 98.9347 133.084 99.2751 132.976C100.971 132.337 102.791 132.095 104.595 132.266C104.792 132.271 104.986 132.315 105.166 132.395C105.346 132.476 105.509 132.591 105.644 132.734C105.78 132.877 105.886 133.045 105.956 133.229C106.027 133.413 106.06 133.609 106.055 133.806C106.037 134.202 105.865 134.576 105.575 134.846C105.286 135.117 104.901 135.264 104.505 135.256C103.029 135.1 101.536 135.302 100.155 135.846C100.012 135.885 99.8638 135.905 99.7151 135.906Z" fill="#816A55"/>
<path d="M93.895 122.566L102.575 126.586L111.065 122.566L102.585 117.906L93.895 122.566Z" fill="#DDB5A9"/>
<path d="M121.265 119.916C120.895 119.362 120.407 118.895 119.837 118.55C119.267 118.204 118.628 117.988 117.965 117.916C116.903 117.889 115.867 118.243 115.045 118.916C113.295 120.236 108.355 120.716 106.045 118.776C104.385 117.396 104.185 114.876 104.205 113.486C104.209 113.289 104.174 113.093 104.102 112.91C104.031 112.726 103.924 112.559 103.787 112.417C103.65 112.274 103.487 112.161 103.307 112.082C103.126 112.003 102.932 111.96 102.735 111.956H102.425C102.028 111.967 101.651 112.133 101.376 112.419C101.101 112.706 100.95 113.089 100.955 113.486C100.955 114.876 100.785 117.406 99.135 118.786C96.815 120.726 91.8751 120.256 90.0751 118.906C89.2667 118.237 88.2441 117.882 87.1951 117.906C86.5332 117.981 85.8954 118.199 85.3257 118.544C84.756 118.889 84.268 119.354 83.8951 119.906C83.6524 120.222 83.5451 120.621 83.5966 121.016C83.6482 121.41 83.8545 121.768 84.1701 122.011C84.4857 122.254 84.8848 122.361 85.2796 122.31C85.6743 122.258 86.0324 122.052 86.275 121.736C86.5289 121.325 86.9232 121.019 87.385 120.876C87.7354 120.932 88.062 121.088 88.3251 121.326C88.9962 121.803 89.7387 122.171 90.525 122.416C91.8403 124.07 93.4852 125.432 95.3551 126.416C97.5961 127.563 100.078 128.161 102.595 128.161C105.113 128.161 107.594 127.563 109.835 126.416C111.706 125.43 113.354 124.068 114.675 122.416C115.481 122.167 116.241 121.789 116.925 121.296C117.169 121.079 117.472 120.94 117.795 120.896C118.259 121.03 118.655 121.333 118.905 121.746C119.149 122.06 119.508 122.265 119.903 122.315C120.297 122.364 120.696 122.255 121.01 122.011C121.324 121.767 121.529 121.408 121.579 121.013C121.628 120.619 121.519 120.22 121.275 119.906L121.265 119.916ZM96.7251 123.486C96.3251 123.276 95.9351 123.346 95.5651 123.096C97.5568 123.023 99.4747 122.323 101.045 121.096C101.662 120.481 102.178 119.772 102.575 118.996C102.979 119.77 103.498 120.478 104.115 121.096C105.69 122.322 107.611 123.022 109.605 123.096C109.225 123.346 108.835 123.276 108.435 123.486C106.623 124.415 104.616 124.9 102.58 124.9C100.544 124.9 98.5369 124.415 96.7251 123.486Z" fill="#816A55"/>
<path d="M102.595 115.726C105.069 115.726 107.075 114.249 107.075 112.426C107.075 110.604 105.069 109.126 102.595 109.126C100.121 109.126 98.115 110.604 98.115 112.426C98.115 114.249 100.121 115.726 102.595 115.726Z" fill="#816A55"/>
<path d="M61.9351 105.916C61.1894 105.922 60.4681 105.65 59.9122 105.153C59.3562 104.656 59.0053 103.969 58.9278 103.228C58.8504 102.486 59.052 101.742 59.4934 101.141C59.9347 100.54 60.5842 100.124 61.3151 99.9762C63.4617 99.5214 65.5213 98.7246 67.4151 97.6162C67.7565 97.3991 68.1384 97.2534 68.5376 97.1877C68.9369 97.1221 69.3453 97.1378 69.7383 97.2341C70.1313 97.3303 70.5007 97.5051 70.8244 97.7478C71.1481 97.9906 71.4193 98.2963 71.6218 98.6466C71.8243 98.9969 71.9539 99.3845 72.0027 99.7862C72.0515 100.188 72.0185 100.595 71.9057 100.984C71.793 101.372 71.6028 101.734 71.3467 102.047C71.0905 102.361 70.7736 102.619 70.4151 102.806C67.9669 104.216 65.3106 105.229 62.5451 105.806C62.3467 105.866 62.142 105.903 61.9351 105.916Z" fill="#816A55"/>
<path d="M73.5752 111.426C73.3446 111.427 73.1169 111.375 72.9103 111.272C72.7036 111.17 72.5238 111.02 72.3852 110.836C72.1443 110.52 72.0386 110.122 72.091 109.728C72.1435 109.335 72.35 108.978 72.6651 108.736C73.98 107.737 75.4358 106.938 76.9851 106.366C77.345 106.28 77.7238 106.33 78.0489 106.507C78.374 106.683 78.6225 106.974 78.7465 107.322C78.8705 107.671 78.8614 108.053 78.7209 108.395C78.5803 108.737 78.3183 109.015 77.9851 109.176C76.719 109.645 75.5294 110.298 74.4552 111.116C74.2033 111.312 73.8944 111.421 73.5752 111.426Z" fill="#816A55"/>
<path d="M143.185 105.916C142.976 105.917 142.768 105.894 142.565 105.846C139.8 105.269 137.143 104.256 134.695 102.846C134.042 102.431 133.575 101.78 133.391 101.028C133.207 100.277 133.32 99.483 133.707 98.8131C134.094 98.1432 134.725 97.6488 135.469 97.4333C136.212 97.2177 137.009 97.2976 137.695 97.6562C139.59 98.7629 141.649 99.5596 143.795 100.016C144.526 100.164 145.175 100.58 145.617 101.181C146.058 101.782 146.26 102.526 146.182 103.268C146.105 104.009 145.754 104.696 145.198 105.193C144.642 105.69 143.921 105.962 143.175 105.956L143.185 105.916Z" fill="#816A55"/>
<path d="M130.185 110.546C129.945 110.547 129.708 110.49 129.496 110.378C129.283 110.266 129.101 110.104 128.965 109.906C127.965 108.494 126.714 107.277 125.275 106.316C125.104 106.21 124.956 106.07 124.84 105.906C124.724 105.741 124.643 105.555 124.6 105.358C124.558 105.161 124.556 104.957 124.593 104.76C124.631 104.562 124.709 104.374 124.821 104.206C124.933 104.039 125.078 103.896 125.246 103.786C125.415 103.676 125.604 103.601 125.802 103.565C126.001 103.53 126.204 103.535 126.4 103.58C126.597 103.624 126.782 103.708 126.945 103.826C128.692 104.991 130.207 106.469 131.415 108.186C131.645 108.511 131.735 108.914 131.668 109.306C131.6 109.698 131.38 110.047 131.055 110.276C130.799 110.451 130.496 110.545 130.185 110.546Z" fill="#816A55"/>
<path d="M112.625 92.496C112.245 92.4918 111.88 92.3443 111.604 92.0829C111.328 91.8215 111.16 91.4655 111.135 91.086C111.054 89.5597 111.323 88.035 111.923 86.6291C112.523 85.2232 113.437 83.9735 114.595 82.976C114.9 82.7201 115.294 82.5958 115.691 82.6305C116.088 82.6652 116.454 82.856 116.71 83.161C116.966 83.466 117.09 83.8602 117.056 84.2568C117.021 84.6535 116.83 85.0201 116.525 85.276C115.722 85.967 115.088 86.8329 114.672 87.8072C114.256 88.7814 114.069 89.8381 114.125 90.896C114.15 91.2924 114.016 91.6824 113.754 91.9804C113.491 92.2785 113.121 92.4603 112.725 92.486L112.625 92.496Z" fill="#816A55"/>
<path d="M93.6052 91.0561C93.2074 91.0561 92.8259 90.8981 92.5446 90.6168C92.2633 90.3355 92.1052 89.9539 92.1052 89.5561V84.9061C92.1052 84.5083 92.2633 84.1268 92.5446 83.8455C92.8259 83.5642 93.2074 83.4061 93.6052 83.4061C94.003 83.4061 94.3846 83.5642 94.6659 83.8455C94.9472 84.1268 95.1052 84.5083 95.1052 84.9061V89.5561C95.1052 89.9539 94.9472 90.3355 94.6659 90.6168C94.3846 90.8981 94.003 91.0561 93.6052 91.0561Z" fill="#816A55"/>
<path d="M88.0751 88.5762C87.7083 88.5764 87.3542 88.4422 87.0796 88.1989C86.8051 87.9557 86.6292 87.6203 86.5851 87.2561C86.4217 85.9452 86.0679 84.6651 85.5351 83.4562C85.376 83.0915 85.3683 82.6785 85.5136 82.3082C85.6589 81.9378 85.9454 81.6403 86.3101 81.4812C86.6748 81.322 87.0877 81.3143 87.4581 81.4596C87.8285 81.605 88.126 81.8915 88.2851 82.2561C88.9352 83.7288 89.3665 85.2887 89.5651 86.8862C89.5889 87.0818 89.5738 87.2803 89.5208 87.4702C89.4678 87.66 89.3779 87.8376 89.2563 87.9927C89.1346 88.1478 88.9836 88.2774 88.8118 88.3741C88.64 88.4708 88.4508 88.5326 88.2551 88.5562L88.0751 88.5762Z" fill="#816A55"/>
<path d="M32.5952 50.7161H32.5152C29.0833 50.7016 25.7038 49.8722 22.6551 48.2961C22.1883 48.0551 21.7735 47.7246 21.4344 47.3233C21.0954 46.922 20.8386 46.4578 20.6789 45.9573C20.5192 45.4568 20.4596 44.9298 20.5035 44.4062C20.5475 43.8827 20.6942 43.373 20.9352 42.9061C21.1762 42.4393 21.5067 42.0245 21.908 41.6854C22.3093 41.3463 22.7735 41.0895 23.274 40.9298C23.7745 40.7701 24.3015 40.7105 24.8251 40.7545C25.3486 40.7985 25.8583 40.9452 26.3252 41.1861C28.2623 42.1916 30.4127 42.7164 32.5952 42.7164C34.7776 42.7164 36.9281 42.1916 38.8652 41.1861C39.808 40.6981 40.9061 40.6046 41.9178 40.9263C42.9296 41.2479 43.7722 41.9583 44.2602 42.9011C44.7482 43.844 44.8416 44.942 44.52 45.9538C44.1984 46.9656 43.488 47.8081 42.5452 48.2961C39.468 49.8821 36.057 50.7117 32.5952 50.7161Z" fill="#B39175"/>
<path d="M8.57507 93.6661C6.83976 93.6666 5.11066 93.4584 3.42505 93.0461C2.89463 92.9411 2.39101 92.7296 1.94464 92.4244C1.49826 92.1193 1.11841 91.7268 0.827999 91.2707C0.537591 90.8146 0.342712 90.3043 0.255062 89.7707C0.167413 89.2372 0.188819 88.6914 0.318051 88.1663C0.447282 87.6413 0.681604 87.1479 1.00689 86.716C1.33218 86.284 1.7417 85.9225 2.21063 85.6533C2.67956 85.3841 3.19821 85.2128 3.73523 85.1497C4.27224 85.0866 4.81651 85.133 5.33508 85.2861C8.14902 85.9826 11.1124 85.7548 13.7868 84.6364C16.4612 83.518 18.7046 81.5684 20.1851 79.0761C20.7458 78.2036 21.6235 77.583 22.6331 77.3453C23.6426 77.1075 24.705 77.2712 25.5962 77.8018C26.4874 78.3323 27.1377 79.1883 27.4098 80.1891C27.682 81.1899 27.5548 82.2573 27.055 83.1661C24.6959 87.117 21.1362 90.2107 16.8951 91.9961C14.2614 93.1039 11.4322 93.6718 8.57507 93.6661Z" fill="#B39175"/>
<path d="M19.7152 141.346C19.0854 141.346 18.4643 141.198 17.9028 140.912C17.3412 140.627 16.855 140.213 16.4837 139.704C16.1123 139.196 15.8664 138.606 15.7659 137.985C15.6654 137.363 15.7131 136.726 15.9052 136.126C17.3149 131.697 20.3917 127.989 24.4852 125.786C24.9476 125.476 25.4696 125.266 26.018 125.169C26.5663 125.072 27.1289 125.09 27.6696 125.223C28.2103 125.356 28.7173 125.601 29.1581 125.941C29.5989 126.281 29.9638 126.71 30.2294 127.199C30.4951 127.689 30.6556 128.228 30.7008 128.783C30.746 129.338 30.6748 129.896 30.4918 130.422C30.3088 130.948 30.018 131.43 29.638 131.837C29.258 132.244 28.7972 132.567 28.2852 132.786C27.1279 133.41 26.1077 134.26 25.2852 135.286C24.508 136.25 23.9148 137.348 23.5352 138.526C23.2831 139.343 22.7763 140.057 22.0889 140.564C21.4015 141.072 20.5697 141.346 19.7152 141.346Z" fill="#B39175"/>
<path d="M42.6051 162.236C41.7396 162.237 40.8971 161.958 40.2041 161.439C39.511 160.921 39.0047 160.192 38.7613 159.361C38.5179 158.531 38.5504 157.643 38.854 156.833C39.1576 156.023 39.7159 155.332 40.4451 154.866C41.1195 154.441 41.6856 153.864 42.0987 153.182C42.5117 152.5 42.7604 151.731 42.8251 150.936C42.9153 149.875 43.4232 148.894 44.2371 148.207C45.051 147.521 46.1042 147.186 47.1651 147.276C48.2259 147.366 49.2076 147.874 49.8939 148.688C50.5803 149.502 50.9153 150.555 50.8251 151.616C50.6614 153.632 50.0349 155.583 48.9942 157.318C47.9536 159.052 46.5269 160.523 44.8251 161.616C44.162 162.036 43.3899 162.252 42.6051 162.236Z" fill="#B39175"/>
<path d="M169.005 156.646C168.353 156.648 167.711 156.49 167.134 156.187C166.557 155.883 166.063 155.444 165.695 154.906L161.695 149.016C161.097 148.139 160.872 147.061 161.069 146.019C161.266 144.976 161.869 144.054 162.745 143.456C163.622 142.858 164.7 142.633 165.743 142.83C166.785 143.026 167.707 143.629 168.305 144.506L172.305 150.396C172.905 151.266 173.137 152.337 172.95 153.377C172.762 154.417 172.171 155.341 171.305 155.946C170.631 156.415 169.826 156.66 169.005 156.646Z" fill="#B39175"/>
<path d="M195.935 131.036H195.605C192.772 130.795 189.993 130.12 187.365 129.036C184.619 127.918 182.068 126.372 179.805 124.456C179.033 123.76 178.563 122.79 178.493 121.753C178.424 120.716 178.761 119.693 179.433 118.9C180.105 118.107 181.059 117.607 182.094 117.505C183.128 117.404 184.162 117.709 184.975 118.356C188.157 121.05 192.1 122.683 196.255 123.026C196.78 123.047 197.296 123.171 197.774 123.392C198.251 123.612 198.68 123.924 199.037 124.311C199.393 124.697 199.67 125.15 199.852 125.643C200.033 126.137 200.116 126.661 200.095 127.186C200.074 127.711 199.95 128.227 199.729 128.705C199.509 129.182 199.197 129.611 198.81 129.968C198.424 130.324 197.971 130.601 197.478 130.783C196.985 130.964 196.46 131.047 195.935 131.026V131.036Z" fill="#B39175"/>
<path d="M195.295 94.6561C194.587 94.6624 193.889 94.4806 193.275 94.1292C192.66 93.7778 192.149 93.2695 191.795 92.6561C189.55 88.6282 185.945 85.5302 181.625 83.9161C180.64 83.5377 179.844 82.7852 179.411 81.8225C178.978 80.8599 178.943 79.7651 179.314 78.7769C179.684 77.7886 180.431 76.9869 181.39 76.5466C182.349 76.1062 183.444 76.0629 184.435 76.4261C190.523 78.706 195.604 83.0715 198.775 88.7461C199.292 89.6706 199.422 90.7626 199.135 91.7825C198.848 92.8024 198.168 93.6668 197.245 94.1861C196.645 94.5058 195.974 94.6676 195.295 94.6561Z" fill="#B39175"/>
<path d="M178.815 57.0161C172.388 57.0233 166.22 54.4807 161.665 49.9461C160.913 49.1969 160.49 48.1797 160.488 47.1182C160.486 46.0567 160.906 45.038 161.655 44.2861C162.404 43.5342 163.422 43.1108 164.483 43.1089C165.544 43.107 166.563 43.5269 167.315 44.2761C169.227 46.1752 171.578 47.5717 174.161 48.3412C176.743 49.1107 179.476 49.2292 182.115 48.6861C182.636 48.5606 183.178 48.5412 183.706 48.6289C184.235 48.7167 184.741 48.9099 185.194 49.1971C185.647 49.4843 186.037 49.8595 186.342 50.3006C186.647 50.7417 186.86 51.2395 186.969 51.7645C187.077 52.2896 187.079 52.8311 186.974 53.3569C186.87 53.8827 186.66 54.3821 186.358 54.8254C186.057 55.2686 185.669 55.6467 185.219 55.9372C184.768 56.2276 184.263 56.4245 183.735 56.5161C182.117 56.8518 180.468 57.0193 178.815 57.0161Z" fill="#B39175"/>
<path d="M164.095 88.8261C163.751 88.8248 163.418 88.7062 163.151 88.4898C162.883 88.2734 162.698 87.9722 162.625 87.6361C161.699 83.2408 160.472 78.9141 158.955 74.6861C157.34 70.1726 155.401 65.7813 153.155 61.5461C152.981 61.1961 152.949 60.792 153.066 60.419C153.184 60.0459 153.442 59.733 153.785 59.5461C154.133 59.3657 154.538 59.3296 154.912 59.4456C155.287 59.5617 155.6 59.8205 155.785 60.1661C158.108 64.5292 160.113 69.0543 161.785 73.7061C163.34 78.0638 164.603 82.5203 165.565 87.0461C165.606 87.2386 165.608 87.4372 165.572 87.6306C165.536 87.824 165.462 88.0083 165.354 88.1728C165.246 88.3374 165.107 88.479 164.944 88.5894C164.781 88.6998 164.598 88.7769 164.405 88.8162C164.303 88.8341 164.198 88.8375 164.095 88.8261Z" fill="#BC9C86"/>
<path d="M170.635 90.8661C170.291 90.8667 169.957 90.7487 169.689 90.532C169.421 90.3153 169.236 90.0131 169.165 89.6761C167.239 80.5808 164.052 71.7992 159.695 63.5861C159.593 63.4114 159.527 63.2177 159.501 63.0168C159.476 62.8158 159.491 62.6118 159.547 62.417C159.602 62.2222 159.696 62.0406 159.824 61.8833C159.951 61.7259 160.109 61.596 160.289 61.5014C160.468 61.4067 160.664 61.3494 160.866 61.3327C161.068 61.3161 161.271 61.3405 161.463 61.4045C161.655 61.4684 161.833 61.5707 161.984 61.705C162.136 61.8394 162.259 62.003 162.345 62.1861C164.671 66.5446 166.676 71.0666 168.345 75.7161C169.906 80.073 171.172 84.5296 172.135 89.0561C172.176 89.2492 172.179 89.4485 172.143 89.6425C172.106 89.8365 172.032 90.0215 171.925 90.1869C171.817 90.3523 171.678 90.4947 171.515 90.6062C171.352 90.7176 171.168 90.7957 170.975 90.8361C170.863 90.858 170.749 90.8681 170.635 90.8661Z" fill="#BC9C86"/>
<path d="M174.845 88.1361C174.453 88.1336 174.077 87.9796 173.795 87.7061C168.931 82.9313 162.579 79.9667 155.795 79.3061C155.397 79.269 155.031 79.0753 154.776 78.7678C154.521 78.4602 154.398 78.0639 154.435 77.6661C154.472 77.2682 154.666 76.9015 154.974 76.6464C155.281 76.3914 155.677 76.269 156.075 76.3061C163.56 77.022 170.571 80.2877 175.935 85.5561C176.145 85.7617 176.289 86.0243 176.351 86.3113C176.413 86.5984 176.389 86.8972 176.283 87.1709C176.176 87.4445 175.992 87.6808 175.752 87.8506C175.513 88.0204 175.229 88.1162 174.935 88.1261L174.845 88.1361Z" fill="#BC9C86"/>
<path d="M171.575 77.6262C171.361 77.626 171.15 77.5804 170.955 77.4925C170.761 77.4046 170.587 77.2764 170.445 77.1162C165.943 71.9878 159.813 68.566 153.085 67.4262C152.687 67.3599 152.332 67.1383 152.098 66.8101C151.863 66.4819 151.769 66.074 151.835 65.6762C151.901 65.2784 152.123 64.9232 152.451 64.6888C152.779 64.4544 153.187 64.3599 153.585 64.4262C160.998 65.6846 167.751 69.46 172.705 75.1162C172.835 75.2645 172.935 75.437 172.999 75.6239C173.062 75.8108 173.088 76.0083 173.075 76.2053C173.062 76.4022 173.01 76.5947 172.923 76.7716C172.835 76.9485 172.714 77.1064 172.565 77.2362C172.294 77.4836 171.942 77.6225 171.575 77.6262Z" fill="#BC9C86"/>
<path d="M57.1851 144.286C56.9609 144.319 56.732 144.301 56.5157 144.234C56.2993 144.166 56.1009 144.051 55.9351 143.896C51 139.261 46.7355 133.96 43.2652 128.146C43.1518 127.977 43.074 127.787 43.0365 127.587C42.9989 127.387 43.0025 127.182 43.0469 126.983C43.0913 126.785 43.1756 126.597 43.2947 126.432C43.4138 126.267 43.5652 126.128 43.7397 126.024C43.9142 125.919 44.1082 125.851 44.3098 125.824C44.5114 125.797 44.7164 125.811 44.9124 125.865C45.1084 125.92 45.2914 126.013 45.45 126.141C45.6086 126.268 45.7397 126.427 45.8352 126.606C47.4513 129.295 49.2383 131.877 51.1851 134.336C53.2721 136.953 55.5446 139.416 57.9851 141.706C58.2731 141.979 58.4419 142.355 58.455 142.752C58.4681 143.149 58.3245 143.535 58.0551 143.826C57.8256 144.074 57.5189 144.236 57.1851 144.286Z" fill="#BC9C86"/>
<path d="M52.1851 145.026C51.9607 145.062 51.7311 145.046 51.5142 144.978C51.2973 144.91 51.0991 144.793 50.9351 144.636C45.9999 140.001 41.7355 134.7 38.2651 128.886C38.164 128.717 38.0972 128.529 38.0686 128.334C38.04 128.139 38.0501 127.94 38.0984 127.749C38.1959 127.362 38.4429 127.03 38.785 126.826C39.1272 126.622 39.5364 126.562 39.9227 126.66C40.3091 126.757 40.6408 127.004 40.845 127.346C42.4495 130.042 44.237 132.625 46.1951 135.076C48.2811 137.694 50.5501 140.16 52.9851 142.456C53.13 142.59 53.247 142.751 53.329 142.931C53.4111 143.11 53.4567 143.304 53.4633 143.502C53.4698 143.699 53.437 143.895 53.3669 144.08C53.2969 144.264 53.1909 144.433 53.0551 144.576C52.8222 144.818 52.5165 144.976 52.1851 145.026Z" fill="#BC9C86"/>
<path d="M46.8151 134.106L45.5651 134.266C42.9036 134.518 40.2186 134.315 37.6251 133.666C37.2392 133.569 36.9076 133.323 36.7032 132.982C36.4987 132.641 36.4383 132.232 36.5351 131.846C36.6319 131.46 36.878 131.129 37.2193 130.924C37.5607 130.72 37.9692 130.659 38.3551 130.756C42.9129 131.893 47.7232 131.423 51.9751 129.426C52.1549 129.326 52.3533 129.264 52.5581 129.244C52.7628 129.224 52.9695 129.247 53.1653 129.31C53.361 129.373 53.5416 129.476 53.696 129.612C53.8503 129.748 53.9749 129.914 54.0622 130.101C54.1495 130.287 54.1976 130.489 54.2034 130.695C54.2092 130.9 54.1726 131.105 54.096 131.296C54.0193 131.487 53.9043 131.66 53.7579 131.805C53.6115 131.949 53.437 132.062 53.2451 132.136C51.2081 133.1 49.0423 133.763 46.8151 134.106Z" fill="#BC9C86"/>
<path d="M50.2851 141.756H50.1852C47.5272 142.149 44.8215 142.085 42.1852 141.566C41.794 141.489 41.4493 141.26 41.2271 140.929C41.0049 140.598 40.9233 140.192 41.0002 139.801C41.0771 139.41 41.3063 139.065 41.6373 138.843C41.9683 138.621 42.374 138.539 42.7652 138.616C45.052 139.068 47.399 139.125 49.7052 138.786C52.0132 138.452 54.246 137.721 56.3052 136.626C56.6544 136.461 57.054 136.437 57.4206 136.559C57.7872 136.681 58.0925 136.94 58.273 137.281C58.4535 137.623 58.4952 138.021 58.3894 138.393C58.2836 138.764 58.0385 139.081 57.7052 139.276C55.3876 140.511 52.8795 141.349 50.2851 141.756Z" fill="#BC9C86"/>
<path d="M88.7651 36.1962C90.0912 36.1962 91.3629 35.6694 92.3006 34.7317C93.2383 33.794 93.7651 32.5222 93.7651 31.1962V19.8262C90.4093 20.144 87.0717 20.6313 83.7651 21.2862V31.1962C83.7651 32.5222 84.2919 33.794 85.2296 34.7317C86.1672 35.6694 87.439 36.1962 88.7651 36.1962Z" fill="#B39175"/>
<path d="M102.945 25.5061C102.538 25.5058 102.133 25.4418 101.745 25.3161C98.3893 24.2849 95.4297 22.2503 93.2651 19.4861C88.2651 12.9761 90.0052 5.28612 90.4152 3.80612C90.6989 2.78371 91.3773 1.9159 92.3009 1.39361C93.2245 0.871325 94.3178 0.737335 95.3402 1.02112C96.3626 1.3049 97.2304 1.98321 97.7527 2.90683C98.275 3.83044 98.4089 4.92369 98.1251 5.9461C97.9851 6.4561 96.8252 11.0161 99.5852 14.5861C100.755 16.0585 102.346 17.1398 104.145 17.6861C105.06 17.9703 105.843 18.5734 106.351 19.3858C106.858 20.1982 107.058 21.1659 106.913 22.1129C106.767 23.0598 106.287 23.9232 105.559 24.5459C104.831 25.1687 103.903 25.5094 102.945 25.5061Z" fill="#B39175"/>
<path d="M116.325 35.9561C117.651 35.9561 118.923 35.4294 119.861 34.4917C120.798 33.554 121.325 32.2822 121.325 30.9561V21.2261C118.018 20.5857 114.68 20.1118 111.325 19.8062V30.9561C111.325 32.2822 111.852 33.554 112.79 34.4917C113.727 35.4294 114.999 35.9561 116.325 35.9561Z" fill="#B39175"/>
</svg>
