<svg width="178" height="236" viewBox="0 0 178 236" fill="none" xmlns="http://www.w3.org/2000/svg">
<path d="M125.355 117.936C123.065 114.496 114.125 97.8262 88.5849 97.8262C63.0449 97.8262 54.0949 114.496 51.8049 117.936C36.0849 141.566 47.4949 186.226 88.5849 218.756C129.665 186.226 141.075 141.566 125.355 117.936Z" fill="#BC9C86"/>
<path d="M58.5649 235.426H67.5649C68.4426 235.415 69.292 235.115 69.9824 234.573C70.6727 234.03 71.1655 233.276 71.3848 232.426L74.5349 220.426C74.5349 220.426 54.7349 210.156 46.7549 208.166C47.3449 213.706 52.6349 227.216 54.9349 232.896C55.2239 233.628 55.7225 234.259 56.3682 234.709C57.0139 235.159 57.778 235.409 58.5649 235.426Z" fill="#CBAC92"/>
<path d="M118.535 235.426H109.535C108.656 235.417 107.804 235.118 107.111 234.576C106.419 234.033 105.925 233.278 105.705 232.426L102.565 220.426C102.565 220.426 122.365 210.156 130.335 208.166C129.745 213.706 124.455 227.216 122.155 232.896C121.867 233.627 121.369 234.256 120.726 234.706C120.082 235.156 119.32 235.407 118.535 235.426Z" fill="#CBAC92"/>
<path d="M147.605 165.346C149.395 168.026 157.135 180.116 153.205 187.496C151.465 190.776 146.085 191.106 142.565 190.036C136.975 188.326 134.725 182.146 131.635 173.256C128.875 165.256 128.185 153.366 128.075 149.996C127.875 144.426 141.875 156.756 147.605 165.346Z" fill="#CBAC92"/>
<path d="M29.4949 165.346C27.7049 168.026 19.9749 180.116 23.8949 187.496C25.6349 190.776 31.0148 191.106 34.5348 190.036C40.1248 188.326 42.3749 182.146 45.4649 173.256C48.2249 165.256 48.9249 153.366 49.0249 149.996C49.1849 144.426 35.1849 156.756 29.4949 165.346Z" fill="#CBAC92"/>
<path d="M116.025 136.206C109.565 132.596 98.1149 130.206 88.6749 130.206C79.2349 130.206 67.7849 132.566 61.3249 136.206C47.9449 143.656 39.3249 160.506 39.9849 186.206C40.7649 215.706 61.0949 221.046 88.5349 221.046C115.975 221.046 136.305 215.706 137.085 186.206C137.765 160.506 129.405 143.656 116.025 136.206Z" fill="#CBAC92"/>
<path d="M103.525 220.276C115.175 215.726 121.455 202.476 118.525 189.656L118.165 188.076C115.285 175.406 103.825 166.816 92.1648 166.816H85.0948C73.3748 166.816 61.9248 175.406 59.0948 188.076L58.7348 189.656C55.7348 202.476 62.0449 215.726 73.7349 220.276C83.7098 221.278 93.7599 221.278 103.735 220.276H103.525Z" fill="#F8EFDC"/>
<path d="M45.725 34.8262C55.1635 34.8262 62.815 27.1748 62.815 17.7362C62.815 8.29769 55.1635 0.64624 45.725 0.64624C36.2864 0.64624 28.635 8.29769 28.635 17.7362C28.635 27.1748 36.2864 34.8262 45.725 34.8262Z" fill="#CBAC92"/>
<path d="M45.725 27.0762C50.8833 27.0762 55.065 22.8946 55.065 17.7362C55.065 12.5779 50.8833 8.39624 45.725 8.39624C40.5666 8.39624 36.385 12.5779 36.385 17.7362C36.385 22.8946 40.5666 27.0762 45.725 27.0762Z" fill="#F8EFDC"/>
<path d="M131.365 34.8262C140.804 34.8262 148.455 27.1748 148.455 17.7362C148.455 8.29769 140.804 0.64624 131.365 0.64624C121.926 0.64624 114.275 8.29769 114.275 17.7362C114.275 27.1748 121.926 34.8262 131.365 34.8262Z" fill="#CBAC92"/>
<path d="M131.365 27.0762C136.523 27.0762 140.705 22.8946 140.705 17.7362C140.705 12.5779 136.523 8.39624 131.365 8.39624C126.207 8.39624 122.025 12.5779 122.025 17.7362C122.025 22.8946 126.207 27.0762 131.365 27.0762Z" fill="#F8EFDC"/>
<path d="M88.675 9.8562C126.555 9.8562 174.155 33.5162 177.205 86.1062C179.955 133.436 142.595 159.106 88.675 159.106C34.755 159.106 -2.61501 133.426 0.184991 86.1062C3.18499 33.5162 50.785 9.8562 88.675 9.8562Z" fill="#CBAC92"/>
<path d="M85.7151 126.366C85.3581 126.363 85.0139 126.233 84.7443 125.999C84.4747 125.765 84.2974 125.442 84.2444 125.089C84.1914 124.736 84.2661 124.376 84.455 124.073C84.6439 123.77 84.9347 123.544 85.2751 123.436C86.9705 122.794 88.7901 122.548 90.5951 122.716C90.993 122.728 91.3697 122.898 91.6426 123.187C91.9155 123.477 92.062 123.863 92.0501 124.261C92.0381 124.659 91.8686 125.036 91.5789 125.309C91.2891 125.582 90.9029 125.728 90.505 125.716C89.0295 125.556 87.5371 125.755 86.1551 126.296C86.0131 126.343 85.8646 126.367 85.7151 126.366Z" fill="#816A55"/>
<path d="M79.8948 113.016L88.5748 117.046L97.0648 113.016L88.5848 108.366L79.8948 113.016Z" fill="#DDB5A9"/>
<path d="M107.265 110.426C106.895 109.872 106.407 109.405 105.837 109.06C105.267 108.714 104.628 108.498 103.965 108.426C102.903 108.394 101.865 108.75 101.045 109.426C99.2949 110.746 94.3549 111.226 92.0449 109.286C90.3849 107.906 90.185 105.376 90.205 103.996C90.209 103.799 90.174 103.603 90.1023 103.42C90.0306 103.236 89.9234 103.069 89.7869 102.927C89.6504 102.785 89.4873 102.671 89.3068 102.592C89.1263 102.513 88.932 102.47 88.735 102.466H88.425C88.228 102.47 88.0337 102.513 87.8532 102.592C87.6727 102.671 87.5095 102.785 87.3729 102.927C87.2364 103.069 87.1292 103.236 87.0575 103.42C86.9858 103.603 86.951 103.799 86.955 103.996C86.955 105.386 86.7849 107.916 85.1349 109.296C82.8149 111.236 77.875 110.766 76.075 109.416C75.2666 108.747 74.244 108.392 73.195 108.416C72.5329 108.491 71.8949 108.708 71.3251 109.053C70.7553 109.399 70.2674 109.864 69.895 110.416C69.651 110.732 69.5423 111.131 69.593 111.527C69.6436 111.923 69.8493 112.282 70.1649 112.526C70.4805 112.77 70.8802 112.879 71.2759 112.828C71.6716 112.778 72.0309 112.572 72.2749 112.256C72.5223 111.839 72.9191 111.532 73.3849 111.396C73.7352 111.452 74.0619 111.608 74.325 111.846C74.9961 112.324 75.7386 112.691 76.5249 112.936C77.8402 114.59 79.4851 115.952 81.355 116.936C83.596 118.083 86.0775 118.681 88.595 118.681C91.1125 118.681 93.594 118.083 95.835 116.936C97.7064 115.95 99.3541 114.588 100.675 112.936C101.478 112.679 102.236 112.302 102.925 111.816C103.166 111.596 103.47 111.456 103.795 111.416C104.095 111.416 104.505 111.746 104.905 112.266C105.026 112.422 105.176 112.552 105.347 112.65C105.518 112.747 105.707 112.81 105.903 112.835C106.098 112.859 106.296 112.845 106.486 112.793C106.676 112.741 106.854 112.652 107.01 112.531C107.166 112.41 107.296 112.26 107.393 112.089C107.491 111.918 107.554 111.729 107.578 111.534C107.603 111.338 107.589 111.14 107.537 110.95C107.485 110.76 107.396 110.582 107.275 110.426H107.265ZM82.725 113.996C82.325 113.786 81.935 113.856 81.565 113.606C83.5567 113.533 85.4746 112.833 87.0449 111.606C87.662 110.991 88.1784 110.282 88.575 109.506C88.9812 110.279 89.5003 110.987 90.115 111.606C91.6871 112.837 93.6094 113.538 95.605 113.606C95.225 113.866 94.835 113.796 94.435 114.006C92.6177 114.924 90.6086 115.397 88.5728 115.386C86.537 115.376 84.5328 114.882 82.725 113.946V113.996Z" fill="#816A55"/>
<path d="M88.595 106.186C91.0692 106.186 93.075 104.709 93.075 102.886C93.075 101.064 91.0692 99.5862 88.595 99.5862C86.1207 99.5862 84.115 101.064 84.115 102.886C84.115 104.709 86.1207 106.186 88.595 106.186Z" fill="#816A55"/>
<path d="M47.9349 96.4262C47.1891 96.432 46.4679 96.1599 45.9119 95.6629C45.3559 95.1658 45.005 94.4795 44.9276 93.7377C44.8502 92.996 45.0518 92.252 45.4931 91.6509C45.9345 91.0497 46.584 90.6345 47.3149 90.4862C49.4601 90.0268 51.519 89.2303 53.4148 88.1262C53.7563 87.9091 54.1382 87.7634 54.5374 87.6977C54.9366 87.6321 55.345 87.6478 55.738 87.7441C56.131 87.8404 56.5004 88.0151 56.8241 88.2579C57.1478 88.5006 57.4191 88.8063 57.6216 89.1566C57.824 89.5069 57.9536 89.8946 58.0024 90.2962C58.0512 90.6979 58.0182 91.1052 57.9055 91.4938C57.7928 91.8824 57.6026 92.2442 57.3464 92.5574C57.0902 92.8705 56.7734 93.1287 56.4148 93.3162C53.9667 94.7261 51.3103 95.7387 48.5448 96.3162C48.3453 96.3715 48.1411 96.4083 47.9349 96.4262Z" fill="#816A55"/>
<path d="M59.5749 101.876C59.2621 101.872 58.9583 101.771 58.7055 101.587C58.4526 101.403 58.2632 101.145 58.1633 100.849C58.0634 100.552 58.058 100.232 58.1479 99.9326C58.2377 99.633 58.4183 99.3688 58.6648 99.1763C59.98 98.18 61.4359 97.3847 62.9848 96.8163C63.1745 96.7248 63.3813 96.6742 63.5918 96.6679C63.8023 96.6616 64.0117 96.6997 64.2065 96.7797C64.4013 96.8597 64.5771 96.9798 64.7224 97.1322C64.8677 97.2846 64.9792 97.4659 65.0498 97.6643C65.1205 97.8627 65.1485 98.0737 65.1322 98.2837C65.1158 98.4936 65.0555 98.6978 64.955 98.8829C64.8545 99.0679 64.7162 99.2298 64.5491 99.3578C64.3819 99.4859 64.1897 99.5774 63.9848 99.6263C62.7187 100.095 61.5291 100.749 60.4549 101.566C60.203 101.762 59.8941 101.871 59.5749 101.876Z" fill="#816A55"/>
<path d="M129.185 96.4262C128.976 96.4221 128.769 96.3987 128.565 96.3562C125.799 95.7788 123.143 94.7662 120.695 93.3563C120.336 93.1687 120.02 92.9106 119.763 92.5974C119.507 92.2842 119.317 91.9224 119.204 91.5339C119.092 91.1453 119.059 90.7379 119.107 90.3362C119.156 89.9346 119.286 89.547 119.488 89.1967C119.691 88.8464 119.962 88.5407 120.286 88.2979C120.609 88.0552 120.979 87.8804 121.372 87.7841C121.765 87.6879 122.173 87.6721 122.572 87.7378C122.972 87.8034 123.353 87.9492 123.695 88.1662C125.591 89.2688 127.65 90.0652 129.795 90.5262C130.489 90.7067 131.096 91.13 131.505 91.7192C131.914 92.3085 132.098 93.0248 132.024 93.7383C131.95 94.4518 131.623 95.1152 131.103 95.6083C130.582 96.1015 129.901 96.3916 129.185 96.4262Z" fill="#816A55"/>
<path d="M116.185 101.006C115.945 101.007 115.708 100.95 115.495 100.838C115.282 100.727 115.1 100.565 114.965 100.366C113.97 98.9496 112.718 97.7319 111.275 96.7763C110.96 96.5487 110.745 96.2075 110.677 95.8249C110.608 95.4422 110.691 95.0479 110.908 94.725C111.124 94.4022 111.458 94.176 111.838 94.0942C112.218 94.0123 112.615 94.0812 112.945 94.2863C114.689 95.4504 116.204 96.9249 117.415 98.6363C117.571 98.8621 117.663 99.1263 117.681 99.4004C117.698 99.6745 117.64 99.9482 117.514 100.192C117.387 100.436 117.197 100.64 116.962 100.784C116.728 100.927 116.459 101.004 116.185 101.006Z" fill="#816A55"/>
<path d="M98.6251 82.9462C98.2457 82.9445 97.8812 82.7992 97.6047 82.5394C97.3282 82.2796 97.1604 81.9247 97.1351 81.5462C97.0491 80.0193 97.3166 78.4932 97.9167 77.0866C98.5168 75.6799 99.4335 74.4308 100.595 73.4362C100.902 73.2073 101.284 73.1041 101.664 73.1478C102.044 73.1915 102.393 73.3787 102.64 73.6713C102.886 73.9638 103.012 74.3395 102.99 74.7215C102.969 75.1035 102.803 75.4629 102.525 75.7262C101.721 76.4188 101.087 77.2864 100.671 78.2624C100.255 79.2384 100.068 80.2968 100.125 81.3562C100.15 81.7526 100.016 82.1426 99.7539 82.4406C99.4914 82.7387 99.1215 82.9205 98.7252 82.9462H98.6251Z" fill="#816A55"/>
<path d="M79.6052 81.5062C79.2074 81.5062 78.8259 81.3482 78.5446 81.0669C78.2633 80.7856 78.1052 80.404 78.1052 80.0062V75.3662C78.1052 74.9684 78.2633 74.5869 78.5446 74.3055C78.8259 74.0242 79.2074 73.8662 79.6052 73.8662C80.003 73.8662 80.3846 74.0242 80.6659 74.3055C80.9472 74.5869 81.1052 74.9684 81.1052 75.3662V80.0062C81.1052 80.404 80.9472 80.7856 80.6659 81.0669C80.3846 81.3482 80.003 81.5062 79.6052 81.5062Z" fill="#816A55"/>
<path d="M74.0751 79.0262C73.7092 79.0288 73.3552 78.8968 73.0804 78.6552C72.8056 78.4136 72.6293 78.0794 72.5851 77.7162C72.4217 76.4052 72.0679 75.1251 71.5351 73.9162C71.4539 73.7338 71.4096 73.5371 71.405 73.3375C71.4003 73.1379 71.4352 72.9394 71.5077 72.7534C71.5803 72.5674 71.689 72.3977 71.8276 72.2539C71.9661 72.1102 72.1319 71.9954 72.3151 71.9162C72.4965 71.8319 72.6929 71.785 72.8928 71.7782C73.0926 71.7714 73.2918 71.805 73.4784 71.8768C73.6651 71.9487 73.8353 72.0574 73.9791 72.1964C74.1228 72.3355 74.2371 72.502 74.3151 72.6862C74.964 74.1628 75.3952 75.7257 75.5951 77.3262C75.6189 77.5219 75.6038 77.7203 75.5508 77.9102C75.4978 78.1 75.408 78.2776 75.2863 78.4327C75.1646 78.5878 75.0135 78.7174 74.8417 78.8141C74.6699 78.9108 74.4808 78.9726 74.2851 78.9962L74.0751 79.0262Z" fill="#816A55"/>
<path d="M74.7648 26.6561C76.0909 26.6561 77.3627 26.1293 78.3004 25.1917C79.238 24.254 79.7648 22.9822 79.7648 21.6561V10.2861C76.4092 10.6006 73.0717 11.0846 69.7649 11.7361V21.6561C69.7649 22.9822 70.2916 24.254 71.2293 25.1917C72.167 26.1293 73.4387 26.6561 74.7648 26.6561Z" fill="#B39175"/>
<path d="M93.5449 27.1462V9.9862C91.9049 9.9062 90.2849 9.8562 88.6749 9.8562C87.0649 9.8562 85.2649 9.9062 83.5449 9.9962V27.1462C83.5449 28.4723 84.0717 29.7441 85.0094 30.6817C85.9471 31.6194 87.2188 32.1462 88.5449 32.1462C89.871 32.1462 91.1428 31.6194 92.0804 30.6817C93.0181 29.7441 93.5449 28.4723 93.5449 27.1462Z" fill="#B39175"/>
<path d="M102.325 26.4263C103.651 26.4263 104.923 25.8996 105.86 24.9619C106.798 24.0242 107.325 22.7524 107.325 21.4263V11.6863C104.018 11.0427 100.68 10.5654 97.325 10.2563V21.4263C97.325 22.7524 97.8517 24.0242 98.7894 24.9619C99.7271 25.8996 100.999 26.4263 102.325 26.4263Z" fill="#B39175"/>
</svg>
