<svg width="178" height="236" viewBox="0 0 178 236" fill="none" xmlns="http://www.w3.org/2000/svg">
<path d="M125.955 117.936C123.665 114.496 114.725 97.826 89.1755 97.826C63.6255 97.826 54.6955 114.496 52.4055 117.936C36.6855 141.566 48.0955 186.226 89.1855 218.756C130.255 186.226 141.675 141.566 125.955 117.936Z" fill="#BAA496"/>
<path d="M59.1853 235.426H68.1853C69.063 235.414 69.9124 235.114 70.6028 234.572C71.2931 234.03 71.7859 233.276 72.0053 232.426L75.1853 220.426C75.1853 220.426 55.3853 210.156 47.4053 208.166C47.9953 213.706 53.2853 227.216 55.5853 232.896C55.8723 233.623 56.3663 234.251 57.0061 234.701C57.646 235.15 58.4036 235.402 59.1853 235.426Z" fill="#CAB49F"/>
<path d="M119.186 235.426H110.186C109.306 235.417 108.454 235.118 107.762 234.575C107.07 234.033 106.575 233.278 106.356 232.426L103.186 220.426C103.186 220.426 122.986 210.156 130.956 208.166C130.366 213.706 125.076 227.216 122.776 232.896C122.489 233.622 121.997 234.248 121.359 234.698C120.721 235.147 119.966 235.4 119.186 235.426Z" fill="#CAB49F"/>
<path d="M148.186 165.346C149.976 168.026 157.716 180.116 153.786 187.496C152.046 190.776 146.666 191.106 143.146 190.036C137.556 188.326 135.306 182.146 132.216 173.256C129.456 165.256 128.766 153.366 128.656 149.996C128.466 144.426 142.466 156.756 148.186 165.346Z" fill="#CAB49F"/>
<path d="M30.0855 165.346C28.2955 168.026 20.5655 180.116 24.4855 187.496C26.2255 190.776 31.6055 191.106 35.1255 190.036C40.7155 188.326 42.9655 182.146 46.0555 173.256C48.8155 165.256 49.5155 153.366 49.6155 149.996C49.7755 144.426 35.7855 156.756 30.0855 165.346Z" fill="#CAB49F"/>
<path d="M116.625 136.206C110.165 132.596 98.7152 130.206 89.2752 130.206C79.8352 130.206 68.3852 132.566 61.9152 136.206C48.5452 143.656 39.9152 160.506 40.5852 186.206C41.3652 215.706 61.6952 221.046 89.1352 221.046C116.575 221.046 136.905 215.706 137.685 186.206C138.365 160.506 130.005 143.656 116.625 136.206Z" fill="#CAB49F"/>
<path d="M104.125 220.276C115.775 215.726 122.055 202.476 119.125 189.656L118.765 188.076C115.885 175.406 104.425 166.816 92.705 166.816H85.645C73.925 166.816 62.475 175.406 59.645 188.076L59.185 189.656C56.185 202.476 62.505 215.726 74.185 220.276C79.1663 220.816 84.1747 221.066 89.185 221.026C94.1753 221.065 99.1637 220.815 104.125 220.276Z" fill="#F2ECDF"/>
<path d="M46.3254 34.8263C55.7639 34.8263 63.4154 27.1748 63.4154 17.7363C63.4154 8.29772 55.7639 0.64624 46.3254 0.64624C36.8868 0.64624 29.2354 8.29772 29.2354 17.7363C29.2354 27.1748 36.8868 34.8263 46.3254 34.8263Z" fill="#CAB49F"/>
<path d="M46.3254 27.0763C51.4837 27.0763 55.6654 22.8946 55.6654 17.7363C55.6654 12.5779 51.4837 8.39624 46.3254 8.39624C41.167 8.39624 36.9854 12.5779 36.9854 17.7363C36.9854 22.8946 41.167 27.0763 46.3254 27.0763Z" fill="#F2ECDF"/>
<path d="M131.965 34.8262C141.404 34.8262 149.055 27.1747 149.055 17.7361C149.055 8.2976 141.404 0.646118 131.965 0.646118C122.527 0.646118 114.875 8.2976 114.875 17.7361C114.875 27.1747 122.527 34.8262 131.965 34.8262Z" fill="#CAB49F"/>
<path d="M131.965 27.0762C137.124 27.0762 141.305 22.8945 141.305 17.7361C141.305 12.5778 137.124 8.39612 131.965 8.39612C126.807 8.39612 122.625 12.5778 122.625 17.7361C122.625 22.8945 126.807 27.0762 131.965 27.0762Z" fill="#F2ECDF"/>
<path d="M89.2756 9.85596C127.156 9.85596 174.756 33.516 177.806 86.106C180.556 133.436 143.196 159.106 89.2756 159.106C35.3556 159.106 -2.0144 133.426 0.735598 86.106C3.7856 33.516 51.3856 9.85596 89.2756 9.85596Z" fill="#CAB49F"/>
<path d="M89.1856 105.756C91.6598 105.756 93.6656 104.279 93.6656 102.456C93.6656 100.634 91.6598 99.1561 89.1856 99.1561C86.7113 99.1561 84.7056 100.634 84.7056 102.456C84.7056 104.279 86.7113 105.756 89.1856 105.756Z" fill="#977C6A"/>
<path d="M89.1856 119.766C90.461 121.323 92.2214 122.407 94.1856 122.846C95.202 123.107 96.2462 123.245 97.2956 123.256C101.296 123.256 105.296 121.396 106.636 117.506C106.768 117.128 106.745 116.713 106.572 116.352C106.398 115.991 106.089 115.714 105.711 115.581C105.333 115.449 104.918 115.471 104.557 115.645C104.196 115.818 103.918 116.128 103.786 116.506C102.706 119.716 98.3656 120.786 94.9756 119.936C93.7936 119.563 92.7562 118.833 92.0059 117.846C91.2556 116.86 90.8293 115.665 90.7856 114.426V104.206H87.5856V114.426C87.5514 115.669 87.1318 116.871 86.3847 117.865C85.6377 118.86 84.6001 119.597 83.4156 119.976C80.0256 120.826 75.6856 119.756 74.6056 116.546C74.473 116.168 74.1957 115.858 73.8347 115.685C73.4736 115.511 73.0585 115.489 72.6806 115.621C72.3027 115.754 71.9929 116.031 71.8194 116.392C71.6459 116.753 71.623 117.168 71.7556 117.546C73.0956 121.436 77.0956 123.296 81.0956 123.296C82.145 123.285 83.1891 123.147 84.2056 122.886C86.1697 122.447 87.9302 121.363 89.2056 119.806" fill="#977C6A"/>
<path d="M48.5352 96.426C47.7894 96.4319 47.0682 96.1597 46.5123 95.6627C45.9563 95.1656 45.6054 94.4793 45.5279 93.7376C45.4505 92.9958 45.6521 92.2519 46.0935 91.6507C46.5349 91.0496 47.1843 90.6343 47.9152 90.486C50.0604 90.0266 52.1193 89.2301 54.0152 88.1261C54.7008 87.7674 55.4985 87.6875 56.2416 87.9031C56.9847 88.1187 57.6158 88.6131 58.0031 89.283C58.3903 89.9529 58.5037 90.7465 58.3196 91.498C58.1355 92.2496 57.6682 92.901 57.0152 93.3161C54.567 94.726 51.9107 95.7386 49.1452 96.3161C48.9456 96.3713 48.7415 96.4081 48.5352 96.426Z" fill="#977C6A"/>
<path d="M129.735 96.426C129.527 96.4219 129.319 96.3984 129.115 96.356C126.35 95.7785 123.693 94.7659 121.245 93.356C120.887 93.1684 120.57 92.9103 120.314 92.5971C120.057 92.284 119.867 91.9222 119.755 91.5336C119.642 91.145 119.609 90.7376 119.658 90.336C119.706 89.9343 119.836 89.5467 120.038 89.1964C120.241 88.8461 120.512 88.5404 120.836 88.2976C121.16 88.0549 121.529 87.8802 121.922 87.7839C122.315 87.6876 122.723 87.6719 123.123 87.7375C123.522 87.8032 123.904 87.9489 124.245 88.166C126.142 89.2685 128.2 90.065 130.345 90.526C131.076 90.6743 131.726 91.0895 132.167 91.6906C132.608 92.2918 132.81 93.0358 132.732 93.7775C132.655 94.5192 132.304 95.2056 131.748 95.7026C131.192 96.1997 130.471 96.4718 129.725 96.466L129.735 96.426Z" fill="#977C6A"/>
<path d="M93.8253 115.676C95.4453 113.676 94.1853 109.276 90.5953 104.676C90.5851 104.662 90.5716 104.65 90.556 104.642C90.5403 104.634 90.5229 104.629 90.5053 104.629C90.4876 104.629 90.4702 104.634 90.4546 104.642C90.4389 104.65 90.4254 104.662 90.4153 104.676C88.1753 110.036 88.1453 114.676 90.2253 116.116C90.7798 116.475 91.4443 116.624 92.0989 116.536C92.7535 116.448 93.3552 116.129 93.7953 115.636L93.8253 115.676Z" fill="#EEE8E6"/>
<path d="M75.3652 26.6561C76.6913 26.6561 77.9631 26.1294 78.9008 25.1917C79.8384 24.254 80.3652 22.9822 80.3652 21.6561V10.2861C77.0096 10.6006 73.672 11.0846 70.3652 11.7361V21.6561C70.3652 22.9822 70.892 24.254 71.8297 25.1917C72.7674 26.1294 74.0392 26.6561 75.3652 26.6561Z" fill="#B19A82"/>
<path d="M94.1851 27.1461V9.98608C92.5451 9.90608 90.9251 9.85608 89.3151 9.85608C87.7051 9.85608 85.9051 9.90609 84.1851 9.99609V27.1461C84.1851 28.4721 84.7118 29.744 85.6495 30.6816C86.5872 31.6193 87.859 32.1461 89.1851 32.1461C90.5111 32.1461 91.7829 31.6193 92.7206 30.6816C93.6583 29.744 94.1851 28.4721 94.1851 27.1461Z" fill="#B19A82"/>
<path d="M102.916 26.4261C104.242 26.4261 105.513 25.8993 106.451 24.9616C107.389 24.0239 107.916 22.7522 107.916 21.4261V11.6961C104.608 11.051 101.271 10.5738 97.9155 10.2661V21.4261C97.9155 22.7522 98.4423 24.0239 99.38 24.9616C100.318 25.8993 101.589 26.4261 102.916 26.4261Z" fill="#B19A82"/>
</svg>
