<svg width="200" height="245" viewBox="0 0 200 245" fill="none" xmlns="http://www.w3.org/2000/svg">
<path d="M139.185 127.256C136.895 123.826 127.955 107.156 102.415 107.156C76.8755 107.156 67.9255 123.826 65.6455 127.256C49.9155 150.896 61.3355 195.546 102.415 228.076C143.465 195.546 154.875 150.896 139.185 127.256Z" fill="#BAA496"/>
<path d="M130.585 208.426C130.249 208.427 129.914 208.39 129.585 208.316C127.596 207.829 125.736 206.917 124.132 205.644C122.528 204.37 121.22 202.764 120.295 200.936C119.815 199.989 119.731 198.89 120.061 197.881C120.391 196.873 121.109 196.036 122.055 195.556C123.002 195.076 124.101 194.992 125.11 195.322C126.119 195.652 126.955 196.369 127.435 197.316C127.886 198.209 128.544 198.981 129.355 199.566C129.993 200.035 130.717 200.375 131.485 200.566C132.44 200.795 133.277 201.366 133.837 202.171C134.398 202.977 134.643 203.96 134.525 204.934C134.408 205.908 133.937 206.806 133.201 207.455C132.465 208.104 131.517 208.461 130.535 208.456L130.585 208.426Z" fill="#B19A82"/>
<path d="M137.255 172.546C136.359 172.543 135.489 172.239 134.786 171.682C134.083 171.126 133.588 170.349 133.379 169.477C133.17 168.605 133.26 167.689 133.635 166.874C134.01 166.06 134.647 165.395 135.445 164.986C137.669 163.853 140.099 163.181 142.588 163.009C145.078 162.837 147.577 163.169 149.935 163.986C150.939 164.331 151.765 165.06 152.231 166.014C152.697 166.967 152.765 168.067 152.42 169.071C152.075 170.075 151.346 170.901 150.392 171.367C149.439 171.833 148.339 171.901 147.335 171.556C146.099 171.128 144.793 170.934 143.485 170.986C141.946 171.047 140.439 171.439 139.065 172.136C138.502 172.413 137.882 172.553 137.255 172.546Z" fill="#B19A82"/>
<path d="M128.036 124.676C126.975 124.736 125.934 124.372 125.141 123.664C124.349 122.956 123.87 121.962 123.811 120.901C123.751 119.84 124.115 118.799 124.823 118.007C125.531 117.214 126.525 116.736 127.586 116.676C129.105 116.514 130.572 116.026 131.886 115.246C132.912 114.637 133.831 113.864 134.606 112.956C134.947 112.557 135.364 112.229 135.832 111.991C136.3 111.752 136.811 111.609 137.334 111.568C137.858 111.527 138.385 111.59 138.884 111.752C139.384 111.915 139.846 112.175 140.246 112.516C140.645 112.857 140.973 113.274 141.211 113.742C141.449 114.211 141.593 114.721 141.634 115.245C141.674 115.769 141.612 116.295 141.449 116.795C141.286 117.294 141.027 117.757 140.686 118.156C137.592 121.789 133.228 124.103 128.486 124.626L128.036 124.676Z" fill="#B19A82"/>
<path d="M90.9554 115.426C90.2519 115.422 89.5621 115.232 88.9554 114.876C86.5081 113.44 84.5338 111.319 83.2754 108.776C81.9818 106.135 81.5082 103.168 81.9154 100.256C82.0666 99.2058 82.6288 98.2586 83.4783 97.6229C84.3278 96.9871 85.3951 96.7148 86.4454 96.866C87.4956 97.0172 88.4428 97.5795 89.0786 98.429C89.7143 99.2785 89.9866 100.346 89.8354 101.396C89.6487 102.682 89.8507 103.995 90.4156 105.166C90.9804 106.337 91.8823 107.312 93.0054 107.966C93.7659 108.407 94.3599 109.087 94.6955 109.899C95.0311 110.712 95.0895 111.613 94.8619 112.462C94.6342 113.311 94.133 114.062 93.4359 114.597C92.7388 115.133 91.8846 115.425 91.0054 115.426H90.9554Z" fill="#B19A82"/>
<path d="M57.0354 183.126C56.1055 183.126 55.1778 183.036 54.2654 182.856C53.7463 182.756 53.2521 182.554 52.8115 182.262C52.3709 181.97 51.9925 181.594 51.6983 181.154C51.4041 180.715 51.1998 180.222 51.0974 179.704C50.9949 179.185 50.9962 178.651 51.1013 178.133C51.2064 177.615 51.4131 177.123 51.7095 176.685C52.0059 176.248 52.3862 175.873 52.8282 175.583C53.2703 175.293 53.7655 175.094 54.285 174.996C54.8046 174.899 55.3384 174.906 55.8554 175.016C56.8966 175.23 57.9768 175.151 58.9754 174.786C60.2368 174.293 61.2941 173.387 61.9754 172.216C62.2254 171.738 62.5696 171.316 62.9872 170.974C63.4048 170.632 63.8871 170.379 64.4052 170.229C64.9233 170.078 65.4665 170.034 66.002 170.099C66.5376 170.164 67.0544 170.337 67.5215 170.607C67.9886 170.877 68.3962 171.239 68.7198 171.67C69.0435 172.102 69.2765 172.595 69.4049 173.119C69.5332 173.643 69.5542 174.187 69.4667 174.719C69.3791 175.252 69.1848 175.761 68.8954 176.216C67.2793 179.009 64.7404 181.152 61.7154 182.276C60.2169 182.83 58.633 183.118 57.0354 183.126Z" fill="#B19A82"/>
<path d="M82.5254 220.996C81.5673 220.999 80.6399 220.659 79.9118 220.036C79.1837 219.413 78.7033 218.55 78.558 217.603C78.4127 216.656 78.6121 215.688 79.12 214.876C79.6278 214.063 80.4104 213.46 81.3254 213.176C81.6839 213.067 81.9934 212.837 82.2012 212.525C82.4091 212.213 82.5025 211.839 82.4654 211.466C82.3686 210.405 82.6972 209.349 83.3789 208.531C84.0606 207.712 85.0395 207.198 86.1004 207.101C87.1612 207.004 88.2171 207.333 89.0357 208.015C89.8543 208.696 90.3686 209.675 90.4654 210.736C90.6699 212.931 90.1139 215.129 88.8904 216.962C87.6669 218.796 85.8504 220.153 83.7454 220.806C83.3518 220.936 82.9397 221 82.5254 220.996Z" fill="#B19A82"/>
<path d="M68.1856 131.736C67.9957 131.746 67.8055 131.746 67.6156 131.736C65.4532 131.424 63.4466 130.431 61.8874 128.901C60.3282 127.37 59.2977 125.382 58.9456 123.226C58.8075 122.195 59.0763 121.151 59.695 120.315C60.3137 119.479 61.2337 118.917 62.2599 118.748C63.2861 118.579 64.3378 118.816 65.192 119.409C66.0462 120.003 66.6357 120.905 66.8356 121.926C66.9212 122.432 67.1706 122.896 67.5456 123.246C67.8832 123.552 68.3045 123.751 68.7556 123.816C69.8165 123.892 70.8039 124.385 71.5006 125.189C72.1973 125.993 72.5462 127.04 72.4706 128.101C72.395 129.162 71.9011 130.149 71.0975 130.846C70.2939 131.543 69.2465 131.892 68.1856 131.816V131.736Z" fill="#B19A82"/>
<path d="M72.3657 244.786H81.3657C82.2433 244.774 83.0928 244.474 83.7831 243.932C84.4735 243.39 84.9663 242.636 85.1857 241.786L88.3357 229.786C88.3357 229.786 68.5357 219.516 60.5557 217.526C61.1457 223.066 66.4357 236.576 68.7357 242.256C69.0247 242.988 69.5233 243.619 70.169 244.069C70.8147 244.519 71.5788 244.768 72.3657 244.786Z" fill="#CAB49F"/>
<path d="M132.336 244.786H123.336C122.456 244.777 121.605 244.478 120.912 243.935C120.22 243.393 119.726 242.638 119.506 241.786L116.366 229.786C116.366 229.786 136.186 219.516 144.186 217.526C143.596 223.066 138.306 236.576 136.006 242.256C135.714 242.994 135.209 243.629 134.556 244.08C133.902 244.53 133.129 244.776 132.336 244.786Z" fill="#CAB49F"/>
<path d="M161.406 174.666C163.196 177.346 170.936 189.436 167.006 196.816C165.266 200.096 159.886 200.426 156.366 199.356C150.776 197.646 148.526 191.466 145.436 182.576C142.676 174.576 141.986 162.686 141.876 159.316C141.676 153.766 155.676 166.076 161.406 174.666Z" fill="#CAB49F"/>
<path d="M43.2954 174.666C41.5054 177.346 33.7754 189.436 37.6954 196.816C39.4354 200.096 44.8154 200.426 48.3354 199.356C53.9254 197.646 56.1754 191.466 59.2654 182.576C62.0254 174.576 62.7254 162.686 62.8254 159.316C62.9854 153.766 48.9954 166.076 43.2954 174.666Z" fill="#CAB49F"/>
<path d="M129.826 145.526C123.366 141.916 111.916 139.526 102.486 139.526C93.0557 139.526 81.5957 141.876 75.1257 145.526C61.7457 152.976 53.1257 169.826 53.7957 195.526C54.5657 225.026 74.8957 230.356 102.346 230.356C129.796 230.356 150.106 225.026 150.896 195.526C151.566 169.826 143.186 152.976 129.826 145.526Z" fill="#CAB49F"/>
<path d="M117.336 229.596C128.976 225.046 135.266 211.796 132.336 198.976L131.966 197.396C129.086 184.736 117.636 176.136 105.916 176.136H98.8057C87.0957 176.136 75.6357 184.736 72.7557 197.396L72.3957 198.976C69.3957 211.796 75.7057 225.046 87.3957 229.596C92.3769 230.136 97.3854 230.387 102.396 230.346C107.386 230.385 112.374 230.134 117.336 229.596Z" fill="#F2ECDF"/>
<path d="M59.5353 44.1459C68.9739 44.1459 76.6253 36.4945 76.6253 27.0559C76.6253 17.6174 68.9739 9.96594 59.5353 9.96594C50.0968 9.96594 42.4453 17.6174 42.4453 27.0559C42.4453 36.4945 50.0968 44.1459 59.5353 44.1459Z" fill="#CAB49F"/>
<path d="M59.5353 36.3961C64.6937 36.3961 68.8753 32.2145 68.8753 27.0562C68.8753 21.8978 64.6937 17.7162 59.5353 17.7162C54.377 17.7162 50.1953 21.8978 50.1953 27.0562C50.1953 32.2145 54.377 36.3961 59.5353 36.3961Z" fill="#F2ECDF"/>
<path d="M145.166 44.1459C154.604 44.1459 162.256 36.4945 162.256 27.0559C162.256 17.6174 154.604 9.96594 145.166 9.96594C135.727 9.96594 128.076 17.6174 128.076 27.0559C128.076 36.4945 135.727 44.1459 145.166 44.1459Z" fill="#CAB49F"/>
<path d="M145.166 36.3959C150.324 36.3959 154.506 32.2142 154.506 27.0559C154.506 21.8976 150.324 17.7159 145.166 17.7159C140.007 17.7159 135.826 21.8976 135.826 27.0559C135.826 32.2142 140.007 36.3959 145.166 36.3959Z" fill="#F2ECDF"/>
<path d="M102.486 19.176C140.366 19.176 187.966 42.836 191.016 95.426C193.766 142.756 156.406 168.426 102.486 168.426C48.5656 168.426 11.1856 142.756 13.9456 95.426C16.9956 42.836 64.5956 19.176 102.486 19.176Z" fill="#CAB49F"/>
<path d="M102.386 115.076C104.86 115.076 106.866 113.598 106.866 111.776C106.866 109.953 104.86 108.476 102.386 108.476C99.9115 108.476 97.9058 109.953 97.9058 111.776C97.9058 113.598 99.9115 115.076 102.386 115.076Z" fill="#977C6A"/>
<path d="M102.366 129.086C103.641 130.643 105.401 131.727 107.366 132.166C108.382 132.426 109.426 132.564 110.476 132.576C114.476 132.576 118.476 130.716 119.816 126.826C119.948 126.448 119.925 126.033 119.752 125.672C119.578 125.311 119.269 125.033 118.891 124.901C118.513 124.768 118.098 124.791 117.737 124.965C117.376 125.138 117.098 125.448 116.966 125.826C115.886 129.036 111.546 130.106 108.156 129.256C106.971 128.877 105.933 128.14 105.186 127.145C104.439 126.151 104.02 124.949 103.986 123.706V113.486H100.836V123.706C100.801 124.949 100.382 126.151 99.6347 127.145C98.8877 128.14 97.8501 128.877 96.6656 129.256C93.2756 130.106 88.9356 129.036 87.8556 125.826C87.723 125.448 87.4457 125.138 87.0847 124.965C86.7236 124.791 86.3085 124.768 85.9306 124.901C85.5527 125.033 85.2429 125.311 85.0694 125.672C84.8959 126.033 84.873 126.448 85.0056 126.826C86.3456 130.716 90.3456 132.576 94.3456 132.576C95.395 132.565 96.4393 132.428 97.4556 132.166C99.4197 131.727 101.18 130.643 102.456 129.086" fill="#977C6A"/>
<path d="M61.7456 105.696C60.9999 105.702 60.2787 105.43 59.7227 104.932C59.1667 104.435 58.8158 103.749 58.7384 103.007C58.661 102.266 58.8626 101.522 59.304 100.921C59.7453 100.319 60.3948 99.9041 61.1256 99.7558C63.2561 99.3045 65.3016 98.5181 67.1856 97.4259C67.5271 97.2088 67.9089 97.0631 68.3082 96.9974C68.7074 96.9317 69.1158 96.9475 69.5088 97.0438C69.9018 97.1401 70.2712 97.3148 70.5949 97.5576C70.9186 97.8003 71.1899 98.106 71.3924 98.4563C71.5949 98.8066 71.7244 99.1943 71.7732 99.5959C71.822 99.9976 71.789 100.405 71.6763 100.793C71.5635 101.182 71.3734 101.544 71.1172 101.857C70.861 102.17 70.5442 102.428 70.1856 102.616C67.7375 104.026 65.0811 105.038 62.3156 105.616C62.1291 105.663 61.938 105.69 61.7456 105.696Z" fill="#977C6A"/>
<path d="M73.3757 111.196C73.1452 111.196 72.9178 111.143 72.7113 111.041C72.5048 110.938 72.3249 110.79 72.1857 110.606C71.9474 110.289 71.8432 109.891 71.8956 109.498C71.948 109.106 72.1527 108.749 72.4657 108.506C73.7805 107.506 75.2363 106.708 76.7857 106.136C76.9753 106.044 77.1821 105.994 77.3926 105.987C77.6031 105.981 77.8125 106.019 78.0073 106.099C78.2021 106.179 78.3779 106.299 78.5232 106.452C78.6685 106.604 78.7801 106.786 78.8507 106.984C78.9213 107.182 78.9493 107.393 78.933 107.603C78.9166 107.813 78.8563 108.017 78.7558 108.202C78.6553 108.388 78.517 108.549 78.3499 108.677C78.1827 108.806 77.9905 108.897 77.7857 108.946C76.5164 109.414 75.3235 110.068 74.2457 110.886C73.9965 111.08 73.6914 111.189 73.3757 111.196Z" fill="#977C6A"/>
<path d="M142.945 105.696C142.733 105.698 142.522 105.674 142.315 105.626C139.55 105.048 136.894 104.036 134.445 102.626C134.087 102.438 133.77 102.18 133.514 101.867C133.258 101.554 133.067 101.192 132.955 100.804C132.842 100.415 132.809 100.008 132.858 99.6061C132.907 99.2044 133.036 98.8167 133.239 98.4664C133.441 98.1161 133.712 97.8103 134.036 97.5676C134.36 97.3249 134.729 97.1502 135.122 97.0539C135.515 96.9577 135.924 96.9419 136.323 97.0075C136.722 97.0732 137.104 97.2189 137.445 97.436C139.339 98.5444 141.399 99.3412 143.545 99.796C144.276 99.9443 144.926 100.36 145.367 100.961C145.808 101.562 146.01 102.306 145.933 103.048C145.855 103.789 145.504 104.476 144.948 104.973C144.392 105.47 143.671 105.742 142.925 105.736L142.945 105.696Z" fill="#977C6A"/>
<path d="M129.965 110.326C129.725 110.326 129.488 110.27 129.274 110.16C129.06 110.05 128.875 109.891 128.735 109.696C127.739 108.281 126.492 107.061 125.055 106.096C124.877 105.994 124.721 105.856 124.597 105.692C124.474 105.527 124.386 105.339 124.338 105.138C124.291 104.938 124.285 104.73 124.321 104.527C124.358 104.325 124.436 104.132 124.55 103.961C124.664 103.789 124.812 103.643 124.985 103.532C125.158 103.42 125.352 103.346 125.555 103.312C125.759 103.279 125.966 103.288 126.166 103.338C126.366 103.389 126.553 103.48 126.715 103.606C128.462 104.771 129.977 106.249 131.185 107.966C131.346 108.189 131.442 108.453 131.462 108.727C131.482 109.001 131.426 109.276 131.299 109.52C131.173 109.765 130.982 109.969 130.746 110.111C130.511 110.254 130.24 110.328 129.965 110.326Z" fill="#977C6A"/>
<path d="M32.3954 50.4961H32.3154C28.8835 50.4816 25.5041 49.6522 22.4554 48.0762C21.5126 47.5882 20.8022 46.7456 20.4806 45.7339C20.159 44.7221 20.2524 43.624 20.7404 42.6811C21.2284 41.7383 22.071 41.0279 23.0827 40.7063C24.0945 40.3847 25.1926 40.4782 26.1354 40.9662C28.0725 41.9716 30.223 42.4964 32.4054 42.4964C34.5879 42.4964 36.7384 41.9716 38.6754 40.9662C39.6183 40.4795 40.7158 40.3873 41.7267 40.7098C42.7375 41.0324 43.5788 41.7433 44.0654 42.6861C44.5521 43.629 44.6443 44.7266 44.3217 45.7374C43.9992 46.7482 43.2883 47.5895 42.3454 48.0762C39.2682 49.6621 35.8573 50.4916 32.3954 50.4961Z" fill="#B19A82"/>
<path d="M8.38539 93.4261C6.65078 93.4248 4.92231 93.2201 3.23539 92.8161C2.70547 92.7084 2.2029 92.4943 1.75804 92.1869C1.31319 91.8794 0.935294 91.4851 0.647194 91.0274C0.359094 90.5698 0.166774 90.0584 0.0818553 89.5244C-0.00306286 88.9903 0.021185 88.4447 0.153133 87.9203C0.285082 87.3958 0.52199 86.9036 0.849541 86.4734C1.17709 86.0431 1.58848 85.6837 2.05885 85.417C2.52922 85.1502 3.04879 84.9815 3.58618 84.9212C4.12356 84.8609 4.66759 84.9102 5.18539 85.0661C7.99643 85.7579 10.9554 85.5277 13.6256 84.4095C16.2959 83.2914 18.536 81.3445 20.0154 78.8562C20.5761 77.9837 21.4539 77.3631 22.4634 77.1253C23.4729 76.8876 24.5354 77.0512 25.4265 77.5818C26.3177 78.1123 26.968 78.9683 27.2402 79.9691C27.5123 80.9699 27.3851 82.0373 26.8854 82.9461C24.5263 86.897 20.9665 89.9907 16.7254 91.7761C14.0845 92.8809 11.248 93.4421 8.38539 93.4261Z" fill="#B19A82"/>
<path d="M19.5152 141.126C18.8854 141.126 18.2644 140.978 17.7028 140.692C17.1413 140.407 16.6551 139.993 16.2837 139.484C15.9124 138.976 15.6664 138.386 15.5659 137.765C15.4654 137.143 15.5131 136.506 15.7052 135.906C16.3819 133.783 17.4504 131.806 18.8552 130.076C20.3498 128.229 22.1953 126.696 24.2852 125.566C25.2024 125.166 26.2362 125.124 27.1828 125.449C28.1293 125.774 28.9197 126.441 29.3981 127.32C29.8764 128.199 30.008 129.225 29.7668 130.197C29.5256 131.168 28.9292 132.013 28.0952 132.566C26.9386 133.191 25.9186 134.041 25.0952 135.066C24.3181 136.03 23.7249 137.128 23.3452 138.306C23.0927 139.124 22.5843 139.84 21.8949 140.347C21.2055 140.855 20.3714 141.128 19.5152 141.126Z" fill="#B19A82"/>
<path d="M42.4056 162.016C41.5401 162.017 40.6976 161.738 40.0046 161.219C39.3115 160.701 38.8053 159.972 38.5619 159.141C38.3184 158.311 38.351 157.424 38.6546 156.613C38.9582 155.803 39.5164 155.112 40.2456 154.646C40.9746 154.186 41.5763 153.55 41.9956 152.796C42.3487 152.154 42.5665 151.446 42.6356 150.716C42.6803 150.191 42.8279 149.68 43.0702 149.211C43.3125 148.743 43.6446 148.327 44.0476 147.987C44.4506 147.647 44.9166 147.39 45.419 147.23C45.9214 147.071 46.4503 147.012 46.9756 147.056C47.5009 147.101 48.0122 147.248 48.4805 147.491C48.9487 147.733 49.3646 148.065 49.7045 148.468C50.0443 148.871 50.3015 149.337 50.4612 149.84C50.621 150.342 50.6803 150.871 50.6356 151.396C50.4663 153.417 49.8322 155.371 48.7827 157.105C47.7331 158.84 46.2967 160.309 44.5856 161.396C43.9339 161.809 43.1769 162.024 42.4056 162.016Z" fill="#B19A82"/>
<path d="M168.805 156.426C168.155 156.426 167.515 156.268 166.94 155.964C166.365 155.661 165.873 155.222 165.505 154.686L161.505 148.806C160.906 147.93 160.679 146.851 160.875 145.807C161.071 144.764 161.674 143.84 162.55 143.241C163.427 142.642 164.506 142.415 165.549 142.611C166.593 142.807 167.516 143.41 168.115 144.286L172.115 150.176C172.524 150.777 172.762 151.478 172.802 152.203C172.843 152.928 172.685 153.651 172.346 154.294C172.006 154.936 171.498 155.474 170.876 155.85C170.255 156.226 169.542 156.425 168.815 156.426H168.805Z" fill="#B19A82"/>
<path d="M195.736 130.816H195.406C192.573 130.575 189.794 129.901 187.166 128.816C184.42 127.698 181.868 126.152 179.606 124.236C178.797 123.549 178.294 122.569 178.208 121.511C178.121 120.454 178.459 119.405 179.146 118.596C179.833 117.787 180.813 117.284 181.87 117.198C182.928 117.112 183.977 117.449 184.786 118.136C186.401 119.511 188.223 120.621 190.186 121.426C192.063 122.19 194.046 122.662 196.066 122.826C197.127 122.869 198.127 123.331 198.847 124.111C199.567 124.891 199.948 125.925 199.906 126.986C199.863 128.047 199.401 129.048 198.621 129.768C197.841 130.488 196.807 130.869 195.746 130.826L195.736 130.816Z" fill="#B19A82"/>
<path d="M195.095 94.4262C194.389 94.4308 193.694 94.2481 193.081 93.8968C192.468 93.5455 191.959 93.0381 191.605 92.4262C189.353 88.4039 185.751 85.3079 181.435 83.6862C180.45 83.3078 179.654 82.5554 179.221 81.5927C178.788 80.63 178.753 79.5352 179.124 78.5469C179.495 77.5587 180.241 76.757 181.2 76.3167C182.16 75.8764 183.254 75.8331 184.245 76.1962C187.092 77.2613 189.741 78.7922 192.085 80.7262C194.713 82.9009 196.916 85.5417 198.585 88.5162C199.102 89.4419 199.23 90.5348 198.941 91.5549C198.652 92.5749 197.97 93.4386 197.045 93.9562C196.446 94.276 195.775 94.4377 195.095 94.4262Z" fill="#B19A82"/>
<path d="M178.625 56.7961C172.198 56.8033 166.03 54.2607 161.475 49.7262C161.087 49.3594 160.777 48.9187 160.562 48.43C160.347 47.9414 160.232 47.4146 160.224 46.8808C160.215 46.347 160.314 45.817 160.514 45.322C160.714 44.8269 161.011 44.3769 161.387 43.9984C161.764 43.6199 162.212 43.3206 162.706 43.1181C163.2 42.9157 163.73 42.814 164.263 42.8194C164.797 42.8248 165.325 42.937 165.814 43.1494C166.304 43.3618 166.747 43.6701 167.115 44.0561C169.028 45.956 171.382 47.3529 173.966 48.1224C176.55 48.8919 179.285 49.01 181.925 48.4661C182.949 48.2887 184.001 48.516 184.859 49.1003C185.718 49.6846 186.316 50.5799 186.526 51.5969C186.736 52.6139 186.543 53.6728 185.987 54.5498C185.431 55.4267 184.555 56.053 183.545 56.2961C181.927 56.6317 180.278 56.7993 178.625 56.7961Z" fill="#B19A82"/>
<path d="M163.895 88.6062C163.553 88.6045 163.221 88.4854 162.955 88.2689C162.69 88.0524 162.506 87.7514 162.435 87.4161C161.502 83.0062 160.276 78.6633 158.765 74.4161C157.141 69.906 155.203 65.5152 152.965 61.2761C152.873 61.1021 152.815 60.9116 152.797 60.7155C152.778 60.5193 152.797 60.3212 152.855 60.1327C152.913 59.9442 153.007 59.7689 153.132 59.6168C153.257 59.4647 153.411 59.3387 153.585 59.2461C153.759 59.1535 153.95 59.0962 154.146 59.0773C154.342 59.0583 154.54 59.0782 154.729 59.1357C154.917 59.1933 155.093 59.2874 155.245 59.4127C155.397 59.538 155.523 59.6921 155.615 59.8661C160.099 68.3296 163.38 77.3766 165.365 86.7461C165.449 87.1346 165.374 87.5403 165.159 87.874C164.943 88.2077 164.604 88.4422 164.215 88.5261C164.112 88.5629 164.004 88.5898 163.895 88.6062Z" fill="#BAA496"/>
<path d="M170.436 90.6461C170.091 90.6466 169.757 90.5287 169.489 90.312C169.222 90.0953 169.037 89.7931 168.966 89.4561C168.038 85.0644 166.812 80.741 165.296 76.5161C163.678 72 161.74 67.6055 159.496 63.366C159.33 63.0168 159.306 62.6173 159.428 62.2507C159.55 61.8841 159.809 61.5788 160.151 61.3983C160.493 61.2178 160.891 61.1762 161.262 61.2819C161.634 61.3877 161.95 61.6328 162.146 61.9661C164.467 66.3267 166.472 70.8483 168.146 75.4961C169.698 79.8546 170.961 84.311 171.926 88.8361C171.967 89.0292 171.969 89.2284 171.933 89.4224C171.897 89.6165 171.823 89.8015 171.715 89.9669C171.607 90.1322 171.468 90.2747 171.305 90.3861C171.142 90.4975 170.959 90.5756 170.766 90.616C170.657 90.6372 170.546 90.6473 170.436 90.6461Z" fill="#BAA496"/>
<path d="M174.646 87.9162C174.253 87.9138 173.877 87.7598 173.596 87.4863C168.735 82.7068 162.381 79.7413 155.596 79.0862C155.399 79.0679 155.207 79.0108 155.032 78.9184C154.857 78.826 154.702 78.7002 154.576 78.5479C154.45 78.3956 154.355 78.22 154.296 78.0309C154.238 77.8419 154.217 77.6432 154.236 77.4462C154.254 77.2492 154.311 77.0578 154.403 76.8829C154.496 76.7079 154.622 76.5529 154.774 76.4266C154.926 76.3003 155.102 76.2052 155.291 76.1468C155.48 76.0884 155.679 76.0679 155.876 76.0862C163.36 76.8022 170.371 80.0678 175.736 85.3362C176.016 85.6175 176.174 85.9987 176.174 86.3962C176.174 86.7937 176.016 87.175 175.736 87.4562C175.595 87.6037 175.426 87.7207 175.238 87.7999C175.051 87.879 174.849 87.9186 174.646 87.9162Z" fill="#BAA496"/>
<path d="M171.385 77.4261C171.171 77.4279 170.96 77.3832 170.764 77.2951C170.569 77.2071 170.396 77.0778 170.255 76.9161C165.751 71.7822 159.618 68.3538 152.885 67.2061C152.688 67.1733 152.5 67.102 152.33 66.9963C152.161 66.8906 152.014 66.7526 151.898 66.5901C151.782 66.4276 151.699 66.2437 151.654 66.0492C151.609 65.8546 151.603 65.6531 151.635 65.4561C151.668 65.2592 151.74 65.0705 151.845 64.9011C151.951 64.7317 152.089 64.5848 152.252 64.4687C152.414 64.3526 152.598 64.2696 152.792 64.2246C152.987 64.1795 153.188 64.1733 153.385 64.2061C160.799 65.4645 167.551 69.2399 172.505 74.8961C172.637 75.0437 172.738 75.2161 172.802 75.4032C172.866 75.5902 172.893 75.7881 172.88 75.9854C172.867 76.1828 172.814 76.3755 172.726 76.5525C172.638 76.7294 172.515 76.887 172.365 77.0161C172.102 77.271 171.752 77.4174 171.385 77.4261Z" fill="#BAA496"/>
<path d="M56.9556 144.066C56.7313 144.102 56.5016 144.086 56.2848 144.018C56.0679 143.95 55.8696 143.833 55.7056 143.676C50.7704 139.041 46.506 133.74 43.0356 127.926C42.8314 127.584 42.7714 127.175 42.8689 126.788C42.9665 126.402 43.2134 126.07 43.5556 125.866C43.8977 125.662 44.3069 125.602 44.6933 125.699C45.0796 125.797 45.4114 126.044 45.6156 126.386C47.2248 129.079 49.0121 131.661 50.9656 134.116C53.0491 136.733 55.3183 139.196 57.7556 141.486C57.9618 141.679 58.1096 141.925 58.182 142.198C58.2544 142.47 58.2485 142.758 58.165 143.027C58.0814 143.296 57.9237 143.537 57.7097 143.721C57.4958 143.904 57.2345 144.024 56.9556 144.066Z" fill="#BAA496"/>
<path d="M52.0254 144.806C51.8011 144.841 51.5717 144.825 51.3549 144.757C51.1382 144.689 50.9399 144.573 50.7754 144.416C45.8402 139.781 41.5758 134.48 38.1054 128.666C37.9012 128.324 37.8412 127.915 37.9388 127.528C38.0363 127.142 38.2833 126.81 38.6254 126.606C38.9675 126.402 39.3768 126.342 39.7631 126.439C40.1494 126.537 40.4812 126.784 40.6854 127.126C42.2898 129.822 44.0774 132.405 46.0354 134.856C48.1248 137.474 50.3972 139.94 52.8354 142.236C53.0388 142.43 53.1838 142.676 53.254 142.948C53.3241 143.22 53.3166 143.506 53.2322 143.774C53.1478 144.042 52.9899 144.28 52.7766 144.463C52.5633 144.645 52.303 144.764 52.0254 144.806Z" fill="#BAA496"/>
<path d="M46.6256 133.886C46.2056 133.946 45.7856 134.006 45.3656 134.046C42.7046 134.296 40.0205 134.096 37.4256 133.456C37.0384 133.359 36.7055 133.113 36.5001 132.77C36.2948 132.428 36.2338 132.018 36.3306 131.631C36.4274 131.244 36.674 130.911 37.0163 130.706C37.3586 130.5 37.7684 130.439 38.1556 130.536C42.7111 131.679 47.5213 131.216 51.7756 129.226C51.9542 129.143 52.1475 129.095 52.3444 129.087C52.5413 129.078 52.738 129.108 52.9232 129.175C53.1085 129.243 53.2787 129.346 53.4241 129.479C53.5694 129.612 53.6872 129.773 53.7706 129.951C53.854 130.13 53.9014 130.323 53.9101 130.52C53.9188 130.717 53.8886 130.913 53.8213 131.099C53.7539 131.284 53.6508 131.454 53.5177 131.6C53.3846 131.745 53.2242 131.863 53.0456 131.946C51.0084 132.894 48.8468 133.547 46.6256 133.886Z" fill="#BAA496"/>
<path d="M50.0856 141.536H49.9956C47.3376 141.929 44.632 141.865 41.9956 141.346C41.5978 141.269 41.2468 141.037 41.0199 140.702C40.793 140.366 40.7087 139.954 40.7856 139.556C40.8625 139.158 41.0943 138.807 41.43 138.58C41.7657 138.353 42.1778 138.269 42.5756 138.346C44.8618 138.802 47.2098 138.86 49.5156 138.516C51.8444 138.216 54.1022 137.509 56.1856 136.426C56.3603 136.324 56.554 136.258 56.755 136.232C56.9559 136.207 57.1599 136.222 57.3547 136.278C57.5495 136.333 57.7311 136.427 57.8885 136.555C58.0458 136.682 58.1758 136.84 58.2704 137.019C58.365 137.199 58.4223 137.395 58.439 137.597C58.4557 137.799 58.4312 138.002 58.3673 138.194C58.3033 138.386 58.201 138.563 58.0667 138.715C57.9323 138.867 57.7687 138.989 57.5856 139.076C55.2419 140.313 52.7063 141.144 50.0856 141.536Z" fill="#BAA496"/>
<path d="M107.035 125.006C108.645 123.006 107.395 118.596 103.795 114.006C103.786 113.992 103.774 113.98 103.759 113.971C103.744 113.963 103.727 113.959 103.71 113.959C103.693 113.959 103.677 113.963 103.662 113.971C103.647 113.98 103.634 113.992 103.625 114.006C101.375 119.376 101.345 124.006 103.435 125.456C104.001 125.792 104.661 125.936 105.315 125.866C105.964 125.764 106.559 125.447 107.005 124.966L107.035 125.006Z" fill="#EEE8E6"/>
<path d="M88.5654 35.9761C89.8915 35.9761 91.1633 35.4493 92.101 34.5116C93.0386 33.5739 93.5654 32.3022 93.5654 30.9761V19.6061C90.2097 19.9247 86.8722 20.4119 83.5654 21.066V30.9761C83.5654 32.3022 84.0922 33.5739 85.0299 34.5116C85.9676 35.4493 87.2393 35.9761 88.5654 35.9761Z" fill="#B19A82"/>
<path d="M102.746 25.2861C102.341 25.2867 101.94 25.2226 101.556 25.0962C98.1967 24.0656 95.2338 22.031 93.0657 19.2661C88.0657 12.7561 89.8057 5.06612 90.2157 3.58612C90.4995 2.56371 91.1778 1.69593 92.1014 1.17364C93.025 0.651354 94.1183 0.517364 95.1407 0.801146C96.1631 1.08493 97.0309 1.76321 97.5532 2.68683C98.0755 3.61044 98.2095 4.70378 97.9257 5.72619C97.7857 6.23619 96.6257 10.7961 99.3957 14.3661C100.562 15.8378 102.149 16.9192 103.946 17.4662C104.861 17.7503 105.643 18.3534 106.151 19.1658C106.659 19.9782 106.858 20.9458 106.713 21.8928C106.568 22.8398 106.087 23.7032 105.359 24.3259C104.631 24.9487 103.704 25.2894 102.746 25.2861Z" fill="#B19A82"/>
<path d="M116.125 35.7362C117.452 35.7362 118.723 35.2094 119.661 34.2717C120.599 33.334 121.125 32.0623 121.125 30.7362V21.0061C117.818 20.365 114.481 19.8911 111.125 19.5862V30.7362C111.125 32.0623 111.652 33.334 112.59 34.2717C113.528 35.2094 114.799 35.7362 116.125 35.7362Z" fill="#B19A82"/>
</svg>
