<svg width="201" height="245" viewBox="0 0 201 245" fill="none" xmlns="http://www.w3.org/2000/svg">
<path d="M139.355 127.476C137.065 124.046 128.125 107.376 102.585 107.376C77.0452 107.376 68.0951 124.046 65.8051 127.476C50.0851 151.106 61.4952 195.766 102.585 228.296C143.665 195.766 155.075 151.106 139.355 127.476Z" fill="#BAA496"/>
<path d="M130.785 208.656C130.465 208.654 130.147 208.617 129.835 208.546C127.846 208.059 125.985 207.148 124.382 205.874C122.778 204.6 121.469 202.994 120.545 201.166C120.065 200.219 119.981 199.121 120.311 198.112C120.641 197.103 121.358 196.266 122.305 195.786C123.252 195.306 124.351 195.222 125.36 195.552C126.369 195.882 127.205 196.599 127.685 197.546C128.079 198.34 128.641 199.039 129.332 199.595C130.022 200.151 130.825 200.551 131.685 200.766C132.639 200.994 133.475 201.565 134.035 202.369C134.596 203.174 134.841 204.156 134.725 205.129C134.61 206.103 134.14 207 133.406 207.65C132.673 208.3 131.726 208.658 130.745 208.656H130.785Z" fill="#B19A82"/>
<path d="M137.455 172.766C136.555 172.767 135.681 172.465 134.974 171.908C134.267 171.351 133.768 170.572 133.559 169.696C133.35 168.821 133.442 167.901 133.82 167.084C134.199 166.267 134.842 165.602 135.645 165.196C138.052 163.984 140.692 163.302 143.385 163.196C145.674 163.112 147.959 163.451 150.125 164.196C151.129 164.54 151.955 165.268 152.422 166.22C152.889 167.173 152.959 168.272 152.615 169.276C152.272 170.28 151.544 171.106 150.591 171.573C149.638 172.04 148.539 172.11 147.535 171.766C146.299 171.338 144.993 171.145 143.685 171.196C142.146 171.257 140.639 171.649 139.265 172.346C138.703 172.626 138.083 172.77 137.455 172.766Z" fill="#B19A82"/>
<path d="M128.185 124.886C127.124 124.944 126.084 124.579 125.292 123.87C124.501 123.161 124.024 122.167 123.965 121.106C123.907 120.045 124.272 119.005 124.981 118.213C125.69 117.422 126.684 116.944 127.745 116.886C129.263 116.718 130.729 116.231 132.045 115.456C133.07 114.845 133.989 114.072 134.765 113.166C135.099 112.743 135.514 112.392 135.986 112.134C136.458 111.875 136.978 111.715 137.514 111.662C138.05 111.609 138.591 111.665 139.104 111.826C139.618 111.987 140.094 112.251 140.504 112.6C140.913 112.95 141.248 113.378 141.488 113.86C141.728 114.342 141.868 114.868 141.9 115.405C141.932 115.943 141.855 116.481 141.673 116.988C141.492 117.495 141.211 117.961 140.845 118.356C137.757 121.997 133.391 124.315 128.645 124.836C128.493 124.863 128.339 124.879 128.185 124.886Z" fill="#B19A82"/>
<path d="M91.1853 115.676C90.4818 115.672 89.792 115.482 89.1853 115.126C86.7357 113.693 84.7608 111.572 83.5053 109.026C82.2123 106.385 81.7387 103.418 82.1453 100.506C82.2965 99.4559 82.8586 98.5087 83.7082 97.873C84.5577 97.2372 85.625 96.965 86.6753 97.1161C87.7255 97.2673 88.6727 97.8296 89.3084 98.6791C89.9442 99.5287 90.2164 100.596 90.0653 101.646C89.8804 102.931 90.0821 104.242 90.6449 105.412C91.2076 106.582 92.1059 107.558 93.2253 108.216C93.9858 108.657 94.5798 109.337 94.9154 110.149C95.2509 110.962 95.3094 111.863 95.0817 112.712C94.8541 113.561 94.3529 114.312 93.6558 114.848C92.9587 115.383 92.1045 115.675 91.2253 115.676H91.1853Z" fill="#B19A82"/>
<path d="M57.1852 183.346C56.2587 183.346 55.3343 183.255 54.4252 183.076C53.4072 182.845 52.5198 182.225 51.9526 181.349C51.3854 180.472 51.1834 179.409 51.3896 178.385C51.5959 177.362 52.1941 176.46 53.0565 175.871C53.9189 175.283 54.9771 175.055 56.0052 175.236C57.0498 175.451 58.1333 175.371 59.1353 175.006C60.3967 174.513 61.454 173.607 62.1353 172.436C62.3853 171.958 62.7295 171.536 63.147 171.194C63.5646 170.853 64.047 170.599 64.5651 170.449C65.0832 170.298 65.6264 170.254 66.1619 170.319C66.6975 170.385 67.2143 170.557 67.6813 170.827C68.1484 171.097 68.556 171.459 68.8797 171.89C69.2034 172.322 69.4363 172.815 69.5647 173.339C69.693 173.863 69.7141 174.407 69.6265 174.939C69.539 175.472 69.3447 175.981 69.0552 176.436C67.4314 179.223 64.8952 181.363 61.8752 182.496C60.3736 183.051 58.7862 183.339 57.1852 183.346Z" fill="#B19A82"/>
<path d="M82.7153 221.216C81.7581 221.217 80.8323 220.875 80.106 220.251C79.3798 219.628 78.9012 218.764 78.7572 217.818C78.6132 216.872 78.8133 215.905 79.3212 215.094C79.8291 214.282 80.6111 213.68 81.5253 213.396C81.8701 213.285 82.1687 213.064 82.3752 212.766C82.5829 212.445 82.6843 212.068 82.6652 211.686C82.6173 211.161 82.6733 210.631 82.83 210.128C82.9868 209.624 83.2412 209.156 83.5787 208.751C83.9163 208.346 84.3303 208.011 84.7973 207.765C85.2643 207.52 85.7749 207.369 86.3002 207.321C86.8255 207.273 87.3551 207.329 87.8587 207.486C88.3623 207.643 88.8302 207.897 89.2355 208.235C89.6409 208.572 89.9758 208.986 90.2211 209.453C90.4664 209.92 90.6173 210.431 90.6652 210.956C90.8685 213.149 90.3131 215.346 89.0919 217.178C87.8706 219.011 86.0574 220.369 83.9553 221.026C83.5551 221.157 83.1362 221.221 82.7153 221.216Z" fill="#B19A82"/>
<path d="M68.4052 131.956C68.2153 131.966 68.0251 131.966 67.8352 131.956C65.7973 131.665 63.8945 130.765 62.3752 129.376C60.6773 127.805 59.5543 125.71 59.1852 123.426C59.0998 122.907 59.1175 122.377 59.2371 121.865C59.3568 121.353 59.5761 120.87 59.8825 120.443C60.189 120.016 60.5765 119.653 61.0231 119.376C61.4697 119.098 61.9665 118.912 62.4852 118.826C63.0039 118.741 63.5344 118.758 64.0463 118.878C64.5582 118.998 65.0415 119.217 65.4686 119.523C65.8958 119.83 66.2584 120.218 66.5358 120.664C66.8132 121.111 66.9999 121.607 67.0852 122.126C67.16 122.606 67.387 123.048 67.7328 123.389C68.0786 123.729 68.5247 123.949 69.0052 124.016C70.0661 124.092 71.0534 124.586 71.7501 125.389C72.4468 126.193 72.7958 127.24 72.7202 128.301C72.6446 129.362 72.1507 130.349 71.3471 131.046C70.5435 131.743 69.4961 132.092 68.4352 132.016L68.4052 131.956Z" fill="#B19A82"/>
<path d="M72.5651 245.006H81.5651C82.4428 244.994 83.2923 244.694 83.9826 244.152C84.6729 243.61 85.1657 242.856 85.3851 242.006L88.5351 230.006C88.5351 230.006 68.7351 219.736 60.7551 217.746C61.3451 223.286 66.6351 236.746 68.9351 242.476C69.2242 243.208 69.7228 243.839 70.3685 244.289C71.0142 244.739 71.7783 244.988 72.5651 245.006Z" fill="#CAB49F"/>
<path d="M132.535 245.006H123.535C122.656 244.997 121.804 244.698 121.112 244.155C120.419 243.613 119.925 242.858 119.705 242.006L116.565 230.006C116.565 230.006 136.365 219.736 144.335 217.746C143.745 223.286 138.455 236.746 136.155 242.476C135.867 243.207 135.37 243.836 134.726 244.286C134.082 244.736 133.32 244.986 132.535 245.006Z" fill="#CAB49F"/>
<path d="M161.605 174.886C163.395 177.566 171.135 189.656 167.205 197.036C165.465 200.316 160.085 200.646 156.565 199.576C150.975 197.866 148.725 191.686 145.635 182.796C142.875 174.796 142.185 162.906 142.075 159.536C141.875 153.986 155.875 166.296 161.605 174.886Z" fill="#CAB49F"/>
<path d="M43.4951 174.886C41.7051 177.566 33.9751 189.656 37.8951 197.036C39.6351 200.316 45.0151 200.646 48.5351 199.576C54.1251 197.866 56.3751 191.686 59.4651 182.796C62.2251 174.796 62.9251 162.906 63.0251 159.536C63.1851 153.986 49.1851 166.296 43.4951 174.886Z" fill="#CAB49F"/>
<path d="M130.025 145.746C123.565 142.136 112.115 139.746 102.675 139.746C93.2351 139.746 81.7851 142.096 75.3251 145.746C61.9451 153.196 53.3251 170.046 53.9851 195.746C54.7651 225.236 75.0951 230.576 102.535 230.576C129.975 230.576 150.305 225.236 151.085 195.746C151.765 170.046 143.405 153.196 130.025 145.746Z" fill="#CAB49F"/>
<path d="M117.525 229.816C129.175 225.266 135.455 212.016 132.525 199.196L132.165 197.616C129.285 184.946 117.825 176.356 106.165 176.356H99.0951C87.3751 176.356 75.925 184.946 73.095 197.616L72.735 199.196C69.735 212.016 76.0451 225.266 87.7351 229.816C97.71 230.818 107.76 230.818 117.735 229.816H117.525Z" fill="#F2ECDF"/>
<path d="M59.725 44.3661C69.1635 44.3661 76.815 36.7147 76.815 27.2761C76.815 17.8376 69.1635 10.1862 59.725 10.1862C50.2864 10.1862 42.635 17.8376 42.635 27.2761C42.635 36.7147 50.2864 44.3661 59.725 44.3661Z" fill="#CAB49F"/>
<path d="M59.725 36.6161C64.8833 36.6161 69.065 32.4345 69.065 27.2761C69.065 22.1178 64.8833 17.9362 59.725 17.9362C54.5666 17.9362 50.385 22.1178 50.385 27.2761C50.385 32.4345 54.5666 36.6161 59.725 36.6161Z" fill="#F2ECDF"/>
<path d="M145.365 44.3661C154.804 44.3661 162.455 36.7147 162.455 27.2761C162.455 17.8376 154.804 10.1862 145.365 10.1862C135.926 10.1862 128.275 17.8376 128.275 27.2761C128.275 36.7147 135.926 44.3661 145.365 44.3661Z" fill="#CAB49F"/>
<path d="M145.365 36.6161C150.523 36.6161 154.705 32.4345 154.705 27.2761C154.705 22.1178 150.523 17.9362 145.365 17.9362C140.207 17.9362 136.025 22.1178 136.025 27.2761C136.025 32.4345 140.207 36.6161 145.365 36.6161Z" fill="#F2ECDF"/>
<path d="M102.675 19.4263C140.555 19.4263 188.155 43.0863 191.205 95.6763C193.955 143.006 156.595 168.676 102.675 168.676C48.7547 168.676 11.3848 143.006 14.1348 95.6763C17.1848 43.0563 64.7847 19.4263 102.675 19.4263Z" fill="#CAB49F"/>
<path d="M99.7151 135.906C99.3581 135.903 99.0139 135.773 98.7443 135.539C98.4747 135.305 98.2974 134.982 98.2444 134.629C98.1914 134.276 98.2661 133.915 98.455 133.612C98.6439 133.31 98.9347 133.084 99.2751 132.976C100.971 132.337 102.791 132.095 104.595 132.266C104.792 132.271 104.986 132.315 105.166 132.395C105.346 132.476 105.509 132.591 105.644 132.734C105.78 132.877 105.886 133.045 105.956 133.229C106.027 133.413 106.06 133.609 106.055 133.806C106.037 134.202 105.865 134.575 105.575 134.846C105.286 135.117 104.901 135.264 104.505 135.256C103.029 135.1 101.536 135.302 100.155 135.846C100.012 135.885 99.8638 135.905 99.7151 135.906Z" fill="#977C6A"/>
<path d="M93.895 122.566L102.575 126.586L111.065 122.566L102.585 117.906L93.895 122.566Z" fill="#D6B2A6"/>
<path d="M121.265 119.916C120.895 119.362 120.407 118.895 119.837 118.55C119.267 118.204 118.628 117.988 117.965 117.916C116.903 117.889 115.867 118.244 115.045 118.916C113.295 120.236 108.355 120.716 106.045 118.776C104.385 117.396 104.185 114.876 104.205 113.486C104.209 113.289 104.174 113.093 104.102 112.91C104.031 112.726 103.924 112.559 103.787 112.417C103.65 112.275 103.487 112.161 103.307 112.082C103.126 112.003 102.932 111.96 102.735 111.956H102.425C102.028 111.967 101.651 112.133 101.376 112.419C101.101 112.706 100.95 113.089 100.955 113.486C100.955 114.876 100.785 117.406 99.135 118.786C96.815 120.726 91.8751 120.256 90.0751 118.906C89.2667 118.237 88.2441 117.882 87.1951 117.906C86.5332 117.981 85.8954 118.199 85.3257 118.544C84.756 118.89 84.268 119.354 83.8951 119.906C83.7749 120.062 83.6867 120.241 83.6355 120.431C83.5843 120.622 83.5711 120.82 83.5966 121.016C83.6222 121.211 83.6859 121.4 83.7843 121.57C83.8827 121.741 84.0138 121.891 84.1701 122.011C84.3263 122.131 84.5048 122.22 84.6951 122.271C84.8855 122.322 85.0841 122.335 85.2796 122.31C85.475 122.284 85.6636 122.22 85.8344 122.122C86.0052 122.024 86.1549 121.892 86.275 121.736C86.5289 121.325 86.9232 121.019 87.385 120.876C87.7354 120.932 88.062 121.088 88.3251 121.326C88.9962 121.804 89.7387 122.171 90.525 122.416C91.8403 124.07 93.4852 125.432 95.3551 126.416C97.5961 127.563 100.078 128.161 102.595 128.161C105.113 128.161 107.594 127.563 109.835 126.416C111.706 125.43 113.354 124.068 114.675 122.416C115.481 122.168 116.241 121.789 116.925 121.296C117.169 121.079 117.472 120.94 117.795 120.896C118.259 121.03 118.655 121.333 118.905 121.746C119.026 121.902 119.176 122.032 119.347 122.13C119.518 122.227 119.707 122.29 119.903 122.315C120.098 122.339 120.297 122.325 120.487 122.273C120.677 122.221 120.854 122.132 121.01 122.011C121.166 121.89 121.296 121.74 121.394 121.569C121.491 121.398 121.554 121.209 121.579 121.014C121.603 120.818 121.589 120.62 121.537 120.43C121.485 120.24 121.396 120.062 121.275 119.906L121.265 119.916ZM96.7251 123.486C96.3251 123.276 95.9351 123.346 95.5651 123.096C97.5568 123.023 99.4747 122.323 101.045 121.096C101.662 120.481 102.178 119.772 102.575 118.996C102.979 119.77 103.498 120.479 104.115 121.096C105.69 122.322 107.611 123.022 109.605 123.096C109.225 123.346 108.835 123.276 108.435 123.486C106.623 124.415 104.616 124.9 102.58 124.9C100.544 124.9 98.5369 124.415 96.7251 123.486Z" fill="#977C6A"/>
<path d="M102.595 115.726C105.069 115.726 107.075 114.249 107.075 112.426C107.075 110.604 105.069 109.126 102.595 109.126C100.121 109.126 98.115 110.604 98.115 112.426C98.115 114.249 100.121 115.726 102.595 115.726Z" fill="#977C6A"/>
<path d="M61.9351 105.916C61.1894 105.922 60.4681 105.65 59.9122 105.153C59.3562 104.656 59.0053 103.969 58.9278 103.228C58.8504 102.486 59.052 101.742 59.4934 101.141C59.9347 100.54 60.5842 100.124 61.3151 99.9762C63.4617 99.5214 65.5213 98.7244 67.4151 97.6161C67.7565 97.399 68.1384 97.2533 68.5376 97.1876C68.9369 97.1219 69.3453 97.1377 69.7383 97.234C70.1313 97.3302 70.5007 97.505 70.8244 97.7478C71.1481 97.9905 71.4193 98.2963 71.6218 98.6466C71.8243 98.9969 71.9539 99.3845 72.0027 99.7861C72.0515 100.188 72.0185 100.595 71.9057 100.984C71.793 101.372 71.6028 101.734 71.3467 102.047C71.0905 102.36 70.7736 102.619 70.4151 102.806C67.9669 104.216 65.3106 105.229 62.5451 105.806C62.3467 105.866 62.142 105.903 61.9351 105.916Z" fill="#977C6A"/>
<path d="M73.5752 111.426C73.3446 111.427 73.1169 111.374 72.9103 111.272C72.7036 111.17 72.5238 111.02 72.3852 110.836C72.1443 110.52 72.0386 110.122 72.091 109.728C72.1435 109.335 72.35 108.978 72.6651 108.736C73.98 107.737 75.4358 106.938 76.9851 106.366C77.1748 106.275 77.3816 106.224 77.5921 106.218C77.8026 106.211 78.012 106.25 78.2068 106.33C78.4016 106.41 78.5774 106.53 78.7227 106.682C78.868 106.834 78.9795 107.016 79.0502 107.214C79.1208 107.413 79.1488 107.624 79.1325 107.834C79.1161 108.044 79.0558 108.248 78.9553 108.433C78.8548 108.618 78.7165 108.78 78.5494 108.908C78.3822 109.036 78.19 109.127 77.9851 109.176C76.719 109.645 75.5294 110.298 74.4552 111.116C74.2033 111.312 73.8944 111.421 73.5752 111.426Z" fill="#977C6A"/>
<path d="M143.185 105.916C142.976 105.917 142.768 105.894 142.565 105.846C139.8 105.269 137.143 104.256 134.695 102.846C134.042 102.431 133.575 101.78 133.391 101.028C133.207 100.276 133.32 99.4829 133.707 98.813C134.094 98.1431 134.725 97.6487 135.469 97.4331C136.212 97.2176 137.009 97.2974 137.695 97.656C139.59 98.7627 141.649 99.5594 143.795 100.016C144.526 100.164 145.175 100.58 145.617 101.181C146.058 101.782 146.26 102.526 146.182 103.268C146.105 104.009 145.754 104.696 145.198 105.193C144.642 105.69 143.921 105.962 143.175 105.956L143.185 105.916Z" fill="#977C6A"/>
<path d="M130.185 110.546C129.945 110.547 129.708 110.489 129.496 110.378C129.283 110.266 129.101 110.104 128.965 109.906C127.965 108.494 126.714 107.277 125.275 106.316C124.96 106.088 124.746 105.747 124.677 105.365C124.609 104.982 124.691 104.588 124.908 104.265C125.125 103.942 125.458 103.716 125.838 103.634C126.218 103.552 126.615 103.621 126.945 103.826C128.692 104.991 130.207 106.469 131.415 108.186C131.645 108.511 131.735 108.914 131.668 109.306C131.6 109.697 131.38 110.047 131.055 110.276C130.799 110.451 130.496 110.545 130.185 110.546Z" fill="#977C6A"/>
<path d="M112.625 92.4962C112.245 92.492 111.88 92.3445 111.604 92.0831C111.328 91.8217 111.16 91.4657 111.135 91.0863C111.054 89.5599 111.323 88.0353 111.923 86.6294C112.523 85.2235 113.437 83.9738 114.595 82.9763C114.9 82.7204 115.294 82.596 115.691 82.6307C116.088 82.6654 116.454 82.8562 116.71 83.1612C116.966 83.4662 117.09 83.8604 117.056 84.2571C117.021 84.6537 116.83 85.0203 116.525 85.2762C115.722 85.9672 115.088 86.8332 114.672 87.8075C114.256 88.7817 114.069 89.8383 114.125 90.8962C114.15 91.2926 114.016 91.6826 113.754 91.9807C113.491 92.2788 113.121 92.4606 112.725 92.4863L112.625 92.4962Z" fill="#977C6A"/>
<path d="M93.6052 91.0563C93.2074 91.0563 92.8259 90.8982 92.5446 90.6169C92.2633 90.3356 92.1052 89.9541 92.1052 89.5563V84.9062C92.1052 84.5084 92.2633 84.1269 92.5446 83.8456C92.8259 83.5643 93.2074 83.4062 93.6052 83.4062C94.003 83.4062 94.3846 83.5643 94.6659 83.8456C94.9472 84.1269 95.1052 84.5084 95.1052 84.9062V89.5563C95.1052 89.9541 94.9472 90.3356 94.6659 90.6169C94.3846 90.8982 94.003 91.0563 93.6052 91.0563Z" fill="#977C6A"/>
<path d="M88.0751 88.5762C87.7083 88.5764 87.3542 88.4422 87.0796 88.199C86.8051 87.9557 86.6292 87.6203 86.5851 87.2561C86.4217 85.9451 86.0679 84.6651 85.5351 83.4562C85.376 83.0915 85.3683 82.6785 85.5136 82.3081C85.6589 81.9377 85.9454 81.6403 86.3101 81.4812C86.6748 81.3221 87.0877 81.3143 87.4581 81.4596C87.8285 81.6049 88.126 81.8914 88.2851 82.2561C88.9352 83.7288 89.3665 85.2886 89.5651 86.8861C89.5889 87.0818 89.5738 87.2802 89.5208 87.4701C89.4678 87.66 89.3779 87.8376 89.2563 87.9927C89.1346 88.1478 88.9836 88.2773 88.8118 88.374C88.64 88.4707 88.4508 88.5326 88.2551 88.5562L88.0751 88.5762Z" fill="#977C6A"/>
<path d="M32.5951 50.7162H32.5152C29.0832 50.7017 25.7038 49.8722 22.6551 48.2961C21.7123 47.8095 21.0014 46.9682 20.6789 45.9574C20.3563 44.9466 20.4485 43.849 20.9352 42.9061C21.4218 41.9633 22.2631 41.2524 23.274 40.9298C24.2848 40.6072 25.3823 40.6995 26.3252 41.1861C28.2622 42.1916 30.4127 42.7164 32.5951 42.7164C34.7776 42.7164 36.9281 42.1916 38.8651 41.1861C39.808 40.6981 40.9061 40.6046 41.9178 40.9263C42.9296 41.2479 43.7722 41.9583 44.2602 42.9011C44.7482 43.844 44.8416 44.9421 44.52 45.9538C44.1984 46.9656 43.488 47.8081 42.5451 48.2961C39.4679 49.8821 36.057 50.7117 32.5951 50.7162Z" fill="#B19A82"/>
<path d="M8.57507 93.6662C6.83976 93.6667 5.11066 93.4585 3.42505 93.0462C2.89463 92.9411 2.39101 92.7296 1.94464 92.4245C1.49826 92.1193 1.11841 91.7268 0.827999 91.2707C0.537591 90.8146 0.342712 90.3044 0.255062 89.7708C0.167413 89.2372 0.188819 88.6915 0.318051 88.1664C0.447282 87.6414 0.681604 87.1479 1.00689 86.716C1.33218 86.2841 1.7417 85.9226 2.21063 85.6534C2.67956 85.3842 3.19821 85.2128 3.73523 85.1497C4.27224 85.0866 4.81651 85.133 5.33508 85.2862C8.14757 85.9803 11.1087 85.7513 13.7811 84.633C16.4534 83.5147 18.6951 81.5665 20.175 79.0762C20.4337 78.6058 20.7844 78.1923 21.2062 77.8603C21.6281 77.5283 22.1124 77.2846 22.6304 77.1437C23.1484 77.0029 23.6895 76.9677 24.2214 77.0403C24.7532 77.113 25.2651 77.292 25.7263 77.5666C26.1876 77.8412 26.5888 78.2058 26.9062 78.6387C27.2236 79.0717 27.4505 79.5641 27.5736 80.0866C27.6967 80.6091 27.7132 81.151 27.6224 81.6801C27.5316 82.2092 27.3353 82.7146 27.045 83.1662C24.6859 87.117 21.1262 90.2107 16.8851 91.9961C14.2545 93.1026 11.4288 93.6705 8.57507 93.6662Z" fill="#B19A82"/>
<path d="M19.7152 141.346C19.0854 141.346 18.4643 141.198 17.9028 140.912C17.3412 140.627 16.855 140.213 16.4837 139.704C16.1123 139.196 15.8664 138.606 15.7659 137.985C15.6654 137.363 15.7131 136.726 15.9052 136.126C17.3149 131.697 20.3917 127.989 24.4852 125.786C24.9476 125.476 25.4696 125.266 26.018 125.169C26.5663 125.072 27.1289 125.09 27.6696 125.223C28.2103 125.356 28.7173 125.601 29.1581 125.941C29.5989 126.281 29.9638 126.71 30.2294 127.199C30.4951 127.689 30.6556 128.228 30.7008 128.783C30.746 129.338 30.6748 129.896 30.4918 130.422C30.3088 130.948 30.018 131.43 29.638 131.837C29.258 132.244 28.7972 132.567 28.2852 132.786C27.1279 133.41 26.1077 134.26 25.2852 135.286C24.508 136.25 23.9148 137.348 23.5352 138.526C23.2831 139.343 22.7763 140.057 22.0889 140.564C21.4015 141.072 20.5697 141.346 19.7152 141.346Z" fill="#B19A82"/>
<path d="M42.6051 162.236C41.7396 162.237 40.8971 161.958 40.2041 161.439C39.511 160.921 39.0047 160.192 38.7613 159.361C38.5179 158.531 38.5504 157.644 38.854 156.833C39.1576 156.023 39.7159 155.332 40.4451 154.866C41.1195 154.441 41.6856 153.864 42.0987 153.182C42.5117 152.5 42.7604 151.731 42.8251 150.936C42.8697 150.411 43.0174 149.9 43.2597 149.431C43.5019 148.963 43.8341 148.547 44.2371 148.207C44.6401 147.867 45.1061 147.61 45.6085 147.451C46.1109 147.291 46.6398 147.231 47.1651 147.276C47.6903 147.321 48.2017 147.468 48.6699 147.711C49.1382 147.953 49.5541 148.285 49.8939 148.688C50.2338 149.091 50.491 149.557 50.6507 150.06C50.8105 150.562 50.8697 151.091 50.8251 151.616C50.6614 153.632 50.0349 155.583 48.9942 157.318C47.9536 159.052 46.5269 160.523 44.8251 161.616C44.162 162.036 43.3899 162.252 42.6051 162.236Z" fill="#B19A82"/>
<path d="M169.005 156.646C168.353 156.648 167.711 156.49 167.134 156.187C166.557 155.884 166.063 155.444 165.695 154.906L161.695 149.016C161.399 148.582 161.191 148.094 161.084 147.58C160.976 147.065 160.971 146.535 161.069 146.019C161.166 145.502 161.364 145.01 161.652 144.571C161.94 144.131 162.311 143.752 162.745 143.456C163.179 143.16 163.667 142.952 164.182 142.845C164.696 142.737 165.226 142.732 165.743 142.83C166.259 142.927 166.751 143.125 167.191 143.413C167.63 143.701 168.009 144.072 168.305 144.506L172.305 150.396C172.905 151.266 173.137 152.338 172.95 153.377C172.762 154.417 172.171 155.341 171.305 155.946C170.631 156.415 169.826 156.66 169.005 156.646Z" fill="#B19A82"/>
<path d="M195.935 131.036H195.605C192.772 130.795 189.993 130.12 187.365 129.036C184.619 127.918 182.068 126.372 179.805 124.456C179.033 123.76 178.563 122.791 178.493 121.753C178.424 120.716 178.761 119.693 179.433 118.9C180.105 118.107 181.059 117.607 182.094 117.505C183.128 117.404 184.162 117.709 184.975 118.356C188.157 121.05 192.1 122.683 196.255 123.026C197.316 123.069 198.317 123.531 199.037 124.311C199.757 125.091 200.138 126.125 200.095 127.186C200.053 128.247 199.59 129.247 198.81 129.968C198.03 130.688 196.996 131.069 195.935 131.026V131.036Z" fill="#B19A82"/>
<path d="M195.295 94.6561C194.587 94.6624 193.89 94.4806 193.275 94.1293C192.66 93.7779 192.149 93.2695 191.795 92.6561C189.55 88.6282 185.945 85.5303 181.625 83.9161C181.129 83.7345 180.675 83.4566 180.287 83.0984C179.899 82.7402 179.586 82.3087 179.366 81.829C179.146 81.3492 179.023 80.8306 179.004 80.3031C178.985 79.7755 179.071 79.2495 179.256 78.7552C179.442 78.261 179.723 77.8084 180.084 77.4234C180.445 77.0385 180.879 76.7287 181.361 76.5122C181.842 76.2957 182.361 76.1766 182.889 76.1618C183.417 76.1471 183.942 76.2369 184.435 76.4261C190.523 78.706 195.604 83.0715 198.775 88.7461C199.292 89.6706 199.422 90.7627 199.135 91.7826C198.848 92.8025 198.169 93.6669 197.245 94.1861C196.646 94.5059 195.974 94.6676 195.295 94.6561Z" fill="#B19A82"/>
<path d="M178.815 57.0161C172.388 57.0233 166.22 54.4807 161.665 49.9462C160.913 49.1969 160.49 48.1796 160.488 47.1182C160.486 46.0567 160.906 45.038 161.655 44.2861C162.404 43.5343 163.422 43.1108 164.483 43.1089C165.544 43.107 166.563 43.5269 167.315 44.2761C169.227 46.1752 171.578 47.5717 174.161 48.3412C176.743 49.1107 179.476 49.2292 182.115 48.6862C182.636 48.5606 183.178 48.5411 183.706 48.6289C184.235 48.7167 184.741 48.91 185.194 49.1971C185.647 49.4843 186.037 49.8596 186.342 50.3007C186.647 50.7417 186.86 51.2395 186.969 51.7645C187.077 52.2896 187.079 52.8311 186.974 53.3569C186.87 53.8828 186.66 54.3821 186.358 54.8253C186.057 55.2686 185.669 55.6467 185.219 55.9371C184.768 56.2276 184.263 56.4245 183.735 56.5161C182.117 56.8518 180.468 57.0193 178.815 57.0161Z" fill="#B19A82"/>
<path d="M164.095 88.8261C163.751 88.8248 163.418 88.7061 163.151 88.4897C162.883 88.2733 162.698 87.9722 162.625 87.6361C161.701 83.2238 160.475 78.8803 158.955 74.6361C157.34 70.1225 155.401 65.7312 153.155 61.496C152.981 61.146 152.949 60.742 153.066 60.369C153.184 59.9959 153.442 59.6829 153.785 59.496C154.133 59.3156 154.538 59.2795 154.912 59.3956C155.287 59.5116 155.6 59.7704 155.785 60.116C158.108 64.4792 160.113 69.0043 161.785 73.6561C163.34 78.0137 164.603 82.4702 165.565 86.996C165.606 87.1885 165.608 87.3871 165.572 87.5805C165.536 87.7739 165.462 87.9582 165.354 88.1227C165.246 88.2873 165.107 88.429 164.944 88.5394C164.781 88.6498 164.598 88.7268 164.405 88.7661C164.305 88.8009 164.201 88.8211 164.095 88.8261Z" fill="#BAA496"/>
<path d="M170.635 90.866C170.291 90.8666 169.957 90.7486 169.689 90.5319C169.421 90.3152 169.236 90.0131 169.165 89.6761C167.239 80.5807 164.052 71.7992 159.695 63.5861C159.593 63.4114 159.527 63.2176 159.501 63.0167C159.476 62.8157 159.491 62.6118 159.547 62.4169C159.602 62.2221 159.696 62.0406 159.824 61.8832C159.951 61.7259 160.109 61.5959 160.289 61.5013C160.468 61.4067 160.664 61.3494 160.866 61.3327C161.068 61.3161 161.271 61.3405 161.463 61.4045C161.655 61.4685 161.833 61.5707 161.984 61.705C162.136 61.8394 162.259 62.003 162.345 62.1861C164.671 66.5446 166.676 71.0666 168.345 75.7161C169.906 80.0729 171.172 84.5296 172.135 89.0561C172.176 89.2492 172.179 89.4484 172.143 89.6424C172.106 89.8364 172.032 90.0215 171.925 90.1868C171.817 90.3522 171.678 90.4947 171.515 90.6061C171.352 90.7176 171.168 90.7957 170.975 90.8361C170.863 90.858 170.749 90.868 170.635 90.866Z" fill="#BAA496"/>
<path d="M174.845 88.1362C174.453 88.1337 174.077 87.9797 173.795 87.7062C168.931 82.9314 162.579 79.9669 155.795 79.3062C155.397 79.2691 155.031 79.0754 154.776 78.7679C154.521 78.4603 154.398 78.064 154.435 77.6662C154.472 77.2684 154.666 76.9016 154.974 76.6465C155.281 76.3915 155.677 76.2691 156.075 76.3062C163.56 77.0222 170.571 80.2878 175.935 85.5562C176.145 85.7618 176.289 86.0244 176.351 86.3115C176.413 86.5985 176.389 86.8973 176.283 87.171C176.176 87.4446 175.992 87.681 175.752 87.8508C175.513 88.0206 175.229 88.1163 174.935 88.1262L174.845 88.1362Z" fill="#BAA496"/>
<path d="M171.575 77.6261C171.361 77.6259 171.15 77.5804 170.955 77.4925C170.761 77.4046 170.587 77.2763 170.445 77.1161C165.947 71.9803 159.816 68.5513 153.085 67.4062C152.888 67.3733 152.7 67.302 152.53 67.1963C152.361 67.0906 152.214 66.9526 152.098 66.7901C151.982 66.6276 151.899 66.4437 151.854 66.2492C151.809 66.0546 151.802 65.8532 151.835 65.6562C151.868 65.4592 151.939 65.2707 152.045 65.1012C152.151 64.9318 152.289 64.7848 152.451 64.6687C152.614 64.5527 152.797 64.4698 152.992 64.4247C153.187 64.3797 153.388 64.3733 153.585 64.4062C160.998 65.6645 167.751 69.44 172.705 75.0962C172.835 75.2445 172.935 75.4169 172.999 75.6038C173.062 75.7907 173.088 75.9883 173.075 76.1852C173.062 76.3822 173.01 76.5746 172.923 76.7515C172.835 76.9284 172.714 77.0864 172.565 77.2162C172.297 77.4709 171.945 77.617 171.575 77.6261Z" fill="#BAA496"/>
<path d="M57.1851 144.286C56.9609 144.319 56.732 144.301 56.5157 144.234C56.2993 144.166 56.1009 144.051 55.9351 143.896C51 139.261 46.7355 133.96 43.2652 128.146C43.1518 127.977 43.074 127.787 43.0365 127.587C42.9989 127.387 43.0025 127.182 43.0469 126.983C43.0913 126.785 43.1756 126.597 43.2947 126.432C43.4138 126.267 43.5652 126.128 43.7397 126.024C43.9142 125.919 44.1082 125.851 44.3098 125.824C44.5114 125.797 44.7164 125.811 44.9124 125.865C45.1084 125.92 45.2914 126.014 45.45 126.141C45.6086 126.268 45.7397 126.427 45.8352 126.606C47.4513 129.295 49.2383 131.877 51.1851 134.336C53.2721 136.953 55.5446 139.416 57.9851 141.706C58.2731 141.979 58.4419 142.355 58.455 142.752C58.4681 143.149 58.3245 143.535 58.0551 143.826C57.8256 144.074 57.5189 144.236 57.1851 144.286Z" fill="#BAA496"/>
<path d="M52.1851 145.026C51.9607 145.062 51.7311 145.046 51.5142 144.978C51.2973 144.91 51.0991 144.793 50.9351 144.636C45.9999 140.001 41.7355 134.7 38.2651 128.886C38.164 128.717 38.0972 128.529 38.0686 128.334C38.04 128.139 38.0501 127.94 38.0984 127.749C38.1467 127.557 38.2322 127.377 38.35 127.219C38.4679 127.061 38.6156 126.927 38.785 126.826C38.9544 126.725 39.1421 126.658 39.3373 126.63C39.5326 126.601 39.7314 126.611 39.9227 126.66C40.114 126.708 40.294 126.793 40.4522 126.911C40.6105 127.029 40.7439 127.177 40.845 127.346C42.4495 130.042 44.237 132.625 46.1951 135.076C48.2811 137.694 50.5501 140.16 52.9851 142.456C53.13 142.59 53.247 142.752 53.329 142.931C53.4111 143.11 53.4567 143.304 53.4633 143.502C53.4698 143.699 53.437 143.895 53.3669 144.08C53.2969 144.264 53.1909 144.433 53.0551 144.576C52.8222 144.818 52.5165 144.976 52.1851 145.026Z" fill="#BAA496"/>
<path d="M46.8151 134.106L45.5651 134.266C42.9036 134.518 40.2186 134.315 37.6251 133.666C37.2392 133.569 36.9076 133.323 36.7032 132.982C36.4987 132.641 36.4383 132.232 36.5351 131.846C36.6319 131.46 36.878 131.129 37.2193 130.924C37.5607 130.72 37.9692 130.659 38.3551 130.756C42.9106 131.899 47.7208 131.436 51.9751 129.446C52.1549 129.346 52.3533 129.284 52.5581 129.264C52.7628 129.244 52.9695 129.267 53.1653 129.33C53.361 129.393 53.5416 129.496 53.696 129.632C53.8503 129.768 53.9749 129.934 54.0622 130.121C54.1495 130.307 54.1976 130.509 54.2034 130.715C54.2092 130.921 54.1726 131.125 54.096 131.316C54.0193 131.507 53.9043 131.68 53.7579 131.825C53.6115 131.969 53.437 132.082 53.2451 132.156C51.2071 133.113 49.0413 133.77 46.8151 134.106Z" fill="#BAA496"/>
<path d="M50.285 141.756H50.185C47.527 142.149 44.8214 142.085 42.185 141.566C41.9881 141.528 41.8005 141.452 41.6331 141.341C41.4657 141.231 41.3217 141.088 41.2093 140.922C41.097 140.756 41.0185 140.569 40.9783 140.372C40.9381 140.176 40.9369 139.973 40.975 139.776C41.0131 139.579 41.0896 139.392 41.2002 139.224C41.3108 139.057 41.4532 138.913 41.6194 138.801C41.7857 138.688 41.9724 138.61 42.1689 138.57C42.3655 138.529 42.5681 138.528 42.7651 138.566C45.0518 139.018 47.3989 139.075 49.7051 138.736C52.0131 138.402 54.2459 137.671 56.305 136.576C56.6543 136.411 57.0539 136.387 57.4205 136.509C57.787 136.631 58.0924 136.89 58.2729 137.231C58.4534 137.573 58.4951 137.971 58.3893 138.343C58.2835 138.714 58.0384 139.031 57.7051 139.226C55.3906 140.479 52.8824 141.334 50.285 141.756Z" fill="#BAA496"/>
<path d="M107.185 125.226C108.805 123.226 107.545 118.816 103.955 114.226C103.947 114.209 103.934 114.195 103.918 114.185C103.902 114.175 103.884 114.17 103.865 114.17C103.846 114.17 103.828 114.175 103.812 114.185C103.796 114.195 103.783 114.209 103.775 114.226C101.535 119.596 101.505 124.226 103.585 125.666C104.147 126.003 104.804 126.147 105.455 126.076C106.105 125.971 106.702 125.655 107.155 125.176L107.185 125.226Z" fill="#EEE8E6"/>
<path d="M88.7651 36.196C90.0912 36.196 91.3629 35.6692 92.3006 34.7316C93.2383 33.7939 93.7651 32.5221 93.7651 31.196V19.826C90.4093 20.1439 87.0717 20.6311 83.7651 21.286V31.196C83.7651 32.5221 84.2919 33.7939 85.2296 34.7316C86.1672 35.6692 87.439 36.196 88.7651 36.196Z" fill="#B19A82"/>
<path d="M102.945 25.5061C102.538 25.5058 102.133 25.4418 101.745 25.3161C98.3893 24.2849 95.4297 22.2503 93.2651 19.4862C88.2651 12.9762 90.0052 5.28613 90.4152 3.80613C90.6989 2.78372 91.3773 1.91595 92.3009 1.39366C93.2245 0.871369 94.3178 0.737318 95.3402 1.0211C96.3626 1.30488 97.2304 1.98323 97.7527 2.90684C98.275 3.83046 98.4089 4.92374 98.1251 5.94615C97.9851 6.45615 96.8252 11.0162 99.5852 14.5862C100.755 16.0586 102.346 17.1398 104.145 17.6861C105.06 17.9703 105.843 18.5735 106.351 19.3858C106.858 20.1982 107.058 21.1659 106.913 22.1129C106.767 23.0599 106.287 23.9233 105.559 24.546C104.831 25.1687 103.903 25.5094 102.945 25.5061Z" fill="#B19A82"/>
<path d="M116.325 35.9562C117.651 35.9562 118.923 35.4294 119.861 34.4917C120.798 33.554 121.325 32.2823 121.325 30.9562V21.2262C118.018 20.5858 114.68 20.1118 111.325 19.8062V30.9562C111.325 32.2823 111.852 33.554 112.79 34.4917C113.727 35.4294 114.999 35.9562 116.325 35.9562Z" fill="#B19A82"/>
</svg>
