<svg width="274" height="201" viewBox="0 0 274 201" fill="none" xmlns="http://www.w3.org/2000/svg">
<path d="M205.73 109.74C197.42 103.82 186.39 103.2 177.13 104.04C167.87 104.88 157.88 107.56 149.95 114.13C142.61 120.21 137.36 126.23 133.88 133.26C129.49 142.11 129.17 150.02 128.43 165.78C127.77 180.01 125.82 189.51 130.03 190.63C137.61 192.63 150.45 194.86 179.47 194.28C210.77 193.66 216.64 184.99 219.57 181.49C223.81 176.44 226.36 169.49 226.74 160.2C227.69 136.25 222.94 122 205.73 109.74Z" fill="#CAB49F"/>
<path d="M197.21 102.25C192.787 99.0978 187.925 96.6114 182.78 94.87C179.721 93.6259 177.017 91.6436 174.91 89.1C178.703 82.2407 180.852 74.5947 181.188 66.7639C181.524 58.9331 180.039 51.1311 176.848 43.9719C173.657 36.8127 168.849 30.4917 162.8 25.5064C156.752 20.5211 149.629 17.0075 141.993 15.2422C134.356 13.4768 126.414 13.5079 118.791 15.333C111.169 17.158 104.074 20.7273 98.0645 25.7598C92.0554 30.7923 87.2963 37.1507 84.1616 44.3346C81.027 51.5186 79.6024 59.332 80 67.16C79.38 82.39 89.83 101.04 100.13 108.52C104.13 111.493 108.5 113.934 113.13 115.78C115.52 116.71 117.76 117.48 120.03 118.12C120.03 118.12 121.31 118.48 122.67 118.81C126.24 119.68 141.81 125.23 162.51 121.95C170.9 120.62 176.98 118 181.58 117.7C185.97 117.41 190.28 116.44 198.9 114.5C200.727 114.165 202.399 113.254 203.67 111.9C204.356 111.105 204.867 110.175 205.17 109.17C202.746 106.612 200.081 104.294 197.21 102.25Z" fill="#BAA496"/>
<path d="M187.73 71.4299C184.546 71.4344 181.393 70.8113 178.451 69.5965C175.508 68.3817 172.833 66.5989 170.58 64.3499C170.192 63.9832 169.881 63.5425 169.666 63.0539C169.451 62.5652 169.337 62.0385 169.328 61.5047C169.32 60.9709 169.419 60.4408 169.619 59.9458C169.818 59.4507 170.115 59.0007 170.492 58.6222C170.868 58.2437 171.317 57.9444 171.811 57.7419C172.305 57.5395 172.834 57.4379 173.368 57.4433C173.902 57.4487 174.429 57.5609 174.919 57.7733C175.409 57.9857 175.851 58.2939 176.22 58.6799C178.127 60.5803 180.475 61.978 183.054 62.7476C185.634 63.5173 188.364 63.6349 191 63.0899C191.515 62.9836 192.046 62.9796 192.562 63.0784C193.078 63.1771 193.57 63.3765 194.009 63.6653C194.448 63.9541 194.826 64.3266 195.122 64.7615C195.417 65.1964 195.624 65.6852 195.73 66.1999C195.836 66.7147 195.84 67.2454 195.742 67.7617C195.643 68.278 195.443 68.7698 195.155 69.2091C194.866 69.6483 194.493 70.0263 194.058 70.3216C193.624 70.6169 193.135 70.8236 192.62 70.9299C191.011 71.259 189.373 71.4265 187.73 71.4299Z" fill="#B19A82"/>
<path d="M166.07 21.65C165.572 22.1588 164.946 22.5253 164.259 22.7116C163.572 22.8979 162.847 22.8974 162.16 22.71C157.713 21.4992 152.981 21.8994 148.8 23.84C147.845 24.2432 146.772 24.2601 145.805 23.8873C144.838 23.5145 144.053 22.781 143.616 21.8412C143.18 20.9015 143.125 19.8289 143.463 18.8494C143.801 17.8699 144.506 17.0599 145.43 16.59C151.322 13.8424 157.999 13.2754 164.27 14.99C165.292 15.2706 166.161 15.9452 166.686 16.8658C167.211 17.7863 167.349 18.8776 167.07 19.9C166.895 20.5607 166.551 21.1641 166.07 21.65Z" fill="#B19A82"/>
<path d="M82.82 43.06H82.74C79.3079 43.0371 75.9297 42.2045 72.88 40.63C72.399 40.3971 71.9695 40.0701 71.6169 39.6684C71.2643 39.2667 70.9959 38.7985 70.8273 38.2913C70.6587 37.7841 70.5935 37.2482 70.6355 36.7154C70.6775 36.1826 70.8259 35.6636 71.0719 35.1891C71.3178 34.7146 71.6563 34.2942 72.0675 33.9527C72.4787 33.6112 72.9541 33.3556 73.4657 33.2009C73.9773 33.0463 74.5147 32.9957 75.0462 33.0522C75.5776 33.1087 76.0924 33.2712 76.56 33.53C78.4953 34.5354 80.6442 35.0602 82.825 35.0602C85.0059 35.0602 87.1547 34.5354 89.09 33.53C89.5576 33.2712 90.0724 33.1087 90.6039 33.0522C91.1353 32.9957 91.6728 33.0463 92.1844 33.2009C92.696 33.3556 93.1714 33.6112 93.5825 33.9527C93.9937 34.2942 94.3322 34.7146 94.5782 35.1891C94.8241 35.6636 94.9725 36.1826 95.0145 36.7154C95.0565 37.2482 94.9913 37.7841 94.8227 38.2913C94.6542 38.7985 94.3857 39.2667 94.0331 39.6684C93.6806 40.0701 93.2511 40.3971 92.77 40.63C89.6952 42.2234 86.2832 43.0567 82.82 43.06Z" fill="#B19A82"/>
<path d="M112.09 27.06C111.699 26.9425 111.329 26.7672 110.99 26.54C108.079 24.5914 105.832 21.8003 104.55 18.54C101.55 10.85 105.55 3.99998 106.34 2.69998C106.923 1.8411 107.817 1.24249 108.833 1.03063C109.849 0.81876 110.908 1.01023 111.786 1.56459C112.663 2.11894 113.291 2.99276 113.536 4.00142C113.782 5.01008 113.625 6.07457 113.1 6.96998C112.82 7.41998 110.4 11.46 112.02 15.67C112.712 17.4147 113.919 18.9074 115.48 19.95C116.268 20.4873 116.838 21.2884 117.087 22.209C117.337 23.1295 117.249 24.1089 116.84 24.9705C116.431 25.832 115.728 26.5191 114.857 26.9077C113.986 27.2964 113.004 27.361 112.09 27.09V27.06Z" fill="#B19A82"/>
<path d="M96.74 70.81C133.68 71.43 179.44 95.98 182.52 148.54C182.88 154.54 182.63 168.7 175.08 179.54C165 193.94 150.86 198 96.05 198C63.6 198 37.9 197.94 28.93 197.94C28.4577 197.915 27.9889 197.845 27.53 197.73C26.53 197.49 23.66 196.59 20.18 191.36C18.9116 189.484 17.8583 187.471 17.04 185.36C13.2184 174.76 11.0988 163.622 10.76 152.36C10.89 144.66 11.2 126.87 20.4 110.36C35.5 83.28 68.58 70.33 96.74 70.81Z" fill="#CAB49F"/>
<path d="M243.53 168.68L239.11 176.52C238.67 177.28 237.991 177.874 237.18 178.21C236.368 178.546 235.469 178.606 234.62 178.38L222.94 174.28C220.236 173.274 217.862 171.541 216.08 169.272C214.297 167.003 213.176 164.286 212.84 161.42C212.22 154.16 217.5 146.94 225.58 145.01C230.11 148.24 239.29 159.49 243.11 164.28C243.605 164.891 243.908 165.634 243.983 166.417C244.058 167.199 243.9 167.986 243.53 168.68Z" fill="#CAB49F"/>
<path d="M159.14 181.29C157.4 181.64 144.02 186.96 143.54 193.54C143.575 195.355 144.18 197.113 145.269 198.565C146.359 200.017 147.877 201.089 149.61 201.63C155.52 203.07 162.15 200.05 167.04 197.14C171.43 194.52 179.58 188.44 181.22 185.09C183.92 179.56 164.72 180.18 159.14 181.29Z" fill="#CAB49F"/>
<path d="M24.49 153.15H7.28999C3.53446 153.15 0.48999 156.194 0.48999 159.95V160.72C0.48999 164.475 3.53446 167.52 7.28999 167.52H24.49C28.2455 167.52 31.29 164.475 31.29 160.72V159.95C31.29 156.194 28.2455 153.15 24.49 153.15Z" fill="#CAB49F"/>
<path d="M103.55 153.15H86.35C82.5944 153.15 79.55 156.195 79.55 159.95V160.72C79.55 164.476 82.5944 167.52 86.35 167.52H103.55C107.306 167.52 110.35 164.476 110.35 160.72V159.95C110.35 156.195 107.306 153.15 103.55 153.15Z" fill="#CAB49F"/>
<path d="M103.55 169H86.35C84.1495 168.997 82.0399 168.122 80.4839 166.566C78.9279 165.01 78.0526 162.9 78.05 160.7V160C78.0529 158.683 78.3679 157.385 78.9694 156.214C79.5708 155.042 80.4415 154.03 81.51 153.26C81.8336 153.027 82.2366 152.931 82.6304 152.995C83.0242 153.059 83.3766 153.276 83.61 153.6C83.8434 153.924 83.9387 154.327 83.8749 154.72C83.8111 155.114 83.5935 155.467 83.27 155.7C82.5863 156.19 82.0287 156.835 81.6428 157.583C81.2569 158.33 81.0537 159.159 81.05 160V160.77C81.0526 162.175 81.6119 163.521 82.6052 164.515C83.5986 165.508 84.9451 166.067 86.35 166.07H103.55C104.246 166.072 104.935 165.935 105.577 165.667C106.219 165.399 106.802 165.006 107.29 164.51C107.573 164.232 107.953 164.075 108.35 164.075C108.747 164.075 109.127 164.232 109.41 164.51C109.55 164.649 109.662 164.814 109.738 164.996C109.814 165.178 109.853 165.373 109.853 165.57C109.853 165.767 109.814 165.962 109.738 166.144C109.662 166.326 109.55 166.491 109.41 166.63C108.637 167.391 107.722 167.993 106.716 168.399C105.711 168.806 104.635 169.01 103.55 169Z" fill="#BAA496"/>
<path d="M46.92 159.82C46.6634 167.414 44.5336 174.828 40.72 181.4C40.3582 181.969 40.1153 182.605 40.0059 183.271C39.8964 183.936 39.9227 184.617 40.0831 185.272C40.2436 185.927 40.5348 186.543 40.9394 187.082C41.344 187.622 41.8535 188.074 42.4373 188.411C43.0212 188.749 43.6672 188.965 44.3367 189.046C45.0061 189.127 45.685 189.072 46.3327 188.884C46.9803 188.696 47.5833 188.38 48.1052 187.953C48.6272 187.526 49.0574 186.998 49.37 186.4C54.021 178.396 56.6119 169.362 56.91 160.11V159.51C56.43 143.38 62.91 133.36 63.69 132.28C64.4199 131.186 64.6892 129.848 64.4394 128.556C64.1897 127.265 63.441 126.124 62.3556 125.38C61.2703 124.637 59.9357 124.351 58.6412 124.585C57.3467 124.819 56.1965 125.554 55.44 126.63C53.91 128.85 46.35 140.91 46.91 159.81L46.92 159.82Z" fill="#B19A82"/>
<path d="M73.15 183.31C72.2421 183.311 71.351 183.065 70.5723 182.598C69.7936 182.131 69.1567 181.461 68.73 180.66C65.1394 173.921 63.177 166.434 63 158.8C62.72 145.66 66.23 135.52 69.31 130.8C70.0393 129.691 71.1792 128.918 72.4788 128.65C73.7785 128.382 75.1314 128.641 76.24 129.37C77.3486 130.099 78.1221 131.239 78.3902 132.539C78.6584 133.838 78.3993 135.191 77.67 136.3C75.92 139 72.73 147 73 158.59C73.131 164.67 74.6896 170.634 77.55 176C77.9575 176.761 78.161 177.615 78.1406 178.478C78.1202 179.341 77.8766 180.185 77.4336 180.926C76.9905 181.667 76.3631 182.28 75.6124 182.707C74.8618 183.134 74.0134 183.359 73.15 183.36V183.31Z" fill="#B19A82"/>
<path d="M42.26 183.8C41.2626 183.801 40.2878 183.503 39.461 182.945C38.6341 182.387 37.993 181.595 37.62 180.67C34.8439 173.819 33.3981 166.502 33.36 159.11C33.29 146.51 36.13 136.48 38.82 131.28C39.122 130.697 39.5359 130.179 40.0381 129.756C40.5403 129.333 41.1209 129.013 41.7468 128.814C42.3726 128.615 43.0315 128.542 43.6858 128.598C44.34 128.654 44.9769 128.838 45.56 129.14C46.143 129.442 46.6609 129.856 47.084 130.358C47.5071 130.86 47.8272 131.441 48.0259 132.067C48.2246 132.693 48.2981 133.351 48.2422 134.006C48.1862 134.66 48.002 135.297 47.7 135.88C46.06 139.06 43.29 147.51 43.36 159.06C43.3926 165.187 44.5906 171.251 46.89 176.93C47.1359 177.539 47.2593 178.191 47.2532 178.848C47.2471 179.505 47.1115 180.154 46.8542 180.759C46.597 181.364 46.2231 181.912 45.7539 182.372C45.2848 182.832 44.7295 183.195 44.12 183.44C43.5294 183.68 42.8975 183.803 42.26 183.8Z" fill="#B19A82"/>
<path d="M122.61 135.44C122.267 135.438 121.936 135.319 121.67 135.103C121.404 134.886 121.221 134.585 121.15 134.25C120.215 129.856 118.986 125.529 117.47 121.3C115.854 116.788 113.919 112.397 111.68 108.16C111.587 107.986 111.53 107.795 111.511 107.599C111.492 107.403 111.512 107.205 111.57 107.017C111.627 106.828 111.721 106.653 111.847 106.501C111.972 106.349 112.126 106.223 112.3 106.13C112.474 106.037 112.665 105.98 112.861 105.961C113.057 105.942 113.255 105.962 113.443 106.02C113.632 106.077 113.807 106.171 113.959 106.297C114.111 106.422 114.237 106.576 114.33 106.75C116.649 111.115 118.654 115.64 120.33 120.29C121.884 124.648 123.147 129.105 124.11 133.63C124.19 134.02 124.113 134.425 123.896 134.759C123.679 135.092 123.339 135.326 122.95 135.41C122.838 135.432 122.724 135.442 122.61 135.44Z" fill="#BAA496"/>
<path d="M128.51 138.4C128.17 138.343 127.861 138.17 127.633 137.912C127.405 137.653 127.274 137.324 127.26 136.98C127.08 132.493 126.599 128.023 125.82 123.6C124.984 118.88 123.814 114.225 122.32 109.67C122.258 109.483 122.234 109.285 122.249 109.089C122.263 108.892 122.316 108.701 122.405 108.525C122.494 108.349 122.616 108.192 122.765 108.063C122.915 107.935 123.088 107.837 123.275 107.775C123.462 107.713 123.66 107.689 123.856 107.704C124.053 107.718 124.244 107.771 124.42 107.86C124.596 107.949 124.753 108.071 124.882 108.22C125.01 108.37 125.108 108.543 125.17 108.73C126.71 113.422 127.917 118.217 128.78 123.08C129.582 127.635 130.077 132.239 130.26 136.86C130.268 137.057 130.237 137.254 130.169 137.439C130.101 137.624 129.997 137.794 129.863 137.939C129.73 138.083 129.569 138.201 129.39 138.283C129.211 138.366 129.017 138.412 128.82 138.42C128.716 138.429 128.612 138.422 128.51 138.4Z" fill="#BAA496"/>
<path d="M133.36 134.75C132.968 134.748 132.591 134.593 132.31 134.32C127.449 129.54 121.095 126.575 114.31 125.92C113.912 125.883 113.545 125.689 113.29 125.382C113.035 125.074 112.913 124.678 112.95 124.28C112.987 123.882 113.181 123.515 113.488 123.26C113.796 123.005 114.192 122.883 114.59 122.92C122.074 123.636 129.086 126.902 134.45 132.17C134.731 132.451 134.889 132.832 134.889 133.23C134.889 133.627 134.731 134.009 134.45 134.29C134.31 134.437 134.14 134.554 133.953 134.634C133.765 134.713 133.563 134.752 133.36 134.75Z" fill="#BAA496"/>
<path d="M130.09 124.24C129.878 124.241 129.667 124.196 129.474 124.108C129.281 124.02 129.109 123.891 128.97 123.73C124.469 118.589 118.335 115.153 111.6 114C111.403 113.967 111.214 113.896 111.045 113.79C110.876 113.684 110.729 113.546 110.613 113.384C110.496 113.221 110.414 113.038 110.368 112.843C110.323 112.648 110.317 112.447 110.35 112.25C110.383 112.053 110.454 111.864 110.56 111.695C110.666 111.526 110.804 111.379 110.966 111.262C111.129 111.146 111.312 111.063 111.507 111.018C111.701 110.973 111.903 110.967 112.1 111C119.513 112.258 126.266 116.034 131.22 121.69C131.352 121.838 131.452 122.01 131.517 122.197C131.581 122.384 131.607 122.582 131.594 122.779C131.581 122.977 131.529 123.169 131.441 123.346C131.352 123.523 131.23 123.681 131.08 123.81C130.816 124.074 130.463 124.227 130.09 124.24Z" fill="#BAA496"/>
<path d="M20.86 110.75H20.78C17.3487 110.731 13.9704 109.901 10.92 108.33C9.97713 107.842 9.26676 106.999 8.94513 105.988C8.62351 104.976 8.71698 103.878 9.20498 102.935C9.69297 101.992 10.5355 101.282 11.5473 100.96C12.559 100.639 13.6571 100.732 14.6 101.22C16.5197 102.214 18.6481 102.739 20.81 102.75C23.0116 102.751 25.1817 102.226 27.14 101.22C28.0828 100.733 29.1804 100.641 30.1912 100.964C31.202 101.286 32.0433 101.997 32.53 102.94C33.0166 103.883 33.1088 104.98 32.7863 105.991C32.4637 107.002 31.7528 107.843 30.81 108.33C27.7328 109.916 24.3218 110.746 20.86 110.75Z" fill="#B19A82"/>
<path d="M183.56 155.24C182.853 155.245 182.158 155.062 181.545 154.711C180.932 154.359 180.423 153.852 180.07 153.24C177.818 149.218 174.215 146.122 169.9 144.5C169.404 144.318 168.95 144.04 168.562 143.682C168.174 143.324 167.861 142.893 167.641 142.413C167.421 141.933 167.298 141.414 167.279 140.887C167.26 140.359 167.346 139.833 167.531 139.339C167.716 138.845 167.998 138.392 168.359 138.007C168.72 137.622 169.154 137.313 169.635 137.096C170.117 136.88 170.636 136.76 171.164 136.746C171.692 136.731 172.217 136.821 172.71 137.01C175.556 138.075 178.206 139.606 180.55 141.54C183.177 143.715 185.381 146.356 187.05 149.33C187.567 150.256 187.695 151.349 187.406 152.369C187.117 153.389 186.435 154.252 185.51 154.77C184.91 155.09 184.239 155.251 183.56 155.24Z" fill="#B19A82"/>
<path d="M167.09 112.06C160.664 112.07 154.497 109.531 149.94 105C149.552 104.633 149.241 104.193 149.026 103.704C148.811 103.215 148.696 102.688 148.688 102.155C148.68 101.621 148.779 101.091 148.979 100.596C149.178 100.101 149.475 99.6507 149.852 99.2722C150.228 98.8937 150.677 98.5944 151.171 98.392C151.665 98.1895 152.194 98.088 152.728 98.0933C153.262 98.0987 153.789 98.2109 154.279 98.4233C154.769 98.6357 155.211 98.944 155.58 99.33C157.493 101.23 159.847 102.627 162.431 103.396C165.015 104.166 167.749 104.284 170.39 103.74C171.413 103.563 172.465 103.79 173.324 104.374C174.182 104.958 174.78 105.854 174.991 106.871C175.201 107.888 175.008 108.947 174.451 109.824C173.895 110.701 173.02 111.327 172.01 111.57C170.391 111.902 168.742 112.066 167.09 112.06Z" fill="#B19A82"/>
<path d="M61.43 82.89C61.0257 82.8906 60.624 82.8264 60.24 82.7C56.8809 81.6695 53.9181 79.6349 51.75 76.87C46.75 70.36 48.49 62.67 48.9 61.19C49.1837 60.1676 49.862 59.2998 50.7857 58.7775C51.243 58.5189 51.7468 58.3529 52.2683 58.289C52.7897 58.2251 53.3187 58.2645 53.825 58.405C54.3312 58.5455 54.8048 58.7844 55.2188 59.1079C55.6327 59.4315 55.9789 59.8334 56.2375 60.2907C56.4961 60.7481 56.6621 61.2518 56.726 61.7733C56.7899 62.2948 56.7505 62.8238 56.61 63.33C56.47 63.84 55.31 68.4 58.08 71.97C59.2464 73.4417 60.8335 74.5231 62.63 75.07C63.5449 75.3542 64.3275 75.9573 64.8354 76.7697C65.3432 77.5821 65.5426 78.5498 65.3973 79.4968C65.252 80.4437 64.7716 81.3071 64.0435 81.9298C63.3154 82.5526 62.388 82.8933 61.43 82.89Z" fill="#B19A82"/>
<path d="M13.7899 191.28C12.9245 191.281 12.082 191.002 11.3889 190.483C10.6958 189.965 10.1896 189.236 9.94619 188.405C9.70277 187.575 9.7353 186.687 10.0389 185.877C10.3425 185.066 10.9008 184.376 11.6299 183.91C12.359 183.45 12.9607 182.813 13.3799 182.06C13.7235 181.422 13.9343 180.722 13.9999 180C14.0453 179.475 14.1936 178.964 14.4365 178.496C14.6793 178.028 15.012 177.612 15.4155 177.273C15.8189 176.933 16.2853 176.677 16.788 176.518C17.2906 176.358 17.8197 176.3 18.3449 176.345C18.8702 176.39 19.3815 176.539 19.8494 176.782C20.3174 177.024 20.7329 177.357 21.0723 177.761C21.4117 178.164 21.6683 178.63 21.8275 179.133C21.9867 179.636 22.0453 180.165 21.9999 180.69C21.8437 182.556 21.2877 184.367 20.3699 186C19.3046 187.909 17.7825 189.524 15.9399 190.7C15.2926 191.093 14.5471 191.294 13.7899 191.28Z" fill="#B19A82"/>
<path d="M248.79 160.69C248.773 160.412 248.683 160.143 248.53 159.91C248.261 159.516 247.848 159.243 247.38 159.15L243.17 158.89C243.159 159.476 243.312 160.054 243.613 160.558C243.913 161.062 244.349 161.471 244.87 161.74C245.545 162.041 246.302 162.101 247.016 161.91C247.73 161.719 248.356 161.288 248.79 160.69Z" fill="#DFB99A"/>
<path d="M251.73 160.46C252.465 159.502 253.538 158.862 254.73 158.67C257.22 158.34 259.43 160.26 259.23 160.89C259.15 161.3 257.81 161.56 251.73 160.46Z" fill="#DFB99A"/>
<path d="M265.24 198.85H237.85C236.75 198.85 235.78 198.33 235.7 197.69L231 162.77C230.85 161.67 231.92 160.77 233.38 160.77H269.79C271.26 160.77 272.33 161.68 272.18 162.77L267.44 197.69C267.31 198.33 266.35 198.85 265.24 198.85Z" fill="#6593B3"/>
<path d="M269.53 173.51H233.53C232.08 173.51 230.88 173.29 230.85 173.01L229.62 160.79C229.62 160.48 230.82 160.22 232.36 160.22H270.66C272.2 160.22 273.43 160.48 273.39 160.79L272.2 173C272.18 173.29 271 173.51 269.53 173.51Z" fill="#6593B3"/>
<path d="M244.73 158.71C243.03 158.63 241.65 158.71 240.68 158.64C238.97 158.45 235.98 157.91 234.01 158.39C233.602 158.485 233.218 158.662 232.88 158.91C232.351 159.332 231.955 159.898 231.74 160.54C230.656 163.748 229.965 167.076 229.68 170.45C229.579 173.475 229.871 176.5 230.55 179.45C230.587 179.617 230.664 179.773 230.773 179.904C230.882 180.036 231.021 180.139 231.178 180.207C231.336 180.274 231.507 180.303 231.677 180.292C231.848 180.28 232.013 180.228 232.16 180.14C234.782 178.606 237.192 176.737 239.33 174.58C240.739 173.204 242.005 171.69 243.11 170.06C243.937 168.895 244.61 167.628 245.11 166.29C246.34 162.79 245.75 159.7 247.18 159.19C247.268 159.162 247.358 159.142 247.45 159.13C246.551 158.943 245.643 158.802 244.73 158.71Z" fill="#F5CE9B"/>
<path d="M271.16 165.85C269.98 163.36 269.16 161.4 267.24 160.01C266.316 159.335 265.285 158.821 264.19 158.49C261.646 158.115 259.062 158.085 256.51 158.4C255.91 158.47 255.33 158.57 254.77 158.67C255.011 158.791 255.233 158.946 255.43 159.13C257.88 161.46 254.8 166.55 255.51 172.27C255.96 175.84 257.08 178.27 261.3 182.83C263.957 185.672 266.984 188.145 270.3 190.18C270.432 190.258 270.58 190.304 270.732 190.315C270.885 190.327 271.038 190.303 271.18 190.246C271.322 190.189 271.449 190.101 271.551 189.987C271.654 189.873 271.728 189.737 271.77 189.59C272.804 185.844 273.322 181.975 273.31 178.09C273.28 174.23 273.26 170.32 271.16 165.85Z" fill="#F0E8BC"/>
</svg>
