<svg width="190" height="179" viewBox="0 0 190 179" fill="none" xmlns="http://www.w3.org/2000/svg">
<path d="M131.81 126.89C129.53 123.46 120.59 106.79 95.0398 106.79C69.4898 106.79 60.5598 123.46 58.2698 126.89C42.5498 150.53 53.9998 195.18 94.9998 227.71C136.12 195.18 147.53 150.53 131.81 126.89Z" fill="#BC9C86"/>
<path d="M129.92 172.18C129.022 172.179 128.151 171.876 127.447 171.321C126.742 170.765 126.245 169.989 126.035 169.116C125.825 168.244 125.914 167.326 126.289 166.51C126.663 165.695 127.301 165.029 128.1 164.62C130.324 163.487 132.753 162.815 135.243 162.643C137.733 162.471 140.231 162.803 142.59 163.62C143.594 163.965 144.419 164.694 144.885 165.648C145.351 166.601 145.42 167.701 145.075 168.705C144.73 169.709 144.001 170.535 143.047 171.001C142.093 171.467 140.994 171.535 139.99 171.19C138.753 170.761 137.447 170.568 136.14 170.62C134.601 170.681 133.093 171.073 131.72 171.77C131.16 172.045 130.544 172.185 129.92 172.18Z" fill="#B19A82"/>
<path d="M120.69 124.31C119.629 124.368 118.588 124.003 117.797 123.294C117.006 122.585 116.528 121.591 116.47 120.53C116.412 119.469 116.777 118.428 117.486 117.637C118.195 116.846 119.189 116.368 120.25 116.31C121.769 116.145 123.235 115.657 124.55 114.88C125.571 114.268 126.486 113.495 127.26 112.59C127.949 111.782 128.932 111.282 129.99 111.198C131.049 111.115 132.097 111.455 132.905 112.145C133.713 112.834 134.213 113.817 134.297 114.875C134.38 115.934 134.039 116.982 133.35 117.79C131.999 119.373 130.398 120.724 128.61 121.79C126.325 123.14 123.778 123.989 121.14 124.28C120.991 124.3 120.84 124.31 120.69 124.31Z" fill="#B19A82"/>
<path d="M83.6098 115.09C82.9064 115.086 82.2165 114.896 81.6098 114.54C79.1216 113.075 77.1267 110.902 75.8798 108.298C74.6329 105.693 74.1908 102.777 74.6098 99.9199C74.761 98.8696 75.3232 97.9225 76.1727 97.2867C77.0222 96.651 78.0895 96.3787 79.1398 96.5299C80.19 96.6811 81.1372 97.2433 81.773 98.0928C82.4087 98.9424 82.681 100.01 82.5298 101.06C82.338 102.346 82.5367 103.659 83.1001 104.831C83.6635 106.002 84.5657 106.977 85.6898 107.63C86.4503 108.071 87.0443 108.751 87.3799 109.563C87.7155 110.376 87.7739 111.276 87.5463 112.126C87.3186 112.975 86.8175 113.726 86.1204 114.261C85.4232 114.797 84.569 115.088 83.6898 115.09H83.6098Z" fill="#B19A82"/>
<path d="M49.6898 182.76C48.7632 182.76 47.8388 182.67 46.9298 182.49C46.4044 182.397 45.9029 182.201 45.4547 181.911C45.0065 181.622 44.6207 181.246 44.32 180.805C44.0194 180.364 43.8099 179.868 43.7039 179.345C43.598 178.822 43.5977 178.283 43.7031 177.76C43.8085 177.237 44.0175 176.741 44.3177 176.3C44.6179 175.859 45.0032 175.482 45.4511 175.192C45.899 174.903 46.4004 174.705 46.9257 174.612C47.4509 174.519 47.9896 174.532 48.5098 174.65C49.5543 174.864 50.6379 174.785 51.6398 174.42C52.9012 173.926 53.9586 173.021 54.6398 171.85C54.8834 171.361 55.2245 170.927 55.6423 170.574C56.0601 170.222 56.5456 169.959 57.0689 169.802C57.5922 169.645 58.1421 169.596 58.6849 169.66C59.2276 169.723 59.7516 169.897 60.2245 170.171C60.6974 170.445 61.1092 170.812 61.4345 171.251C61.7598 171.69 61.9917 172.192 62.1159 172.724C62.2401 173.256 62.2539 173.808 62.1565 174.345C62.0592 174.883 61.8527 175.395 61.5498 175.85C59.9363 178.645 57.3966 180.789 54.3698 181.91C52.8714 182.464 51.2875 182.752 49.6898 182.76Z" fill="#B19A82"/>
<path d="M60.8699 131.37C60.6767 131.38 60.4831 131.38 60.2899 131.37C58.1275 131.058 56.1209 130.065 54.5617 128.534C53.0025 127.004 51.972 125.016 51.6199 122.86C51.4818 121.829 51.7506 120.785 52.3693 119.949C52.988 119.113 53.908 118.551 54.9342 118.382C55.9604 118.213 57.0121 118.45 57.8663 119.043C58.7205 119.637 59.3101 120.539 59.5099 121.56C59.5847 122.039 59.8117 122.482 60.1575 122.822C60.5033 123.163 60.9494 123.383 61.4299 123.45C62.4908 123.524 63.4787 124.017 64.1763 124.819C64.874 125.622 65.2242 126.669 65.1499 127.73C65.0757 128.791 64.583 129.779 63.7804 130.476C62.9777 131.174 61.9308 131.524 60.8699 131.45V131.37Z" fill="#B19A82"/>
<path d="M154.06 174.3C155.85 176.98 163.59 189.07 159.66 196.45C157.92 199.73 152.54 200.06 149.02 198.99C143.43 197.28 141.18 191.1 138.09 182.21C135.33 174.21 134.64 162.32 134.53 158.95C134.33 153.4 148.33 165.71 154.06 174.3Z" fill="#CBAC92"/>
<path d="M35.9998 174.3C34.2098 176.98 26.4798 189.07 30.3998 196.45C32.1398 199.73 37.5198 200.06 41.0398 198.99C46.6298 197.28 48.8798 191.1 51.9698 182.21C54.7298 174.21 55.4298 162.32 55.5298 158.95C55.6398 153.4 41.6498 165.71 35.9998 174.3Z" fill="#CBAC92"/>
<path d="M122.49 145.16C116.03 141.55 104.57 139.16 95.1398 139.16C85.7098 139.16 74.2498 141.51 67.7798 145.16C54.3998 152.61 45.7798 169.46 46.4498 195.16C47.2198 224.65 67.5598 230 94.9998 230C122.44 230 142.77 224.67 143.55 195.17C144.22 169.46 135.86 152.61 122.49 145.16Z" fill="#CBAC92"/>
<path d="M110 229.23C121.64 224.68 127.93 211.43 125 198.61L124.64 197.03C121.76 184.37 110.3 175.77 98.5798 175.77H91.5198C79.7998 175.77 68.3398 184.37 65.4598 197.03L65.0998 198.61C62.0998 211.43 68.4198 224.68 80.0998 229.23C85.0811 229.77 90.0895 230.02 95.0998 229.98C100.077 230.017 105.052 229.767 110 229.23Z" fill="#F8EFDC"/>
<path d="M52.1899 43.7799C61.6284 43.7799 69.2799 36.1285 69.2799 26.6899C69.2799 17.2514 61.6284 9.59991 52.1899 9.59991C42.7513 9.59991 35.0999 17.2514 35.0999 26.6899C35.0999 36.1285 42.7513 43.7799 52.1899 43.7799Z" fill="#CBAC92"/>
<path d="M52.1899 36.0299C57.3482 36.0299 61.5299 31.8483 61.5299 26.6899C61.5299 21.5316 57.3482 17.3499 52.1899 17.3499C47.0315 17.3499 42.8499 21.5316 42.8499 26.6899C42.8499 31.8483 47.0315 36.0299 52.1899 36.0299Z" fill="#F8EFDC"/>
<path d="M137.83 43.7799C147.268 43.7799 154.92 36.1285 154.92 26.6899C154.92 17.2514 147.268 9.59991 137.83 9.59991C128.391 9.59991 120.74 17.2514 120.74 26.6899C120.74 36.1285 128.391 43.7799 137.83 43.7799Z" fill="#CBAC92"/>
<path d="M137.83 36.0299C142.988 36.0299 147.17 31.8483 147.17 26.6899C147.17 21.5316 142.988 17.3499 137.83 17.3499C132.671 17.3499 128.49 21.5316 128.49 26.6899C128.49 31.8483 132.671 36.0299 137.83 36.0299Z" fill="#F8EFDC"/>
<path d="M95.1399 18.8099C133.02 18.8099 180.62 42.4699 183.67 95.0599C186.42 142.39 149.06 168.06 95.1399 168.06C41.2199 168.06 3.84986 142.39 6.59986 95.0599C9.64986 42.4699 57.2499 18.8099 95.1399 18.8099Z" fill="#CBAC92"/>
<path d="M95.0498 114.7C97.5241 114.7 99.5298 113.222 99.5298 111.4C99.5298 109.577 97.5241 108.1 95.0498 108.1C92.5756 108.1 90.5698 109.577 90.5698 111.4C90.5698 113.222 92.5756 114.7 95.0498 114.7Z" fill="#816A55"/>
<path d="M86.9398 121.78C82.9398 121.78 78.9398 119.92 77.5998 116.03C77.5342 115.843 77.506 115.645 77.517 115.447C77.5279 115.249 77.5777 115.055 77.6636 114.876C77.7495 114.697 77.8698 114.537 78.0175 114.405C78.1653 114.272 78.3377 114.171 78.5248 114.105C78.7119 114.039 78.9102 114.011 79.1082 114.022C79.3062 114.033 79.5001 114.083 79.6789 114.169C79.8576 114.255 80.0177 114.375 80.15 114.523C80.2823 114.67 80.3842 114.843 80.4498 115.03C81.5298 118.24 85.8698 119.31 89.2598 118.46C90.7298 118.09 94.0798 116.81 93.4298 112.91L93.1498 111.16H96.8898L96.5998 112.91C95.9498 116.81 99.2998 118.09 100.77 118.46C104.17 119.3 108.5 118.24 109.59 115.03C109.715 114.654 109.985 114.343 110.339 114.165C110.693 113.987 111.103 113.956 111.48 114.08C111.667 114.142 111.84 114.24 111.989 114.37C112.138 114.499 112.259 114.657 112.347 114.834C112.434 115.01 112.486 115.203 112.498 115.399C112.511 115.596 112.484 115.793 112.42 115.98C110.77 120.87 104.82 122.56 100.04 121.36C98.078 120.915 96.3193 119.832 95.0398 118.28C93.7644 119.837 92.004 120.921 90.0398 121.36C89.0272 121.624 87.9863 121.765 86.9398 121.78Z" fill="#816A55"/>
<path d="M57.8899 106.58C61.1926 106.58 63.8699 103.903 63.8699 100.6C63.8699 97.2972 61.1926 94.6199 57.8899 94.6199C54.5872 94.6199 51.9099 97.2972 51.9099 100.6C51.9099 103.903 54.5872 106.58 57.8899 106.58Z" fill="#816A55"/>
<path d="M132.1 106.58C135.403 106.58 138.08 103.903 138.08 100.6C138.08 97.2972 135.403 94.6199 132.1 94.6199C128.797 94.6199 126.12 97.2972 126.12 100.6C126.12 103.903 128.797 106.58 132.1 106.58Z" fill="#816A55"/>
<path d="M25.0598 50.1299H24.9998C21.5681 50.1131 18.1892 49.2839 15.1398 47.7099C14.1969 47.2219 13.4865 46.3794 13.1649 45.3676C12.8433 44.3559 12.9368 43.2578 13.4248 42.3149C13.9128 41.3721 14.7553 40.6617 15.7671 40.3401C16.7788 40.0185 17.8769 40.1119 18.8198 40.5999C20.7568 41.6054 22.9073 42.1302 25.0898 42.1302C27.2722 42.1302 29.4227 41.6054 31.3598 40.5999C32.2943 40.1854 33.352 40.1445 34.3158 40.4855C35.2796 40.8265 36.0762 41.5236 36.5421 42.4336C37.008 43.3436 37.1077 44.3974 36.8209 45.3787C36.5341 46.3599 35.8824 47.1941 34.9998 47.7099C31.9257 49.2947 28.5183 50.1243 25.0598 50.1299Z" fill="#B19A82"/>
<path d="M0.999869 93.0799C-0.734739 93.0786 -2.46321 92.8738 -4.15013 92.4699C-5.1805 92.2166 -6.06805 91.5644 -6.61753 90.6567C-7.16701 89.7491 -7.33341 88.6603 -7.08013 87.6299C-6.82685 86.5996 -6.17463 85.712 -5.26695 85.1625C-4.35928 84.613 -3.2705 84.4466 -2.24013 84.6999C0.570916 85.3917 3.52988 85.1615 6.20013 84.0433C8.87038 82.9252 11.1105 80.9783 12.5899 78.4899C12.8584 78.0382 13.2133 77.6437 13.6343 77.3292C14.0553 77.0146 14.5341 76.786 15.0435 76.6564C15.5528 76.5269 16.0826 76.4989 16.6028 76.5742C17.1229 76.6494 17.6231 76.8264 18.0749 77.0949C18.5266 77.3635 18.921 77.7184 19.2356 78.1393C19.5502 78.5603 19.7788 79.0392 19.9083 79.5485C20.0379 80.0578 20.0658 80.5877 19.9906 81.1078C19.9154 81.628 19.7384 82.1282 19.4699 82.5799C17.1048 86.5258 13.5469 89.6179 9.30987 91.4099C6.67932 92.5164 3.85364 93.0842 0.999869 93.0799Z" fill="#B19A82"/>
<path d="M12.1798 140.76C11.7657 140.761 11.354 140.697 10.9598 140.57C9.95621 140.246 9.12102 139.539 8.63598 138.603C8.15094 137.667 8.05529 136.576 8.36984 135.57C9.78002 131.144 12.8522 127.437 16.9398 125.23C17.857 124.83 18.8908 124.788 19.8373 125.113C20.7839 125.437 21.5743 126.105 22.0527 126.984C22.531 127.863 22.6626 128.889 22.4214 129.86C22.1802 130.831 21.5838 131.677 20.7498 132.23C18.4728 133.458 16.7675 135.529 15.9998 138C15.7373 138.805 15.226 139.506 14.5395 140.002C13.853 140.498 13.0268 140.764 12.1798 140.76Z" fill="#B19A82"/>
<path d="M35.0599 161.65C34.1944 161.651 33.3519 161.371 32.6589 160.853C31.9658 160.335 31.4596 159.606 31.2161 158.775C30.9727 157.944 31.0053 157.057 31.3089 156.247C31.6125 155.436 32.1707 154.746 32.8999 154.28C33.6299 153.818 34.2344 153.182 34.6599 152.43C35.0144 151.789 35.2291 151.08 35.2899 150.35C35.3346 149.825 35.4822 149.313 35.7245 148.845C35.9668 148.377 36.2989 147.961 36.7019 147.621C37.1049 147.281 37.5709 147.024 38.0733 146.864C38.5757 146.705 39.1046 146.645 39.6299 146.69C40.1552 146.735 40.6665 146.882 41.1348 147.125C41.603 147.367 42.0189 147.699 42.3587 148.102C42.6986 148.505 42.9558 148.971 43.1155 149.473C43.2753 149.976 43.3346 150.505 43.2899 151.03C43.1371 152.893 42.5846 154.7 41.6699 156.33C40.5935 158.232 39.0608 159.837 37.2099 161C36.5717 161.421 35.8245 161.647 35.0599 161.65Z" fill="#B19A82"/>
<path d="M161.47 156.06C160.818 156.062 160.176 155.904 159.599 155.601C159.022 155.297 158.528 154.858 158.16 154.32L154.16 148.44C153.576 147.564 153.361 146.494 153.56 145.461C153.76 144.428 154.359 143.515 155.227 142.92C156.096 142.325 157.163 142.097 158.199 142.284C159.235 142.471 160.155 143.059 160.76 143.92L164.76 149.81C165.168 150.41 165.405 151.11 165.446 151.834C165.487 152.559 165.33 153.281 164.992 153.923C164.654 154.565 164.148 155.104 163.527 155.48C162.907 155.856 162.196 156.057 161.47 156.06Z" fill="#B19A82"/>
<path d="M188.4 130.45H188.06C182.241 129.978 176.718 127.69 172.27 123.91C171.851 123.576 171.503 123.162 171.247 122.691C170.991 122.221 170.832 121.704 170.78 121.171C170.727 120.637 170.783 120.099 170.942 119.588C171.102 119.077 171.363 118.602 171.709 118.194C172.055 117.785 172.48 117.45 172.959 117.209C173.437 116.968 173.959 116.825 174.493 116.789C175.028 116.753 175.564 116.825 176.07 117C176.576 117.176 177.042 117.451 177.44 117.81C179.053 119.177 180.872 120.28 182.83 121.08C184.71 121.845 186.696 122.317 188.72 122.48C189.245 122.501 189.761 122.625 190.238 122.846C190.716 123.066 191.145 123.378 191.501 123.765C191.858 124.151 192.135 124.604 192.317 125.097C192.498 125.59 192.581 126.115 192.56 126.64C192.539 127.165 192.414 127.681 192.194 128.158C191.974 128.636 191.661 129.065 191.275 129.422C190.889 129.778 190.436 130.055 189.943 130.237C189.449 130.418 188.925 130.501 188.4 130.48V130.45Z" fill="#B19A82"/>
<path d="M187.75 94.0699C187.043 94.0745 186.348 93.8918 185.735 93.5405C185.122 93.1892 184.613 92.6818 184.26 92.0699C183.083 89.9546 181.519 88.0788 179.65 86.5399C177.985 85.1726 176.107 84.0882 174.09 83.3299C173.594 83.1483 173.139 82.8704 172.752 82.5122C172.364 82.154 172.051 81.7225 171.831 81.2428C171.611 80.763 171.487 80.2444 171.469 79.7169C171.45 79.1894 171.536 78.6633 171.721 78.169C171.906 77.6748 172.188 77.2222 172.549 76.8372C172.91 76.4522 173.344 76.1426 173.825 75.926C174.307 75.7095 174.826 75.5904 175.354 75.5757C175.882 75.5609 176.407 75.6507 176.9 75.8399C182.987 78.1198 188.069 82.4854 191.24 88.1599C191.757 89.0857 191.884 90.1786 191.596 91.1986C191.307 92.2186 190.625 93.0823 189.7 93.5999C189.102 93.9231 188.43 94.085 187.75 94.0699Z" fill="#B19A82"/>
<path d="M171.28 56.43C164.853 56.4371 158.685 53.8945 154.13 49.36C153.742 48.9932 153.431 48.5525 153.216 48.0639C153.001 47.5752 152.886 47.0485 152.878 46.5147C152.87 45.9809 152.969 45.4508 153.169 44.9558C153.368 44.4607 153.665 44.0107 154.042 43.6322C154.418 43.2537 154.867 42.9544 155.361 42.752C155.855 42.5495 156.384 42.4479 156.918 42.4533C157.452 42.4587 157.979 42.5709 158.469 42.7833C158.959 42.9957 159.401 43.304 159.77 43.69C161.683 45.5899 164.037 46.9868 166.621 47.7563C169.205 48.5258 171.939 48.6438 174.58 48.1C175.101 47.9744 175.642 47.955 176.171 48.0428C176.7 48.1306 177.206 48.3238 177.659 48.6109C178.112 48.8981 178.502 49.2734 178.807 49.7144C179.112 50.1555 179.325 50.6533 179.433 51.1784C179.542 51.7034 179.544 52.2449 179.439 52.7707C179.334 53.2966 179.125 53.7959 178.823 54.2392C178.522 54.6824 178.134 55.0605 177.683 55.351C177.233 55.6414 176.728 55.8383 176.2 55.93C174.581 56.2656 172.933 56.4332 171.28 56.43Z" fill="#B19A82"/>
<path d="M156.56 88.24C156.216 88.2387 155.883 88.12 155.615 87.9036C155.348 87.6872 155.163 87.3861 155.09 87.05C153.16 77.9684 149.973 69.2005 145.62 60.9999C145.527 60.8259 145.47 60.6354 145.451 60.4392C145.432 60.243 145.452 60.045 145.509 59.8565C145.567 59.668 145.661 59.4927 145.786 59.3406C145.912 59.1885 146.066 59.0625 146.24 58.9699C146.414 58.8774 146.604 58.82 146.8 58.801C146.997 58.7821 147.195 58.8019 147.383 58.8595C147.572 58.9171 147.747 59.0112 147.899 59.1366C148.051 59.2619 148.177 59.4159 148.27 59.5899C150.589 63.955 152.594 68.4798 154.27 73.13C155.81 77.4747 157.056 81.9181 158 86.4299C158.08 86.8196 158.003 87.2252 157.786 87.5585C157.569 87.8918 157.229 88.1259 156.84 88.21L156.56 88.24Z" fill="#BC9C86"/>
<path d="M163.09 90.2799C162.748 90.2805 162.416 90.1636 162.151 89.9488C161.885 89.7339 161.701 89.4342 161.63 89.0999C160.707 84.7079 159.494 80.3817 158 76.1499C156.382 71.6339 154.444 67.2393 152.2 62.9999C152.035 62.6507 152.01 62.2511 152.132 61.8845C152.255 61.5179 152.513 61.2126 152.855 61.0321C153.197 60.8516 153.595 60.8099 153.966 60.9157C154.338 61.0215 154.654 61.2666 154.85 61.5999C157.167 65.9624 159.172 70.4838 160.85 75.1299C162.407 79.4869 163.67 83.9436 164.63 88.4699C164.713 88.8584 164.638 89.264 164.423 89.5978C164.207 89.9315 163.868 90.166 163.48 90.2499C163.351 90.2746 163.22 90.2847 163.09 90.2799Z" fill="#BC9C86"/>
<path d="M167.31 87.55C166.915 87.546 166.536 87.3923 166.25 87.1199C161.389 82.3404 155.035 79.3751 148.25 78.7199C147.852 78.6815 147.486 78.4866 147.231 78.1781C146.977 77.8696 146.856 77.4728 146.895 77.0749C146.933 76.6771 147.128 76.3109 147.437 76.0568C147.745 75.8026 148.142 75.6815 148.54 75.7199C156.014 76.453 163.01 79.7288 168.36 84.9999C168.641 85.2812 168.798 85.6624 168.798 86.0599C168.798 86.4574 168.641 86.8387 168.36 87.1199C168.078 87.3934 167.702 87.5475 167.31 87.55Z" fill="#BC9C86"/>
<path d="M164 77C163.786 77.001 163.574 76.9561 163.379 76.8681C163.184 76.7801 163.01 76.6511 162.87 76.49C158.37 71.3509 152.235 67.9213 145.5 66.78C145.102 66.7123 144.747 66.4894 144.514 66.1603C144.28 65.8312 144.187 65.4228 144.255 65.025C144.322 64.6271 144.545 64.2725 144.874 64.039C145.203 63.8055 145.612 63.7123 146.01 63.78C153.421 65.0446 160.171 68.8189 165.13 74.47C165.333 74.6854 165.469 74.9564 165.518 75.2487C165.568 75.541 165.53 75.8415 165.409 76.1122C165.288 76.3829 165.09 76.6118 164.839 76.7698C164.588 76.9278 164.296 77.0079 164 77Z" fill="#BC9C86"/>
<path d="M49.6197 143.7C49.3938 143.735 49.1629 143.718 48.9445 143.651C48.7261 143.583 48.5261 143.467 48.3597 143.31C45.8173 140.918 43.448 138.348 41.2697 135.62C39.2349 133.059 37.3708 130.366 35.6897 127.56C35.4828 127.218 35.4203 126.808 35.5159 126.419C35.6116 126.031 35.8575 125.697 36.1997 125.49C36.5418 125.283 36.9521 125.221 37.3403 125.316C37.7285 125.412 38.0628 125.658 38.2697 126C41.5951 131.576 45.6848 136.658 50.4197 141.1C50.7087 141.373 50.8773 141.75 50.8886 142.148C50.8998 142.545 50.7527 142.931 50.4797 143.22C50.2572 143.475 49.9533 143.644 49.6197 143.7Z" fill="#BC9C86"/>
<path d="M44.6898 144.44C44.4655 144.476 44.2359 144.459 44.019 144.392C43.8021 144.324 43.6039 144.207 43.4398 144.05C38.5047 139.415 34.2402 134.114 30.7698 128.3C30.5893 127.96 30.546 127.565 30.649 127.194C30.752 126.823 30.9934 126.507 31.3232 126.309C31.6531 126.111 32.0463 126.048 32.4216 126.132C32.7969 126.216 33.1256 126.441 33.3398 126.76C34.9477 129.454 36.7351 132.036 38.6898 134.49C40.7793 137.108 43.0516 139.574 45.4898 141.87C45.7778 142.143 45.9467 142.519 45.9598 142.916C45.9729 143.312 45.8292 143.698 45.5598 143.99C45.327 144.231 45.0213 144.389 44.6898 144.44Z" fill="#BC9C86"/>
<path d="M39.2798 133.52C38.8598 133.58 38.4398 133.64 38.0198 133.68C35.3621 133.929 32.6813 133.73 30.0898 133.09C29.7026 132.994 29.3691 132.749 29.1628 132.408C28.9566 132.066 28.8943 131.657 28.9898 131.27C29.0853 130.883 29.3306 130.549 29.672 130.343C30.0133 130.137 30.4226 130.074 30.8098 130.17C33.0733 130.737 35.417 130.913 37.7398 130.69C40.0585 130.469 42.3217 129.85 44.4298 128.86C44.7905 128.69 45.2038 128.671 45.5789 128.806C45.954 128.941 46.26 129.219 46.4298 129.58C46.5995 129.941 46.619 130.354 46.484 130.729C46.349 131.104 46.0705 131.41 45.7098 131.58C43.6686 132.526 41.5038 133.18 39.2798 133.52Z" fill="#BC9C86"/>
<path d="M42.7397 141.17H42.6597C40.0019 141.567 37.2956 141.502 34.6597 140.98C34.2618 140.903 33.9109 140.671 33.6839 140.336C33.457 140 33.3727 139.588 33.4497 139.19C33.5266 138.792 33.7584 138.441 34.0941 138.214C34.4297 137.987 34.8418 137.903 35.2397 137.98C37.5259 138.436 39.8738 138.494 42.1797 138.15C44.4902 137.826 46.7248 137.095 48.7797 135.99C48.9537 135.897 49.1442 135.84 49.3404 135.821C49.5366 135.802 49.7346 135.822 49.9231 135.88C50.1116 135.937 50.2869 136.031 50.439 136.157C50.5911 136.282 50.7171 136.436 50.8097 136.61C50.9022 136.784 50.9596 136.975 50.9786 137.171C50.9975 137.367 50.9777 137.565 50.9201 137.753C50.8625 137.942 50.7684 138.117 50.643 138.269C50.5177 138.421 50.3637 138.547 50.1897 138.64C47.8655 139.895 45.3472 140.75 42.7397 141.17Z" fill="#BC9C86"/>
<path d="M81.23 35.6099C82.5561 35.6099 83.8278 35.0831 84.7655 34.1455C85.7032 33.2078 86.23 31.936 86.23 30.6099V19.2399C82.8742 19.5577 79.5366 20.045 76.23 20.6999V30.6099C76.23 31.2665 76.3593 31.9167 76.6106 32.5233C76.8619 33.13 77.2302 33.6812 77.6945 34.1455C78.1588 34.6098 78.7099 34.9781 79.3166 35.2293C79.9232 35.4806 80.5734 35.6099 81.23 35.6099Z" fill="#B19A82"/>
<path d="M95.41 24.9199C95.0025 24.9203 94.5975 24.8562 94.21 24.7299C90.854 23.6987 87.8946 21.6641 85.73 18.8999C80.73 12.3899 82.47 4.69991 82.88 3.21992C83.2002 2.24136 83.8854 1.42397 84.793 0.937826C85.7006 0.451686 86.7607 0.334244 87.7527 0.609945C88.7448 0.885646 89.5922 1.53325 90.1189 2.418C90.6455 3.30274 90.8106 4.35647 90.58 5.35991C90.44 5.86992 89.28 10.4299 92.05 13.9999C93.2182 15.4697 94.8047 16.5506 96.6 17.0999C97.5141 17.3838 98.2961 17.9861 98.804 18.7975C99.3119 19.6088 99.5121 20.5754 99.3681 21.5217C99.2241 22.468 98.7455 23.3313 98.0192 23.9548C97.293 24.5783 96.3672 24.9208 95.41 24.9199Z" fill="#B19A82"/>
<path d="M108.78 35.3699C110.106 35.3699 111.378 34.8431 112.316 33.9054C113.253 32.9678 113.78 31.696 113.78 30.3699V20.6399C110.473 19.9981 107.135 19.5242 103.78 19.2199V30.3699C103.78 31.696 104.307 32.9678 105.244 33.9054C106.182 34.8431 107.454 35.3699 108.78 35.3699Z" fill="#B19A82"/>
</svg>
