<svg width="178" height="169" viewBox="0 0 178 169" fill="none" xmlns="http://www.w3.org/2000/svg">
<path d="M125.68 117.47C123.39 114.04 114.45 97.3702 88.9101 97.3702C63.3701 97.3702 54.4201 114.04 52.1401 117.47C36.4101 141.1 47.8301 185.76 88.9101 218.29C130 185.76 141.4 141.1 125.68 117.47Z" fill="#BC9C86"/>
<path d="M147.93 164.88C149.72 167.56 157.46 179.65 153.53 187.03C151.79 190.31 146.41 190.64 142.89 189.57C137.3 187.86 135.05 181.68 131.96 172.79C129.2 164.79 128.51 152.9 128.4 149.53C128.2 144 142.2 156.29 147.93 164.88Z" fill="#CBAC92"/>
<path d="M29.82 164.88C28 167.56 20.3 179.65 24.22 187C25.96 190.28 31.34 190.61 34.86 189.54C40.45 187.83 42.7 181.65 45.79 172.76C48.55 164.76 49.25 152.87 49.35 149.5C49.51 144 35.52 156.29 29.82 164.88Z" fill="#CBAC92"/>
<path d="M116.35 135.74C109.89 132.13 98.4399 129.74 88.9999 129.74C79.5599 129.74 68.1099 132.09 61.6499 135.74C48.2699 143.19 39.6499 160.04 40.3199 185.74C41.0899 215.23 61.4199 220.57 88.8699 220.57C116.32 220.57 136.63 215.23 137.42 185.74C138.09 160 129.73 143.19 116.35 135.74Z" fill="#CBAC92"/>
<path d="M103.85 219.81C115.5 215.26 121.79 202.01 118.85 189.19L118.49 187.61C115.61 174.94 104.15 166.35 92.4899 166.35H85.4199C73.7099 166.35 62.2499 174.94 59.3699 187.61L59.0099 189.19C56.0099 202.01 62.3199 215.26 74.0099 219.81C78.9912 220.35 83.9996 220.601 89.0099 220.56C93.9669 220.595 98.9218 220.345 103.85 219.81Z" fill="#F8EFDC"/>
<path d="M46.06 34.3602C55.4985 34.3602 63.15 26.7087 63.15 17.2702C63.15 7.83163 55.4985 0.180176 46.06 0.180176C36.6214 0.180176 28.97 7.83163 28.97 17.2702C28.97 26.7087 36.6214 34.3602 46.06 34.3602Z" fill="#CBAC92"/>
<path d="M46.06 26.6102C51.2183 26.6102 55.4 22.4285 55.4 17.2702C55.4 12.1118 51.2183 7.93018 46.06 7.93018C40.9016 7.93018 36.72 12.1118 36.72 17.2702C36.72 22.4285 40.9016 26.6102 46.06 26.6102Z" fill="#F8EFDC"/>
<path d="M131.69 34.3602C141.129 34.3602 148.78 26.7087 148.78 17.2702C148.78 7.83163 141.129 0.180176 131.69 0.180176C122.252 0.180176 114.6 7.83163 114.6 17.2702C114.6 26.7087 122.252 34.3602 131.69 34.3602Z" fill="#CBAC92"/>
<path d="M131.69 26.6102C136.848 26.6102 141.03 22.4285 141.03 17.2702C141.03 12.1118 136.848 7.93018 131.69 7.93018C126.532 7.93018 122.35 12.1118 122.35 17.2702C122.35 22.4285 126.532 26.6102 131.69 26.6102Z" fill="#F8EFDC"/>
<path d="M89 9.3902C126.88 9.3902 174.48 33.0502 177.53 85.6402C180.28 132.97 142.92 158.64 89 158.64C35.08 158.64 -2.29004 132.97 0.459963 85.6402C3.50996 33.0502 51.11 9.3902 89 9.3902Z" fill="#CBAC92"/>
<path d="M88.9099 105.28C91.3842 105.28 93.3899 103.803 93.3899 101.98C93.3899 100.158 91.3842 98.6802 88.9099 98.6802C86.4357 98.6802 84.4299 100.158 84.4299 101.98C84.4299 103.803 86.4357 105.28 88.9099 105.28Z" fill="#816A55"/>
<path d="M80.8099 112.36C76.8099 112.36 72.8099 110.5 71.4699 106.61C71.4043 106.423 71.3761 106.225 71.3871 106.027C71.398 105.829 71.4479 105.635 71.5338 105.456C71.6196 105.277 71.7399 105.117 71.8877 104.985C72.0354 104.853 72.2078 104.751 72.3949 104.685C72.5821 104.62 72.7803 104.591 72.9783 104.602C73.1763 104.613 73.3703 104.663 73.549 104.749C73.7278 104.835 73.8879 104.955 74.0201 105.103C74.1524 105.251 74.2543 105.423 74.3199 105.61C75.3999 108.82 79.7399 109.89 83.1299 109.04C84.5999 108.67 87.9499 107.39 87.2999 103.49L87.0199 101.74H90.7599L90.4699 103.49C89.8199 107.39 93.1699 108.67 94.6399 109.04C98.0399 109.88 102.37 108.82 103.46 105.61C103.515 105.419 103.607 105.241 103.732 105.087C103.857 104.932 104.012 104.804 104.188 104.711C104.363 104.618 104.556 104.561 104.754 104.543C104.952 104.526 105.151 104.549 105.34 104.61C105.716 104.738 106.027 105.009 106.203 105.366C106.379 105.722 106.407 106.134 106.28 106.51C104.63 111.4 98.6799 113.09 93.8999 111.89C91.9381 111.446 90.1794 110.362 88.8999 108.81C87.6204 110.362 85.8618 111.446 83.8999 111.89C82.8914 112.165 81.8546 112.323 80.8099 112.36Z" fill="#816A55"/>
<path d="M51.76 97.1602C55.0627 97.1602 57.74 94.4829 57.74 91.1802C57.74 87.8775 55.0627 85.2002 51.76 85.2002C48.4574 85.2002 45.78 87.8775 45.78 91.1802C45.78 94.4829 48.4574 97.1602 51.76 97.1602Z" fill="#816A55"/>
<path d="M125.97 97.1602C129.273 97.1602 131.95 94.4829 131.95 91.1802C131.95 87.8775 129.273 85.2002 125.97 85.2002C122.667 85.2002 119.99 87.8775 119.99 91.1802C119.99 94.4829 122.667 97.1602 125.97 97.1602Z" fill="#816A55"/>
<path d="M75.0898 26.1902C76.4159 26.1902 77.6877 25.6634 78.6254 24.7257C79.5631 23.788 80.0898 22.5163 80.0898 21.1902V9.82019C76.7341 10.1388 73.3966 10.626 70.0898 11.2802V21.1902C70.0898 21.8468 70.2192 22.497 70.4704 23.1036C70.7217 23.7102 71.09 24.2614 71.5543 24.7257C72.0186 25.19 72.5698 25.5583 73.1764 25.8096C73.7831 26.0609 74.4332 26.1902 75.0898 26.1902Z" fill="#B19A82"/>
<path d="M93.8699 26.6802V9.5202C92.2299 9.4402 90.6099 9.3902 88.9999 9.3902C87.3899 9.3902 85.5999 9.3902 83.8699 9.5402V26.6802C83.8699 28.0063 84.3967 29.278 85.3344 30.2157C86.272 31.1534 87.5438 31.6802 88.8699 31.6802C90.196 31.6802 91.4677 31.1534 92.4054 30.2157C93.3431 29.278 93.8699 28.0063 93.8699 26.6802Z" fill="#B19A82"/>
<path d="M102.65 26.0002C103.976 26.0002 105.248 25.4734 106.185 24.5358C107.123 23.5981 107.65 22.3263 107.65 21.0002V11.2202C104.3 10.5702 100.95 10.1002 97.6499 9.79022V21.0002C97.6499 22.3263 98.1767 23.5981 99.1144 24.5358C100.052 25.4734 101.324 26.0002 102.65 26.0002Z" fill="#B19A82"/>
</svg>
