<svg width="178" height="169" viewBox="0 0 178 169" fill="none" xmlns="http://www.w3.org/2000/svg">
<path d="M125.76 117.47C123.47 114.04 114.54 97.3702 88.9902 97.3702C63.4402 97.3702 54.5002 114 52.2202 117.47C36.5002 141.1 47.9102 185.76 89.0002 218.29C130.07 185.76 141.48 141.1 125.76 117.47Z" fill="#BC9C86"/>
<path d="M148 164.88C149.79 167.56 157.53 179.65 153.6 187.03C151.86 190.31 146.48 190.64 142.96 189.57C137.37 187.86 135.12 181.68 132.03 172.79C129.27 164.79 128.58 152.9 128.47 149.53C128.28 144 142.28 156.29 148 164.88Z" fill="#CBAC92"/>
<path d="M29.9002 164.88C28.1102 167.56 20.3802 179.65 24.3002 187.03C26.0402 190.31 31.4202 190.64 34.9402 189.57C40.5302 187.86 42.7802 181.68 45.8702 172.79C48.6302 164.79 49.3302 152.9 49.4302 149.53C49.5902 144 35.6002 156.29 29.9002 164.88Z" fill="#CBAC92"/>
<path d="M116.44 135.74C109.98 132.13 98.5202 129.74 89.0902 129.74C79.6602 129.74 68.2002 132.09 61.7302 135.74C48.3502 143.19 39.7302 160.04 40.4002 185.74C41.1702 215.23 61.5102 220.57 88.9502 220.57C116.39 220.57 136.71 215.23 137.5 185.74C138.17 160 129.81 143.19 116.44 135.74Z" fill="#CBAC92"/>
<path d="M103.94 219.81C115.58 215.26 121.87 202.01 118.94 189.19L118.58 187.61C115.7 174.94 104.24 166.35 92.5203 166.35H85.4603C73.7403 166.35 62.2803 174.94 59.4003 187.61L59.0403 189.19C56.0403 202.01 62.3602 215.26 74.0402 219.81C79.0215 220.35 84.0299 220.6 89.0402 220.56C94.0172 220.598 98.9922 220.347 103.94 219.81Z" fill="#F8EFDC"/>
<path d="M46.14 34.3602C55.5786 34.3602 63.23 26.7087 63.23 17.2702C63.23 7.83163 55.5786 0.180176 46.14 0.180176C36.7015 0.180176 29.05 7.83163 29.05 17.2702C29.05 26.7087 36.7015 34.3602 46.14 34.3602Z" fill="#CBAC92"/>
<path d="M46.14 26.6102C51.2984 26.6102 55.48 22.4285 55.48 17.2702C55.48 12.1118 51.2984 7.93018 46.14 7.93018C40.9817 7.93018 36.8 12.1118 36.8 17.2702C36.8 22.4285 40.9817 26.6102 46.14 26.6102Z" fill="#F8EFDC"/>
<path d="M131.78 34.3602C141.218 34.3602 148.87 26.7087 148.87 17.2702C148.87 7.83163 141.218 0.180176 131.78 0.180176C122.341 0.180176 114.69 7.83163 114.69 17.2702C114.69 26.7087 122.341 34.3602 131.78 34.3602Z" fill="#CBAC92"/>
<path d="M131.78 26.6102C136.938 26.6102 141.12 22.4285 141.12 17.2702C141.12 12.1118 136.938 7.93018 131.78 7.93018C126.622 7.93018 122.44 12.1118 122.44 17.2702C122.44 22.4285 126.622 26.6102 131.78 26.6102Z" fill="#F8EFDC"/>
<path d="M89.09 9.3902C126.97 9.3902 174.57 33.0502 177.62 85.6402C180.37 132.97 143.01 158.64 89.09 158.64C35.1701 158.64 -2.19995 133 0.550051 85.6402C3.60005 33.0502 51.2001 9.3902 89.09 9.3902Z" fill="#CBAC92"/>
<path d="M86.1201 125.9C85.7631 125.897 85.4189 125.767 85.1493 125.533C84.8797 125.299 84.7025 124.976 84.6494 124.623C84.5964 124.27 84.6711 123.91 84.86 123.607C85.0489 123.304 85.3397 123.078 85.6801 122.97C87.3797 122.331 89.2026 122.089 91.0101 122.26C91.2071 122.264 91.4013 122.307 91.5814 122.387C91.7615 122.467 91.9238 122.582 92.0589 122.725C92.1939 122.869 92.299 123.038 92.3679 123.222C92.4368 123.407 92.4681 123.603 92.4601 123.8C92.4445 124.197 92.273 124.572 91.9829 124.843C91.6927 125.115 91.3073 125.261 90.9101 125.25C89.4338 125.094 87.9416 125.297 86.5601 125.84C86.4168 125.88 86.2688 125.9 86.1201 125.9Z" fill="#816A55"/>
<path d="M80.3101 112.56L88.9901 116.58L97.4701 112.56L88.9901 107.9L80.3101 112.56Z" fill="#DDB5A9"/>
<path d="M107.68 109.91C107.308 109.358 106.82 108.893 106.25 108.547C105.68 108.202 105.042 107.985 104.38 107.91C103.318 107.879 102.28 108.234 101.46 108.91C99.7 110.23 94.77 110.71 92.46 108.77C90.81 107.39 90.6 104.87 90.63 103.48C90.6354 103.083 90.4842 102.7 90.209 102.413C89.9339 102.127 89.557 101.961 89.16 101.95H88.85C88.653 101.954 88.4587 101.997 88.2782 102.076C88.0977 102.155 87.9345 102.269 87.798 102.411C87.6615 102.553 87.5544 102.72 87.4826 102.904C87.4109 103.087 87.376 103.283 87.38 103.48C87.38 104.87 87.21 107.4 85.55 108.78C83.23 110.72 78.3 110.25 76.49 108.9C75.6856 108.231 74.6661 107.876 73.62 107.9C72.9576 107.973 72.3191 108.19 71.7491 108.536C71.1791 108.881 70.6914 109.347 70.32 109.9C70.1851 110.054 70.0832 110.234 70.0205 110.429C69.9578 110.624 69.9357 110.83 69.9555 111.034C69.9754 111.238 70.0367 111.435 70.1358 111.614C70.2349 111.793 70.3697 111.95 70.5317 112.076C70.6938 112.201 70.8798 112.291 71.0783 112.342C71.2767 112.393 71.4834 112.402 71.6856 112.37C71.8878 112.337 72.0812 112.264 72.2539 112.154C72.4267 112.044 72.5751 111.9 72.69 111.73C73.1 111.21 73.5 110.89 73.81 110.87C74.1573 110.926 74.4806 111.083 74.74 111.32C75.4147 111.798 76.1605 112.165 76.95 112.41C78.2615 114.064 79.9031 115.426 81.77 116.41C84.011 117.557 86.4925 118.155 89.01 118.155C91.5275 118.155 94.009 117.557 96.25 116.41C98.1214 115.424 99.7691 114.062 101.09 112.41C101.897 112.164 102.657 111.785 103.34 111.29C103.586 111.077 103.888 110.938 104.21 110.89C104.676 111.024 105.076 111.327 105.33 111.74C105.451 111.896 105.601 112.026 105.772 112.124C105.943 112.221 106.132 112.284 106.328 112.309C106.523 112.333 106.721 112.319 106.911 112.267C107.101 112.215 107.279 112.126 107.435 112.005C107.591 111.884 107.721 111.734 107.818 111.563C107.916 111.392 107.979 111.203 108.003 111.008C108.028 110.812 108.014 110.614 107.962 110.424C107.91 110.234 107.821 110.056 107.7 109.9L107.68 109.91ZM83.14 113.48C82.73 113.27 82.35 113.34 81.97 113.09C83.9644 113.015 85.8849 112.316 87.46 111.09C88.0767 110.476 88.596 109.771 89 109C89.3966 109.776 89.9129 110.485 90.53 111.1C92.1048 112.326 94.0255 113.026 96.02 113.1C95.65 113.35 95.26 113.28 94.85 113.49C93.0379 114.419 91.0303 114.903 88.9938 114.902C86.9573 114.9 84.9505 114.413 83.14 113.48Z" fill="#816A55"/>
<path d="M89 105.72C91.4743 105.72 93.48 104.243 93.48 102.42C93.48 100.598 91.4743 99.1202 89 99.1202C86.5258 99.1202 84.52 100.598 84.52 102.42C84.52 104.243 86.5258 105.72 89 105.72Z" fill="#816A55"/>
<path d="M48.3501 95.9102C47.6044 95.916 46.8832 95.6438 46.3272 95.1468C45.7712 94.6497 45.4203 93.9634 45.3429 93.2217C45.2655 92.4799 45.4671 91.736 45.9084 91.1348C46.3498 90.5337 46.9992 90.1185 47.7301 89.9702C49.8768 89.5154 51.9364 88.7185 53.8301 87.6102C54.1716 87.3931 54.5534 87.2473 54.9527 87.1817C55.3519 87.116 55.7603 87.1318 56.1533 87.2281C56.5463 87.3243 56.9157 87.4991 57.2394 87.7418C57.5631 87.9846 57.8344 88.2903 58.0369 88.6406C58.2393 88.9909 58.3689 89.3785 58.4177 89.7802C58.4664 90.1818 58.4335 90.5892 58.3208 90.9778C58.208 91.3664 58.0179 91.7281 57.7617 92.0413C57.5055 92.3545 57.1886 92.6126 56.8301 92.8002C54.3827 94.2116 51.7261 95.2243 48.9601 95.8002C48.7617 95.8603 48.557 95.8972 48.3501 95.9102Z" fill="#816A55"/>
<path d="M60.0002 101.41C59.6871 101.409 59.382 101.311 59.1278 101.128C58.8735 100.945 58.6829 100.687 58.5825 100.391C58.4822 100.094 58.4772 99.7736 58.5682 99.474C58.6593 99.1744 58.8418 98.9108 59.0902 98.7202C60.4002 97.7189 61.853 96.92 63.4002 96.3502C63.5899 96.2587 63.7967 96.2081 64.0072 96.2018C64.2177 96.1955 64.4271 96.2336 64.6219 96.3136C64.8167 96.3936 64.9925 96.5137 65.1378 96.6661C65.2831 96.8185 65.3947 96.9998 65.4653 97.1982C65.5359 97.3966 65.5639 97.6076 65.5476 97.8176C65.5312 98.0275 65.4708 98.2317 65.3704 98.4167C65.2699 98.6018 65.1316 98.7637 64.9645 98.8917C64.7973 99.0198 64.6051 99.1113 64.4002 99.1602C63.131 99.6286 61.9381 100.282 60.8602 101.1C60.6138 101.292 60.3126 101.401 60.0002 101.41Z" fill="#816A55"/>
<path d="M129.55 95.9102C129.338 95.9117 129.127 95.8882 128.92 95.8402C126.155 95.2627 123.498 94.2501 121.05 92.8402C120.397 92.4251 119.93 91.7737 119.746 91.0222C119.562 90.2706 119.675 89.477 120.062 88.8071C120.45 88.1372 121.081 87.6428 121.824 87.4272C122.567 87.2116 123.365 87.2915 124.05 87.6502C125.944 88.7585 128.004 89.5554 130.15 90.0102C130.881 90.1585 131.531 90.5737 131.972 91.1748C132.413 91.776 132.615 92.52 132.538 93.2617C132.46 94.0034 132.109 94.6898 131.553 95.1868C130.997 95.6839 130.276 95.956 129.53 95.9502L129.55 95.9102Z" fill="#816A55"/>
<path d="M116.57 100.54C116.329 100.541 116.09 100.483 115.876 100.372C115.662 100.26 115.478 100.099 115.34 99.9001C114.341 98.4907 113.094 97.2743 111.66 96.3101C111.481 96.2083 111.325 96.0707 111.202 95.9059C111.079 95.7411 110.99 95.5527 110.943 95.3524C110.896 95.1521 110.89 94.9442 110.926 94.7416C110.963 94.539 111.04 94.346 111.155 94.1747C111.269 94.0034 111.417 93.8575 111.59 93.746C111.763 93.6345 111.957 93.5597 112.16 93.5265C112.363 93.4932 112.571 93.5021 112.771 93.5527C112.97 93.6032 113.157 93.6942 113.32 93.8202C115.071 94.9797 116.587 96.4589 117.79 98.1801C117.951 98.4034 118.046 98.6669 118.067 98.9412C118.087 99.2155 118.03 99.4901 117.904 99.7344C117.778 99.9788 117.586 100.183 117.351 100.326C117.115 100.468 116.845 100.542 116.57 100.54Z" fill="#816A55"/>
<path d="M98.9999 82.4902C98.6179 82.4885 98.2507 82.3421 97.9723 82.0804C97.694 81.8188 97.5252 81.4613 97.4999 81.0802C97.428 79.5556 97.706 78.0347 98.3127 76.6342C98.9193 75.2337 99.8385 73.9906 101 73.0002C101.304 72.7429 101.697 72.6168 102.094 72.6496C102.49 72.6825 102.858 72.8715 103.115 73.1752C103.372 73.4788 103.498 73.8723 103.465 74.2689C103.433 74.6655 103.244 75.0329 102.94 75.2902C102.134 75.9817 101.498 76.8489 101.08 77.825C100.662 78.801 100.474 79.8599 100.53 80.9202C100.543 81.1167 100.518 81.314 100.455 81.5006C100.391 81.6872 100.292 81.8595 100.162 82.0073C100.031 82.1552 99.8733 82.2758 99.6962 82.3621C99.519 82.4484 99.3266 82.4987 99.1299 82.5102L98.9999 82.4902Z" fill="#816A55"/>
<path d="M80 81.0502C79.6022 81.0502 79.2207 80.8921 78.9393 80.6108C78.658 80.3295 78.5 79.948 78.5 79.5502V74.9001C78.5 74.5023 78.658 74.1208 78.9393 73.8395C79.2207 73.5582 79.6022 73.4001 80 73.4001C80.3978 73.4001 80.7793 73.5582 81.0607 73.8395C81.342 74.1208 81.5 74.5023 81.5 74.9001V79.5502C81.5 79.948 81.342 80.3295 81.0607 80.6108C80.7793 80.8921 80.3978 81.0502 80 81.0502Z" fill="#816A55"/>
<path d="M74.48 78.5702C74.1138 78.5683 73.7608 78.4333 73.4867 78.1905C73.2125 77.9476 73.036 77.6135 72.99 77.2502C72.8428 75.9417 72.5059 74.6616 71.99 73.4502C71.9112 73.2696 71.8687 73.0753 71.865 72.8783C71.8613 72.6814 71.8965 72.4856 71.9684 72.3022C72.0404 72.1188 72.1478 71.9514 72.2844 71.8095C72.4211 71.6676 72.5844 71.554 72.765 71.4752C72.9455 71.3964 73.1399 71.3539 73.3368 71.3502C73.5338 71.3465 73.7296 71.3817 73.913 71.4536C74.0964 71.5256 74.2638 71.633 74.4057 71.7697C74.5476 71.9063 74.6612 72.0696 74.74 72.2502C75.3823 73.7249 75.8099 75.2841 76.01 76.8802C76.0581 77.2739 75.9483 77.6706 75.7047 77.9835C75.4611 78.2965 75.1034 78.5002 74.71 78.5502L74.48 78.5702Z" fill="#816A55"/>
<path d="M75.1702 26.1902C76.4962 26.1902 77.768 25.6634 78.7057 24.7257C79.6434 23.788 80.1702 22.5163 80.1702 21.1902V9.82019C76.8144 10.1388 73.4769 10.626 70.1702 11.2802V21.1902C70.1702 21.8468 70.2995 22.497 70.5508 23.1036C70.802 23.7102 71.1703 24.2614 71.6346 24.7257C72.0989 25.19 72.6501 25.5583 73.2567 25.8096C73.8634 26.0609 74.5136 26.1902 75.1702 26.1902Z" fill="#B19A82"/>
<path d="M94.0002 26.6802V9.5202C92.3702 9.4402 90.7402 9.3902 89.1402 9.3902C87.5402 9.3902 85.7302 9.3902 84.0002 9.5402V26.6802C84.0002 28.0063 84.527 29.278 85.4647 30.2157C86.4024 31.1534 87.6742 31.6802 89.0002 31.6802C90.3263 31.6802 91.5981 31.1534 92.5358 30.2157C93.4735 29.278 94.0002 28.0063 94.0002 26.6802Z" fill="#B19A82"/>
<path d="M102.73 26.0002C104.056 26.0002 105.328 25.4734 106.266 24.5358C107.203 23.5981 107.73 22.3263 107.73 21.0002V11.2202C104.38 10.5702 101.03 10.1002 97.7302 9.79022V21.0002C97.7302 22.3263 98.257 23.5981 99.1947 24.5358C100.132 25.4734 101.404 26.0002 102.73 26.0002Z" fill="#B19A82"/>
</svg>
