<svg width="190" height="179" viewBox="0 0 190 179" fill="none" xmlns="http://www.w3.org/2000/svg">
<path d="M131.68 127.47C129.39 124.04 120.45 107.37 94.9101 107.37C69.3701 107.37 60.4201 124.04 58.1401 127.47C42.4101 151.1 53.8301 195.76 94.9101 228.29C136 195.76 147.4 151.1 131.68 127.47Z" fill="#BAA496"/>
<path d="M129.78 172.76C128.88 172.761 128.006 172.459 127.299 171.902C126.592 171.345 126.093 170.566 125.884 169.69C125.675 168.815 125.767 167.894 126.145 167.078C126.524 166.261 127.167 165.596 127.97 165.19C130.195 164.06 132.624 163.389 135.113 163.217C137.603 163.046 140.101 163.376 142.46 164.19C143.464 164.535 144.29 165.264 144.756 166.218C145.222 167.172 145.29 168.271 144.945 169.275C144.6 170.279 143.871 171.105 142.917 171.571C141.964 172.037 140.864 172.105 139.86 171.76C138.513 171.297 137.087 171.109 135.666 171.209C134.245 171.309 132.859 171.693 131.59 172.34C131.028 172.62 130.408 172.764 129.78 172.76Z" fill="#B19A82"/>
<path d="M120.55 124.88C120.025 124.909 119.499 124.834 119.003 124.66C118.506 124.486 118.049 124.215 117.657 123.864C117.265 123.513 116.946 123.088 116.719 122.614C116.491 122.14 116.359 121.625 116.33 121.1C116.301 120.575 116.376 120.049 116.55 119.553C116.725 119.056 116.995 118.599 117.346 118.207C117.697 117.815 118.122 117.497 118.596 117.269C119.07 117.041 119.585 116.909 120.11 116.88C121.628 116.714 123.094 116.226 124.41 115.45C125.435 114.839 126.354 114.066 127.13 113.16C127.463 112.737 127.879 112.386 128.351 112.128C128.823 111.869 129.343 111.709 129.879 111.656C130.415 111.603 130.956 111.659 131.469 111.82C131.983 111.981 132.459 112.245 132.868 112.594C133.278 112.944 133.613 113.372 133.852 113.854C134.092 114.336 134.232 114.862 134.264 115.399C134.296 115.937 134.219 116.475 134.038 116.982C133.857 117.489 133.575 117.955 133.21 118.35C130.121 121.991 125.756 124.309 121.01 124.83C120.858 124.857 120.704 124.874 120.55 124.88Z" fill="#B19A82"/>
<path d="M83.48 115.66C82.7774 115.659 82.0876 115.473 81.48 115.12C79.0326 113.684 77.0584 111.564 75.8 109.02C74.507 106.379 74.0334 103.412 74.44 100.5C74.5911 99.4499 75.1533 98.5027 76.0029 97.867C76.8524 97.2312 77.9197 96.959 78.97 97.1102C80.0202 97.2613 80.9674 97.8235 81.6032 98.6731C82.2389 99.5226 82.5111 100.59 82.36 101.64C82.1733 102.927 82.3753 104.239 82.9401 105.41C83.505 106.581 84.4069 107.556 85.53 108.21C86.2856 108.653 86.8748 109.333 87.2071 110.143C87.5393 110.954 87.5962 111.851 87.3691 112.697C87.1419 113.543 86.6433 114.292 85.9497 114.827C85.2561 115.362 84.406 115.655 83.53 115.66H83.48Z" fill="#B19A82"/>
<path d="M49.56 183.34C48.6301 183.34 47.7024 183.25 46.79 183.07C46.2709 182.97 45.7768 182.768 45.3362 182.476C44.8956 182.184 44.5172 181.808 44.223 181.369C43.9288 180.929 43.7245 180.436 43.622 179.918C43.5195 179.399 43.5209 178.865 43.626 178.347C43.731 177.829 43.9377 177.337 44.2342 176.899C44.5306 176.462 44.9108 176.087 45.3529 175.797C45.795 175.507 46.2901 175.308 46.8097 175.211C47.3293 175.113 47.863 175.12 48.38 175.23C49.4212 175.444 50.5015 175.365 51.5 175C52.7615 174.507 53.8188 173.601 54.5 172.43C54.7501 171.952 55.0943 171.53 55.5118 171.188C55.9294 170.847 56.4118 170.593 56.9299 170.443C57.448 170.292 57.9912 170.248 58.5267 170.313C59.0622 170.378 59.5791 170.551 60.0462 170.821C60.5132 171.091 60.9208 171.453 61.2445 171.884C61.5682 172.316 61.8012 172.809 61.9295 173.333C62.0579 173.857 62.0789 174.401 61.9913 174.933C61.9038 175.466 61.7095 175.975 61.42 176.43C59.7962 179.217 57.26 181.358 54.24 182.49C52.7416 183.044 51.1577 183.332 49.56 183.34Z" fill="#B19A82"/>
<path d="M60.7301 132C60.5403 132.01 60.35 132.01 60.1601 132C58.1222 131.709 56.2194 130.809 54.7001 129.42C52.9951 127.858 51.8616 125.771 51.4801 123.49C51.3078 122.443 51.5586 121.369 52.1774 120.507C52.7963 119.644 53.7325 119.063 54.7801 118.89C55.8277 118.718 56.9009 118.969 57.7636 119.587C58.6263 120.206 59.2077 121.143 59.3801 122.19C59.4703 122.655 59.7041 123.08 60.0486 123.404C60.3931 123.729 60.8309 123.938 61.3001 124C62.361 124.076 63.3484 124.57 64.0451 125.373C64.7418 126.177 65.0907 127.224 65.0151 128.285C64.9396 129.346 64.4456 130.333 63.642 131.03C62.8384 131.727 61.791 132.076 60.7301 132Z" fill="#B19A82"/>
<path d="M153.93 174.88C155.72 177.56 163.46 189.65 159.53 197.03C157.79 200.31 152.41 200.64 148.89 199.57C143.3 197.86 141.05 191.68 137.96 182.79C135.2 174.79 134.51 162.9 134.4 159.53C134.2 154 148.2 166.29 153.93 174.88Z" fill="#CAB49F"/>
<path d="M35.82 174.88C34 177.56 26.3 189.65 30.22 197C31.96 200.28 37.34 200.61 40.86 199.54C46.45 197.83 48.7 191.65 51.79 182.76C54.55 174.76 55.25 162.87 55.35 159.5C55.51 154 41.52 166.29 35.82 174.88Z" fill="#CAB49F"/>
<path d="M122.35 145.74C115.89 142.13 104.44 139.74 94.9999 139.74C85.5599 139.74 74.1099 142.09 67.6499 145.74C54.2699 153.19 45.6499 170.04 46.3199 195.74C47.0899 225.23 67.4199 230.57 94.8699 230.57C122.32 230.57 142.63 225.23 143.42 195.74C144.09 170 135.73 153.19 122.35 145.74Z" fill="#CAB49F"/>
<path d="M109.85 229.81C121.5 225.26 127.79 212.01 124.85 199.19L124.49 197.61C121.61 184.94 110.15 176.35 98.4899 176.35H91.4199C79.7099 176.35 68.2499 184.94 65.3699 197.61L65.0099 199.19C62.0099 212.01 68.3199 225.26 80.0099 229.81C84.9912 230.35 89.9996 230.601 95.0099 230.56C99.9669 230.595 104.922 230.345 109.85 229.81Z" fill="#F2ECDF"/>
<path d="M52.06 44.3599C61.4985 44.3599 69.15 36.7084 69.15 27.2699C69.15 17.8313 61.4985 10.1799 52.06 10.1799C42.6214 10.1799 34.97 17.8313 34.97 27.2699C34.97 36.7084 42.6214 44.3599 52.06 44.3599Z" fill="#CAB49F"/>
<path d="M52.06 36.6099C57.2183 36.6099 61.4 32.4282 61.4 27.2699C61.4 22.1115 57.2183 17.9299 52.06 17.9299C46.9016 17.9299 42.72 22.1115 42.72 27.2699C42.72 32.4282 46.9016 36.6099 52.06 36.6099Z" fill="#F2ECDF"/>
<path d="M137.69 44.3599C147.129 44.3599 154.78 36.7084 154.78 27.2699C154.78 17.8313 147.129 10.1799 137.69 10.1799C128.252 10.1799 120.6 17.8313 120.6 27.2699C120.6 36.7084 128.252 44.3599 137.69 44.3599Z" fill="#CAB49F"/>
<path d="M137.69 36.6099C142.848 36.6099 147.03 32.4282 147.03 27.2699C147.03 22.1115 142.848 17.9299 137.69 17.9299C132.532 17.9299 128.35 22.1115 128.35 27.2699C128.35 32.4282 132.532 36.6099 137.69 36.6099Z" fill="#F2ECDF"/>
<path d="M95 19.3899C132.88 19.3899 180.48 43.0499 183.53 95.6399C186.28 142.97 148.92 168.64 95 168.64C41.08 168.64 3.70996 142.97 6.45996 95.6399C9.50996 43.0499 57.11 19.3899 95 19.3899Z" fill="#CAB49F"/>
<path d="M94.9099 115.29C97.3842 115.29 99.3899 113.812 99.3899 111.99C99.3899 110.167 97.3842 108.69 94.9099 108.69C92.4357 108.69 90.4299 110.167 90.4299 111.99C90.4299 113.812 92.4357 115.29 94.9099 115.29Z" fill="#977C6A"/>
<path d="M94.89 129.3C96.1654 130.857 97.9258 131.941 99.89 132.38C100.906 132.641 101.951 132.779 103 132.79C107 132.79 111 130.93 112.34 127.04C112.473 126.662 112.45 126.247 112.276 125.886C112.103 125.525 111.793 125.248 111.415 125.115C111.037 124.982 110.622 125.005 110.261 125.179C109.9 125.352 109.623 125.662 109.49 126.04C108.41 129.25 104.07 130.32 100.68 129.47C99.4954 129.091 98.4579 128.353 97.7108 127.359C96.9638 126.365 96.5442 125.163 96.51 123.92V113.7H93.36V123.92C93.3258 125.163 92.9062 126.365 92.1591 127.359C91.4121 128.353 90.3745 129.091 89.19 129.47C85.8 130.32 81.46 129.25 80.38 126.04C80.2474 125.662 79.9701 125.352 79.6091 125.179C79.2481 125.005 78.8329 124.982 78.455 125.115C78.0771 125.248 77.7673 125.525 77.5938 125.886C77.4204 126.247 77.3974 126.662 77.53 127.04C78.87 130.93 82.87 132.79 86.87 132.79C87.9194 132.779 88.9637 132.642 89.98 132.38C91.9442 131.941 93.7046 130.857 94.98 129.3" fill="#977C6A"/>
<path d="M54.26 105.91C53.5143 105.916 52.7931 105.644 52.2371 105.147C51.6811 104.649 51.3302 103.963 51.2528 103.221C51.1754 102.48 51.377 101.736 51.8184 101.135C52.2597 100.533 52.9092 100.118 53.64 99.9699C55.7898 99.5151 57.8527 98.7183 59.75 97.6099C60.0915 97.3928 60.4733 97.2471 60.8726 97.1814C61.2718 97.1157 61.6802 97.1315 62.0732 97.2278C62.4662 97.324 62.8356 97.4988 63.1593 97.7415C63.483 97.9843 63.7543 98.29 63.9568 98.6403C64.1593 98.9906 64.2888 99.3782 64.3376 99.7799C64.3864 100.182 64.3534 100.589 64.2407 100.978C64.1279 101.366 63.9378 101.728 63.6816 102.041C63.4254 102.354 63.1086 102.612 62.75 102.8C60.3019 104.21 57.6455 105.222 54.88 105.8C54.6784 105.861 54.4703 105.898 54.26 105.91Z" fill="#977C6A"/>
<path d="M65.9001 111.41C65.587 111.409 65.2819 111.311 65.0277 111.128C64.7734 110.945 64.5828 110.687 64.4824 110.391C64.3821 110.094 64.3771 109.773 64.4681 109.474C64.5592 109.174 64.7417 108.911 64.9901 108.72C66.305 107.721 67.7608 106.922 69.3101 106.35C69.4998 106.258 69.7066 106.208 69.9171 106.202C70.1276 106.195 70.337 106.233 70.5318 106.313C70.7266 106.393 70.9024 106.513 71.0477 106.666C71.193 106.818 71.3046 107 71.3752 107.198C71.4458 107.396 71.4738 107.607 71.4575 107.817C71.4411 108.027 71.3807 108.231 71.2803 108.416C71.1798 108.602 71.0415 108.763 70.8744 108.891C70.7072 109.02 70.515 109.111 70.3101 109.16C69.0409 109.628 67.848 110.282 66.7701 111.1C66.521 111.294 66.2159 111.403 65.9001 111.41Z" fill="#977C6A"/>
<path d="M135.47 105.91C135.258 105.911 135.047 105.888 134.84 105.84C132.075 105.262 129.418 104.25 126.97 102.84C126.612 102.652 126.295 102.394 126.038 102.081C125.782 101.768 125.592 101.406 125.479 101.018C125.367 100.629 125.334 100.222 125.382 99.8199C125.431 99.4182 125.561 99.0306 125.763 98.6803C125.966 98.33 126.237 98.0243 126.561 97.7816C126.884 97.5388 127.254 97.364 127.647 97.2678C128.04 97.1715 128.448 97.1558 128.847 97.2214C129.247 97.2871 129.629 97.4328 129.97 97.6499C131.864 98.7583 133.923 99.5551 136.07 100.01C136.801 100.158 137.45 100.573 137.892 101.175C138.333 101.776 138.535 102.52 138.457 103.261C138.38 104.003 138.029 104.689 137.473 105.187C136.917 105.684 136.196 105.956 135.45 105.95L135.47 105.91Z" fill="#977C6A"/>
<path d="M122.49 110.54C122.248 110.542 122.01 110.484 121.795 110.373C121.581 110.261 121.397 110.099 121.26 109.9C120.261 108.49 119.014 107.274 117.58 106.31C117.401 106.208 117.245 106.07 117.122 105.906C116.998 105.741 116.91 105.552 116.863 105.352C116.815 105.152 116.81 104.944 116.846 104.741C116.883 104.539 116.96 104.346 117.074 104.174C117.189 104.003 117.337 103.857 117.51 103.746C117.683 103.634 117.877 103.559 118.08 103.526C118.283 103.493 118.491 103.502 118.691 103.552C118.89 103.603 119.077 103.694 119.24 103.82C120.989 104.982 122.505 106.461 123.71 108.18C123.939 108.505 124.03 108.907 123.963 109.299C123.895 109.691 123.675 110.04 123.35 110.27C123.097 110.444 122.797 110.538 122.49 110.54Z" fill="#977C6A"/>
<path d="M24.9201 50.7099H24.8401C21.4149 50.6922 18.0428 49.8629 15.0001 48.2899C14.5333 48.0483 14.1186 47.717 13.7797 47.3151C13.4409 46.9132 13.1845 46.4485 13.0253 45.9476C12.866 45.4466 12.807 44.9192 12.8516 44.3954C12.8962 43.8716 13.0435 43.3617 13.2851 42.8949C13.5267 42.428 13.858 42.0134 14.2599 41.6745C14.6617 41.3357 15.1264 41.0793 15.6274 40.92C16.1284 40.7608 16.6558 40.7018 17.1796 40.7464C17.7034 40.7909 18.2133 40.9383 18.6801 41.1799C20.6154 42.1853 22.7642 42.7101 24.9451 42.7101C27.126 42.7101 29.2748 42.1853 31.2101 41.1799C31.677 40.9383 32.1868 40.7909 32.7106 40.7464C33.2344 40.7018 33.7618 40.7608 34.2628 40.92C34.7638 41.0793 35.2285 41.3357 35.6304 41.6745C36.0323 42.0134 36.3635 42.428 36.6051 42.8949C36.8467 43.3617 36.9941 43.8716 37.0386 44.3954C37.0832 44.9192 37.0242 45.4466 36.8649 45.9476C36.7057 46.4485 36.4493 46.9132 36.1105 47.3151C35.7716 47.717 35.357 48.0483 34.8901 48.2899C31.8069 49.8789 28.3887 50.7086 24.9201 50.7099Z" fill="#B19A82"/>
<path d="M0.910034 93.6599C-0.825317 93.661 -2.55447 93.4529 -4.23997 93.0399C-4.77038 92.9348 -5.27399 92.7233 -5.72036 92.4182C-6.16674 92.113 -6.5466 91.7205 -6.83701 91.2644C-7.12742 90.8083 -7.32234 90.298 -7.40999 89.7645C-7.49764 89.2309 -7.4762 88.6851 -7.34697 88.1601C-7.21773 87.635 -6.98339 87.1416 -6.6581 86.7097C-6.33281 86.2778 -5.92333 85.9163 -5.4544 85.6471C-4.98547 85.3779 -4.46682 85.2065 -3.9298 85.1434C-3.39278 85.0803 -2.84854 85.1267 -2.32997 85.2799C0.48108 85.9716 3.44005 85.7414 6.1103 84.6233C8.78055 83.5051 11.0206 81.5582 12.5 79.0699C12.7587 78.5995 13.1094 78.186 13.5312 77.854C13.9531 77.522 14.4374 77.2783 14.9554 77.1374C15.4734 76.9965 16.0145 76.9614 16.5463 77.034C17.0782 77.1066 17.59 77.2856 18.0513 77.5602C18.5125 77.8348 18.9138 78.1994 19.2312 78.6324C19.5485 79.0654 19.7755 79.5578 19.8986 80.0803C20.0216 80.6028 20.0382 81.1448 19.9474 81.6738C19.8566 82.2029 19.6603 82.7083 19.37 83.1599C17.0125 87.1145 13.4526 90.2119 9.21003 91.9999C6.58228 93.1029 3.75989 93.6674 0.910034 93.6599Z" fill="#B19A82"/>
<path d="M12.0001 141.34C11.3702 141.34 10.7493 141.191 10.1877 140.906C9.62616 140.621 9.13993 140.207 8.76859 139.698C8.39725 139.189 8.15131 138.6 8.05078 137.978C7.95026 137.356 7.99799 136.72 8.1901 136.12C9.60828 131.695 12.6827 127.99 16.7701 125.78C17.6873 125.38 18.7211 125.338 19.6676 125.663C20.6141 125.987 21.4045 126.655 21.8829 127.534C22.3613 128.413 22.4929 129.439 22.2517 130.41C22.0105 131.381 21.4141 132.227 20.5801 132.78C19.4234 133.405 18.4034 134.255 17.5801 135.28C16.803 136.243 16.2098 137.342 15.8301 138.52C15.5775 139.338 15.0692 140.053 14.3798 140.561C13.6903 141.069 12.8562 141.342 12.0001 141.34Z" fill="#B19A82"/>
<path d="M34.93 162.23C34.0645 162.231 33.222 161.951 32.529 161.433C31.8359 160.915 31.3297 160.185 31.0863 159.355C30.8428 158.524 30.8754 157.637 31.179 156.827C31.4826 156.016 32.0408 155.326 32.77 154.86C33.5003 154.397 34.1021 153.757 34.52 153C34.8731 152.358 35.0909 151.65 35.16 150.92C35.2047 150.395 35.3524 149.883 35.5946 149.415C35.8369 148.947 36.169 148.531 36.572 148.191C36.975 147.851 37.441 147.594 37.9434 147.434C38.4458 147.274 38.9747 147.215 39.5 147.26C40.0253 147.305 40.5367 147.452 41.0049 147.694C41.4731 147.937 41.889 148.269 42.2289 148.672C42.5687 149.075 42.8259 149.541 42.9857 150.043C43.1454 150.546 43.2047 151.075 43.16 151.6C42.9964 153.616 42.3698 155.567 41.3292 157.301C40.2885 159.036 38.8618 160.507 37.16 161.6C36.4951 162.025 35.7192 162.245 34.93 162.23Z" fill="#B19A82"/>
<path d="M161.33 156.64C160.68 156.64 160.04 156.481 159.465 156.178C158.89 155.875 158.397 155.436 158.03 154.9L154 149C153.704 148.566 153.496 148.078 153.389 147.563C153.281 147.049 153.276 146.519 153.373 146.002C153.471 145.486 153.669 144.994 153.957 144.554C154.244 144.115 154.616 143.736 155.05 143.44C155.484 143.144 155.972 142.936 156.486 142.829C157.001 142.721 157.531 142.716 158.047 142.813C158.564 142.911 159.056 143.109 159.495 143.397C159.935 143.684 160.314 144.056 160.61 144.49L164.61 150.38C165.21 151.25 165.442 152.321 165.254 153.361C165.067 154.401 164.476 155.324 163.61 155.93C162.943 156.399 162.145 156.647 161.33 156.64Z" fill="#B19A82"/>
<path d="M188.26 131H187.93C185.097 130.759 182.318 130.084 179.69 129C176.944 127.882 174.393 126.336 172.13 124.42C171.73 124.08 171.4 123.664 171.16 123.197C170.92 122.729 170.775 122.219 170.732 121.695C170.689 121.171 170.75 120.644 170.911 120.144C171.072 119.644 171.33 119.18 171.67 118.78C172.01 118.379 172.426 118.05 172.893 117.81C173.361 117.57 173.871 117.425 174.395 117.382C174.919 117.339 175.446 117.4 175.946 117.561C176.446 117.722 176.91 117.98 177.31 118.32C178.922 119.689 180.741 120.793 182.7 121.59C184.579 122.349 186.561 122.821 188.58 122.99C189.641 123.032 190.641 123.494 191.362 124.275C192.082 125.055 192.463 126.089 192.42 127.15C192.378 128.211 191.916 129.211 191.135 129.931C190.355 130.652 189.321 131.032 188.26 130.99V131Z" fill="#B19A82"/>
<path d="M187.62 94.6499C186.912 94.6562 186.215 94.4744 185.6 94.123C184.985 93.7716 184.474 93.2632 184.12 92.6499C182.946 90.5323 181.382 88.656 179.51 87.1199C177.85 85.7507 175.975 84.666 173.96 83.9099C173.464 83.7283 173.01 83.4503 172.622 83.0921C172.234 82.7339 171.921 82.3025 171.701 81.8228C171.481 81.343 171.358 80.8244 171.339 80.2969C171.32 79.7693 171.406 79.2432 171.591 78.749C171.776 78.2548 172.058 77.8021 172.419 77.4171C172.78 77.0322 173.214 76.7225 173.696 76.506C174.177 76.2895 174.697 76.1704 175.224 76.1556C175.752 76.1408 176.277 76.2306 176.77 76.4199C182.858 78.6998 187.939 83.0653 191.11 88.7399C191.627 89.6656 191.755 90.7585 191.466 91.7786C191.177 92.7986 190.495 93.6623 189.57 94.1799C188.971 94.4996 188.299 94.6614 187.62 94.6499Z" fill="#B19A82"/>
<path d="M171.15 56.9999C168.841 56.994 166.544 56.6572 164.33 55.9999C160.43 54.8567 156.877 52.7603 153.99 49.8999C153.238 49.1506 152.815 48.1334 152.813 47.072C152.811 46.0105 153.231 44.9918 153.98 44.2399C154.729 43.488 155.746 43.0645 156.808 43.0627C157.869 43.0608 158.888 43.4807 159.64 44.2299C161.553 46.1298 163.907 47.5267 166.491 48.2962C169.075 49.0657 171.809 49.1838 174.45 48.6399C175.473 48.4624 176.525 48.6899 177.384 49.2741C178.242 49.8584 178.84 50.7537 179.051 51.7706C179.261 52.7876 179.068 53.8465 178.511 54.7235C177.955 55.6005 177.08 56.2268 176.07 56.4699C174.453 56.8156 172.804 56.9932 171.15 56.9999Z" fill="#B19A82"/>
<path d="M156.42 88.8199C156.077 88.8181 155.746 88.6991 155.48 88.4826C155.214 88.2661 155.031 87.9652 154.96 87.6299C154.025 83.2355 152.796 78.909 151.28 74.6799C149.664 70.1683 147.729 65.7772 145.49 61.5399C145.303 61.1885 145.263 60.7772 145.38 60.3965C145.496 60.0158 145.759 59.6969 146.11 59.5099C146.462 59.3229 146.873 59.2832 147.253 59.3995C147.634 59.5157 147.953 59.7785 148.14 60.1299C152.622 68.5902 155.904 77.6338 157.89 86.9999C157.931 87.1923 157.933 87.391 157.897 87.5844C157.861 87.7777 157.787 87.962 157.679 88.1266C157.571 88.2912 157.432 88.4327 157.269 88.5431C157.106 88.6536 156.923 88.7306 156.73 88.7699C156.63 88.8019 156.525 88.8187 156.42 88.8199Z" fill="#BAA496"/>
<path d="M163 90.8599C162.656 90.8604 162.322 90.7425 162.054 90.5258C161.786 90.3091 161.601 90.0069 161.53 89.6699C159.585 80.5715 156.377 71.7898 152 63.5799C151.898 63.4052 151.832 63.2115 151.806 63.0105C151.781 62.8096 151.796 62.6056 151.851 62.4108C151.907 62.2159 152.001 62.0344 152.129 61.877C152.256 61.7196 152.414 61.5897 152.593 61.4951C152.773 61.4005 152.969 61.3431 153.171 61.3265C153.373 61.3098 153.576 61.3342 153.768 61.3982C153.96 61.4622 154.137 61.5645 154.289 61.6988C154.441 61.8332 154.563 61.9968 154.65 62.1799C156.971 66.5405 158.976 71.0621 160.65 75.7099C162.204 80.068 163.467 84.5244 164.43 89.0499C164.471 89.243 164.474 89.4422 164.438 89.6363C164.401 89.8303 164.327 90.0153 164.22 90.1807C164.112 90.346 163.972 90.4885 163.81 90.5999C163.647 90.7113 163.463 90.7895 163.27 90.8299C163.181 90.8474 163.091 90.8574 163 90.8599Z" fill="#BAA496"/>
<path d="M167.17 88.1299C166.795 88.1149 166.439 87.9618 166.17 87.6999C161.31 82.9204 154.955 79.955 148.17 79.2999C147.772 79.2628 147.405 79.0691 147.15 78.7615C146.895 78.454 146.773 78.0577 146.81 77.6599C146.847 77.2621 147.041 76.8953 147.348 76.6402C147.656 76.3852 148.052 76.2628 148.45 76.2999C155.935 77.0159 162.946 80.2815 168.31 85.5499C168.591 85.8311 168.749 86.2124 168.749 86.6099C168.749 87.0074 168.591 87.3886 168.31 87.6699C168.164 87.8238 167.987 87.9445 167.79 88.0238C167.593 88.1032 167.382 88.1394 167.17 88.1299Z" fill="#BAA496"/>
<path d="M163.91 77.6199C163.696 77.6216 163.484 77.577 163.289 77.4889C163.094 77.4009 162.92 77.2715 162.78 77.1099C158.276 71.9759 152.143 68.5475 145.41 67.3999C145.213 67.3671 145.025 67.2957 144.855 67.19C144.686 67.0843 144.539 66.9463 144.423 66.7838C144.307 66.6213 144.224 66.4375 144.179 66.2429C144.134 66.0484 144.127 65.8469 144.16 65.6499C144.193 65.4529 144.264 65.2643 144.37 65.0949C144.476 64.9255 144.614 64.7785 144.776 64.6624C144.939 64.5464 145.122 64.4634 145.317 64.4184C145.512 64.3733 145.713 64.3671 145.91 64.3999C153.318 65.6754 160.06 69.4648 165 75.1299C165.132 75.2775 165.232 75.4499 165.297 75.6369C165.361 75.8239 165.387 76.0219 165.374 76.2192C165.361 76.4165 165.309 76.6093 165.221 76.7862C165.133 76.9632 165.01 77.1208 164.86 77.2499C164.598 77.4834 164.261 77.6147 163.91 77.6199Z" fill="#BAA496"/>
<path d="M49.48 144.28C49.2557 144.313 49.0269 144.295 48.8105 144.227C48.5941 144.16 48.3957 144.045 48.23 143.89C43.2948 139.255 39.0304 133.954 35.56 128.14C35.3558 127.798 35.2958 127.389 35.3934 127.002C35.4909 126.616 35.7379 126.284 36.08 126.08C36.4221 125.876 36.8314 125.816 37.2177 125.913C37.604 126.011 37.9358 126.258 38.14 126.6C39.7492 129.293 41.5365 131.875 43.49 134.33C45.5707 136.949 47.8401 139.412 50.28 141.7C50.4862 141.892 50.634 142.139 50.7064 142.411C50.7788 142.684 50.7729 142.971 50.6894 143.241C50.6058 143.51 50.4481 143.751 50.2342 143.934C50.0203 144.118 49.7589 144.238 49.48 144.28Z" fill="#BAA496"/>
<path d="M44.5501 145C44.3258 145.035 44.0963 145.018 43.8796 144.951C43.6628 144.883 43.4645 144.766 43.3001 144.61C38.3649 139.975 34.1004 134.674 30.6301 128.86C30.4258 128.518 30.3659 128.109 30.4634 127.722C30.5609 127.336 30.8079 127.004 31.1501 126.8C31.4922 126.596 31.9014 126.536 32.2878 126.633C32.6741 126.731 33.0058 126.978 33.2101 127.32C34.8145 130.016 36.602 132.599 38.5601 135.05C40.6495 137.667 42.9219 140.134 45.3601 142.43C45.6491 142.703 45.8177 143.08 45.829 143.477C45.8402 143.875 45.6931 144.261 45.4201 144.55C45.1872 144.791 44.8815 144.949 44.5501 145Z" fill="#BAA496"/>
<path d="M39.15 134.1L37.89 134.26C35.2285 134.511 32.5435 134.309 29.95 133.66C29.5641 133.563 29.2325 133.317 29.0281 132.976C28.8237 132.634 28.7632 132.226 28.86 131.84C28.9568 131.454 29.203 131.122 29.5443 130.918C29.8856 130.714 30.2941 130.653 30.68 130.75C35.2356 131.893 40.0458 131.43 44.3 129.44C44.4798 129.34 44.6783 129.278 44.883 129.258C45.0878 129.238 45.2944 129.26 45.4902 129.324C45.6859 129.387 45.8666 129.49 46.0209 129.626C46.1752 129.762 46.2999 129.928 46.3872 130.114C46.4745 130.301 46.5225 130.503 46.5283 130.709C46.5341 130.914 46.4976 131.119 46.4209 131.31C46.3443 131.501 46.2292 131.674 46.0828 131.818C45.9364 131.963 45.7619 132.076 45.57 132.15C43.535 133.105 41.3727 133.762 39.15 134.1Z" fill="#BAA496"/>
<path d="M42.61 141.75H42.52C39.8617 142.144 37.1553 142.077 34.52 141.55C34.1457 141.458 33.8213 141.225 33.6142 140.899C33.407 140.574 33.3331 140.182 33.4078 139.803C33.4824 139.425 33.6998 139.09 34.0149 138.868C34.3301 138.645 34.7186 138.553 35.1 138.61C37.3868 139.061 39.7339 139.119 42.04 138.78C44.348 138.445 46.5809 137.715 48.64 136.62C48.8148 136.517 49.0085 136.451 49.2094 136.426C49.4103 136.4 49.6144 136.416 49.8092 136.471C50.004 136.527 50.1855 136.621 50.3429 136.749C50.5003 136.876 50.6302 137.034 50.7248 137.213C50.8194 137.392 50.8768 137.589 50.8934 137.791C50.9101 137.993 50.8857 138.196 50.8217 138.388C50.7577 138.58 50.6555 138.757 50.5211 138.909C50.3868 139.06 50.2231 139.183 50.04 139.27C47.7193 140.506 45.2079 141.344 42.61 141.75Z" fill="#BAA496"/>
<path d="M99.56 125.22C101.17 123.22 99.92 118.81 96.32 114.22C96.3118 114.203 96.299 114.189 96.2831 114.179C96.2672 114.169 96.2488 114.163 96.23 114.163C96.2112 114.163 96.1928 114.169 96.1769 114.179C96.161 114.189 96.1482 114.203 96.14 114.22C93.9 119.59 93.87 124.22 95.96 125.66C96.526 125.996 97.1855 126.14 97.84 126.07C98.4882 125.968 99.0833 125.651 99.53 125.17L99.56 125.22Z" fill="#EEE8E6"/>
<path d="M81.0901 36.1899C82.4162 36.1899 83.6879 35.6631 84.6256 34.7254C85.5633 33.7877 86.0901 32.516 86.0901 31.1899V19.8199C82.7344 20.1385 79.3968 20.6257 76.0901 21.2799V31.1899C76.0901 31.8465 76.2194 32.4967 76.4707 33.1033C76.722 33.7099 77.0903 34.2611 77.5546 34.7254C78.0188 35.1897 78.5701 35.558 79.1767 35.8093C79.7833 36.0606 80.4335 36.1899 81.0901 36.1899Z" fill="#B19A82"/>
<path d="M95.27 25.4999C94.8658 25.5004 94.464 25.4363 94.08 25.3099C90.7199 24.2817 87.7563 22.2467 85.59 19.4799C80.54 12.9699 82.33 5.27989 82.74 3.79989C83.0238 2.77748 83.7021 1.90968 84.6257 1.38739C85.5493 0.865102 86.6426 0.731108 87.665 1.01489C88.6874 1.29867 89.5552 1.97698 90.0775 2.9006C90.5998 3.82421 90.7338 4.91748 90.45 5.93989C90.31 6.44989 89.15 11.0099 91.92 14.5799C93.0864 16.0516 94.6736 17.1329 96.47 17.6799C97.385 17.964 98.1676 18.5672 98.6754 19.3796C99.1833 20.1919 99.3827 21.1596 99.2374 22.1066C99.0921 23.0536 98.6117 23.917 97.8836 24.5397C97.1555 25.1624 96.2281 25.5032 95.27 25.4999Z" fill="#B19A82"/>
<path d="M108.65 35.9999C109.976 35.9999 111.248 35.4731 112.186 34.5354C113.123 33.5977 113.65 32.326 113.65 30.9999V21.2199C110.3 20.5699 106.95 20.0999 103.65 19.7899V30.9999C103.65 32.326 104.177 33.5977 105.115 34.5354C106.052 35.4731 107.324 35.9999 108.65 35.9999Z" fill="#B19A82"/>
</svg>
