<svg width="178" height="169" viewBox="0 0 178 169" fill="none" xmlns="http://www.w3.org/2000/svg">
<path d="M125.68 117.47C123.39 114.04 114.45 97.3702 88.9101 97.3702C63.3701 97.3702 54.4201 114.04 52.1401 117.47C36.4101 141.1 47.8301 185.76 88.9101 218.29C130 185.76 141.4 141.1 125.68 117.47Z" fill="#BAA496"/>
<path d="M147.93 164.88C149.72 167.56 157.46 179.65 153.53 187.03C151.79 190.31 146.41 190.64 142.89 189.57C137.3 187.86 135.05 181.68 131.96 172.79C129.2 164.79 128.51 152.9 128.4 149.53C128.2 144 142.2 156.29 147.93 164.88Z" fill="#CAB49F"/>
<path d="M29.82 164.88C28 167.56 20.3 179.65 24.22 187C25.96 190.28 31.34 190.61 34.86 189.54C40.45 187.83 42.7 181.65 45.79 172.76C48.55 164.76 49.25 152.87 49.35 149.5C49.51 144 35.52 156.29 29.82 164.88Z" fill="#CAB49F"/>
<path d="M116.35 135.74C109.89 132.13 98.4399 129.74 88.9999 129.74C79.5599 129.74 68.1099 132.09 61.6499 135.74C48.2699 143.19 39.6499 160.04 40.3199 185.74C41.0899 215.23 61.4199 220.57 88.8699 220.57C116.32 220.57 136.63 215.23 137.42 185.74C138.09 160 129.73 143.19 116.35 135.74Z" fill="#CAB49F"/>
<path d="M103.85 219.81C115.5 215.26 121.79 202.01 118.85 189.19L118.49 187.61C115.61 174.94 104.15 166.35 92.4899 166.35H85.4199C73.7099 166.35 62.2499 174.94 59.3699 187.61L59.0099 189.19C56.0099 202.01 62.3199 215.26 74.0099 219.81C78.9912 220.35 83.9996 220.601 89.0099 220.56C93.9669 220.595 98.9218 220.345 103.85 219.81Z" fill="#F2ECDF"/>
<path d="M46.06 34.3602C55.4985 34.3602 63.15 26.7087 63.15 17.2702C63.15 7.83163 55.4985 0.180176 46.06 0.180176C36.6214 0.180176 28.97 7.83163 28.97 17.2702C28.97 26.7087 36.6214 34.3602 46.06 34.3602Z" fill="#CAB49F"/>
<path d="M46.06 26.6102C51.2183 26.6102 55.4 22.4285 55.4 17.2702C55.4 12.1118 51.2183 7.93018 46.06 7.93018C40.9016 7.93018 36.72 12.1118 36.72 17.2702C36.72 22.4285 40.9016 26.6102 46.06 26.6102Z" fill="#F2ECDF"/>
<path d="M131.69 34.3602C141.129 34.3602 148.78 26.7087 148.78 17.2702C148.78 7.83163 141.129 0.180176 131.69 0.180176C122.252 0.180176 114.6 7.83163 114.6 17.2702C114.6 26.7087 122.252 34.3602 131.69 34.3602Z" fill="#CAB49F"/>
<path d="M131.69 26.6102C136.848 26.6102 141.03 22.4285 141.03 17.2702C141.03 12.1118 136.848 7.93018 131.69 7.93018C126.532 7.93018 122.35 12.1118 122.35 17.2702C122.35 22.4285 126.532 26.6102 131.69 26.6102Z" fill="#F2ECDF"/>
<path d="M89 9.39017C126.88 9.39017 174.48 33.0502 177.53 85.6402C180.28 132.97 142.92 158.64 89 158.64C35.08 158.64 -2.29004 132.97 0.459963 85.6402C3.50996 33.0502 51.11 9.39017 89 9.39017Z" fill="#CAB49F"/>
<path d="M88.9099 105.29C91.3842 105.29 93.3899 103.813 93.3899 101.99C93.3899 100.168 91.3842 98.6902 88.9099 98.6902C86.4357 98.6902 84.4299 100.168 84.4299 101.99C84.4299 103.813 86.4357 105.29 88.9099 105.29Z" fill="#977C6A"/>
<path d="M88.89 119.3C90.1654 120.857 91.9258 121.941 93.89 122.38C94.9064 122.641 95.9506 122.779 97 122.79C101 122.79 105 120.93 106.34 117.04C106.473 116.662 106.45 116.247 106.276 115.886C106.103 115.525 105.793 115.248 105.415 115.115C105.037 114.983 104.622 115.006 104.261 115.179C103.9 115.352 103.623 115.662 103.49 116.04C102.41 119.25 98.07 120.32 94.68 119.47C93.4954 119.091 92.4579 118.354 91.7108 117.359C90.9638 116.365 90.5442 115.163 90.51 113.92V103.7H87.36V113.92C87.3258 115.163 86.9062 116.365 86.1591 117.359C85.4121 118.354 84.3745 119.091 83.19 119.47C79.8 120.32 75.46 119.25 74.38 116.04C74.2474 115.662 73.9701 115.352 73.6091 115.179C73.2481 115.006 72.8329 114.983 72.455 115.115C72.0771 115.248 71.7673 115.525 71.5938 115.886C71.4204 116.247 71.3974 116.662 71.53 117.04C72.87 120.93 76.87 122.79 80.87 122.79C81.9194 122.78 82.9637 122.642 83.98 122.38C85.9442 121.941 87.7046 120.857 88.98 119.3" fill="#977C6A"/>
<path d="M48.26 95.9102C47.5143 95.916 46.7931 95.6439 46.2371 95.1468C45.6811 94.6498 45.3302 93.9634 45.2528 93.2217C45.1754 92.48 45.377 91.736 45.8184 91.1348C46.2597 90.5337 46.9092 90.1185 47.64 89.9702C49.7898 89.5154 51.8527 88.7186 53.75 87.6102C54.0915 87.3931 54.4733 87.2474 54.8726 87.1817C55.2718 87.116 55.6802 87.1318 56.0732 87.2281C56.4662 87.3243 56.8356 87.4991 57.1593 87.7418C57.483 87.9846 57.7543 88.2903 57.9568 88.6406C58.1593 88.9909 58.2888 89.3785 58.3376 89.7802C58.3864 90.1818 58.3534 90.5892 58.2407 90.9778C58.1279 91.3664 57.9378 91.7281 57.6816 92.0413C57.4254 92.3545 57.1086 92.6126 56.75 92.8002C54.3019 94.2101 51.6455 95.2227 48.88 95.8002C48.6784 95.8609 48.4703 95.8978 48.26 95.9102Z" fill="#977C6A"/>
<path d="M129.47 95.9102C129.258 95.9117 129.047 95.8882 128.84 95.8402C126.075 95.2627 123.418 94.2501 120.97 92.8402C120.612 92.6526 120.295 92.3945 120.038 92.0813C119.782 91.7681 119.592 91.4064 119.479 91.0178C119.367 90.6292 119.334 90.2218 119.382 89.8202C119.431 89.4185 119.561 89.0309 119.763 88.6806C119.966 88.3303 120.237 88.0246 120.561 87.7818C120.884 87.5391 121.254 87.3643 121.647 87.2681C122.04 87.1718 122.448 87.156 122.847 87.2217C123.247 87.2874 123.629 87.4331 123.97 87.6502C125.864 88.7585 127.923 89.5554 130.07 90.0102C130.801 90.1585 131.45 90.5737 131.892 91.1748C132.333 91.776 132.535 92.52 132.457 93.2617C132.38 94.0035 132.029 94.6898 131.473 95.1868C130.917 95.6839 130.196 95.956 129.45 95.9502L129.47 95.9102Z" fill="#977C6A"/>
<path d="M93.56 115.22C95.17 113.22 93.92 108.81 90.32 104.22C90.3118 104.203 90.299 104.189 90.2831 104.179C90.2672 104.169 90.2488 104.164 90.23 104.164C90.2112 104.164 90.1928 104.169 90.1769 104.179C90.161 104.189 90.1482 104.203 90.14 104.22C87.9 109.59 87.87 114.22 89.96 115.66C90.526 115.996 91.1855 116.14 91.84 116.07C92.4882 115.968 93.0833 115.651 93.53 115.17L93.56 115.22Z" fill="#EEE8E6"/>
<path d="M75.0898 26.1902C76.4159 26.1902 77.6877 25.6634 78.6254 24.7257C79.5631 23.788 80.0898 22.5162 80.0898 21.1902V9.82016C76.7341 10.1387 73.3966 10.626 70.0898 11.2802V21.1902C70.0898 21.8468 70.2192 22.4969 70.4704 23.1036C70.7217 23.7102 71.09 24.2614 71.5543 24.7257C72.0186 25.19 72.5698 25.5583 73.1764 25.8096C73.7831 26.0608 74.4332 26.1902 75.0898 26.1902Z" fill="#B19A82"/>
<path d="M93.8699 26.6802V9.52016C92.2299 9.44016 90.6099 9.39017 88.9999 9.39017C87.3899 9.39017 85.5999 9.39017 83.8699 9.54017V26.6802C83.8699 28.0063 84.3967 29.278 85.3344 30.2157C86.272 31.1534 87.5438 31.6802 88.8699 31.6802C90.196 31.6802 91.4677 31.1534 92.4054 30.2157C93.3431 29.278 93.8699 28.0063 93.8699 26.6802Z" fill="#B19A82"/>
<path d="M102.65 26.0002C103.976 26.0002 105.248 25.4734 106.185 24.5357C107.123 23.598 107.65 22.3262 107.65 21.0002V11.2202C104.3 10.5702 100.95 10.1002 97.6499 9.79016V21.0002C97.6499 22.3262 98.1767 23.598 99.1144 24.5357C100.052 25.4734 101.324 26.0002 102.65 26.0002Z" fill="#B19A82"/>
</svg>
