<svg width="178" height="169" viewBox="0 0 178 169" fill="none" xmlns="http://www.w3.org/2000/svg">
<path d="M125.87 117.47C123.58 114.04 114.64 97.3702 89.1001 97.3702C63.5601 97.3702 54.6101 114.04 52.3301 117.47C36.6101 141.1 48.0001 185.76 89.1001 218.29C130.18 185.76 141.59 141.1 125.87 117.47Z" fill="#BAA496"/>
<path d="M148.12 164.88C149.91 167.56 157.65 179.65 153.72 187.03C151.98 190.31 146.6 190.64 143.08 189.57C137.49 187.86 135.24 181.68 132.15 172.79C129.39 164.79 128.7 152.9 128.59 149.53C128.39 144 142.39 156.29 148.12 164.88Z" fill="#CAB49F"/>
<path d="M30 164.88C28.21 167.56 20.48 179.65 24.4 187.03C26.14 190.31 31.52 190.64 35.04 189.57C40.63 187.86 42.88 181.68 45.97 172.79C48.73 164.79 49.43 152.9 49.53 149.53C49.7 144 35.71 156.29 30 164.88Z" fill="#CAB49F"/>
<path d="M116.54 135.74C110.09 132.13 98.6301 129.74 89.2001 129.74C79.7701 129.74 68.3101 132.09 61.8401 135.74C48.4601 143.19 39.8401 160.04 40.5101 185.74C41.2801 215.23 61.6101 220.57 89.0601 220.57C116.51 220.57 136.82 215.23 137.61 185.74C138.28 160 129.92 143.19 116.54 135.74Z" fill="#CAB49F"/>
<path d="M104.05 219.81C115.69 215.26 121.98 202.01 119.05 189.19L118.68 187.61C115.8 174.94 104.35 166.35 92.6801 166.35H85.6201C73.9001 166.35 62.4401 174.94 59.5601 187.61L59.2001 189.19C56.2001 202.01 62.5101 215.26 74.2001 219.81C79.1814 220.35 84.1898 220.601 89.2001 220.56C94.1604 220.595 99.1186 220.345 104.05 219.81Z" fill="#F2ECDF"/>
<path d="M46.2499 34.3602C55.6885 34.3602 63.3399 26.7087 63.3399 17.2702C63.3399 7.83163 55.6885 0.180176 46.2499 0.180176C36.8114 0.180176 29.1599 7.83163 29.1599 17.2702C29.1599 26.7087 36.8114 34.3602 46.2499 34.3602Z" fill="#CAB49F"/>
<path d="M46.2499 26.6102C51.4082 26.6102 55.5899 22.4285 55.5899 17.2702C55.5899 12.1118 51.4082 7.93018 46.2499 7.93018C41.0916 7.93018 36.9099 12.1118 36.9099 17.2702C36.9099 22.4285 41.0916 26.6102 46.2499 26.6102Z" fill="#F2ECDF"/>
<path d="M131.88 34.3602C141.318 34.3602 148.97 26.7087 148.97 17.2702C148.97 7.83163 141.318 0.180176 131.88 0.180176C122.441 0.180176 114.79 7.83163 114.79 17.2702C114.79 26.7087 122.441 34.3602 131.88 34.3602Z" fill="#CAB49F"/>
<path d="M131.88 26.6102C137.038 26.6102 141.22 22.4285 141.22 17.2702C141.22 12.1118 137.038 7.93018 131.88 7.93018C126.721 7.93018 122.54 12.1118 122.54 17.2702C122.54 22.4285 126.721 26.6102 131.88 26.6102Z" fill="#F2ECDF"/>
<path d="M89.1999 9.39017C127.08 9.39017 174.68 33.0502 177.73 85.6402C180.48 132.97 143.12 158.64 89.1999 158.64C35.2799 158.64 -2.09009 132.97 0.659914 85.6402C3.70991 33.0502 51.3099 9.39017 89.1999 9.39017Z" fill="#CAB49F"/>
<path d="M86.23 125.9C85.8729 125.897 85.5287 125.767 85.2591 125.533C84.9896 125.299 84.8123 124.976 84.7593 124.623C84.7063 124.27 84.7809 123.909 84.9699 123.607C85.1588 123.304 85.4496 123.078 85.79 122.97C87.4895 122.331 89.3124 122.089 91.12 122.26C91.3169 122.264 91.5112 122.307 91.6913 122.387C91.8713 122.467 92.0337 122.582 92.1687 122.725C92.3038 122.869 92.4088 123.038 92.4777 123.222C92.5466 123.407 92.578 123.603 92.57 123.8C92.5518 124.196 92.3795 124.57 92.09 124.841C91.8004 125.111 91.4164 125.258 91.02 125.25C89.5436 125.094 88.0514 125.297 86.67 125.84C86.5266 125.88 86.3787 125.9 86.23 125.9Z" fill="#977C6A"/>
<path d="M80.4199 112.56L89.0999 116.58L97.5799 112.56L89.0999 107.9L80.4199 112.56Z" fill="#D6B2A6"/>
<path d="M107.79 109.91C107.416 109.357 106.927 108.891 106.355 108.545C105.784 108.2 105.144 107.983 104.48 107.91C103.418 107.883 102.382 108.238 101.56 108.91C99.8099 110.23 94.8799 110.71 92.5599 108.77C90.8999 107.39 90.6998 104.87 90.7298 103.48C90.7352 103.083 90.584 102.7 90.3089 102.413C90.0337 102.127 89.6568 101.961 89.2598 101.95H88.9499C88.7529 101.954 88.5586 101.997 88.3781 102.076C88.1976 102.155 88.0344 102.269 87.8979 102.411C87.7614 102.553 87.6542 102.72 87.5825 102.904C87.5108 103.087 87.4759 103.283 87.4798 103.48C87.4798 104.87 87.3098 107.4 85.6498 108.78C83.3298 110.72 78.3898 110.25 76.5898 108.9C75.7854 108.231 74.7659 107.876 73.7199 107.9C73.0574 107.973 72.4189 108.19 71.8489 108.536C71.279 108.881 70.7913 109.347 70.4199 109.9C70.285 110.054 70.183 110.234 70.1203 110.429C70.0577 110.624 70.0356 110.83 70.0554 111.034C70.0752 111.237 70.1366 111.435 70.2357 111.614C70.3348 111.793 70.4695 111.95 70.6316 112.076C70.7937 112.201 70.9797 112.291 71.1781 112.342C71.3765 112.393 71.5832 112.402 71.7854 112.37C71.9876 112.337 72.181 112.264 72.3538 112.154C72.5265 112.044 72.6749 111.9 72.7898 111.73C73.1998 111.21 73.5999 110.89 73.9099 110.87C74.2572 110.926 74.5805 111.083 74.8398 111.32C75.5121 111.796 76.2543 112.163 77.0398 112.41C78.3574 114.062 80.0017 115.423 81.8698 116.41C84.1109 117.557 86.5923 118.155 89.1099 118.155C91.6274 118.155 94.1089 117.557 96.3499 116.41C98.2213 115.424 99.869 114.062 101.19 112.41C101.996 112.162 102.756 111.783 103.44 111.29C103.685 111.075 103.987 110.936 104.31 110.89C104.776 111.023 105.176 111.327 105.43 111.74C105.551 111.896 105.701 112.026 105.872 112.124C106.043 112.221 106.232 112.284 106.427 112.309C106.623 112.333 106.821 112.319 107.011 112.267C107.201 112.215 107.379 112.126 107.535 112.005C107.69 111.884 107.821 111.734 107.918 111.563C108.016 111.392 108.079 111.203 108.103 111.008C108.128 110.812 108.114 110.614 108.062 110.424C108.01 110.234 107.921 110.056 107.8 109.9L107.79 109.91ZM83.2499 113.48C82.8399 113.27 82.4599 113.34 82.0799 113.09C84.0743 113.015 85.9947 112.316 87.5699 111.09C88.1839 110.475 88.6969 109.766 89.0898 108.99C89.4935 109.764 90.0128 110.473 90.6299 111.09C92.2046 112.316 94.1253 113.016 96.1198 113.09C95.7498 113.34 95.3498 113.27 94.9499 113.48C93.1398 114.409 91.1345 114.894 89.0999 114.894C87.0653 114.894 85.0599 114.409 83.2499 113.48Z" fill="#977C6A"/>
<path d="M89.1099 105.72C91.5841 105.72 93.5899 104.243 93.5899 102.42C93.5899 100.598 91.5841 99.1202 89.1099 99.1202C86.6356 99.1202 84.6299 100.598 84.6299 102.42C84.6299 104.243 86.6356 105.72 89.1099 105.72Z" fill="#977C6A"/>
<path d="M48.46 95.9102C47.7142 95.916 46.9931 95.6439 46.4371 95.1468C45.8811 94.6498 45.5302 93.9634 45.4527 93.2217C45.3753 92.48 45.5769 91.736 46.0183 91.1348C46.4597 90.5337 47.1091 90.1185 47.84 89.9702C49.9861 89.5135 52.0454 88.7168 53.94 87.6102C54.2814 87.3931 54.6633 87.2474 55.0625 87.1817C55.4618 87.116 55.8702 87.1318 56.2631 87.2281C56.6561 87.3243 57.0256 87.4991 57.3493 87.7418C57.673 87.9846 57.9442 88.2903 58.1467 88.6406C58.3492 88.9909 58.4787 89.3785 58.5275 89.7802C58.5763 90.1818 58.5434 90.5892 58.4306 90.9778C58.3179 91.3664 58.1277 91.7281 57.8715 92.0413C57.6154 92.3545 57.2985 92.6126 56.94 92.8002C54.4918 94.2101 51.8355 95.2227 49.07 95.8002C48.8716 95.8603 48.6669 95.8972 48.46 95.9102Z" fill="#977C6A"/>
<path d="M60.1001 101.41C59.787 101.41 59.4819 101.311 59.2276 101.128C58.9734 100.945 58.7827 100.687 58.6824 100.391C58.582 100.094 58.577 99.7736 58.6681 99.474C58.7591 99.1744 58.9417 98.9108 59.1901 98.7202C60.5 97.7189 61.9529 96.92 63.5001 96.3502C63.6898 96.2587 63.8966 96.2081 64.107 96.2018C64.3175 96.1955 64.527 96.2336 64.7218 96.3136C64.9166 96.3936 65.0923 96.5137 65.2376 96.6661C65.3829 96.8185 65.4945 96.9998 65.5651 97.1982C65.6357 97.3966 65.6638 97.6077 65.6474 97.8176C65.6311 98.0275 65.5707 98.2317 65.4702 98.4168C65.3698 98.6018 65.2315 98.7637 65.0643 98.8918C64.8972 99.0198 64.7049 99.1113 64.5001 99.1602C63.2448 99.6322 62.0656 100.286 61.0001 101.1C60.7428 101.3 60.4262 101.41 60.1001 101.41Z" fill="#977C6A"/>
<path d="M129.66 95.9102C129.448 95.9117 129.237 95.8882 129.03 95.8402C126.265 95.2627 123.608 94.2501 121.16 92.8402C120.507 92.4251 120.04 91.7737 119.856 91.0222C119.672 90.2706 119.785 89.477 120.172 88.8071C120.559 88.1372 121.191 87.6428 121.934 87.4272C122.677 87.2116 123.474 87.2915 124.16 87.6502C126.054 88.7585 128.113 89.5554 130.26 90.0102C130.991 90.1585 131.64 90.5737 132.082 91.1748C132.523 91.776 132.725 92.52 132.647 93.2617C132.57 94.0035 132.219 94.6898 131.663 95.1868C131.107 95.6839 130.386 95.956 129.64 95.9502L129.66 95.9102Z" fill="#977C6A"/>
<path d="M116.68 100.54C116.438 100.541 116.2 100.483 115.986 100.372C115.772 100.26 115.588 100.099 115.45 99.9002C114.451 98.4907 113.204 97.2744 111.77 96.3102C111.591 96.2083 111.435 96.0707 111.312 95.9059C111.188 95.7411 111.1 95.5527 111.053 95.3524C111.005 95.1521 111 94.9442 111.036 94.7416C111.072 94.539 111.15 94.346 111.264 94.1747C111.379 94.0035 111.527 93.8575 111.7 93.746C111.873 93.6345 112.067 93.5598 112.27 93.5265C112.473 93.4932 112.681 93.5022 112.881 93.5527C113.08 93.6032 113.267 93.6943 113.43 93.8202C115.179 94.9823 116.695 96.461 117.9 98.1802C118.061 98.4035 118.156 98.6669 118.176 98.9412C118.197 99.2155 118.14 99.4901 118.014 99.7344C117.888 99.9788 117.696 100.183 117.461 100.326C117.225 100.468 116.955 100.542 116.68 100.54Z" fill="#977C6A"/>
<path d="M99.1397 82.4902C98.7594 82.486 98.3947 82.3384 98.1185 82.077C97.8423 81.8156 97.6749 81.4597 97.6497 81.0802C97.5683 79.5539 97.8378 78.0292 98.4376 76.6233C99.0374 75.2174 99.9515 73.9677 101.11 72.9702C101.414 72.7149 101.806 72.5905 102.202 72.6243C102.597 72.658 102.963 72.8471 103.22 73.1502C103.349 73.2995 103.446 73.4732 103.507 73.6608C103.568 73.8485 103.591 74.0465 103.574 74.2431C103.557 74.4397 103.501 74.6309 103.41 74.8056C103.318 74.9803 103.192 75.1348 103.04 75.2602C102.239 75.9556 101.608 76.8237 101.192 77.799C100.776 78.7743 100.587 79.8313 100.64 80.8902C100.653 81.0867 100.628 81.284 100.564 81.4706C100.501 81.6573 100.402 81.8295 100.272 81.9773C100.141 82.1252 99.9831 82.2458 99.806 82.3321C99.6289 82.4184 99.4364 82.4687 99.2397 82.4802L99.1397 82.4902Z" fill="#977C6A"/>
<path d="M80.1299 81.0502C79.7321 81.0502 79.3505 80.8921 79.0692 80.6108C78.7879 80.3295 78.6299 79.948 78.6299 79.5502V74.9002C78.6299 74.5024 78.7879 74.1208 79.0692 73.8395C79.3505 73.5582 79.7321 73.4002 80.1299 73.4002C80.5277 73.4002 80.9092 73.5582 81.1905 73.8395C81.4718 74.1208 81.6299 74.5024 81.6299 74.9002V79.5502C81.6299 79.948 81.4718 80.3295 81.1905 80.6108C80.9092 80.8921 80.5277 81.0502 80.1299 81.0502Z" fill="#977C6A"/>
<path d="M74.5898 78.5702C74.2236 78.5683 73.8706 78.4333 73.5965 78.1905C73.3224 77.9476 73.1459 77.6135 73.0998 77.2502C72.9526 75.9417 72.6158 74.6616 72.0998 73.4502C72.021 73.2696 71.9786 73.0753 71.9749 72.8783C71.9712 72.6814 72.0063 72.4856 72.0783 72.3022C72.1502 72.1188 72.2576 71.9514 72.3943 71.8095C72.531 71.6676 72.6943 71.554 72.8748 71.4752C73.0554 71.3964 73.2497 71.3539 73.4467 71.3502C73.6437 71.3465 73.8394 71.3817 74.0228 71.4536C74.2062 71.5256 74.3737 71.633 74.5156 71.7697C74.6574 71.9063 74.771 72.0696 74.8498 72.2502C75.4921 73.7249 75.9198 75.2841 76.1198 76.8802C76.1679 77.2739 76.0582 77.6706 75.8145 77.9835C75.5709 78.2965 75.2133 78.5002 74.8198 78.5502L74.5898 78.5702Z" fill="#977C6A"/>
<path d="M93.7498 115.22C95.3598 113.22 94.1098 108.81 90.5198 104.22C90.5116 104.203 90.4988 104.189 90.4829 104.179C90.467 104.169 90.4485 104.164 90.4298 104.164C90.411 104.164 90.3926 104.169 90.3767 104.179C90.3607 104.189 90.3479 104.203 90.3398 104.22C88.0898 109.59 88.0598 114.22 90.1498 115.66C90.7158 115.996 91.3753 116.14 92.0298 116.07C92.678 115.968 93.2731 115.651 93.7198 115.17L93.7498 115.22Z" fill="#EEE8E6"/>
<path d="M75.28 26.1902C76.6061 26.1902 77.8779 25.6634 78.8156 24.7257C79.7532 23.788 80.28 22.5162 80.28 21.1902V9.82016C76.9243 10.1387 73.5868 10.626 70.28 11.2802V21.1902C70.28 21.8468 70.4094 22.4969 70.6606 23.1036C70.9119 23.7102 71.2802 24.2614 71.7445 24.7257C72.2088 25.19 72.76 25.5583 73.3666 25.8096C73.9732 26.0608 74.6234 26.1902 75.28 26.1902Z" fill="#B19A82"/>
<path d="M94.0601 26.6802V9.52016C92.4201 9.44016 90.8001 9.39017 89.2001 9.39017C87.6001 9.39017 85.7901 9.39017 84.0601 9.54017V26.6802C84.0601 28.0063 84.5868 29.278 85.5245 30.2157C86.4622 31.1534 87.734 31.6802 89.0601 31.6802C90.3861 31.6802 91.6579 31.1534 92.5956 30.2157C93.5333 29.278 94.0601 28.0063 94.0601 26.6802Z" fill="#B19A82"/>
<path d="M102.84 26.0002C104.166 26.0002 105.438 25.4734 106.376 24.5357C107.313 23.598 107.84 22.3262 107.84 21.0002V11.2202C104.49 10.5702 101.14 10.1002 97.8401 9.79016V21.0002C97.8401 22.3262 98.3669 23.598 99.3046 24.5357C100.242 25.4734 101.514 26.0002 102.84 26.0002Z" fill="#B19A82"/>
</svg>
