<svg width="218" height="238" viewBox="0 0 218 238" fill="none" xmlns="http://www.w3.org/2000/svg">
<path d="M71 111.67C67 110.53 49.42 103.67 30 120.16C10.58 136.65 14.52 155.16 15 159.3C18.33 187.49 56 214.12 108.32 212.3C118.55 160.9 98.32 119.49 71 111.67Z" fill="#BC9C86"/>
<path d="M68 232.86L76.46 235.92C77.2898 236.206 78.1907 236.211 79.0238 235.935C79.8569 235.658 80.5759 235.115 81.07 234.39C83.75 230.28 87.07 224.39 89.71 220.26C89.13 217.88 87.01 215.02 82.96 210.8C78.4877 206.279 72.499 203.575 66.15 203.21C64.82 208.62 65.21 223.13 65.44 229.21C65.4563 230.004 65.7084 230.775 66.1643 231.425C66.6202 232.075 67.2592 232.574 68 232.86Z" fill="#CBAC92"/>
<path d="M141.38 238H132.38C131.501 237.991 130.649 237.692 129.956 237.149C129.264 236.607 128.77 235.852 128.55 235L125.41 223C125.41 223 145.21 212.73 153.18 210.74C152.59 216.28 147.3 229.79 145 235.47C144.712 236.201 144.215 236.83 143.571 237.28C142.927 237.73 142.165 237.98 141.38 238Z" fill="#CBAC92"/>
<path d="M175.46 171.49C178.28 173.05 190.72 180.21 190.64 188.57C190.64 192.29 185.98 195.06 182.36 195.73C176.61 196.79 171.77 192.34 164.93 185.87C158.8 180.04 152.71 169.81 151.06 166.87C148.32 162 166.42 166.51 175.46 171.49Z" fill="#CBAC92"/>
<path d="M59 140C57.33 138.58 44.14 128 39.21 133.94C37.02 136.58 35.51 140.08 37.16 144.36C39.79 151.15 45.88 154.42 52.67 156.98C58.78 159.28 72.57 159.76 76.08 155.98C81.82 149.77 64.28 144.58 59 140Z" fill="#CBAC92"/>
<path d="M142 140.13C135.81 136.13 124.54 132.97 115.12 132.32C105.7 131.67 94.12 133.25 87.42 136.41C73.57 142.93 63.81 159.15 62.74 184.83C61.5 214.31 81.42 221.02 108.8 222.89C136.18 224.76 156.8 220.82 159.61 191.44C162 165.86 154.84 148.48 142 140.13Z" fill="#CBAC92"/>
<path d="M123.81 223.16C135.74 219.41 142.91 206.62 140.81 193.63L140.56 192.03C138.56 179.2 127.7 169.84 116.01 169.03L108.96 168.54C97.27 167.75 85.25 175.54 81.52 187.98L81.05 189.53C77.21 202.12 82.58 215.76 93.89 221.1C98.8213 221.98 103.8 222.571 108.8 222.87C113.794 223.257 118.805 223.354 123.81 223.16Z" fill="#F8EFDC"/>
<path d="M100.9 34.54C110.339 34.54 117.99 26.8885 117.99 17.45C117.99 8.01144 110.339 0.359985 100.9 0.359985C91.4614 0.359985 83.81 8.01144 83.81 17.45C83.81 26.8885 91.4614 34.54 100.9 34.54Z" fill="#CBAC92"/>
<path d="M100.9 26.79C106.058 26.79 110.24 22.6083 110.24 17.45C110.24 12.2916 106.058 8.10999 100.9 8.10999C95.7416 8.10999 91.56 12.2916 91.56 17.45C91.56 22.6083 95.7416 26.79 100.9 26.79Z" fill="#F8EFDC"/>
<path d="M184.84 51.47C194.279 51.47 201.93 43.8185 201.93 34.38C201.93 24.9414 194.279 17.29 184.84 17.29C175.401 17.29 167.75 24.9414 167.75 34.38C167.75 43.8185 175.401 51.47 184.84 51.47Z" fill="#CBAC92"/>
<path d="M184.84 43.72C189.998 43.72 194.18 39.5383 194.18 34.38C194.18 29.2216 189.998 25.04 184.84 25.04C179.682 25.04 175.5 29.2216 175.5 34.38C175.5 39.5383 179.682 43.72 184.84 43.72Z" fill="#F8EFDC"/>
<path d="M144.56 18.22C181.69 25.71 223.67 58.31 216.27 110.46C209.6 157.4 167.91 175.18 115.05 164.52C62.19 153.86 30.64 121.31 42.69 75.46C56.08 24.51 107.41 10.73 144.56 18.22Z" fill="#CBAC92"/>
<path d="M118.62 131.84C118.423 131.83 118.23 131.782 118.052 131.697C117.873 131.613 117.714 131.494 117.581 131.348C117.314 131.052 117.175 130.663 117.195 130.265C117.205 130.068 117.253 129.875 117.338 129.697C117.422 129.518 117.541 129.359 117.687 129.226C117.834 129.094 118.004 128.992 118.19 128.925C118.376 128.859 118.573 128.83 118.77 128.84C120.56 128.545 122.394 128.665 124.13 129.19C124.322 129.235 124.503 129.318 124.662 129.433C124.822 129.548 124.958 129.694 125.061 129.862C125.165 130.029 125.234 130.216 125.266 130.41C125.297 130.604 125.29 130.803 125.245 130.995C125.2 131.187 125.117 131.368 125.002 131.527C124.887 131.687 124.741 131.823 124.573 131.926C124.406 132.03 124.219 132.099 124.025 132.131C123.83 132.162 123.632 132.155 123.44 132.11C122.024 131.664 120.522 131.565 119.06 131.82C118.916 131.852 118.767 131.859 118.62 131.84Z" fill="#816A55"/>
<path d="M115.56 117.61L123.27 123.27L132.38 121L124.99 114.76L115.56 117.61Z" fill="#DDB5A9"/>
<path d="M142.91 120.43C142.658 119.812 142.273 119.256 141.782 118.804C141.291 118.351 140.707 118.012 140.07 117.81C139.026 117.578 137.934 117.739 137 118.26C135 119.2 130.09 118.7 128.19 116.34C126.84 114.66 127.14 112.14 127.44 110.79C127.483 110.598 127.487 110.399 127.453 110.205C127.419 110.01 127.347 109.825 127.241 109.659C127.135 109.492 126.997 109.349 126.836 109.236C126.675 109.123 126.492 109.043 126.3 109H126.17H125.99C125.599 108.93 125.196 109.018 124.87 109.245C124.543 109.472 124.321 109.819 124.25 110.21C124.01 111.57 123.31 114.01 121.42 115.04C118.76 116.48 114.01 115.04 112.51 113.37C111.857 112.547 110.925 111.992 109.89 111.81C109.225 111.75 108.555 111.838 107.928 112.066C107.301 112.294 106.731 112.657 106.26 113.13C105.959 113.395 105.776 113.769 105.75 114.17C105.725 114.57 105.86 114.964 106.125 115.265C106.39 115.566 106.764 115.749 107.165 115.775C107.565 115.8 107.959 115.665 108.26 115.4C108.583 115.037 109.035 114.815 109.52 114.78C109.85 114.904 110.135 115.123 110.34 115.41C110.91 116.007 111.567 116.513 112.29 116.91C113.261 118.78 114.601 120.433 116.23 121.77C118.203 123.333 120.519 124.407 122.987 124.902C125.456 125.397 128.006 125.301 130.43 124.62C132.463 124.011 134.349 122.989 135.97 121.62C136.807 121.536 137.624 121.316 138.39 120.97C138.672 120.798 139.001 120.721 139.33 120.75C139.62 120.82 139.96 121.21 140.25 121.75C140.337 121.927 140.459 122.084 140.607 122.214C140.755 122.344 140.928 122.443 141.114 122.506C141.301 122.569 141.498 122.595 141.695 122.582C141.891 122.569 142.083 122.517 142.26 122.43C142.437 122.343 142.594 122.221 142.724 122.073C142.854 121.925 142.953 121.752 143.016 121.566C143.079 121.379 143.105 121.182 143.092 120.985C143.079 120.789 143.027 120.597 142.94 120.42L142.91 120.43ZM118.15 119.08C117.79 118.79 117.4 118.78 117.08 118.46C119.044 118.79 121.062 118.497 122.85 117.62C123.573 117.135 124.217 116.541 124.76 115.86C125.003 116.697 125.37 117.493 125.85 118.22C127.16 119.72 128.91 120.77 130.85 121.22C130.43 121.4 130.06 121.22 129.62 121.38C127.663 121.932 125.602 122.011 123.608 121.611C121.614 121.211 119.743 120.344 118.15 119.08Z" fill="#816A55"/>
<path d="M130.461 110.276C130.822 108.489 129.148 106.644 126.722 106.155C124.297 105.666 122.038 106.718 121.678 108.505C121.318 110.291 122.992 112.136 125.418 112.625C127.843 113.114 130.101 112.062 130.461 110.276Z" fill="#816A55"/>
<path d="M87.52 95C86.7941 94.8528 86.1482 94.4423 85.7068 93.8475C85.2654 93.2527 85.0597 92.5156 85.1292 91.7782C85.1987 91.0407 85.5386 90.3551 86.0834 89.8532C86.6282 89.3514 87.3393 89.0688 88.08 89.06C90.2757 89.039 92.4536 88.6642 94.53 87.95C94.905 87.8146 95.3033 87.7554 95.7015 87.7758C96.0997 87.7961 96.4898 87.8956 96.8491 88.0685C97.2084 88.2414 97.5296 88.4841 97.794 88.7826C98.0583 89.081 98.2606 89.4292 98.3889 89.8067C98.5171 90.1842 98.5689 90.5835 98.541 90.9812C98.5132 91.3789 98.4064 91.7671 98.2268 92.1231C98.0472 92.4791 97.7985 92.7957 97.4951 93.0544C97.1917 93.3131 96.8399 93.5088 96.46 93.63C93.7801 94.545 90.9716 95.0277 88.14 95.06C87.9319 95.0603 87.7242 95.0402 87.52 95Z" fill="#816A55"/>
<path d="M97.84 102.67C97.5322 102.608 97.2515 102.451 97.0375 102.222C96.8235 101.992 96.687 101.701 96.6473 101.389C96.6075 101.078 96.6665 100.762 96.8159 100.486C96.9653 100.209 97.1976 99.9871 97.48 99.85C98.9624 99.1229 100.547 98.6271 102.18 98.38C102.578 98.319 102.984 98.4185 103.308 98.6567C103.632 98.8948 103.849 99.2521 103.91 99.65C103.971 100.048 103.871 100.454 103.633 100.778C103.395 101.102 103.038 101.319 102.64 101.38C101.304 101.588 100.007 101.992 98.79 102.58C98.4914 102.712 98.1581 102.743 97.84 102.67Z" fill="#816A55"/>
<path d="M167.12 111C166.914 110.961 166.713 110.901 166.52 110.82C163.922 109.692 161.519 108.16 159.4 106.28C158.805 105.75 158.444 105.004 158.398 104.208C158.352 103.412 158.625 102.63 159.155 102.035C159.685 101.44 160.431 101.079 161.227 101.033C162.023 100.987 162.805 101.26 163.4 101.79C165.043 103.246 166.906 104.434 168.92 105.31C169.594 105.608 170.135 106.144 170.44 106.815C170.745 107.486 170.791 108.246 170.571 108.95C170.351 109.654 169.88 110.251 169.247 110.63C168.614 111.008 167.864 111.14 167.14 111H167.12Z" fill="#816A55"/>
<path d="M153.48 113C153.242 112.956 153.019 112.853 152.83 112.701C152.642 112.55 152.494 112.353 152.4 112.13C151.703 110.547 150.72 109.106 149.5 107.88C149.343 107.745 149.216 107.579 149.127 107.393C149.037 107.207 148.987 107.004 148.979 106.797C148.972 106.591 149.007 106.385 149.083 106.193C149.159 106 149.274 105.826 149.42 105.68C149.567 105.534 149.742 105.42 149.935 105.345C150.127 105.27 150.333 105.236 150.54 105.244C150.746 105.253 150.949 105.304 151.135 105.394C151.321 105.485 151.486 105.613 151.62 105.77C153.101 107.255 154.294 109.001 155.14 110.92C155.251 111.171 155.292 111.447 155.256 111.72C155.221 111.992 155.112 112.249 154.941 112.464C154.77 112.678 154.543 112.842 154.286 112.936C154.028 113.031 153.749 113.053 153.48 113Z" fill="#816A55"/>
<path d="M139.86 91.83C139.486 91.7569 139.153 91.543 138.932 91.2323C138.711 90.9216 138.617 90.5378 138.67 90.16C138.893 88.6483 139.46 87.2078 140.327 85.9493C141.194 84.6908 142.337 83.6476 143.67 82.9C144.019 82.7077 144.43 82.6619 144.812 82.7725C145.195 82.8831 145.518 83.1412 145.71 83.49C145.902 83.8388 145.948 84.2496 145.837 84.6322C145.727 85.0148 145.469 85.3377 145.12 85.53C144.199 86.0444 143.408 86.7622 142.807 87.6287C142.205 88.4952 141.81 89.4875 141.65 90.53C141.595 90.9237 141.387 91.2797 141.07 91.5197C140.753 91.7597 140.354 91.8641 139.96 91.81L139.86 91.83Z" fill="#816A55"/>
<path d="M121.5 86.66C121.307 86.6218 121.124 86.5459 120.961 86.4366C120.798 86.3274 120.658 86.1869 120.549 86.0233C120.44 85.8598 120.365 85.6763 120.327 85.4835C120.29 85.2907 120.291 85.0924 120.33 84.9L121.24 80.35C121.274 80.152 121.346 79.9628 121.454 79.7935C121.562 79.6242 121.703 79.4783 121.869 79.3645C122.034 79.2507 122.221 79.1713 122.418 79.1309C122.614 79.0906 122.817 79.0902 123.014 79.1297C123.211 79.1692 123.398 79.2478 123.564 79.3609C123.73 79.4741 123.871 79.6193 123.98 79.7882C124.089 79.957 124.163 80.1459 124.197 80.3438C124.231 80.5417 124.225 80.7444 124.18 80.94L123.27 85.49C123.231 85.6831 123.154 85.8665 123.043 86.0298C122.933 86.1931 122.792 86.333 122.627 86.4417C122.463 86.5503 122.279 86.6255 122.085 86.663C121.892 86.7005 121.693 86.6995 121.5 86.66Z" fill="#816A55"/>
<path d="M116.56 83.14C116.201 83.0657 115.881 82.8635 115.661 82.5709C115.44 82.2784 115.333 81.9155 115.36 81.55C115.46 80.2338 115.369 78.9101 115.09 77.62C115.06 77.2566 115.164 76.8949 115.382 76.6024C115.599 76.3099 115.916 76.1067 116.272 76.0307C116.629 75.9548 117.001 76.0113 117.319 76.1896C117.637 76.368 117.879 76.6561 118 77C118.34 78.5725 118.451 80.1858 118.33 81.79C118.299 82.1864 118.113 82.5545 117.811 82.8133C117.509 83.072 117.116 83.2003 116.72 83.17L116.56 83.14Z" fill="#816A55"/>
<path d="M127.59 31.94C128.236 32.0695 128.9 32.0702 129.546 31.9421C130.192 31.814 130.806 31.5597 131.353 31.1936C131.901 30.8275 132.37 30.3569 132.735 29.8089C133.1 29.2608 133.353 28.6461 133.48 28L135.73 16.85C132.43 16.5 129.06 16.32 125.64 16.3L123.64 26.03C123.508 26.6777 123.505 27.3452 123.632 27.9939C123.76 28.6426 124.014 29.2596 124.382 29.8092C124.749 30.3588 125.222 30.8301 125.772 31.1959C126.323 31.5616 126.941 31.8145 127.59 31.94Z" fill="#B39175"/>
<path d="M145.91 36.12L149.3 19.31C147.71 18.9 146.13 18.53 144.56 18.22C142.99 17.91 141.2 17.59 139.49 17.34L136.1 34.15C135.835 35.4509 136.097 36.8038 136.83 37.9112C137.562 39.0186 138.704 39.7898 140.005 40.055C141.306 40.3202 142.659 40.0578 143.766 39.3254C144.874 38.5931 145.645 37.4509 145.91 36.15V36.12Z" fill="#B39175"/>
<path d="M154.66 37.14C155.96 37.4023 157.31 37.1377 158.415 36.4045C159.519 35.6713 160.287 34.5294 160.55 33.23L162.47 23.7C159.31 22.3667 156.137 21.24 152.95 20.32L150.74 31.25C150.61 31.8942 150.609 32.5576 150.736 33.2023C150.862 33.8471 151.115 34.4605 151.479 35.0075C151.843 35.5546 152.312 36.0245 152.857 36.3904C153.403 36.7563 154.016 37.011 154.66 37.14Z" fill="#B39175"/>
<path d="M18.55 104.32C18.5006 104.046 18.3838 103.788 18.21 103.57C18.0589 103.389 17.8731 103.24 17.6636 103.132C17.4541 103.024 17.2251 102.958 16.99 102.94L12.77 103.1C12.8229 103.686 13.0381 104.245 13.3915 104.715C13.7448 105.185 14.2222 105.547 14.77 105.76C15.4698 105.988 16.2265 105.97 16.9143 105.708C17.6021 105.446 18.1794 104.956 18.55 104.32Z" fill="#DFB99A"/>
<path d="M22.7 102.41C23.0343 101.231 23.812 100.228 24.87 99.61C27.07 98.4 29.87 99.37 29.87 100.02C29.91 100.46 28.76 101.19 22.7 102.41Z" fill="#DFB99A"/>
<path d="M49.39 133.12L23.92 143.2C22.92 143.61 21.81 143.48 21.49 142.92L4.23 112.19C3.69 111.19 4.35 109.99 5.71 109.45L39.57 96.05C40.93 95.51 42.26 95.96 42.57 97.05L51 131.25C51.12 131.88 50.42 132.72 49.39 133.12Z" fill="#6593B3"/>
<path d="M44.05 108L10.62 121.22C9.26999 121.76 8.06999 121.99 7.93999 121.74L2.29999 110.83C2.15999 110.55 3.19999 109.83 4.63999 109.3L40.25 95.21C41.68 94.64 42.92 94.42 43 94.72L46.36 106.54C46.43 106.81 45.4 107.46 44.05 108Z" fill="#6593B3"/>
<path d="M14.31 102.77C12.61 102.86 11.25 103.11 10.31 103.1C8.6 103.1 5.56 102.85 3.65 103.53C3.25573 103.668 2.89226 103.882 2.58 104.16C2.08139 104.624 1.7331 105.226 1.58 105.89C0.845288 109.195 0.509558 112.575 0.579998 115.96C0.784679 118.995 1.38303 121.99 2.36 124.87C2.41452 125.032 2.5066 125.178 2.62868 125.298C2.75076 125.417 2.89936 125.505 3.06231 125.556C3.22526 125.607 3.39792 125.618 3.56612 125.589C3.73433 125.561 3.8933 125.492 4.02999 125.39C6.48488 123.6 8.69381 121.496 10.6 119.13C11.8651 117.625 12.971 115.993 13.9 114.26C14.6241 113.005 15.179 111.66 15.55 110.26C16.42 106.66 15.55 103.64 16.89 102.99C16.9726 102.952 17.0601 102.925 17.15 102.91C16.207 102.807 15.2586 102.76 14.31 102.77Z" fill="#F5CE9B"/>
<path d="M42.75 100.27C40.75 98.38 39.22 96.88 36.96 96.27C35.8522 95.9763 34.7016 95.8782 33.56 95.98C31.0562 96.5622 28.6439 97.4841 26.39 98.72C25.86 99.01 25.39 99.31 24.87 99.61C25.1405 99.6383 25.4062 99.7022 25.66 99.8C28.79 101.06 27.8 106.92 30.56 111.98C32.29 115.14 34.23 116.98 39.83 119.67C43.3414 121.338 47.0616 122.525 50.89 123.2C51.042 123.226 51.1978 123.216 51.3452 123.171C51.4927 123.126 51.6279 123.048 51.7402 122.943C51.8525 122.837 51.9389 122.707 51.9926 122.563C52.0463 122.418 52.066 122.263 52.05 122.11C51.6265 118.247 50.6812 114.459 49.24 110.85C47.8 107.28 46.34 103.65 42.75 100.27Z" fill="#F0E8BC"/>
</svg>
