<svg width="204" height="243" viewBox="0 0 204 243" fill="none" xmlns="http://www.w3.org/2000/svg">
<path d="M76.77 120.91C72.77 119.72 55.29 112.6 35.64 128.91C15.99 145.22 19.75 163.76 20.19 167.91C23.19 196.13 60.49 223.2 112.87 221.99C123.7 170.7 104 129.05 76.77 120.91Z" fill="#BC9C86"/>
<path d="M122 188.84C121.755 189.045 121.487 189.22 121.2 189.36C119.576 190.156 117.814 190.631 116.01 190.76C113.727 190.919 111.44 190.528 109.34 189.62C108.381 189.189 107.63 188.398 107.251 187.417C106.871 186.437 106.892 185.346 107.31 184.382C107.728 183.417 108.509 182.656 109.484 182.262C110.459 181.869 111.55 181.875 112.52 182.28C113.338 182.638 114.224 182.814 115.117 182.795C116.01 182.776 116.888 182.563 117.69 182.17C118.569 181.743 119.574 181.652 120.515 181.915C121.456 182.178 122.268 182.776 122.799 183.596C123.329 184.417 123.54 185.404 123.393 186.37C123.246 187.336 122.751 188.214 122 188.84Z" fill="#B39175"/>
<path d="M104.24 157C103.548 157.593 102.674 157.931 101.764 157.96C100.853 157.988 99.9598 157.705 99.2321 157.157C98.5043 156.608 97.9855 155.828 97.7614 154.945C97.5374 154.062 97.6215 153.129 98 152.3C99.0744 149.827 100.667 147.614 102.67 145.81C104.379 144.282 106.356 143.082 108.5 142.27C109.492 141.893 110.593 141.926 111.56 142.361C112.528 142.796 113.283 143.598 113.66 144.59C114.037 145.582 114.004 146.683 113.569 147.651C113.134 148.618 112.332 149.373 111.34 149.75C110.006 150.253 108.788 151.02 107.757 152.004C106.726 152.989 105.904 154.171 105.34 155.48C105.104 156.069 104.726 156.591 104.24 157Z" fill="#B39175"/>
<path d="M66.56 126C65.7718 126.638 64.7707 126.953 63.7593 126.881C62.7478 126.809 61.8014 126.355 61.1115 125.612C60.4216 124.869 60.0398 123.892 60.0432 122.877C60.0467 121.863 60.4351 120.889 61.13 120.15C63.0285 118.171 64.1014 115.542 64.13 112.8C64.1446 111.739 64.58 110.728 65.3404 109.988C66.1009 109.248 67.1241 108.84 68.185 108.855C69.2458 108.87 70.2575 109.305 70.9973 110.065C71.7371 110.826 72.1446 111.849 72.13 112.91C72.0689 117.685 70.1875 122.256 66.87 125.69C66.7762 125.802 66.6725 125.906 66.56 126Z" fill="#B39175"/>
<path d="M32.14 142.61C31.5965 143.064 30.9396 143.361 30.24 143.47C27.4488 143.931 24.5837 143.562 22 142.41C19.3163 141.209 17.0578 139.226 15.52 136.72C14.9851 135.816 14.827 134.738 15.08 133.719C15.3329 132.7 15.9766 131.821 16.872 131.272C17.7673 130.723 18.8426 130.549 19.8657 130.786C20.8887 131.023 21.7775 131.653 22.34 132.54C23.0253 133.641 24.0222 134.514 25.2043 135.049C26.3865 135.583 27.7005 135.754 28.98 135.54C29.8397 135.411 30.7181 135.565 31.4824 135.979C32.2466 136.393 32.855 137.046 33.2156 137.837C33.5761 138.628 33.669 139.515 33.4804 140.363C33.2917 141.212 32.8317 141.976 32.17 142.54L32.14 142.61Z" fill="#B39175"/>
<path d="M49.27 216.35C48.5579 216.943 47.7873 217.463 46.97 217.9C46.5075 218.214 45.9843 218.427 45.4343 218.526C44.8842 218.626 44.3195 218.608 43.7765 218.476C43.2335 218.343 42.7243 218.099 42.2817 217.757C41.8391 217.416 41.473 216.986 41.2068 216.494C40.9407 216.003 40.7806 215.461 40.7367 214.904C40.6928 214.347 40.7662 213.786 40.9521 213.259C41.138 212.732 41.4323 212.25 41.8161 211.844C42.1998 211.437 42.6644 211.116 43.18 210.9C44.1154 210.394 44.8964 209.644 45.44 208.73C46.1036 207.542 46.3434 206.163 46.12 204.82C46.0327 204.302 46.0482 203.772 46.1658 203.26C46.2834 202.748 46.5007 202.264 46.8052 201.836C47.1098 201.408 47.4957 201.044 47.9409 200.765C48.3861 200.486 48.8819 200.297 49.4 200.21C49.9181 200.123 50.4482 200.138 50.9603 200.256C51.4723 200.373 51.9562 200.591 52.3843 200.895C52.8124 201.2 53.1763 201.586 53.4552 202.031C53.7342 202.476 53.9227 202.972 54.01 203.49C54.547 206.671 53.9639 209.941 52.36 212.74C51.5493 214.115 50.5034 215.337 49.27 216.35Z" fill="#B39175"/>
<path d="M93.07 229.2C92.3351 229.816 91.4036 230.147 90.445 230.133C89.4864 230.12 88.5645 229.763 87.8473 229.127C87.13 228.49 86.6651 227.618 86.5371 226.668C86.4091 225.718 86.6266 224.753 87.15 223.95C87.3389 223.652 87.4299 223.302 87.41 222.95C87.3669 222.574 87.2018 222.223 86.94 221.95C86.5533 221.582 86.2441 221.14 86.0308 220.651C85.8175 220.161 85.7043 219.634 85.698 219.1C85.6916 218.566 85.7922 218.037 85.9938 217.542C86.1954 217.048 86.4939 216.599 86.8718 216.222C87.2496 215.844 87.6992 215.547 88.1939 215.346C88.6886 215.145 89.2186 215.046 89.7524 215.053C90.2863 215.06 90.8132 215.174 91.3023 215.389C91.7914 215.603 92.2326 215.913 92.6 216.3C94.1489 217.855 95.1194 219.893 95.3504 222.076C95.5815 224.259 95.0591 226.455 93.87 228.3C93.6485 228.637 93.379 228.941 93.07 229.2Z" fill="#B39175"/>
<path d="M25 169.66C24.8535 169.787 24.6962 169.901 24.53 170C22.7784 171.077 20.7439 171.603 18.69 171.51C16.3965 171.382 14.2096 170.5 12.47 169C11.7825 168.278 11.3896 167.325 11.3683 166.328C11.3469 165.331 11.6987 164.362 12.3545 163.611C13.0104 162.86 13.9232 162.381 14.9139 162.268C15.9046 162.155 16.9018 162.416 17.71 163C18.0989 163.336 18.5869 163.536 19.1 163.57C19.5539 163.585 20.0023 163.467 20.39 163.23C21.2428 162.793 22.2242 162.677 23.1555 162.903C24.0868 163.128 24.9062 163.681 25.4645 164.459C26.0228 165.238 26.2831 166.191 26.1978 167.146C26.1126 168.1 25.6875 168.992 25 169.66Z" fill="#B39175"/>
<path d="M81.23 243H90.23C91.1077 242.988 91.9572 242.688 92.6475 242.146C93.3378 241.604 93.8306 240.85 94.05 240L97.2 228C97.2 228 77.4 217.73 69.42 215.74C70.01 221.28 75.3 234.79 77.6 240.47C77.889 241.202 78.3876 241.833 79.0333 242.283C79.679 242.733 80.4431 242.982 81.23 243Z" fill="#CBAC92"/>
<path d="M149 238.57L140.28 240.78C139.422 240.984 138.52 240.899 137.715 240.537C136.91 240.175 136.247 239.558 135.83 238.78L129.83 227.92C131.28 224.272 133.431 220.942 136.16 218.12C140.908 213.336 147.074 210.215 153.74 209.22C154.52 214.73 152.74 229.13 151.88 235.22C151.782 236 151.457 236.733 150.944 237.329C150.432 237.924 149.756 238.356 149 238.57Z" fill="#CBAC92"/>
<path d="M168 142.32C170.94 141 184.14 135.32 190.77 140.43C193.72 142.69 193.16 148.05 191.53 151.35C188.93 156.58 182.46 157.78 173.18 159.35C164.84 160.76 153 159.49 149.65 159.05C144.19 158.35 158.63 146.56 168 142.32Z" fill="#CBAC92"/>
<path d="M48.32 166C45.78 168 34.65 177 36.05 185.27C36.68 188.93 41.68 190.94 45.36 191.02C51.2 191.15 55.28 186.02 61 178.52C66.13 171.79 70.53 160.72 71.68 157.52C73.57 152.31 56.43 159.61 48.32 166Z" fill="#CBAC92"/>
<path d="M138.68 143.74C132.23 140.13 120.77 137.74 111.34 137.74C101.91 137.74 90.45 140.09 83.98 143.74C70.6 151.19 61.98 168.04 62.65 193.74C63.42 223.23 83.75 228.57 111.2 228.57C138.65 228.57 158.96 223.23 159.75 193.74C160.42 168 152.06 151.19 138.68 143.74Z" fill="#CBAC92"/>
<path d="M126.19 227.81C137.83 223.26 144.12 210.01 141.19 197.19L140.83 195.61C137.95 182.94 126.49 174.35 114.77 174.35H107.71C95.99 174.35 84.53 182.94 81.65 195.61L81.29 197.19C78.29 210.01 84.6 223.26 96.29 227.81C101.271 228.35 106.28 228.6 111.29 228.56C116.267 228.597 121.242 228.347 126.19 227.81Z" fill="#F8EFDC"/>
<path d="M59.5 48.42C68.9385 48.42 76.59 40.7685 76.59 31.33C76.59 21.8914 68.9385 14.24 59.5 14.24C50.0615 14.24 42.41 21.8914 42.41 31.33C42.41 40.7685 50.0615 48.42 59.5 48.42Z" fill="#CBAC92"/>
<path d="M59.5 40.67C64.6583 40.67 68.84 36.4883 68.84 31.33C68.84 26.1717 64.6583 21.99 59.5 21.99C54.3417 21.99 50.16 26.1717 50.16 31.33C50.16 36.4883 54.3417 40.67 59.5 40.67Z" fill="#F8EFDC"/>
<path d="M144.5 38.08C153.939 38.08 161.59 30.4285 161.59 20.99C161.59 11.5514 153.939 3.89999 144.5 3.89999C135.061 3.89999 127.41 11.5514 127.41 20.99C127.41 30.4285 135.061 38.08 144.5 38.08Z" fill="#CBAC92"/>
<path d="M144.5 30.33C149.658 30.33 153.84 26.1483 153.84 20.99C153.84 15.8317 149.658 11.65 144.5 11.65C139.342 11.65 135.16 15.8317 135.16 20.99C135.16 26.1483 139.342 30.33 144.5 30.33Z" fill="#F8EFDC"/>
<path d="M92.24 18.32C129.84 13.75 179.95 31.49 189.33 83.32C197.78 129.98 163.79 159.97 110.27 166.48C56.75 172.99 16.55 152 13.56 104.71C10.23 52.14 54.63 22.9 92.24 18.32Z" fill="#CBAC92"/>
<path d="M101.939 113.514C104.395 113.215 106.207 111.506 105.987 109.697C105.767 107.888 103.597 106.664 101.141 106.963C98.6851 107.262 96.8726 108.971 97.0928 110.78C97.313 112.589 99.4826 113.813 101.939 113.514Z" fill="#816A55"/>
<path d="M94.74 121.52C90.74 122.01 86.58 120.64 84.74 116.94C84.6459 116.761 84.5886 116.566 84.5715 116.364C84.5544 116.163 84.5778 115.961 84.6403 115.769C84.7028 115.577 84.8032 115.399 84.9356 115.247C85.0679 115.094 85.2295 114.97 85.4108 114.881C85.592 114.792 85.7893 114.74 85.9909 114.729C86.1925 114.717 86.3943 114.747 86.5845 114.815C86.7746 114.883 86.9491 114.988 87.0978 115.125C87.2465 115.261 87.3662 115.426 87.45 115.61C88.91 118.61 93.34 119.2 96.61 117.95C98.02 117.4 101.19 115.73 100.07 111.95L99.59 110.25L103.3 109.8L103.22 111.57C103.05 115.52 106.53 116.39 108.03 116.57C111.51 116.99 115.68 115.42 116.37 112.1C116.408 111.907 116.484 111.724 116.593 111.561C116.703 111.398 116.843 111.258 117.007 111.149C117.17 111.04 117.354 110.965 117.546 110.927C117.739 110.89 117.938 110.891 118.13 110.93C118.324 110.969 118.508 111.047 118.673 111.158C118.837 111.268 118.977 111.411 119.086 111.576C119.195 111.742 119.27 111.927 119.306 112.122C119.343 112.316 119.341 112.516 119.3 112.71C118.3 117.76 112.55 120.16 107.66 119.54C105.656 119.344 103.776 118.481 102.32 117.09C101.242 118.789 99.6261 120.077 97.73 120.75C96.768 121.126 95.764 121.385 94.74 121.52Z" fill="#816A55"/>
<path d="M65.17 109.99C68.4727 109.99 71.15 107.313 71.15 104.01C71.15 100.707 68.4727 98.03 65.17 98.03C61.8673 98.03 59.19 100.707 59.19 104.01C59.19 107.313 61.8673 109.99 65.17 109.99Z" fill="#816A55"/>
<path d="M138.83 101.03C142.133 101.03 144.81 98.3527 144.81 95.05C144.81 91.7473 142.133 89.07 138.83 89.07C135.527 89.07 132.85 91.7473 132.85 95.05C132.85 98.3527 135.527 101.03 138.83 101.03Z" fill="#816A55"/>
<path d="M28 57.88H27.92C24.5108 58.2789 21.0556 57.8607 17.84 56.66C16.8897 56.2592 16.1309 55.5068 15.7221 54.5599C15.3133 53.6129 15.286 52.5447 15.646 51.5781C16.0061 50.6116 16.7255 49.8215 17.6542 49.3728C18.5829 48.9241 19.649 48.8514 20.63 49.17C22.6757 49.9295 24.8737 50.1879 27.0398 49.9234C29.2059 49.6589 31.2771 48.8794 33.08 47.65C33.514 47.3539 34.0021 47.1461 34.5164 47.0386C35.0307 46.9311 35.5612 46.926 36.0775 47.0235C36.5938 47.121 37.0858 47.3192 37.5255 47.6069C37.9652 47.8946 38.3439 48.266 38.64 48.7C38.9361 49.134 39.1439 49.6221 39.2514 50.1364C39.3589 50.6507 39.364 51.1812 39.2665 51.6975C39.169 52.2138 38.9708 52.7058 38.6831 53.1455C38.3955 53.5852 38.024 53.9639 37.59 54.26C34.7283 56.2152 31.4399 57.4565 28 57.88Z" fill="#B39175"/>
<path d="M9.34999 103.41C7.62622 103.618 5.88377 103.618 4.15999 103.41C3.63865 103.344 3.13534 103.177 2.6788 102.916C2.22226 102.656 1.82145 102.309 1.49923 101.894C1.17701 101.479 0.9397 101.004 0.800851 100.497C0.662003 99.9905 0.624331 99.4614 0.689992 98.94C0.755653 98.4187 0.92336 97.9153 1.18353 97.4588C1.44371 97.0023 1.79126 96.6015 2.20633 96.2792C2.62141 95.957 3.09589 95.7197 3.60268 95.5809C4.10947 95.442 4.63865 95.4043 5.15999 95.47C8.0379 95.8241 10.9533 95.2422 13.4748 93.8103C15.9962 92.3785 17.9896 90.1729 19.16 87.52C19.6183 86.5981 20.4144 85.8884 21.3827 85.5385C22.3509 85.1887 23.4168 85.2257 24.3585 85.6418C25.3002 86.0579 26.0452 86.8211 26.4385 87.7725C26.8318 88.724 26.8431 89.7904 26.47 90.75C24.6028 94.9511 21.4519 98.4521 17.47 100.75C14.9694 102.173 12.2078 103.078 9.34999 103.41Z" fill="#B39175"/>
<path d="M26.16 149.4C25.7525 149.465 25.3374 149.465 24.93 149.4C24.4138 149.302 23.9221 149.103 23.4829 148.814C23.0438 148.526 22.6657 148.153 22.3704 147.719C22.0751 147.284 21.8683 146.796 21.7618 146.281C21.6554 145.767 21.6514 145.236 21.75 144.72C22.6093 140.145 25.2078 136.08 29 133.38C29.866 132.826 30.9119 132.627 31.9208 132.824C32.9296 133.021 33.824 133.599 34.4182 134.438C35.0125 135.276 35.2611 136.311 35.1125 137.329C34.9639 138.346 34.4294 139.266 33.62 139.9C31.528 141.4 30.0952 143.65 29.62 146.18C29.4601 147.015 29.0386 147.777 28.4164 148.356C27.7943 148.935 27.004 149.3 26.16 149.4Z" fill="#B39175"/>
<path d="M51.41 167.38C50.5529 167.478 49.687 167.297 48.9415 166.862C48.196 166.428 47.6109 165.764 47.2735 164.97C46.9361 164.176 46.8645 163.294 47.0693 162.456C47.2741 161.618 47.7444 160.869 48.41 160.32C49.0708 159.786 49.5923 159.1 49.93 158.32C50.202 157.637 50.3313 156.905 50.31 156.17C50.2729 155.109 50.6587 154.077 51.3826 153.301C52.1065 152.524 53.1091 152.067 54.17 152.03C55.2309 151.993 56.263 152.379 57.0394 153.103C57.8158 153.826 58.2729 154.829 58.31 155.89C58.3672 157.757 58.0263 159.615 57.31 161.34C56.4757 163.362 55.157 165.148 53.47 166.54C52.8766 167.009 52.1623 167.3 51.41 167.38Z" fill="#B39175"/>
<path d="M176.21 146.56C175.564 146.639 174.908 146.559 174.3 146.327C173.692 146.096 173.15 145.719 172.72 145.23L168 139.87C167.353 139.067 167.042 138.046 167.13 137.019C167.218 135.992 167.699 135.039 168.473 134.358C169.246 133.677 170.253 133.321 171.283 133.364C172.313 133.408 173.286 133.847 174 134.59L178.71 139.95C179.408 140.747 179.761 141.789 179.692 142.847C179.622 143.904 179.136 144.891 178.34 145.59C177.746 146.123 177.002 146.462 176.21 146.56Z" fill="#B39175"/>
<path d="M199.85 117.88H199.52C193.673 118.119 187.897 116.525 183 113.32C182.133 112.728 181.534 111.82 181.331 110.79C181.128 109.761 181.338 108.693 181.915 107.816C182.492 106.94 183.391 106.325 184.417 106.105C185.443 105.885 186.514 106.077 187.4 106.64C190.883 108.929 194.995 110.072 199.16 109.91C200.221 109.824 201.273 110.163 202.084 110.852C202.895 111.541 203.399 112.524 203.485 113.585C203.571 114.646 203.232 115.698 202.543 116.509C201.854 117.32 200.871 117.824 199.81 117.91L199.85 117.88Z" fill="#B39175"/>
<path d="M194.82 81.85C194.113 81.9374 193.395 81.8342 192.741 81.5511C192.087 81.2681 191.52 80.8154 191.1 80.24C188.396 76.5232 184.464 73.8839 180 72.79C179.477 72.6788 178.981 72.4637 178.542 72.1574C178.103 71.8512 177.73 71.46 177.445 71.0069C177.16 70.5539 176.969 70.0484 176.883 69.5202C176.797 68.992 176.818 68.4519 176.944 67.9319C177.071 67.4119 177.3 66.9226 177.619 66.4929C177.938 66.0632 178.34 65.7019 178.802 65.4304C179.263 65.1589 179.774 64.9826 180.304 64.9121C180.835 64.8417 181.374 64.8783 181.89 65.02C188.206 66.5532 193.775 70.273 197.61 75.52C197.92 75.9442 198.143 76.4252 198.267 76.9357C198.391 77.4462 198.414 77.9761 198.333 78.4952C198.252 79.0143 198.07 79.5124 197.797 79.9611C197.523 80.4097 197.164 80.8001 196.74 81.11C196.174 81.5171 195.513 81.7719 194.82 81.85Z" fill="#B39175"/>
<path d="M173.92 46.47C167.533 47.2389 161.102 45.4405 156.04 41.47C155.594 41.1568 155.217 40.756 154.932 40.292C154.647 39.828 154.46 39.3107 154.381 38.7717C154.303 38.2327 154.336 37.6835 154.478 37.1576C154.619 36.6317 154.867 36.1402 155.205 35.7134C155.543 35.2865 155.965 34.9332 156.445 34.6751C156.924 34.417 157.451 34.2596 157.994 34.2125C158.537 34.1653 159.083 34.2295 159.6 34.401C160.117 34.5726 160.593 34.8478 161 35.21C163.128 36.8685 165.634 37.9732 168.294 38.4252C170.953 38.8772 173.684 38.6624 176.24 37.8C177.237 37.4925 178.315 37.5867 179.243 38.0625C180.172 38.5383 180.877 39.3581 181.21 40.3469C181.543 41.3358 181.476 42.4155 181.024 43.3557C180.572 44.296 179.77 45.0224 178.79 45.38C177.21 45.9139 175.577 46.2793 173.92 46.47Z" fill="#B39175"/>
<path d="M156.77 79.82C156.429 79.8636 156.083 79.7878 155.792 79.6055C155.5 79.4233 155.28 79.1457 155.17 78.82C153.729 74.5712 152.002 70.4251 150 66.41C147.851 62.1234 145.398 57.9962 142.66 54.06C142.457 53.7335 142.388 53.3416 142.466 52.9652C142.543 52.5888 142.763 52.2567 143.078 52.0374C143.394 51.818 143.782 51.7281 144.162 51.7863C144.541 51.8445 144.884 52.0463 145.12 52.35C150.576 60.2112 154.911 68.7936 158 77.85C158.064 78.0364 158.091 78.2337 158.078 78.4305C158.066 78.6273 158.014 78.8196 157.927 78.9964C157.839 79.1731 157.718 79.3307 157.569 79.4601C157.42 79.5895 157.247 79.688 157.06 79.75C156.967 79.7865 156.869 79.8101 156.77 79.82Z" fill="#BC9C86"/>
<path d="M163.5 81.06C163.16 81.1011 162.817 81.0242 162.528 80.8421C162.238 80.66 162.02 80.3839 161.91 80.06C160.446 75.8142 158.705 71.6687 156.7 67.65C154.546 63.3644 152.089 59.2374 149.35 55.3C149.147 54.9735 149.078 54.5816 149.156 54.2052C149.233 53.8288 149.453 53.4967 149.768 53.2773C150.084 53.058 150.472 52.9681 150.852 53.0263C151.231 53.0845 151.574 53.2863 151.81 53.59C157.288 61.4453 161.64 70.0285 164.74 79.09C164.804 79.2758 164.832 79.4725 164.82 79.6688C164.808 79.8651 164.757 80.0571 164.671 80.2337C164.584 80.4103 164.464 80.5681 164.316 80.6979C164.168 80.8277 163.996 80.927 163.81 80.99C163.711 81.0285 163.606 81.0521 163.5 81.06Z" fill="#BC9C86"/>
<path d="M167.35 77.84C167.157 77.865 166.962 77.8513 166.775 77.7998C166.588 77.7483 166.413 77.66 166.26 77.54C160.848 73.3745 154.167 71.1993 147.34 71.38C146.942 71.3906 146.556 71.2428 146.268 70.969C145.979 70.6952 145.811 70.3178 145.8 69.92C145.789 69.5222 145.937 69.1365 146.211 68.8477C146.485 68.5588 146.862 68.3906 147.26 68.38C154.775 68.1853 162.129 70.579 168.09 75.16C168.404 75.405 168.609 75.7642 168.66 76.1594C168.71 76.5547 168.602 76.9539 168.36 77.27C168.238 77.4277 168.086 77.5594 167.913 77.6573C167.739 77.7552 167.548 77.8173 167.35 77.84Z" fill="#BC9C86"/>
<path d="M162.84 67.81C162.628 67.8338 162.413 67.8122 162.209 67.7467C162.006 67.6812 161.819 67.5732 161.66 67.43C156.569 62.8806 150.07 60.2187 143.25 59.89C143.053 59.8808 142.86 59.8329 142.681 59.749C142.503 59.6652 142.343 59.5469 142.21 59.4012C142.077 59.2554 141.974 59.0849 141.907 58.8994C141.84 58.7138 141.811 58.517 141.82 58.32C141.829 58.123 141.877 57.9298 141.961 57.7513C142.045 57.5728 142.163 57.4126 142.309 57.2798C142.455 57.1471 142.625 57.0443 142.811 56.9774C142.996 56.9105 143.193 56.8808 143.39 56.89C150.902 57.2369 158.062 60.1691 163.66 65.19C163.807 65.3212 163.927 65.4802 164.013 65.6578C164.099 65.8354 164.149 66.0282 164.16 66.2251C164.171 66.422 164.143 66.6192 164.078 66.8054C164.013 66.9915 163.911 67.163 163.78 67.31C163.536 67.5831 163.203 67.7604 162.84 67.81Z" fill="#BC9C86"/>
<path d="M57.31 147.79C57.0916 147.852 56.862 147.863 56.6385 147.823C56.4151 147.783 56.2036 147.693 56.02 147.56C50.5589 143.555 45.685 138.806 41.54 133.45C41.3257 133.134 41.24 132.748 41.3004 132.371C41.3607 131.994 41.5625 131.654 41.8648 131.421C42.167 131.188 42.5468 131.078 42.9268 131.115C43.3068 131.152 43.6585 131.333 43.91 131.62C45.8351 134.087 47.9196 136.425 50.15 138.62C52.537 140.968 55.0903 143.14 57.79 145.12C57.9491 145.237 58.0836 145.384 58.1859 145.552C58.2881 145.721 58.356 145.909 58.3858 146.104C58.4155 146.299 58.4064 146.498 58.3591 146.689C58.3118 146.881 58.2271 147.061 58.11 147.22C57.919 147.499 57.6356 147.7 57.31 147.79Z" fill="#BC9C86"/>
<path d="M52.51 149.13C52.2911 149.193 52.0606 149.204 51.8367 149.162C51.6128 149.12 51.4017 149.027 51.22 148.89C48.3934 146.826 45.7197 144.56 43.22 142.11C40.891 139.816 38.7162 137.371 36.71 134.79C36.5773 134.634 36.4781 134.452 36.4184 134.256C36.3587 134.06 36.3398 133.854 36.3629 133.65C36.386 133.446 36.4506 133.25 36.5527 133.072C36.6548 132.894 36.7922 132.739 36.9565 132.617C37.1208 132.494 37.3085 132.407 37.508 132.359C37.7074 132.312 37.9144 132.306 38.1162 132.342C38.318 132.378 38.5103 132.455 38.6812 132.568C38.8521 132.681 38.9981 132.828 39.11 133C43.0924 138.113 47.7673 142.646 53 146.47C53.225 146.638 53.3988 146.865 53.5019 147.126C53.6049 147.388 53.633 147.672 53.5832 147.949C53.5333 148.225 53.4074 148.482 53.2196 148.691C53.0318 148.899 52.7895 149.051 52.52 149.13H52.51Z" fill="#BC9C86"/>
<path d="M45.82 138.94L44.59 139.25C41.9639 139.828 39.2582 139.953 36.59 139.62C36.393 139.596 36.2027 139.533 36.03 139.435C35.8573 139.337 35.7056 139.206 35.5835 139.05C35.4614 138.893 35.3713 138.714 35.3184 138.523C35.2654 138.332 35.2507 138.132 35.275 137.935C35.2993 137.738 35.3621 137.548 35.46 137.375C35.5578 137.202 35.6887 137.051 35.8451 136.929C36.0016 136.806 36.1806 136.716 36.3719 136.663C36.5632 136.61 36.763 136.596 36.96 136.62C41.6202 137.205 46.3393 136.163 50.32 133.67C50.4867 133.554 50.6752 133.474 50.8741 133.433C51.0729 133.392 51.278 133.392 51.4768 133.433C51.6756 133.474 51.8641 133.554 52.0309 133.67C52.1976 133.786 52.3391 133.934 52.4468 134.106C52.5545 134.278 52.6262 134.471 52.6574 134.671C52.6887 134.872 52.679 135.076 52.6288 135.273C52.5786 135.47 52.489 135.654 52.3655 135.815C52.2419 135.976 52.087 136.111 51.91 136.21C50.023 137.41 47.9715 138.33 45.82 138.94Z" fill="#BC9C86"/>
<path d="M50.18 146.11H50.1C47.5223 146.811 44.844 147.068 42.18 146.87C41.7822 146.841 41.4122 146.655 41.1515 146.353C40.8909 146.051 40.7608 145.658 40.79 145.26C40.8192 144.862 41.0052 144.492 41.3071 144.232C41.609 143.971 42.0022 143.841 42.4 143.87C44.7247 144.043 47.0618 143.816 49.31 143.2C51.5612 142.592 53.6896 141.597 55.6 140.26C55.9265 140.057 56.3184 139.988 56.6948 140.066C57.0711 140.143 57.4033 140.363 57.6226 140.678C57.842 140.994 57.9319 141.382 57.8737 141.762C57.8155 142.141 57.6137 142.485 57.31 142.72C55.1424 144.246 52.7314 145.392 50.18 146.11Z" fill="#BC9C86"/>
<path d="M89.52 36.68C90.835 36.5199 92.0328 35.8445 92.8503 34.802C93.6677 33.7596 94.0381 32.4353 93.88 31.12L92.51 19.82C89.2173 20.542 85.9631 21.4298 82.76 22.48L84 32.32C84.1604 33.6273 84.8301 34.8185 85.8636 35.6348C86.8972 36.4512 88.2111 36.8268 89.52 36.68Z" fill="#B39175"/>
<path d="M102.31 24.35C101.909 24.4146 101.501 24.4146 101.1 24.35C97.6467 23.7196 94.4702 22.0441 92 19.55C86.2 13.69 87.05 5.84 87.28 4.33C87.3507 3.80416 87.5252 3.29762 87.7936 2.8399C88.0619 2.38218 88.4186 1.98241 88.843 1.66389C89.2673 1.34536 89.7507 1.11443 90.2652 0.984549C90.7796 0.854669 91.3147 0.828434 91.8394 0.907367C92.3641 0.9863 92.8678 1.16882 93.3213 1.44432C93.7747 1.71981 94.1688 2.08276 94.4806 2.51203C94.7925 2.94131 95.0158 3.42833 95.1375 3.94474C95.2593 4.46115 95.2772 4.99664 95.19 5.52C95.11 6.04 94.51 10.71 97.69 13.92C99.0243 15.2417 100.73 16.1244 102.58 16.45C103.517 16.6261 104.361 17.1312 104.958 17.8743C105.556 18.6174 105.868 19.5495 105.839 20.5027C105.811 21.4558 105.442 22.3673 104.8 23.0727C104.159 23.7781 103.286 24.2311 102.34 24.35H102.31Z" fill="#B39175"/>
<path d="M116.85 33.11C117.502 33.0308 118.132 32.8238 118.704 32.501C119.276 32.1781 119.779 31.7457 120.184 31.2284C120.589 30.7112 120.888 30.1192 121.064 29.4863C121.24 28.8534 121.29 28.1921 121.21 27.54L120 17.89C116.639 17.651 113.268 17.5809 109.9 17.68L111.25 28.75C111.329 29.405 111.537 30.0378 111.862 30.612C112.187 31.1863 112.622 31.6906 113.142 32.0959C113.663 32.5012 114.258 32.7994 114.895 32.9735C115.531 33.1475 116.196 33.1939 116.85 33.11Z" fill="#B39175"/>
<path d="M45.54 116.35C43.7035 112.937 41.4089 109.791 38.72 107C38.6134 106.891 38.4833 106.808 38.3396 106.757C38.1959 106.706 38.0424 106.688 37.8909 106.705C37.7394 106.723 37.5939 106.775 37.4654 106.857C37.337 106.939 37.2291 107.05 37.15 107.18C35.2012 110.544 33.7177 114.157 32.74 117.92C31.74 121.65 30.8 125.45 31.74 130.3C32.2741 133.379 33.468 136.306 35.24 138.88C37.16 141.5 39.48 142.66 42.71 146.55C44.93 142.01 46.91 140.33 48.16 137.33C49.2617 134.409 49.7254 131.285 49.52 128.17C49.21 123.2 47.36 119.74 45.54 116.35Z" fill="#98B55A"/>
<path d="M45 153.45C44.7586 153.558 44.4841 153.566 44.2367 153.473C43.9893 153.379 43.7891 153.191 43.68 152.95C42.5145 150.39 41.7877 147.651 41.53 144.85C41.5049 144.586 41.5856 144.323 41.7544 144.119C41.9232 143.914 42.1662 143.785 42.43 143.76C42.6939 143.735 42.9569 143.816 43.1613 143.984C43.3657 144.153 43.4947 144.396 43.52 144.66C43.6618 146.128 43.9362 147.581 44.34 149C44.6537 150.069 45.0413 151.115 45.5 152.13C45.6082 152.371 45.6164 152.646 45.5226 152.893C45.4289 153.141 45.241 153.341 45 153.45Z" fill="#98B55A"/>
<path d="M17.64 138.22C14.63 138.906 11.7246 139.989 9 141.44C8.86209 141.512 8.7428 141.615 8.65158 141.74C8.56036 141.866 8.49972 142.012 8.47448 142.165C8.44925 142.318 8.4601 142.475 8.50619 142.624C8.55228 142.772 8.63233 142.908 8.73999 143.02C10.9229 145.201 13.3842 147.084 16.06 148.62C18.79 150.17 21.56 151.76 25.57 152.09C28.1057 152.335 30.6644 152.028 33.07 151.19C35.54 150.24 36.95 148.66 40.71 146.96C37.61 144.24 36.71 142.32 34.62 140.7C32.5583 139.216 30.2017 138.193 27.71 137.7C23.81 136.81 20.7 137.52 17.64 138.22Z" fill="#ADC667"/>
<path d="M78.3 176.2L55.68 191.65C54.77 192.28 53.68 192.39 53.25 191.91L29.63 165.75C28.89 164.93 29.26 163.58 30.48 162.75L60.54 142.21C61.75 141.38 63.14 141.53 63.64 142.52L79.42 174C79.72 174.61 79.21 175.58 78.3 176.2Z" fill="#6593B3"/>
<path d="M67.54 152.87L37.86 173.15C36.66 173.97 35.54 174.46 35.36 174.25L27.45 164.85C27.25 164.61 28.12 163.71 29.39 162.85L61 141.24C62.28 140.37 63.43 139.88 63.58 140.16L69.46 150.94C69.6 151.19 68.74 152.05 67.54 152.87Z" fill="#6593B3"/>
</svg>
