<svg width="260" height="244" viewBox="0 0 260 244" fill="none" xmlns="http://www.w3.org/2000/svg">
<path d="M256.65 91.24C256.24 90.11 246.99 67.72 223.51 60.62C195.56 52.17 169.15 69.93 158.57 90.5C156.552 94.326 154.831 98.301 153.42 102.39C149.96 112.818 148.386 123.779 148.77 134.76C149.18 151.43 153.23 157 151.77 171.16C150.77 181.16 147.99 185.27 146.04 187.4C145.04 188.47 143.51 190.01 140.95 192.84C138.99 195.015 137.201 197.339 135.6 199.79C140.016 200.005 144.442 199.771 148.81 199.09C152.732 198.408 156.592 197.404 160.35 196.09C167.927 193.787 174.827 189.667 180.45 184.09C190.14 174.16 192.58 161.52 192.99 152.94C200.974 156.544 209.796 157.882 218.49 156.81C240.8 154.13 257.49 136.81 259.41 116.18C260.475 107.765 259.529 99.2182 256.65 91.24Z" fill="#BC9C86"/>
<path d="M55.37 179.88C55.53 181.78 59.07 191.54 64.6 192.31C67.06 192.65 71.91 192.74 73.6 189.61C76.34 184.61 76.02 179.8 72.48 175.24C69.3 171.14 71.9 163.39 68.94 160.24C64.1 155 54.86 173.8 55.37 179.88Z" fill="#CBAC92"/>
<path d="M97.36 242.61L105.99 243.22C106.847 243.259 107.693 243.006 108.388 242.503C109.084 242 109.588 241.276 109.82 240.45L113.49 228.55C114.514 225.319 114.393 221.834 113.148 218.682C111.903 215.53 109.61 212.903 106.654 211.244C103.699 209.584 100.262 208.995 96.9226 209.573C93.5831 210.152 90.545 211.863 88.32 214.42C88.59 220.03 92.13 233.93 94.02 239.81C94.2464 240.55 94.6824 241.208 95.2752 241.705C95.868 242.202 96.5922 242.516 97.36 242.61Z" fill="#CBAC92"/>
<path d="M120.1 124.76C112.84 124.14 101.78 126.76 93.53 130.64C85.28 134.52 76.36 141.38 72.32 147.31C63.96 159.54 63.77 178.31 75.46 201.36C88.89 227.84 108.91 224.59 132.96 213.58C157.18 202.5 172.89 189.32 160.62 161.88C149.94 138 135.16 126 120.1 124.76Z" fill="#CBAC92"/>
<path d="M107 221.37C112.807 220.841 118.51 219.494 123.94 217.37C126.28 216.37 128.54 215.44 130.44 214.63C135.733 212.38 140.874 209.788 145.83 206.87C140.835 201.467 136.694 195.333 133.55 188.68C131.11 183.38 129.48 179.68 125.37 175.76C122.522 172.897 119.012 170.781 115.15 169.6C110.357 168.241 105.24 168.595 100.68 170.6C98.51 171.48 90.68 174.8 86.86 183.1C85.3905 186.319 84.6855 189.834 84.8 193.37C84.9574 196.277 85.6348 199.132 86.8 201.8C86.8 201.8 90.5 212.6 98.49 218.26C100.606 219.485 102.805 220.561 105.07 221.48L107 221.37Z" fill="#F8EFDC"/>
<path d="M178.63 193L175.16 201C174.792 201.798 174.172 202.453 173.395 202.863C172.617 203.274 171.727 203.417 170.86 203.27L157.86 202.38C155.152 201.072 152.846 199.061 151.182 196.556C149.517 194.052 148.557 191.146 148.401 188.143C148.244 185.14 148.898 182.15 150.293 179.486C151.688 176.822 153.773 174.582 156.33 173C161.33 175.67 173.18 184.48 177.64 188.73C178.222 189.255 178.629 189.946 178.806 190.709C178.983 191.473 178.922 192.272 178.63 193Z" fill="#CBAC92"/>
<path d="M35.5 11.84C44.42 10.6 52.61 17.21 53.76 26.6C54.91 35.99 48.61 44.6 39.68 45.78C30.75 46.96 22.63 40.35 21.48 31C20.33 21.65 26.6 13.07 35.5 11.84Z" fill="#CBAC92"/>
<path d="M36.45 19.53C37.6385 19.3915 38.8426 19.4913 39.9921 19.8237C41.1415 20.156 42.2131 20.7142 43.1442 21.4656C44.0753 22.2171 44.8473 23.1466 45.4149 24.1999C45.9825 25.2532 46.3344 26.4091 46.45 27.6C46.7961 30.0059 46.1844 32.4516 44.7464 34.4113C43.3084 36.371 41.159 37.6883 38.76 38.08C37.5708 38.2185 36.3659 38.1184 35.2159 37.7854C34.0658 37.4524 32.9938 36.8933 32.0625 36.1409C31.1313 35.3884 30.3595 34.4577 29.7924 33.4032C29.2254 32.3488 28.8744 31.1918 28.76 30C28.4141 27.5953 29.0261 25.1508 30.4643 23.1927C31.9025 21.2346 34.0519 19.9194 36.45 19.53Z" fill="#F8EFDC"/>
<path d="M118.25 0.379985C127.37 -0.880015 135.74 5.78998 136.93 15.29C138.12 24.79 131.65 33.49 122.51 34.71C113.37 35.93 105.08 29.24 103.91 19.78C102.74 10.32 109.14 1.63998 118.25 0.379985Z" fill="#CBAC92"/>
<path d="M119.21 8.15997C120.417 8.01414 121.64 8.11019 122.81 8.44251C123.979 8.77484 125.07 9.33677 126.019 10.0955C126.969 10.8542 127.758 11.7946 128.34 12.8615C128.922 13.9285 129.286 15.1008 129.41 16.31C129.755 18.7562 129.124 21.2399 127.653 23.225C126.183 25.2101 123.991 26.5372 121.55 26.92C120.345 27.0629 119.123 26.9648 117.956 26.6311C116.79 26.2975 115.701 25.7351 114.753 24.9766C113.806 24.2181 113.019 23.2788 112.438 22.2132C111.857 21.1476 111.494 19.9772 111.37 18.77C111.025 16.3267 111.653 13.8456 113.119 11.861C114.586 9.87651 116.773 8.54738 119.21 8.15997Z" fill="#F8EFDC"/>
<path d="M75.42 15.63C111.78 10.63 160.98 28.2 170.62 81.01C179.32 128.66 146.02 159.01 93.9 165.01C42.52 171.01 4.22001 149.63 1.07001 102.45C-2.43999 50.09 39.42 20.57 75.42 15.63Z" fill="#CBAC92"/>
<path d="M70.1 123.38C70.4225 124.83 71.1111 126.172 72.1 127.28C73.0245 128.222 74.1552 128.936 75.4029 129.367C76.6507 129.797 77.9813 129.932 79.29 129.76C80.467 129.829 81.6425 129.603 82.7097 129.101C83.7768 128.6 84.7016 127.84 85.4 126.89C86.4112 125.328 86.8233 123.452 86.56 121.61L77.8 117.74L70.1 123.38Z" fill="#DDB5A9"/>
<path d="M70.69 123.38C68.6998 123.649 66.6766 123.252 64.935 122.252C63.1935 121.252 61.8312 119.704 61.06 117.85C60.8739 117.462 60.832 117.021 60.942 116.605C61.0519 116.189 61.3065 115.825 61.66 115.58C61.8407 115.493 62.038 115.447 62.2383 115.443C62.4387 115.439 62.6376 115.478 62.8215 115.558C63.0055 115.637 63.1701 115.756 63.3044 115.904C63.4387 116.053 63.5395 116.229 63.6 116.42C65.07 119.93 69.33 120.69 72.43 119.42C73.7441 118.945 74.8176 117.971 75.4169 116.708C76.0162 115.446 76.0928 113.998 75.63 112.68L75.12 110.68L78.7 110.27V112.27C78.5889 113.68 79.026 115.078 79.9201 116.173C80.8143 117.269 82.0967 117.977 83.5 118.15C86.9 118.75 90.96 117.07 91.56 113.27C91.5728 113.068 91.629 112.871 91.7248 112.693C91.8205 112.514 91.9535 112.358 92.1148 112.236C92.2761 112.114 92.4619 112.027 92.6595 111.983C92.8571 111.939 93.0619 111.938 93.26 111.98C93.6741 112.127 94.0218 112.418 94.24 112.8C94.4583 113.181 94.5328 113.628 94.45 114.06C93.53 119.85 87.99 122.41 83.19 121.54C81.1448 121.188 79.2893 120.125 77.95 118.54C77.0331 120.357 75.4871 121.778 73.6 122.54C72.6753 122.958 71.6952 123.241 70.69 123.38Z" fill="#816A55"/>
<path d="M76.7 108.8C79.07 108.52 81.19 109.8 81.42 111.67C81.65 113.54 79.91 115.26 77.53 115.52C75.15 115.78 73.06 114.52 72.83 112.65C72.6 110.78 74.33 109.07 76.7 108.8Z" fill="#816A55"/>
<path d="M79.8 130.82H79.39C76.6577 131.298 73.8461 130.706 71.5389 129.166C69.2317 127.626 67.6063 125.257 67 122.55C66.9639 122.371 66.9642 122.186 67.0008 122.006C67.0374 121.827 67.1095 121.657 67.213 121.506C67.3165 121.355 67.4492 121.226 67.6032 121.127C67.7573 121.028 67.9296 120.961 68.11 120.93C68.4754 120.855 68.8559 120.924 69.1711 121.124C69.4864 121.323 69.7118 121.637 69.8 122C70.2541 124.022 71.4753 125.789 73.2063 126.929C74.9373 128.069 77.043 128.492 79.08 128.11C80.1137 128.1 81.135 127.884 82.0843 127.474C83.0335 127.065 83.8916 126.47 84.6085 125.726C85.3254 124.981 85.8867 124.101 86.2595 123.136C86.6323 122.172 86.8093 121.143 86.78 120.11C86.802 119.741 86.9621 119.394 87.2284 119.138C87.4948 118.882 87.8478 118.735 88.2173 118.728C88.5868 118.72 88.9456 118.852 89.2222 119.097C89.4988 119.342 89.673 119.682 89.71 120.05C89.8078 122.788 88.8223 125.454 86.9671 127.47C85.112 129.487 82.5367 130.69 79.8 130.82Z" fill="#816A55"/>
<path d="M40.17 99.38C41.352 99.1359 42.5802 99.2539 43.6941 99.7187C44.808 100.183 45.7558 100.973 46.4138 101.985C47.0718 102.997 47.4092 104.184 47.3822 105.391C47.3551 106.597 46.9648 107.768 46.2621 108.749C45.5594 109.73 44.5772 110.477 43.4435 110.891C42.3099 111.306 41.0777 111.369 39.9078 111.072C38.7379 110.775 37.6848 110.132 36.8859 109.227C36.0871 108.322 35.5797 107.198 35.43 106C35.195 104.496 35.56 102.959 36.4464 101.721C37.3329 100.483 38.67 99.6422 40.17 99.38Z" fill="#816A55"/>
<path d="M112.19 90.44C113.425 90.2291 114.696 90.3933 115.837 90.9113C116.978 91.4293 117.938 92.2775 118.592 93.3462C119.247 94.415 119.566 95.6554 119.508 96.9073C119.451 98.1593 119.02 99.3653 118.271 100.37C117.521 101.374 116.488 102.131 115.304 102.543C114.121 102.954 112.841 103.002 111.63 102.679C110.419 102.356 109.332 101.678 108.511 100.731C107.689 99.7851 107.17 98.6142 107.02 97.37C106.904 96.5754 106.946 95.7658 107.143 94.9873C107.34 94.2089 107.688 93.477 108.169 92.8333C108.649 92.1897 109.251 91.6471 109.941 91.2364C110.631 90.8257 111.395 90.5551 112.19 90.44Z" fill="#816A55"/>
<path d="M18.43 86.49C17.7772 86.467 17.1361 86.3105 16.5462 86.0302C15.9562 85.7499 15.43 85.3516 15 84.86C12.93 82.38 13.85 77.49 17.21 73.23C17.3168 73.0817 17.454 72.9581 17.6126 72.8673C17.7711 72.7765 17.9472 72.7208 18.1291 72.7037C18.311 72.6867 18.4944 72.7087 18.667 72.7685C18.8397 72.8282 18.9975 72.9242 19.13 73.05C19.4058 73.323 19.5714 73.6879 19.5954 74.0752C19.6194 74.4625 19.5 74.845 19.26 75.15C16.55 78.58 16.26 81.87 17.02 82.82C17.3439 83.1688 17.7772 83.3966 18.2481 83.4657C18.7191 83.5348 19.1996 83.441 19.61 83.2C19.9928 82.8712 20.2782 82.4439 20.4351 81.9643C20.592 81.4848 20.6145 80.9714 20.5 80.48C20.4261 80.1018 20.4986 79.7097 20.7029 79.383C20.9071 79.0563 21.2277 78.8193 21.6 78.72C21.7825 78.6858 21.9701 78.6894 22.1512 78.7305C22.3324 78.7716 22.5031 78.8493 22.653 78.9589C22.8029 79.0685 22.9288 79.2077 23.0229 79.3678C23.1169 79.528 23.1772 79.7056 23.2 79.89C23.4104 80.9702 23.316 82.0876 22.9275 83.1172C22.5389 84.1468 21.8716 85.048 21 85.72C20.2483 86.2461 19.3471 86.5161 18.43 86.49Z" fill="#EEE8E6"/>
<path d="M134.63 135.64C135.359 135.576 136.067 135.366 136.713 135.022C137.359 134.679 137.93 134.209 138.39 133.64C140.52 130.82 139.01 125.7 134.81 121.5C134.669 121.353 134.5 121.236 134.313 121.156C134.125 121.076 133.924 121.035 133.72 121.035C133.516 121.035 133.315 121.076 133.127 121.156C132.94 121.236 132.771 121.353 132.63 121.5C132.348 121.808 132.196 122.213 132.205 122.63C132.215 123.047 132.385 123.445 132.68 123.74C136.05 127.12 136.74 130.57 135.92 131.66C135.572 132.062 135.104 132.341 134.585 132.454C134.066 132.568 133.524 132.51 133.04 132.29C132.59 131.987 132.234 131.565 132.013 131.069C131.792 130.574 131.715 130.027 131.79 129.49C131.83 129.075 131.707 128.661 131.448 128.334C131.189 128.008 130.813 127.795 130.4 127.74C130.2 127.715 129.997 127.731 129.804 127.787C129.61 127.844 129.43 127.939 129.275 128.067C129.119 128.195 128.992 128.354 128.9 128.533C128.808 128.713 128.753 128.909 128.74 129.11C128.602 130.286 128.806 131.476 129.325 132.54C129.844 133.603 130.658 134.495 131.67 135.11C132.582 135.577 133.613 135.762 134.63 135.64Z" fill="#EEE8E6"/>
<path d="M87 30.81C90.08 30.65 91.44 28.69 91.58 25.49C91.67 23.21 92.04 18.32 92.39 14.95C88.9526 14.7598 85.5074 14.7598 82.07 14.95C81.5573 18.6272 81.4534 22.3499 81.76 26.05C82.11 29.35 83.92 31 87 30.81Z" fill="#B39175"/>
<path d="M59.88 34.53C62.93 34.16 64.36 32.19 64.42 28.89C64.48 25.59 65.13 21.13 65.42 17.61C62.2716 18.4219 59.1675 19.3966 56.12 20.53C55.8 23.53 55.03 26.96 55.34 29.74C55.68 32.79 56.83 34.89 59.88 34.53Z" fill="#B39175"/>
<path d="M78.54 15.27C77.4867 15.37 76.4467 15.49 75.42 15.63C73.28 15.93 71.1234 16.3133 68.95 16.78C67.7761 22.3022 67.2891 27.9483 67.5 33.59C68.2 37.05 69.87 38.59 72.96 38.11C76.05 37.63 77.57 35.73 77.32 32.34C77 27.42 78.05 20.58 78.54 15.27Z" fill="#B39175"/>
<path d="M77 154.74C76.9351 154.469 76.8046 154.219 76.62 154.01C76.457 153.839 76.2616 153.703 76.0453 153.608C75.829 153.514 75.596 153.464 75.36 153.46L71.16 153.9C71.2506 154.479 71.4992 155.021 71.8786 155.468C72.258 155.914 72.7534 156.247 73.31 156.43C74.0256 156.615 74.7829 156.547 75.4548 156.24C76.1267 155.932 76.6723 155.402 77 154.74Z" fill="#DFB99A"/>
<path d="M79.87 154C80.4413 152.917 81.4086 152.097 82.57 151.71C84.97 150.98 87.47 152.5 87.38 153.15C87.32 153.6 86 154.08 79.87 154Z" fill="#DFB99A"/>
<path d="M99.63 189.58L72.63 194.19C71.54 194.37 70.5 194.02 70.31 193.4L59.78 159.78C59.44 158.72 60.34 157.65 61.78 157.4L97.67 151.28C99.12 151.04 100.32 151.75 100.36 152.86L101.56 188.08C101.59 188.73 100.72 189.4 99.63 189.58Z" fill="#6593B3"/>
<path d="M99.6 163.89L64.16 169.89C62.73 170.14 61.51 170.12 61.43 169.89L58.17 158.05C58.08 157.75 59.25 157.29 60.77 157.05L98.52 150.62C100.04 150.36 101.3 150.4 101.32 150.71L102.16 162.97C102.18 163.23 101 163.65 99.6 163.89Z" fill="#6593B3"/>
<path d="M126.4 171.77C125.4 173.36 112.4 186.48 105.78 183.54C102.84 182.24 99.4701 179.16 99.8601 175.12C100.48 168.71 106.68 164.45 111.69 160.23C116.18 156.43 126.69 145.57 131.29 144.35C138.89 142.36 129.56 166.67 126.4 171.77Z" fill="#CBAC92"/>
<path d="M114 184C110.35 185.76 107.32 186.05 105.14 184.84C101.46 183.18 97.97 179.49 98.41 174.94C99.01 168.69 104.26 164.38 108.89 160.58C109.53 160.07 110.15 159.58 110.76 159.04C111.92 158.04 113.48 156.61 115.29 154.92C118.691 151.641 122.259 148.541 125.98 145.63C126.301 145.418 126.691 145.337 127.069 145.403C127.448 145.47 127.786 145.68 128.015 145.989C128.243 146.299 128.344 146.684 128.297 147.066C128.249 147.447 128.057 147.796 127.76 148.04C124.131 150.884 120.653 153.915 117.34 157.12C115.5 158.83 113.91 160.31 112.7 161.33L110.8 162.9C106.41 166.5 101.88 170.22 101.4 175.23C101.06 178.76 104.4 181.23 106.4 182.13L106.53 182.2C110.2 184.31 119.87 177.53 124.23 171.99C124.349 171.828 124.499 171.692 124.672 171.59C124.845 171.488 125.036 171.421 125.235 171.394C125.434 171.367 125.636 171.38 125.83 171.432C126.024 171.485 126.205 171.576 126.363 171.7C126.521 171.823 126.652 171.978 126.75 172.153C126.847 172.329 126.908 172.522 126.929 172.722C126.95 172.921 126.931 173.123 126.873 173.315C126.815 173.507 126.718 173.686 126.59 173.84C123.783 177.213 120.463 180.122 116.75 182.46C115.864 183.026 114.946 183.54 114 184Z" fill="#BC9C86"/>
<path d="M72.67 153.47C70.98 153.68 69.67 154.02 68.67 154.08C66.95 154.18 63.91 154.14 62.05 154.95C61.6748 155.117 61.3353 155.355 61.05 155.65C60.5972 156.155 60.2987 156.78 60.19 157.45C59.6648 160.797 59.544 164.194 59.83 167.57C60.2396 170.583 61.0362 173.531 62.2 176.34C62.2673 176.497 62.3705 176.636 62.5015 176.746C62.6324 176.856 62.7874 176.934 62.9538 176.973C63.1203 177.011 63.2936 177.011 63.4597 176.97C63.6258 176.93 63.78 176.851 63.91 176.74C66.2371 174.788 68.298 172.538 70.04 170.05C71.211 168.464 72.2163 166.761 73.04 164.97C73.6775 163.681 74.1383 162.312 74.41 160.9C75.04 157.25 73.94 154.3 75.27 153.56C75.3488 153.516 75.4328 153.483 75.52 153.46C74.5707 153.406 73.6189 153.409 72.67 153.47Z" fill="#F5CE9B"/>
<path d="M99.92 156.07C98.34 153.8 97.17 152.07 95.08 150.96C94.0586 150.443 92.9559 150.104 91.82 149.96C89.2472 150.012 86.6935 150.416 84.23 151.16C83.65 151.33 83.1 151.52 82.56 151.72C82.8203 151.797 83.0667 151.916 83.29 152.07C86.1 153.95 83.92 159.48 85.58 165C86.58 168.44 88.13 170.65 93.06 174.43C96.1451 176.796 99.54 178.727 103.15 180.17C103.293 180.226 103.447 180.249 103.6 180.236C103.753 180.223 103.901 180.175 104.033 180.096C104.164 180.017 104.276 179.908 104.358 179.779C104.441 179.649 104.493 179.503 104.51 179.35C104.895 175.482 104.754 171.58 104.09 167.75C103.42 164 102.74 160.12 99.92 156.07Z" fill="#F0E8BC"/>
</svg>
